<svg viewBox="0 0 60 60" xmlns="http://www.w3.org/2000/svg">
  <path d="M 4.9999237,0 C 2.2429237,0 0,2.2429237 0,4.9999237 V 50.999908 c 0,2.414 1.720939,4.433987 3.999939,4.898987 v 1.101151 C 3.999939,58.654046 5.3458932,60 6.9998932,60 h 6.0001378 c 1.654,0 2.999954,-1.345954 2.999954,-2.999954 v -0.999985 h 28.00003 v 0.999985 c 0,1.654 1.345954,2.999954 2.999954,2.999954 h 6.000138 c 1.654,0 2.999954,-1.345954 2.999954,-2.999954 V 55.898895 C 58.279061,55.433895 60,53.414908 60,50.999908 V 4.9999237 C 60,2.2429237 57.757076,0 55.000076,0 Z m 0,1.9999695 H 55.000076 c 1.654,0 2.999955,1.3459542 2.999955,2.9999542 V 50.999908 c 0,1.654 -1.345955,3.000184 -2.999955,3.000184 H 4.9999237 c -1.654,0 -2.9999542,-1.346184 -2.9999542,-3.000184 V 4.9999237 c 0,-1.654 1.3459542,-2.9999542 2.9999542,-2.9999542 z m 5.0001523,4.9999237 c -1.6539997,0 -3.0001828,1.3461831 -3.0001828,3.0001828 v 36.999893 c 0,1.103 0.8971984,1.99997 2.0001984,1.99997 H 50.999908 c 1.103,0 2.000199,-0.89697 2.000199,-1.99997 V 10.000076 c 0,-1.6539997 -1.346183,-3.0001828 -3.000183,-3.0001828 z m 0,2.0001984 h 39.999848 c 0.552,0 0.999984,0.4479847 0.999984,0.9999844 v 2.999955 H 36.722031 c -0.347,-0.595 -0.985107,-0.999985 -1.722107,-0.999985 h -9.999848 c -0.737,0 -1.375107,0.404985 -1.722107,0.999985 H 9.0000916 v -2.999955 c 0,-0.5519997 0.4479847,-0.9999844 0.9999844,-0.9999844 z m 15,4.9999234 h 9.999848 v 6.999893 c 0,0.552 -0.447985,0.999985 -0.999985,0.999985 h -7.999878 c -0.552,0 -0.999985,-0.447985 -0.999985,-0.999985 z M 9.0000916,15 H 23.000107 v 1.999969 H 9.0000916 Z m 27.9998014,0 h 14.000015 v 1.999969 H 36.999893 Z M 9.0000916,18.999939 H 23.000107 v 1.999969 c 0,1.654 1.345954,3.000184 2.999954,3.000184 h 0.379028 l 1.953965,3.959884 c 0.316,0.642 0.954946,1.040039 1.666946,1.040039 0.712,0 1.350946,-0.398039 1.666946,-1.040039 l 1.953965,-3.959884 h 0.379028 c 1.654,0 2.999954,-1.346184 2.999954,-3.000184 v -1.999969 h 14.000015 v 28.00003 H 43.000031 V 45 c 0,-1.654 -1.345955,-2.999954 -2.999955,-2.999954 h -4.000168 v -5.497055 c 0,-0.788 -0.419886,-1.528883 -1.095886,-1.935883 l -3.743133,-2.246017 c -0.717,-0.43 -1.604778,-0.43 -2.321778,0 l -3.743133,2.246017 c -0.676,0.406 -1.095886,1.146883 -1.095886,1.935883 v 5.497055 h -4.000168 c -1.654,0 -2.999955,1.345954 -2.999955,2.999954 v 1.999969 H 9.0000916 Z m 19.6078494,5.000153 h 2.782974 0.0011 L 30,26.819 Z M 30,34.000854 c 0.046,0 0.09207,0.01175 0.132065,0.03525 l 3.742904,2.245789 c 0.077,0.046 0.12497,0.1311 0.12497,0.2211 v 5.497055 h -7.999878 v -5.497055 c 0,-0.09 0.04797,-0.1751 0.12497,-0.2211 l 3.742904,-2.245789 c 0.04,-0.0235 0.08607,-0.03525 0.132065,-0.03525 z m -10.000076,9.999161 h 20.000152 c 0.552,0 0.999985,0.447985 0.999985,0.999985 v 1.999969 H 18.999939 V 45 c 0,-0.552 0.447985,-0.999985 0.999985,-0.999985 z M 5.9999084,56.000061 h 8.0001066 v 0.999985 c 0,0.552 -0.447984,0.999985 -0.999984,0.999985 H 6.9998932 c -0.552,0 -0.9999848,-0.447985 -0.9999848,-0.999985 z m 40.0000766,0 h 8.000107 v 0.999985 c 0,0.552 -0.447985,0.999985 -0.999985,0.999985 h -6.000138 c -0.552,0 -0.999984,-0.447985 -0.999984,-0.999985 z " />
</svg>