<svg viewBox="0 0 512 512" xmlns="http://www.w3.org/2000/svg">
  <path d="m44.431 186.83c-1.801 0-3.26-1.46-3.26-3.26v-8.609c0-1.801 1.46-3.26 3.26-3.26s3.26 1.46 3.26 3.26v8.609c0 1.801-1.459 3.26-3.26 3.26z m44.431 233.703c-1.801 0-3.26-1.46-3.26-3.26v-30.414c0-1.801 1.46-3.26 3.26-3.26s3.26 1.46 3.26 3.26v30.414c0 1.801-1.459 3.26-3.26 3.26z m508.74 167.344c-1.801 0-3.26 1.46-3.26 3.26v9.104c0 1.801 1.46 3.26 3.26 3.26s3.26-1.46 3.26-3.26v-9.104c0-1.8-1.459-3.26-3.26-3.26z m508.74 193.794c-1.801 0-3.26 1.46-3.26 3.26v49.823c0 1.801 1.46 3.26 3.26 3.26s3.26-1.46 3.26-3.26v-49.823c0-1.8-1.459-3.26-3.26-3.26z m6.927 114.255c-1.682-.62-3.563.242-4.188 1.931-1.27 3.442-2.178 7.037-2.699 10.683-.305 2.151 1.154 3.45 2.766 3.68 1.633.234 3.423-.627 3.696-2.806.456-3.175 1.248-6.303 2.355-9.3.624-1.69-.24-3.564-1.93-4.188z m54.029 86.794h14.294c1.801 0 3.26-1.46 3.26-3.26s-1.46-3.26-3.26-3.26h-14.294c-16.217 0-31.485 7.159-41.891 19.641-1.154 1.383-.966 3.439.417 4.591 1.388 1.159 3.446.961 4.591-.417 9.164-10.991 22.606-17.295 36.883-17.295z m457.413 101.129h-403.393c-18.593 0-33.72 15.126-33.72 33.72v127.924c0 30.181 24.553 54.736 54.735 54.736h19.184l-7.505 19.443c-2.148 5.561 1.97 11.531 7.908 11.531h322.188c5.939 0 10.055-5.969 7.91-11.531l-7.505-19.443h19.182c30.181 0 54.735-24.555 54.735-54.736v-127.926c0-18.593-15.125-33.718-33.719-33.718zm-357.061 209.858c-4.772-5.367-7.891-11.742-9.276-18.969-.529-2.759 1.628-5.349 4.468-5.349h320.347c2.831 0 4.997 2.578 4.468 5.348-1.388 7.229-4.507 13.604-9.277 18.97zm316.459 30.973h-322.189c-1.379 0-2.319-1.382-1.825-2.66l8.36-21.656h309.12l8.36 21.656c.494 1.28-.451 2.66-1.826 2.66zm19.586-30.973h-17.041c3.66-5.263 6.152-11.199 7.408-17.74 0-.001 0-.001 0-.001 1.302-6.782-3.941-13.098-10.872-13.098h-320.349c-6.927 0-12.172 6.306-10.872 13.098 1.253 6.541 3.746 12.478 7.408 17.741h-17.044c-25.49 0-46.423-19.882-48.104-44.955h457.569c-1.68 25.073-22.614 44.955-48.103 44.955zm48.214-51.476h-457.789v-124.664c0-14.998 12.2-27.198 27.198-27.198h403.393c14.997 0 27.198 12.2 27.198 27.198z m303.233 159.76h-95.03c-9.104 0-16.511 7.407-16.511 16.511v14.619c0 9.104 7.407 16.511 16.511 16.511h95.03c9.104 0 16.51-7.407 16.51-16.511v-14.619c-.002-9.104-7.407-16.511-16.51-16.511zm9.987 31.131c0 5.508-4.48 9.99-9.988 9.99h-95.03c-5.508 0-9.99-4.48-9.99-9.99v-14.619c0-5.508 4.48-9.99 9.99-9.99h95.03c5.507 0 9.988 4.48 9.988 9.99z m140.748 381.912-64.201 43.86c-1.488 1.017-1.868 3.045-.854 4.532 1.018 1.489 3.048 1.867 4.532.854l64.201-43.86c1.488-1.017 1.868-3.045.854-4.532-1.017-1.489-3.044-1.869-4.532-.854z m185.391 382.453-38.521 43.86c-1.189 1.353-1.056 3.412.298 4.6 1.362 1.197 3.419 1.047 4.6-.298l38.521-43.86c1.189-1.353 1.056-3.412-.298-4.6-1.353-1.185-3.412-1.054-4.6.298z m234.006 381.475c-1.728-.502-3.539.485-4.046 2.214l-12.839 43.86c-.505 1.728.485 3.539 2.214 4.046 1.74.507 3.542-.494 4.046-2.214l12.839-43.86c.506-1.729-.485-3.54-2.214-4.046z m281.47 383.69c-.504-1.731-2.325-2.714-4.046-2.214-1.727.505-2.718 2.317-2.212 4.046l12.841 43.86c.499 1.71 2.295 2.724 4.046 2.214 1.727-.505 2.718-2.317 2.212-4.046z m326.044 382.453c-1.185-1.353-3.245-1.49-4.603-.298-1.353 1.189-1.485 3.248-.298 4.6l38.521 43.86c1.189 1.356 3.252 1.485 4.603.298 1.353-1.189 1.485-3.248.298-4.6z m370.683 381.912c-1.488-1.015-3.515-.637-4.532.854-1.017 1.487-.634 3.515.854 4.532l64.203 43.86c1.483 1.013 3.514.636 4.532-.854 1.017-1.487.634-3.515-.854-4.532z " />
</svg>