<svg viewBox="0 0 512 512" xmlns="http://www.w3.org/2000/svg">
  <path d="m 54.029297,80.273438 c -16.217,0 -31.484625,7.158624 -41.890625,19.640624 -1.154,1.382998 -0.966984,3.439798 0.416016,4.591798 1.387999,1.159 3.446796,0.96198 4.591796,-0.41602 9.164,-10.990996 22.605813,-17.294918 36.882813,-17.294918 h 14.292969 c 1.801,0 3.259765,-1.461719 3.259765,-3.261719 0,-1.8 -1.459765,-3.259765 -3.259765,-3.259765 z m -0.0098,20.855472 c -18.593,0 -33.71875,15.1267 -33.71875,33.7207 v 127.92383 c 0,30.181 24.552375,54.73633 54.734375,54.73633 H 94.21875 l -7.503906,19.4414 c -2.148,5.561 1.96825,11.53125 7.90625,11.53125 H 416.81055 c 5.939,0 10.05515,-5.96925 7.91015,-11.53125 l -7.50586,-19.4414 h 19.18164 c 30.181,0 54.73633,-24.55533 54.73633,-54.73633 V 134.84766 c 0,-18.593 -15.1267,-33.71875 -33.7207,-33.71875 z m 0,6.51953 H 457.41211 c 14.997,0 27.19922,12.20122 27.19922,27.19922 V 259.51172 H 26.822266 V 134.84766 c 0,-14.998 12.199265,-27.19922 27.197265,-27.19922 z m -48.3691404,6.41015 c -1.2679219,0.0601 -2.4433593,0.86021 -2.9121094,2.12696 -1.27,3.442 -2.1782187,7.03759 -2.6992187,10.68359 -0.305,2.151 1.1555781,3.44969 2.7675781,3.67969 1.633,0.234 3.4223125,-0.62764 3.6953125,-2.80664 0.456,-3.175 1.2484688,-6.30183 2.3554688,-9.29883 0.624,-1.69 -0.2396875,-3.5635 -1.9296875,-4.1875 -0.4205,-0.155 -0.8547031,-0.21728 -1.2773438,-0.19727 z M 208.20312,159.75977 c -9.104,0 -16.51171,7.40771 -16.51171,16.51171 v 14.61914 c 0,9.104 7.40772,16.50977 16.51171,16.50977 h 95.0293 c 9.104,0 16.50977,-7.40577 16.50977,-16.50977 v -14.61914 c -0.002,-9.104 -7.40677,-16.51171 -16.50977,-16.51171 z m -0.002,6.52148 h 95.03125 c 5.507,0 9.98828,4.48023 9.98828,9.99023 v 14.61914 c 0,5.50801 -4.48028,9.99024 -9.98828,9.99024 h -95.03125 c -5.508,0 -9.98828,-4.48024 -9.98828,-9.99024 v -14.61914 c 0,-5.508 4.47828,-9.99023 9.98828,-9.99023 z m 300.53906,1.0625 c -1.801,0 -3.25976,1.45977 -3.25976,3.25977 v 9.10351 c 0,1.801 1.45976,3.26172 3.25976,3.26172 1.8,0 3.25977,-1.46172 3.25977,-3.26172 v -9.10351 c 0,-1.8 -1.45877,-3.25977 -3.25977,-3.25977 z m -464.308589,4.35742 c -1.8,0 -3.259766,1.45877 -3.259766,3.25977 v 8.60937 c 0,1.8 1.458766,3.25977 3.259766,3.25977 1.801,0 3.259765,-1.45877 3.259765,-3.25977 v -8.60937 c 0,-1.8 -1.459765,-3.25977 -3.259765,-3.25977 z m 464.308589,22.09375 c -1.801,0 -3.25976,1.45977 -3.25976,3.25977 v 49.82226 c 0,1.801 1.45976,3.25977 3.25976,3.25977 1.8,0 3.25977,-1.45977 3.25977,-3.25977 v -49.82226 c 0,-1.8 -1.45877,-3.25977 -3.25977,-3.25977 z m -464.308589,2.97461 c -1.8,0 -3.259766,1.45877 -3.259766,3.25977 v 30.41406 c 0,1.8 1.458766,3.25976 3.259766,3.25976 1.801,0 3.259765,-1.45876 3.259765,-3.25976 V 200.0293 c 0,-1.8 -1.459765,-3.25977 -3.259765,-3.25977 z m -17.5,69.26172 H 484.5 c -1.68,25.073 -22.61452,44.95508 -48.10352,44.95508 h -17.04101 c 3.66,-5.263 6.1522,-11.19924 7.4082,-17.74024 1.302,-6.782 -3.94009,-13.09765 -10.87109,-13.09765 H 95.542969 c -6.927,0 -12.171094,6.30565 -10.871094,13.09765 1.253,6.541 3.74425,12.47724 7.40625,17.74024 H 75.035156 c -25.49,0 -46.422515,-19.88208 -48.103515,-44.95508 z m 68.613281,20.63867 H 415.89062 c 2.83101,0 4.99775,2.57766 4.46876,5.34766 -1.388,7.229 -4.50735,13.60275 -9.27735,18.96875 H 100.35156 c -4.771998,-5.367 -7.890388,-11.74175 -9.275388,-18.96875 -0.529,-2.759 1.62875,-5.34766 4.46875,-5.34766 z m 5.611328,30.97461 h 309.12109 l 8.35938,21.65625 c 0.494,1.28 -0.45117,2.66016 -1.82617,2.66016 H 94.621094 c -1.379,0 -2.318219,-1.38216 -1.824219,-2.66016 z m 41.41211,63.69922 c -0.62791,0.003 -1.26231,0.18773 -1.82031,0.56836 l -64.201175,43.85937 c -1.488,1.017 -1.867516,3.04621 -0.853516,4.53321 1.018,1.489 3.04725,1.86651 4.53125,0.85351 l 64.201171,-43.85937 c 1.488,-1.017 1.86752,-3.0462 0.85352,-4.53321 -0.63563,-0.93062 -1.66443,-1.42748 -2.71094,-1.42187 z m 226.29492,0 c -1.04651,-0.006 -2.07726,0.49 -2.71289,1.42187 -1.017,1.48701 -0.63253,3.51621 0.85547,4.53321 l 64.20117,43.85937 c 1.483,1.013 3.5152,0.63649 4.5332,-0.85351 1.017,-1.487 0.63449,-3.51621 -0.85351,-4.53321 l -64.20313,-43.85937 c -0.558,-0.38063 -1.1924,-0.56475 -1.82031,-0.56836 z m -135.82812,0.002 c -1.38967,0.0245 -2.66229,0.93894 -3.07422,2.34375 l -12.83985,43.85938 c -0.505,1.728 0.48585,3.53987 2.21485,4.04687 1.74,0.507 3.54092,-0.49484 4.04492,-2.21484 l 12.83984,-43.85938 c 0.506,-1.729 -0.48584,-3.54087 -2.21484,-4.04687 -0.324,-0.0941 -0.65001,-0.13455 -0.9707,-0.12891 z m 45.35742,0 c -0.32038,-0.006 -0.64606,0.0371 -0.96875,0.13086 -1.727,0.505 -2.71694,2.31592 -2.21094,4.04492 l 12.83984,43.86133 c 0.499,1.71 2.29588,2.72289 4.04688,2.21289 1.727,-0.505 2.71694,-2.31592 2.21094,-4.04492 l -12.8398,-43.86138 c -0.4095,-1.40643 -1.68982,-2.31914 -3.07812,-2.34375 z m 45.41406,0.004 c -0.83287,-0.0544 -1.68623,0.20869 -2.36523,0.80469 -1.353,1.189 -1.48583,3.24956 -0.29883,4.60156 l 38.52148,43.85937 c 1.189,1.356 3.25252,1.48388 4.60352,0.29688 1.353,-1.189 1.48387,-3.24761 0.29687,-4.59961 l -38.51953,-43.85938 c -0.5925,-0.6765 -1.4054,-1.04914 -2.23828,-1.10351 z m -136.17773,0.004 c -0.83238,0.0536 -1.64429,0.42361 -2.23829,1.0996 l -38.52148,43.85938 c -1.189,1.353 -1.05517,3.41161 0.29883,4.59961 1.362,1.197 3.41861,1.04812 4.59961,-0.29688 l 38.52148,-43.85937 c 1.189,-1.353 1.05517,-3.41356 -0.29883,-4.60156 -0.6765,-0.5925 -1.52895,-0.85441 -2.36132,-0.80078 z " />
</svg>