<svg viewBox="0 0 512 512" xmlns="http://www.w3.org/2000/svg">
  <path d="m 356.64062,0.01953125 c -21.12871,0 -40.32577,12.41682675 -49.26367,31.34765675 -5.72745,-1.916026 -11.6773,-2.896485 -17.75781,-2.896485 -22.56,0 -42.93969,13.289375 -51.92969,33.859375 l -4.22851,9.689453 c -0.53,1.21 -0.56032,2.590313 -0.0703,3.820313 0.48,1.24 1.43844,2.229765 2.64844,2.759765 l 94.41016,41.240231 c 0.65,0.28 1.33023,0.41993 1.99023,0.41993 1.93,0 3.76985,-1.12 4.58985,-3 l 4.23047,-9.67969 c 6.02,-13.780002 6.28953,-29.130705 0.76953,-43.220705 -4.90883,-12.529951 -13.86592,-22.66855 -25.47852,-28.996094 7.36178,-15.315509 22.94055,-25.34375 40.08984,-25.34375 24.53,0 44.49024,19.960235 44.49024,44.490235 V 276.81641 C 395.70932,274.8674 389.89472,273.75 383.81055,273.75 c -9.82,0 -19.45969,2.83984 -27.67969,8.08984 -9.29,-14.99 -25.87047,-24.40039 -43.73047,-24.40039 -23.33,0 -43.27945,15.70055 -49.43945,37.31055 -9.41,-8.71 -21.85016,-13.68945 -34.91016,-13.68945 -26.70922,0 -48.71054,20.47857 -51.15625,46.55859 H 71.650391 c -0.04011,0 -0.0773,0.0108 -0.117188,0.0117 H 39.259766 c -2.76,0 -5,2.23 -5,5 0,2.76 2.24,5 5,5 h 27.390625 v 63.55859 c 0,40.57 33.010312,73.57032 73.570309,73.57032 h 17.66797 l -6.04687,27.21093 h -29.53125 c -2.77,0 -5,2.24 -5,5 0,2.76 2.23,5 5,5 h 267.3789 c 2.76,0 5,-2.24 5,-5 0,-2.76 -2.24,-5 -5,-5 h -29.54101 l -6.04688,-27.21093 h 17.67774 c 40.56,0 73.56054,-33.00032 73.56054,-73.57032 v -63.55859 h 27.40039 c 2.76,0 4.99024,-2.24 4.99024,-5 0,-2.77 -2.23024,-5 -4.99024,-5 h -32.2832 c -0.0399,-9.4e-4 -0.077,-0.0117 -0.11719,-0.0117 h -5.23242 c 0.0403,-0.82617 0.10352,-1.65076 0.10352,-2.47852 0,-18.29625 -9.6417,-34.3455 -24.08008,-43.45312 V 54.509766 c 0,-30.04 -24.44023,-54.49023475 -54.49024,-54.49023475 z M 289.61914,38.470703 c 6.39,0 12.6007,1.299375 18.4707,3.859375 11.34,4.95 20.08086,14.069922 24.63086,25.669922 4.55,11.61 4.32891,24.240313 -0.62109,35.57031 l -2.23047,5.09961 -85.23828,-37.230467 2.21875,-5.099609 c 7.4,-16.94 24.18953,-27.869141 42.76953,-27.869141 z m -64.62109,78.599607 c -2.13104,-0.0481 -4.13266,1.28141 -4.84766,3.41016 L 206.73047,160.5 c -0.88,2.62 0.53039,5.45008 3.15039,6.33008 0.53,0.18 1.06984,0.25976 1.58984,0.25976 2.09,0 4.04024,-1.32015 4.74024,-3.41015 l 13.41992,-40.01953 c 0.88,-2.62 -0.53039,-5.45008 -3.15039,-6.33008 -0.49125,-0.165 -0.99065,-0.24866 -1.48242,-0.25977 z m 23.10937,7.15039 c -2.13103,-0.0459 -4.13265,1.28953 -4.84765,3.41016 l -13.41993,40.01953 c -0.88,2.62 0.53039,5.45008 3.15039,6.33008 0.53,0.18 1.05985,0.25976 1.58985,0.25976 2.09,0 4.04023,-1.32015 4.74023,-3.41015 l 13.41992,-40.01953 c 0.88,-2.62 -0.53039,-5.45008 -3.15039,-6.33008 -0.49125,-0.165 -0.99064,-0.24917 -1.48242,-0.25977 z m 23.10547,7.15235 c -2.12815,-0.0452 -4.13852,1.2775 -4.85351,3.40625 l -13.41993,40.02148 c -0.87,2.62 0.54016,5.45008 3.16016,6.33008 0.52,0.18 1.05984,0.25976 1.58984,0.25976 2.08,10e-6 4.03024,-1.32015 4.74024,-3.41015 l 13.41015,-40.01953 c 0.88,-2.62 -0.53039,-5.45008 -3.15039,-6.33008 -0.48937,-0.16313 -0.98545,-0.24738 -1.47656,-0.25781 z m 23.10547,7.15039 c -2.13104,-0.0452 -4.13266,1.2775 -4.84766,3.40625 l -13.41992,40.01953 c -0.88,2.62 0.52844,5.45008 3.14844,6.33008 0.53,0.18 1.06984,0.25976 1.58984,0.25976 2.09,0 4.04024,-1.3182 4.74024,-3.4082 l 13.41992,-40.02148 c 0.88,-2.62 -0.52844,-5.45008 -3.14844,-6.33008 -0.49125,-0.16313 -0.99064,-0.24543 -1.48242,-0.25586 z m -90.96094,50.04101 c -2.13103,-0.0427 -4.13265,1.28727 -4.84765,3.41602 l -13.41993,40.00976 c -0.88,2.62 0.53039,5.45008 3.15039,6.33008 0.53,0.18 1.05985,0.25977 1.58985,0.25977 2.09,0 4.04023,-1.32016 4.74023,-3.41016 l 13.41992,-40.00976 c 0.88,-2.62 -0.53039,-5.45985 -3.15039,-6.33985 -0.49125,-0.16312 -0.99064,-0.24599 -1.48242,-0.25586 z m 23.11133,7.15039 c -2.13104,-0.0428 -4.13461,1.28727 -4.84961,3.41602 l -13.41992,40.00976 c -0.88,2.62 0.53039,5.45008 3.15039,6.33008 0.53,0.18 1.05984,0.25977 1.58984,0.25977 2.09,0 4.04024,-1.32016 4.74024,-3.41016 l 13.41992,-40.01953 c 0.88,-2.61 -0.53039,-5.45008 -3.15039,-6.33008 -0.49125,-0.16312 -0.98869,-0.24599 -1.48047,-0.25586 z m 23.10352,7.14844 c -2.12815,-0.0428 -4.13657,1.28727 -4.85157,3.41602 l -13.41015,40.00976 c -0.88,2.62 0.53039,5.45008 3.15039,6.33008 0.52,0.18 1.05984,0.26172 1.58984,0.26172 2.09,0 4.02828,-1.32016 4.73828,-3.41016 l 13.41016,-40.02148 c 0.88,-2.61 -0.52844,-5.45008 -3.14844,-6.33008 -0.48937,-0.16312 -0.9874,-0.24599 -1.47851,-0.25586 z m 23.10546,7.15039 c -2.13103,-0.043 -4.13265,1.28563 -4.84765,3.40625 l -13.41992,40.01953 c -0.88,2.62 0.53039,5.45008 3.15039,6.33008 0.53,0.18 1.06984,0.25977 1.58984,0.25977 2.09,0 4.04024,-1.32016 4.74023,-3.41016 l 13.41993,-40.01953 c 0.88,-2.61 -0.53039,-5.45008 -3.15039,-6.33008 -0.49125,-0.16312 -0.99065,-0.24593 -1.48243,-0.25586 z m 39.72266,57.42578 c 16,0 30.72953,9.38039 37.51953,23.90039 0.65,1.4 1.91992,2.41977 3.41992,2.75977 1.5,0.34 3.0793,-0.0298 4.2793,-1.00977 7.36,-6.02 16.66141,-9.33984 26.19141,-9.33984 22.83,0 41.40039,18.57063 41.40039,41.39062 0,0.82634 -0.0526,1.65248 -0.10156,2.47852 H 186.95703 c 2.40431,-20.54909 19.90111,-36.55859 41.09375,-36.55859 13.5,0 26.18922,6.61898 33.94922,17.70898 1.22,1.75 3.40922,2.53117 5.44922,1.95117 2.05,-0.57 3.51062,-2.38 3.64062,-4.5 1.35,-21.75 19.49055,-38.78125 41.31055,-38.78125 z M 76.650391,337.63086 H 435.34961 v 63.55859 c 0,35.05 -28.52031,63.57032 -63.57031,63.57032 H 140.2207 c -35.05,0 -63.570309,-28.52032 -63.570309,-63.57032 z m 91.490229,137.12891 h 10.91797 l -6.04687,27.21093 h -10.91797 z m 21.16211,0 h 133.38672 l 6.04688,27.21093 H 183.26172 Z m 143.62891,0 h 10.92774 l 6.04687,27.21093 h -10.92773 z " />
</svg>