<svg viewBox="0 0 512 512" xmlns="http://www.w3.org/2000/svg">
  <path d="m371.78 474.76h-231.56c-40.56 0-73.57-33-73.57-73.57v-68.57c0-2.76 2.24-5 5-5h368.69c2.77 0 5 2.24 5 5v68.57c0 40.57-33 73.57-73.56 73.57zm-295.13-137.14v63.57c0 35.05 28.52 63.57 63.57 63.57h231.56c35.05 0 63.57-28.52 63.57-63.57v-63.57z m472.74 337.63h-433.48c-2.76 0-5-2.24-5-5 0-2.77 2.24-5 5-5h433.48c2.76 0 4.99 2.23 4.99 5 0 2.76-2.23 5-4.99 5z m389.69 511.97h-267.38c-2.77 0-5-2.24-5-5s2.23-5 5-5h267.38c2.76 0 5 2.24 5 5s-2.24 5-5 5z m406.13 288.04c-2.76 0-5-2.23-5-5v-228.53c0-24.53-19.96-44.49-44.49-44.49-18.64 0-35.45 11.83-41.84 29.44-.95 2.59-3.81 3.94-6.41 2.99-2.6-.94-3.94-3.81-2.99-6.4 7.81-21.55 28.41-36.03 51.24-36.03 30.05 0 54.49 24.45 54.49 54.49v228.54c0 2.76-2.24 4.99-5 4.99z m332.44 120.26c-.66 0-1.34-.14-1.99-.42l-94.41-41.24c-1.21-.53-2.17-1.52-2.65-2.76-.49-1.23-.46-2.61.07-3.82l4.23-9.69c8.99-20.57 29.37-33.86 51.93-33.86 7.77 0 15.33 1.58 22.48 4.7 13.78 6.02 24.41 17.1 29.93 31.19s5.25 29.44-.77 43.22l-4.23 9.68c-.82 1.88-2.66 3-4.59 3zm-87.81-48.82 85.24 37.23 2.23-5.1c4.95-11.33 5.17-23.96.62-35.57-4.55-11.6-13.29-20.72-24.63-25.67-5.87-2.56-12.08-3.86-18.47-3.86-18.58 0-35.37 10.93-42.77 27.87z m211.47 167.09c-.52 0-1.06-.08-1.59-.26-2.62-.88-4.03-3.71-3.15-6.33l13.42-40.02c.88-2.62 3.71-4.03 6.33-3.15s4.03 3.71 3.15 6.33l-13.42 40.02c-.7 2.09-2.65 3.41-4.74 3.41z m234.58 174.24c-.53 0-1.06-.08-1.59-.26-2.62-.88-4.03-3.71-3.15-6.33l13.42-40.02c.88-2.61 3.71-4.03 6.33-3.15s4.03 3.71 3.15 6.33l-13.42 40.02c-.7 2.09-2.65 3.41-4.74 3.41z m257.69 181.39c-.53 0-1.07-.08-1.59-.26-2.62-.88-4.03-3.71-3.16-6.33l13.42-40.02c.88-2.62 3.72-4.02 6.33-3.15 2.62.88 4.03 3.71 3.15 6.33l-13.41 40.02c-.71 2.09-2.66 3.41-4.74 3.41z m280.79 188.54c-.52 0-1.06-.08-1.59-.26-2.62-.88-4.03-3.71-3.15-6.33l13.42-40.02c.88-2.62 3.71-4.02 6.33-3.15 2.62.88 4.03 3.71 3.15 6.33l-13.42 40.02c-.7 2.09-2.65 3.41-4.74 3.41z m429.61 337.63c-.26 0-.53-.03-.8-.07-2.73-.44-4.58-3.01-4.14-5.73.36-2.2.54-4.45.54-6.69 0-22.82-18.57-41.39-41.4-41.39-9.53 0-18.83 3.32-26.19 9.34-1.2.98-2.78 1.35-4.28 1.01s-2.77-1.36-3.42-2.76c-6.79-14.52-21.52-23.9-37.52-23.9-21.82 0-39.96 17.03-41.31 38.78-.13 2.12-1.59 3.93-3.64 4.5-2.04.58-4.23-.2-5.45-1.95-7.76-11.09-20.45-17.71-33.95-17.71-22.83 0-41.4 18.57-41.4 41.39v.18c0 2.76-2.24 5-5 5s-5-2.24-5-5v-.18c0-28.34 23.06-51.39 51.4-51.39 13.06 0 25.5 4.98 34.91 13.69 6.16-21.61 26.11-37.31 49.44-37.31 17.86 0 34.44 9.41 43.73 24.4 8.22-5.25 17.86-8.09 27.68-8.09 28.34 0 51.4 23.05 51.4 51.39 0 2.78-.23 5.56-.67 8.28-.39 2.46-2.52 4.21-4.93 4.21z m189.83 238.58c-.53 0-1.06-.08-1.59-.26-2.62-.88-4.03-3.71-3.15-6.33l13.42-40.01c.88-2.62 3.71-4.03 6.33-3.16 2.62.88 4.03 3.72 3.15 6.34l-13.42 40.01c-.7 2.09-2.65 3.41-4.74 3.41z m212.94 245.73c-.53 0-1.06-.08-1.59-.26-2.62-.88-4.03-3.71-3.15-6.33l13.42-40.01c.88-2.62 3.71-4.03 6.33-3.16 2.62.88 4.03 3.72 3.15 6.33l-13.42 40.02c-.7 2.09-2.65 3.41-4.74 3.41z m236.05 252.88c-.53 0-1.07-.08-1.59-.26-2.62-.88-4.03-3.71-3.15-6.33l13.41-40.01c.88-2.62 3.72-4.03 6.33-3.16 2.62.88 4.03 3.72 3.15 6.33l-13.41 40.02c-.71 2.09-2.65 3.41-4.74 3.41z m259.15 260.03c-.52 0-1.06-.08-1.59-.26-2.62-.88-4.03-3.71-3.15-6.33l13.42-40.02c.88-2.61 3.71-4.02 6.33-3.15 2.62.88 4.03 3.72 3.15 6.33l-13.42 40.02c-.7 2.09-2.65 3.41-4.74 3.41z m155.86 511.97c-.36 0-.72-.03-1.09-.12-2.7-.6-4.4-3.27-3.8-5.96l8.27-37.21c.6-2.7 3.27-4.39 5.97-3.8 2.7.6 4.4 3.27 3.8 5.97l-8.27 37.21c-.52 2.33-2.59 3.91-4.88 3.91z m177.03 511.97c-.36 0-.73-.03-1.09-.12-2.7-.6-4.39-3.27-3.8-5.96l8.27-37.21c.6-2.7 3.28-4.39 5.97-3.8 2.69.6 4.39 3.27 3.79 5.97l-8.26 37.21c-.52 2.33-2.59 3.91-4.88 3.91z m356.14 511.97c-2.29 0-4.36-1.58-4.88-3.91l-8.27-37.21c-.6-2.7 1.1-5.37 3.8-5.97 2.69-.59 5.36 1.1 5.96 3.8l8.27 37.21c.6 2.69-1.1 5.36-3.79 5.96-.37.09-.73.12-1.09.12z m334.97 511.97c-2.29 0-4.36-1.58-4.88-3.91l-8.27-37.21c-.6-2.7 1.11-5.37 3.8-5.97 2.69-.59 5.37 1.1 5.96 3.8l8.27 37.21c.6 2.69-1.1 5.36-3.79 5.96-.37.09-.73.12-1.09.12z " />
</svg>