<svg viewBox="0 0 512 512" xmlns="http://www.w3.org/2000/svg">
  <path d="m 503.868,43.709 c 0,-6.887 -5.601,-12.49 -12.487,-12.49 H 20.624 c -6.887,0 -12.492,5.603 -12.492,12.49 V 68.98 c 0,6.889 5.605,12.492 12.492,12.492 h 27.571 l -16.678,32.277 c -0.778,1.507 -0.712,3.311 0.166,4.758 0.883,1.448 2.459,2.333 4.153,2.333 h 12.359 l -16.678,32.277 c -0.778,1.507 -0.712,3.311 0.166,4.758 0.883,1.448 2.459,2.333 4.153,2.333 h 12.359 l -16.678,32.274 c -0.778,1.507 -0.712,3.311 0.166,4.758 0.883,1.448 2.459,2.333 4.153,2.333 H 48.195 L 31.517,231.85 c -0.778,1.507 -0.712,3.311 0.166,4.758 0.883,1.448 2.459,2.333 4.153,2.333 h 12.359 l -16.678,32.277 c -0.778,1.507 -0.712,3.31 0.166,4.758 0.883,1.448 2.459,2.333 4.153,2.333 h 12.359 l -16.678,32.277 c -0.778,1.507 -0.712,3.31 0.166,4.758 0.883,1.448 2.459,2.333 4.153,2.333 h 15.482 v 143.068 c 0,11.047 8.989,20.036 20.039,20.036 h 369.291 c 11.049,0 20.039,-8.989 20.039,-20.036 V 317.676 h 15.482 c 1.694,0 3.27,-0.885 4.153,-2.333 0.878,-1.448 0.944,-3.251 0.166,-4.758 L 463.81,278.308 h 12.359 c 1.694,0 3.27,-0.885 4.153,-2.333 0.878,-1.448 0.944,-3.251 0.166,-4.758 L 463.81,238.94 h 12.359 c 1.694,0 3.27,-0.885 4.153,-2.333 0.878,-1.448 0.944,-3.251 0.166,-4.758 L 463.81,199.572 h 12.359 c 1.694,0 3.27,-0.885 4.153,-2.333 0.878,-1.448 0.944,-3.251 0.166,-4.758 L 463.81,160.207 h 12.359 c 1.694,0 3.27,-0.885 4.153,-2.333 0.878,-1.448 0.944,-3.251 0.166,-4.758 L 463.81,120.839 h 12.359 c 1.694,0 3.27,-0.885 4.153,-2.333 0.878,-1.448 0.944,-3.251 0.166,-4.758 L 463.81,81.471 h 22.711 v 64.25 c 0,2.684 2.174,4.86 4.86,4.86 2.686,0 4.86,-2.176 4.86,-4.86 V 80.487 c 4.479,-1.9 7.627,-6.342 7.627,-11.507 z M 17.853,68.98 V 43.709 c 0,-1.526 1.244,-2.769 2.772,-2.769 H 491.38 c 1.524,0 2.767,1.244 2.767,2.769 V 68.98 c 0,1.528 -1.244,2.772 -2.767,2.772 -19.535,0 -406.878,0 -470.756,0 -1.528,0 -2.771,-1.243 -2.771,-2.772 z m 433.113,391.765 c 0,5.688 -4.628,10.316 -10.318,10.316 H 71.357 c -5.691,0 -10.318,-4.628 -10.318,-10.316 V 317.676 h 21.629 v 126.898 c 0,2.684 2.174,4.86 4.86,4.86 h 148.757 c 2.686,0 4.86,-2.176 4.86,-4.86 V 317.676 h 18.914 v 126.898 c 0,2.684 2.174,4.86 4.86,4.86 h 159.559 c 2.686,0 4.86,-2.176 4.86,-4.86 V 317.676 h 21.629 V 460.745 Z M 92.388,317.676 H 231.424 V 439.714 H 92.388 Z m 177.39,0 H 419.617 V 439.714 H 269.778 Z m 198.408,-9.72 c -62.429,0 -324.603,0 -424.366,0 l 15.321,-29.647 h 393.725 z m 0,-39.368 c -148.695,0 -277.911,0 -424.366,0 L 59.136,238.941 H 452.87 Z m 0,-39.367 c -148.695,0 -277.911,0 -424.366,0 l 15.321,-29.647 h 393.725 z m 0,-39.368 c -148.695,0 -277.911,0 -424.366,0 L 59.136,160.208 H 452.87 Z m 0,-39.366 c -148.695,0 -277.911,0 -424.366,0 L 59.136,120.84 H 452.87 Z m 0,-39.367 c -148.695,0 -277.911,0 -424.366,0 L 59.14,81.472 h 393.725 z " />
</svg>