<svg viewBox="0 0 48 48" xmlns="http://www.w3.org/2000/svg">
  <path d="M30,22a1,1,0,1,1-1-1A1,1,0,0,1,30,22ZM19,21a1,1,0,1,0,1,1A1,1,0,0,0,19,21Zm7.412,6.273a4.431,4.431,0,0,1-4.824,0,.5.5,0,0,0-.556.832,5.367,5.367,0,0,0,5.935,0,.5.5,0,0,0-.555-.832Zm13.5-17.05a.5.5,0,0,1-.258.752c-.1.035-2.543.924-1.673,4.4a11.142,11.142,0,0,1,.164,5.775A1.5,1.5,0,0,1,39,22.5c0,2.331-2.046,4.525-4.063,5.359a8.312,8.312,0,0,1-.427.754,12.12,12.12,0,0,1-7.267,5A9.006,9.006,0,0,1,33,42v.5A2.5,2.5,0,0,1,30.5,45h-13A2.5,2.5,0,0,1,15,42.5V42a9.007,9.007,0,0,1,5.756-8.385A12.1,12.1,0,0,1,13.5,28.642a8.522,8.522,0,0,1-.445-.785C11.042,27.021,9,24.829,9,22.5a1.5,1.5,0,0,1,.817-1.328,13.373,13.373,0,0,1-.811-6.75c.477-3.009,2.552-6.137,6.165-9.3a.5.5,0,0,1,.777.6,4.584,4.584,0,0,0-.318,2.619A12.86,12.86,0,0,1,26.5,3a.5.5,0,0,1,.225.946,3.635,3.635,0,0,0-1.551,1.663,10.445,10.445,0,0,1,9.583.462A.5.5,0,0,1,34.5,7c-.132,0-1.216.087-1.454,1.788C34.6,8.329,38.182,7.621,39.916,10.223ZM12.435,26.38A9.779,9.779,0,0,1,12,23.5V22H10.5a.5.5,0,0,0-.5.5A5.154,5.154,0,0,0,12.435,26.38Zm9.583,7.879a2,2,0,0,0,3.964,0l-.134-.035c-.224-.053-.451-.095-.679-.129-.079-.011-.157-.027-.237-.036a8.07,8.07,0,0,0-1.864,0c-.08.009-.158.025-.237.036-.228.034-.455.076-.679.129Zm4.925.309a3,3,0,0,1-5.886,0A8.007,8.007,0,0,0,16,42v.5A1.5,1.5,0,0,0,17.5,44H18V40.5a.5.5,0,0,1,1,0V44H29V40.5a.5.5,0,0,1,1,0V44h.5A1.5,1.5,0,0,0,32,42.5V42A8.007,8.007,0,0,0,26.943,34.568Zm6.739-6.515A8.073,8.073,0,0,0,35,23.5V20a4.068,4.068,0,0,0-1.768-3.383,4.179,4.179,0,0,0-3.8-.522,17.09,17.09,0,0,1-10.87,0,4.09,4.09,0,0,0-1.384-.241,4.222,4.222,0,0,0-2.414.763A4.037,4.037,0,0,0,13,19.926V21.5l0,2a8.123,8.123,0,0,0,1.329,4.582A11.435,11.435,0,0,0,24,33,11.438,11.438,0,0,0,33.682,28.053ZM38,22.5a.5.5,0,0,0-.5-.5H36v1.5a9.673,9.673,0,0,1-.435,2.878A5.154,5.154,0,0,0,38,22.5Zm.727-12.163c-1.953-1.978-6-.391-6.041-.373A.5.5,0,0,1,32,9.5a3.425,3.425,0,0,1,1.278-3.073,10.051,10.051,0,0,0-8.521.5A.5.5,0,0,1,24,6.5a3.58,3.58,0,0,1,.971-2.421,11.673,11.673,0,0,0-9.024,5.645.521.521,0,0,1-.894,0,4.87,4.87,0,0,1-.471-2.7c-2.663,2.6-4.2,5.135-4.588,7.551A12.565,12.565,0,0,0,10.827,21H12V20a5.063,5.063,0,0,1,2.2-4.2,5.185,5.185,0,0,1,4.709-.644,16.058,16.058,0,0,0,10.193,0,5.185,5.185,0,0,1,4.708.644A5.03,5.03,0,0,1,36,19.92V21h1.152a9.976,9.976,0,0,0-.137-5.379C36.215,12.42,37.794,10.92,38.727,10.337Z " />
</svg>