<svg viewBox="0 0 512 512" xmlns="http://www.w3.org/2000/svg">
  <path d="m 255.11914,67.181641 c -58.13298,0 -120.88281,46.220089 -120.88281,120.880859 0,36.84686 14.66006,67.8488 42.81445,91.34375 0.2967,0.37364 0.63809,0.69207 1.01172,0.9668 20.89051,22.65978 21.94503,26.96831 22.08789,36.93554 0.0659,3.94513 0.033,5.10872 0,5.7461 l -0.043,2.29687 c -0.16484,4.96712 -0.41799,13.28677 9.87891,16.42969 l 88.94531,19.57031 c 0.39561,0.0879 0.79312,0.13281 1.17774,0.13282 2.52751,0 4.80087,-1.74688 5.36132,-4.31836 0.65935,-2.96709 -1.21845,-5.90243 -4.18554,-6.55079 L 212.76562,331.1543 c -1.70332,-0.51649 -1.84525,-0.56048 -1.6914,-5.47266 l 0.0332,-2.09961 c 0,0 0.10938,-0.85693 0.0215,-6.43945 -0.2088,-13.94532 -3.24271,-20.68194 -25.375,-44.60547 -0.42858,-0.52748 -0.94419,-0.9672 -1.51563,-1.29688 -25.89061,-22.01141 -39.01172,-49.99028 -39.01172,-83.17773 0,-67.88042 57.03443,-109.890625 109.89258,-109.890625 54.02301,0 109.89258,41.109085 109.89258,109.890625 0,43.71512 -21.1873,67.81534 -38.66016,82.98047 -0.60441,0.28572 -1.14465,0.69176 -1.61718,1.19726 -22.38505,24.22024 -25.4162,30.95703 -25.625,44.90235 0,0.32967 -0.011,0.71522 0,1.13281 l -0.0117,0.38477 c -0.033,0.83518 -0.15357,1.29682 -0.14258,1.47265 -0.37363,-0.055 -1.28711,-0.19922 -1.28711,-0.19922 l -46.09961,-10.8457 c -2.98907,-0.68133 -5.9112,1.14278 -6.60352,4.08789 -0.69232,2.9561 1.13179,5.91193 4.08789,6.61524 l 45.53907,10.68164 c 0.60441,0.21979 6.07789,1.99963 10.69336,-1.24219 2.01103,-1.41761 4.34998,-4.19685 4.76757,-9.51563 l 0.0332,-0.51757 c 0.011,-0.35165 0.0234,-0.71427 0.0234,-1.08789 0,-0.0989 -7.2e-4,-0.19725 -0.0117,-0.28516 l 0.0117,-0.50586 c 0.14285,-9.91228 1.17566,-14.21914 22.0332,-36.87891 0.0989,-0.0769 0.20896,-0.15427 0.29687,-0.24218 C 361.74764,255.57042 376,225.42585 376,188.0625 376,112.40171 314.53786,67.181641 255.11914,67.181641 Z M 132,132 c -47.083305,0 -100.810547,39.45817 -100.810547,99.92773 0,29.84316 11.87482,54.95134 34.677735,73.98047 0.240312,0.30261 0.515745,0.5607 0.818359,0.78321 16.919728,18.35269 17.774919,21.84137 17.890625,29.91406 0.0534,3.19526 0.0267,4.14002 0,4.65625 l -0.03711,1.85937 c -0.133506,4.023 -0.337754,10.76112 8.001954,13.30664 l 72.041014,15.85157 c 0.32041,0.0712 0.63966,0.10547 0.95117,0.10547 2.0471,0 3.88983,-1.4134 4.34375,-3.4961 0.53403,-2.40312 -0.9875,-4.77956 -3.39062,-5.30469 L 94.792969,347.82031 c -1.379567,-0.41832 -1.4957,-0.45314 -1.371094,-4.43164 l 0.02734,-1.70117 c 0,0 0.08878,-0.69342 0.01758,-5.21484 C 93.297689,325.17801 90.841493,319.72194 72.916016,300.3457 72.568899,299.91848 72.150323,299.56194 71.6875,299.29492 50.718076,281.46735 40.091797,258.80704 40.091797,231.92773 40.091797,176.94974 91.999998,142 120,142 c -10,36 -12,58 -4,90 4.67384,18.69538 22.00048,39.99996 32.50586,56.02148 C 164.00048,299.99996 174,316 174,316 c 0,0 -9.10628,9.17801 -9.27539,20.47266 0,0.26702 -0.009,0.57779 0,0.91601 l -0.01,0.3125 c -0.0267,0.67644 -0.12413,1.04901 -0.11523,1.19141 -0.30262,-0.0445 -1.04297,-0.16016 -1.04297,-0.16016 l -37.33594,-8.7832 c -2.42092,-0.55182 -4.78889,0.92523 -5.34961,3.31055 -0.56073,2.39421 0.91633,4.78779 3.31055,5.35742 l 36.88477,8.65234 c 0.48953,0.17801 4.92196,1.61977 8.66015,-1.00586 1.62878,-1.14815 3.52311,-3.40117 3.86133,-7.70898 l 0.0273,-0.41797 c 0.009,-0.28482 0.0176,-0.57824 0.0176,-0.88086 0,-0.0801 -7.6e-4,-0.16122 -0.01,-0.23242 l 0.01,-0.40821 C 173.74861,328.58704 186,314 186,314 c 0,0 -10,-20 -28,-32 -12,-14 -27.84331,-34.75879 -32,-50 -5.99999,-22 -9.09521,-50.02312 6,-100 z m 246,2 c 20.00001,58 6,94 0,106 -10,24 -20,34 -36,48 -16,18 -18,26 -18,26 0,0 13.5152,14.56714 13.63086,22.63672 0.0534,3.19403 0.0267,4.13828 0,4.6543 l -0.0371,1.85937 c -0.13345,4.02144 -0.33649,10.75623 8,13.30078 l 72.01172,15.84571 c 0.3203,0.0712 0.63978,0.10742 0.95117,0.10742 2.04631,0 3.88805,-1.41615 4.3418,-3.49805 0.53382,-2.40219 -0.98648,-4.77781 -3.38867,-5.30273 l -71.66602,-15.75586 c -1.37904,-0.41815 -1.4937,-0.45273 -1.36914,-4.42969 l 0.0254,-1.69922 c 0,0 0.0888,-0.69517 0.0176,-5.21484 C 346.34853,325.21361 336,314 336,314 c 0,0 4,-10 14,-20 20,-16 32.65897,-39.97978 38,-54 16,-42 5.86703,-83.02998 2,-96 34,4 81.10352,32.31366 81.10352,88 0,35.39227 -17.15456,54.90378 -31.30079,67.18164 -0.48934,0.23132 -0.92407,0.55949 -1.30664,0.96875 -18.1232,19.609 -20.579,25.06322 -20.74804,36.35352 0,0.26691 -0.009,0.57792 0,0.91601 l -0.01,0.3125 c -0.0267,0.67618 -0.12413,1.04906 -0.11523,1.19141 -0.3025,-0.0445 -1.04102,-0.16016 -1.04102,-0.16016 l -37.32226,-8.78125 c -2.41998,-0.55161 -4.78715,0.92615 -5.34766,3.31055 -0.56051,2.39329 0.91726,4.78607 3.31055,5.35547 l 36.86914,8.64844 c 0.48933,0.17793 4.91951,1.61875 8.65625,-1.00586 1.62815,-1.14771 3.52324,-3.39894 3.86133,-7.70508 l 0.0254,-0.41797 c 0.009,-0.28471 0.0195,-0.57836 0.0195,-0.88086 0,-0.0801 -7.7e-4,-0.15929 -0.01,-0.23047 l 0.01,-0.41016 c 0.11566,-8.0251 0.95138,-11.5118 17.83789,-29.85742 0.0801,-0.0623 0.16905,-0.12608 0.24023,-0.19726 C 468.46081,286.65362 480,262.2498 480,232 480,170.74413 426.10609,134 378,134 Z M 211.25977,360.43945 c -2.56376,-0.0479 -4.87439,1.68881 -5.46094,4.27539 -0.68133,2.9561 1.17549,5.90193 4.14258,6.57227 l 87.91406,19.93359 c 0.41759,0.0989 0.82508,0.14258 1.2207,0.14258 2.51653,0 4.78012,-1.72466 5.35156,-4.28516 0.68133,-2.95609 -1.17548,-5.90192 -4.14257,-6.57226 l -87.91407,-19.93359 c -0.37226,-0.0824 -0.74507,-0.12597 -1.11132,-0.13282 z M 93.574219,371.53906 c -2.076444,-0.0388 -3.948767,1.36795 -4.423828,3.46289 -0.551827,2.39422 0.952351,4.77934 3.355468,5.32227 l 71.203121,16.14648 c 0.33822,0.0801 0.66788,0.11524 0.98829,0.11524 2.0382,0 3.87116,-1.3969 4.33398,-3.47071 0.55183,-2.39421 -0.95235,-4.77933 -3.35547,-5.32226 L 94.472656,371.64648 c -0.301502,-0.0668 -0.601802,-0.10187 -0.898437,-0.10742 z m 253.050781,0.0195 c -2.07564,-0.0388 -3.94699,1.36681 -4.42188,3.46094 -0.5516,2.39329 0.95133,4.77759 3.35352,5.32031 l 71.17774,16.13868 c 0.33807,0.0801 0.66602,0.11523 0.98632,0.11523 2.03741,0 3.87134,-1.39575 4.33399,-3.46875 0.55161,-2.39329 -0.95328,-4.77759 -3.35547,-5.32031 l -71.17578,-16.13867 c -0.30139,-0.0667 -0.60192,-0.10188 -0.89844,-0.10743 z m -129.88086,20.26758 c -2.5618,-0.0458 -4.86477,1.69857 -5.46094,4.28516 -0.65935,2.96709 1.19698,5.9012 4.16407,6.56055 l 71.42968,16.02148 c 0.41759,0.0989 0.81338,0.14453 1.20899,0.14453 2.51654,0 4.79184,-1.73638 5.36328,-4.29687 0.65936,-2.96709 -1.19893,-5.9012 -4.16602,-6.56055 L 217.85352,391.957 c -0.37226,-0.0824 -0.74341,-0.12431 -1.10938,-0.13086 z m -118.728515,5.13281 c -2.074862,-0.0371 -3.940979,1.37773 -4.423828,3.47266 -0.534027,2.40312 0.969929,4.77848 3.373047,5.3125 l 57.853516,12.97656 c 0.33821,0.0801 0.6581,0.11719 0.97852,0.11719 2.03819,0 3.88092,-1.40667 4.34374,-3.48047 0.53402,-2.40311 -0.96992,-4.78042 -3.37304,-5.31445 L 98.914062,397.06641 c -0.301502,-0.0668 -0.602028,-0.10212 -0.898437,-0.10743 z m 253.048825,0.01 c -2.07406,-0.0371 -3.9392,1.37461 -4.42187,3.46875 -0.53382,2.40219 0.97085,4.77868 3.37304,5.3125 l 57.83008,12.9707 c 0.33809,0.0801 0.65823,0.11719 0.97852,0.11719 2.03742,0 3.87916,-1.40747 4.3418,-3.48047 0.53382,-2.40219 -0.97086,-4.77672 -3.37305,-5.31054 l -57.83008,-12.97266 c -0.30139,-0.0667 -0.60214,-0.10017 -0.89844,-0.10547 z " />
</svg>