<svg viewBox="0 0 512 512" xmlns="http://www.w3.org/2000/svg">
  <path d="m392.722 322.603c-1.799 0-3.257-1.458-3.257-3.257v-8.204c0-1.799 1.458-3.257 3.257-3.257s3.257 1.458 3.257 3.257v8.204c0 1.799-1.458 3.257-3.257 3.257z m392.722 369.361c-1.799 0-3.257-1.458-3.257-3.257v-31.074c0-1.799 1.458-3.257 3.257-3.257s3.257 1.458 3.257 3.257v31.073c0 1.8-1.458 3.258-3.257 3.258z m464.104 336.01c-1.799 0-3.257 1.458-3.257 3.257v9.12c0 1.799 1.458 3.257 3.257 3.257s3.257-1.458 3.257-3.257v-9.12c-.001-1.799-1.459-3.257-3.257-3.257z m464.104 362.429c-1.799 0-3.257 1.458-3.257 3.257v49.764c0 1.799 1.458 3.257 3.257 3.257s3.257-1.458 3.257-3.257v-49.764c-.001-1.799-1.459-3.257-3.257-3.257z m114.304 458.803h283.39c10.02 0 18.173-8.149 18.173-18.17v-291.435c0-10.02-8.152-18.171-18.173-18.171h-283.39c-10.02 0-18.17 8.151-18.17 18.171v291.435c0 10.02 8.15 18.17 18.17 18.17zm46.172-6.514c-3.135 0-6.079-1.219-8.292-3.433l-8.676-8.676c-2.214-2.214-3.433-5.158-3.433-8.292v-62.395c0-1.343 1.094-2.437 2.44-2.437h65.197c1.346 0 2.44 1.094 2.44 2.437v57.782 4.613c0 3.135-1.219 6.079-3.435 8.292l-8.676 8.676c-2.214 2.214-5.158 3.433-8.29 3.433zm56.189-71.573h12.376c3.027 0 5.494 2.465 5.494 5.496v16.679c0 10.541-7.76 19.305-17.869 20.875v-43.049h-.001zm81.199 71.573c-3.087 0-6.109-1.252-8.29-3.433l-8.676-8.676c-2.216-2.216-3.435-5.16-3.435-8.292v-62.395c0-1.343 1.094-2.437 2.44-2.437h65.199c1.346 0 2.44 1.094 2.44 2.437v62.395c0 3.132-1.219 6.076-3.435 8.292l-8.676 8.676c-2.181 2.181-5.203 3.433-8.29 3.433zm56.192-71.573h12.373c3.031 0 5.496 2.465 5.496 5.496v16.679c0 10.541-7.76 19.305-17.869 20.875zm43.638 71.573h-56.485l7.504-7.504c3.445-3.445 5.343-8.026 5.343-12.898v-1.566c13.71-1.62 24.384-13.293 24.384-27.431v-16.679c0-6.623-5.386-12.009-12.009-12.009h-12.373v-4.71c0-4.936-4.018-8.952-8.954-8.952h-65.199c-4.936 0-8.954 4.015-8.954 8.952v62.395c0 4.873 1.898 9.452 5.343 12.898l7.504 7.504h-79.977l7.503-7.501c3.445-3.445 5.343-8.026 5.343-12.9v-1.566c13.71-1.62 24.384-13.293 24.384-27.431v-16.679c0-6.623-5.386-12.009-12.007-12.009h-12.376v-4.71c0-4.936-4.018-8.952-8.954-8.952h-65.197c-4.936 0-8.954 4.015-8.954 8.952v62.395c0 4.873 1.895 9.456 5.341 12.898l7.504 7.504h-32.101c-6.427 0-11.657-5.229-11.657-11.656v-142.462h306.704v142.462c-.002 6.427-5.231 11.655-11.66 11.655zm-63.291-160.632c-7.075-.011-13.8-1.479-19.951-4.058 8.593-6.005 15.506-14.241 19.902-23.866.044 0 .086.006.131.006 13.419 0 24.338-10.917 24.338-24.337 0-13.418-10.918-24.336-24.338-24.336-.044 0-.086.006-.131.007-4.396-9.624-11.31-17.86-19.9-23.864 6.175-2.59 12.925-4.062 20.031-4.062 28.814 0 52.256 23.441 52.256 52.255 0 28.798-23.416 52.227-52.205 52.255zm2.54-69.885c8.667 1.204 15.368 8.64 15.368 17.632s-6.699 16.429-15.368 17.633c1.756-5.569 2.706-11.492 2.706-17.633 0-6.142-.951-12.064-2.706-17.632zm-3.808 17.632c0 28.798-23.413 52.227-52.202 52.255h-.129c-7.082-.011-13.819-1.464-19.972-4.047 8.6-6.005 15.52-14.246 19.918-23.877.043.001.086.006.131.006 13.419 0 24.336-10.917 24.336-24.337 0-13.418-10.915-24.336-24.336-24.336-.044 0-.087.006-.131.006-4.399-9.63-11.319-17.871-19.92-23.876 6.18-2.587 12.943-4.049 20.05-4.049 28.815 0 52.255 23.441 52.255 52.255zm-49.793-17.626c8.664 1.204 15.362 8.635 15.362 17.625 0 8.992-6.698 16.423-15.363 17.627 1.755-5.567 2.704-11.489 2.704-17.627 0-6.139-.95-12.058-2.703-17.625zm-3.811 17.626c0 28.798-23.416 52.227-52.205 52.255h-.136c-7.08-.011-13.816-1.464-19.967-4.045 8.601-6.005 15.522-14.247 19.922-23.879.044 0 .086.007.131.007 13.419 0 24.336-10.917 24.336-24.337 0-13.418-10.915-24.336-24.336-24.336-.044 0-.087.005-.131.006-4.403-9.64-11.331-17.885-19.941-23.891 6.186-2.585 12.96-4.034 20.072-4.034 28.813-.001 52.255 23.44 52.255 52.254zm-79.01 52.25.006.003h-.013c.003-.001.005-.002.007-.003zm29.216-69.868c8.662 1.205 15.36 8.629 15.36 17.617 0 8.992-6.699 16.429-15.365 17.633 1.756-5.569 2.706-11.492 2.706-17.633.001-6.135-.949-12.053-2.701-17.617zm-3.813 17.618c0 28.798-23.416 52.227-52.205 52.255h-.101c-28.79-.028-52.205-23.457-52.205-52.255 0-28.814 23.442-52.255 52.256-52.255s52.255 23.441 52.255 52.255zm-111.62-101.863h283.39c6.43 0 11.659 5.23 11.659 11.658v142.459h-48.021c18.937-9.769 31.924-29.517 31.924-52.255 0-32.405-26.364-58.768-58.769-58.768-9.646 0-18.734 2.37-26.77 6.511-8.051-4.152-17.169-6.511-26.834-6.511-9.652 0-18.758 2.355-26.8 6.496-8.044-4.142-17.152-6.496-26.806-6.496-9.647 0-18.736 2.371-26.774 6.51-8.051-4.151-17.169-6.51-26.833-6.51-32.407 0-58.769 26.364-58.769 58.768 0 22.738 12.987 42.485 31.924 52.255h-44.176v-142.46c-.001-6.427 5.228-11.657 11.655-11.657z m49.682 40.278c-1.764-.379-3.494.734-3.875 2.491-1.358 6.245-1.144 11.498-1.168 11.999 0 1.799 1.458 3.257 3.257 3.257s3.257-1.458 3.257-3.257c.036-.801-.243-4.802 1.021-10.616.381-1.758-.733-3.492-2.492-3.874z m104.383 6.514c1.799 0 3.257-1.458 3.257-3.257s-1.458-3.257-3.257-3.257h-5.809c-18.351 0-35.286 9.223-45.307 24.673-.979 1.509-.55 3.526.962 4.505 1.517.984 3.532.538 4.504-.96 8.814-13.59 23.707-21.704 39.841-21.704z m413.436 20.857h-314.872c-18.243 0-33.088 14.843-33.088 33.087v402.707c0 18.243 14.845 33.088 33.088 33.088h26.656v10.724c0 6.362 5.173 11.537 11.534 11.537h21.925c6.361 0 11.534-5.175 11.534-11.537v-10.724h171.573v10.724c0 6.362 5.173 11.537 11.534 11.537h21.925c6.362 0 11.534-5.175 11.534-11.537v-10.724h26.656c18.243 0 33.085-14.845 33.085-33.088 0-52.134.002-362.614.003-402.707.001-18.244-14.843-33.087-33.087-33.087zm-249.737 479.607c0 2.768-2.252 5.022-5.02 5.022h-21.925c-2.768 0-5.02-2.254-5.02-5.022v-10.724h31.966v10.724zm216.567 0c0 2.768-2.252 5.022-5.02 5.022h-21.926c-2.768 0-5.02-2.254-5.02-5.022v-10.724h31.966zm59.741-43.814c0 14.654-11.921 26.575-26.572 26.575-7.798-.001-307.5-.001-314.872 0-14.654 0-26.575-11.921-26.575-26.575v-350.042h368.018v350.042zm.003-356.556h-368.02v-46.15c0-14.652 11.921-26.573 26.575-26.573h314.872c14.654 0 26.575 11.921 26.575 26.573v46.15z m111.994 44.119c-10.814 0-19.613 8.799-19.613 19.614s8.799 19.614 19.613 19.614c10.817 0 19.615-8.799 19.615-19.614s-8.799-19.614-19.615-19.614zm0 32.713c-7.223 0-13.099-5.876-13.099-13.1s5.875-13.1 13.099-13.1 13.101 5.876 13.101 13.1-5.877 13.1-13.101 13.1z m169.636 44.119c-10.817 0-19.615 8.799-19.615 19.614s8.799 19.614 19.615 19.614c10.814 0 19.613-8.799 19.613-19.614s-8.8-19.614-19.613-19.614zm0 32.713c-7.223 0-13.101-5.876-13.101-13.1s5.878-13.1 13.101-13.1 13.099 5.876 13.099 13.1-5.875 13.1-13.099 13.1z m227.276 44.119c-10.817 0-19.615 8.799-19.615 19.614s8.799 19.614 19.615 19.614c10.814 0 19.613-8.799 19.613-19.614s-8.8-19.614-19.613-19.614zm0 32.713c-7.223 0-13.101-5.876-13.101-13.1s5.878-13.1 13.101-13.1 13.099 5.876 13.099 13.1-5.876 13.1-13.099 13.1z m409.029 44.119h-114.648c-5.84 0-10.59 4.751-10.59 10.59v18.048c0 5.84 4.751 10.59 10.59 10.59h114.649c5.84 0 10.59-4.751 10.59-10.59v-18.048c-.001-5.84-4.752-10.59-10.591-10.59zm4.076 28.637c0 2.248-1.829 4.076-4.076 4.076h-114.648c-2.247 0-4.076-1.828-4.076-4.076v-18.048c0-2.248 1.829-4.076 4.076-4.076h114.649c2.247 0 4.076 1.828 4.076 4.076v18.048z m149.334 239.404c0 13.419 10.915 24.337 24.336 24.337 13.419 0 24.336-10.917 24.336-24.337 0-13.418-10.915-24.336-24.336-24.336s-24.336 10.916-24.336 24.336zm42.157 0c0 9.828-7.995 17.823-17.821 17.823s-17.821-7.995-17.821-17.823c0-9.827 7.995-17.821 17.821-17.821s17.821 7.993 17.821 17.821z " />
</svg>