<svg viewBox="0 0 96 96" xmlns="http://www.w3.org/2000/svg">
  <path d="m88.99 45.01c-.94-1.19-2.65-1.02-3.99-1.01v-36c0-2.21-1.79-4-4-4h-66c-2.21 0-4 1.79-4 4v36h-1.75c-1.75-.04-3.22 1.62-2.98 3.35 0 0 4.52 38 4.52 38 .18 1.51 1.46 2.65 2.98 2.65h3.22v1c0 1.65 1.35 3 3 3h4c1.65 0 3-1.35 3-3v-1h42v1c0 1.65 1.35 3 3 3h4c1.65 0 3-1.35 3-3v-1h3.22c1.52 0 2.8-1.14 2.98-2.65l4.52-38c.1-.85-.17-1.71-.74-2.35zm-75.99-37.01c0-1.1.9-2 2-2h66c1.1 0 2 .9 2 2v11h-70zm0 13h70v23h-6.31c2.61-12.25-10.69-22.21-21.69-16.25-4.29-2.27-9.71-2.26-14 0-11.01-5.96-24.31 4-21.69 16.25h-6.31zm58.52 23c.61-1.26.95-7.62-1.38-6.94-.52.19-.79.76-.6 1.28.66 1.8.6 3.89-.14 5.66h-14.8c-2.98-7.21 5.38-14 11.85-9.65 1.1.72 2.2-.91 1.11-1.66-7.79-5.21-17.93 2.38-15.08 11.31h-3.12c-2.07-7.91 4.47-16.17 12.65-16 8.26-.11 14.65 8 12.65 16h-3.12zm-50.17 0c-2.55-10.15 8.06-19.16 17.66-14.99-.9.68-1.72 1.46-2.45 2.33-7.42-2.12-14.57 5.35-12.08 12.66h-3.12zm5.24 0c-2.42-5.61 2.65-11.97 8.66-10.9-2.01 3.18-2.73 7.18-1.95 10.9zm8.76 0c-2.5-10.25 7.96-19.05 17.65-14.99-.9.68-1.72 1.46-2.45 2.33-7.42-2.12-14.57 5.35-12.08 12.66zm5.24 0c-2.42-5.61 2.65-11.97 8.66-10.9-2.01 3.18-2.73 7.18-1.95 10.9zm-32.09 2.34c.19-.22.46-.34.75-.34h11.33 66.16c.58-.01 1.08.54.99 1.12 0 0-.82 6.88-.82 6.88h-31.92v-1c0-1.65-1.35-3-3-3h-8c-1.65 0-3 1.35-3 3v1h-31.91l-.82-6.88c-.03-.29.05-.57.25-.78zm44.5 7.66h-10v-1c0-.55.45-1 1-1h8c.55 0 1 .45 1 1zm-28 35c0 .55-.45 1-1 1h-4c-.55 0-1-.45-1-1v-1h6zm52 0c0 .55-.45 1-1 1h-4c-.55 0-1-.45-1-1v-1h6zm6.22-3.88c-.06.5-.49.88-.99.88h-4.22c-4.22 0-46.59 0-52 0-2.68 0-9.61 0-12.22 0-.51 0-.93-.38-.99-.88l-3.47-29.12h77.37l-3.47 29.12z m61.86 8.9c-1.01-.84-2.28.69-1.29 1.53 1.01.84 2.28-.69 1.29-1.53z m62.79 11.89c-.97.17-.71 1.64.26 1.48.97-.17.71-1.64-.26-1.48z m55.55 9.03c-.85-1-2.37.28-1.53 1.29.84 1 2.37-.28 1.53-1.29z m53.21 11.89c-.97-.17-1.23 1.3-.26 1.48.97.17 1.23-1.3.26-1.48z m58 10.5c-3.96.1-3.96 5.9 0 6 3.96-.1 3.95-5.9 0-6zm0 4c-1.31-.02-1.31-1.98 0-2 1.31.02 1.31 1.98 0 2z m19 11c-1.97.03-1.97 2.97 0 3 1.97-.03 1.97-2.97 0-3z m79 9h-8c-.55 0-1 .45-1 1v5c0 .55.45 1 1 1h8c.55 0 1-.45 1-1v-5c0-.55-.45-1-1-1zm-1 5h-6v-3h6z m43 11.5h-13c-.55 0-1 .45-1 1s.45 1 1 1h13c1.31-.02 1.32-1.98 0-2z " />
</svg>