<svg viewBox="0 0 512 512" xmlns="http://www.w3.org/2000/svg">
  <path d="m 97.316826,4 c -17.923185,0 -34.463031,9.008794 -44.250413,24.09861 -0.956176,1.473821 -0.538215,3.44273 0.938536,4.398907 1.481634,0.96106 3.449567,0.52645 4.398907,-0.936627 8.60852,-13.273178 23.1551,-21.199071 38.91297,-21.199071 H 102.99 c 1.75706,0 3.18186,-1.4228954 3.18186,-3.1799555 C 106.17186,5.4248034 104.74706,4 102.99,4 Z m -0.0095,20.371175 c -17.817704,0 -32.316516,14.495929 -32.316517,32.314609 V 450.00455 c 0,17.81771 14.498813,32.31652 32.316517,32.31652 H 123.3421 v 10.47459 c 0,6.21368 5.05163,11.26814 11.26434,11.26814 h 21.41463 c 6.2127,0 11.26432,-5.05446 11.26432,-11.26814 v -10.47459 h 167.57243 v 10.47459 c 0,6.21368 5.05352,11.26814 11.26623,11.26814 h 21.41272 c 6.21369,0 11.26625,-5.05446 11.26625,-11.26814 v -10.47459 h 26.03481 c 17.8177,0 32.3127,-14.49881 32.3127,-32.31652 0,-50.9186 0.003,-354.16045 0.004,-393.318766 9.7e-4,-17.81868 -14.49784,-32.314609 -32.31652,-32.314609 z m 0,6.36182 H 404.83974 c 14.31237,0 25.95469,11.642369 25.95469,25.952789 v 45.074496 h -0.002 H 71.35259 V 56.685784 c 0,-14.31042 11.642325,-25.952789 25.954698,-25.952789 z M 48.923124,43.267782 c -1.482693,-0.01645 -2.818109,1.003134 -3.143712,2.504668 -1.326341,6.099411 -1.1173,11.229018 -1.14074,11.718338 0,1.75706 1.424803,3.181864 3.181863,3.181864 1.75706,0 3.179957,-1.424804 3.179957,-3.181864 0.03516,-0.782327 -0.236863,-4.689304 0.99767,-10.367762 0.372118,-1.717016 -0.716095,-3.411569 -2.434087,-3.784663 -0.21536,-0.04627 -0.429138,-0.06823 -0.640951,-0.07058 z m 61.500766,3.822815 c -10.561895,0 -19.156039,8.593167 -19.156039,19.156038 0,10.562872 8.594144,19.157947 19.156039,19.157947 10.56482,0 19.15795,-8.595075 19.15795,-19.157947 0,-10.562871 -8.5941,-19.156038 -19.15795,-19.156038 z m 56.29877,0 c -10.56483,0 -19.15796,8.593167 -19.15796,19.156038 0,10.562872 8.59411,19.157947 19.15796,19.157947 10.56189,0 19.15413,-8.595075 19.15413,-19.157947 0,-10.562871 -8.59322,-19.156038 -19.15413,-19.156038 z m 56.29494,0 c -10.56482,0 -19.15794,8.593167 -19.15794,19.156038 0,10.562872 8.59409,19.157947 19.15794,19.157947 10.5619,0 19.15604,-8.595075 19.15604,-19.157947 0,-10.562871 -8.59512,-19.156038 -19.15604,-19.156038 z m 65.54105,0 c -5.70385,0 -10.34296,4.640087 -10.34296,10.342963 v 17.628058 c 0,5.703853 4.64008,10.342964 10.34296,10.342964 H 400.5343 c 5.70386,0 10.34296,-4.640088 10.34296,-10.342964 V 57.43356 c -9.7e-4,-5.703853 -4.64008,-10.342963 -10.34296,-10.342963 z m -178.13476,6.361818 c 7.05559,0 12.79612,5.738633 12.79612,12.79422 0,7.055588 -5.74053,12.79422 -12.79612,12.79422 -7.05461,0 -12.79422,-5.738632 -12.79422,-12.79422 0,-7.055587 5.73863,-12.79422 12.79422,-12.79422 z m 56.29877,0 c 7.05461,0 12.79231,5.738633 12.79231,12.79422 0,7.055588 -5.73673,12.79422 -12.79231,12.79422 -7.05462,0 -12.79613,-5.738632 -12.79613,-12.79422 0,-7.055587 5.74151,-12.79422 12.79613,-12.79422 z m 56.29494,0 c 7.05461,0 12.79422,5.738633 12.79422,12.79422 0,7.055588 -5.73961,12.79422 -12.79422,12.79422 -7.05461,0 -12.79422,-5.738632 -12.79422,-12.79422 0,-7.055587 5.73961,-12.79422 12.79422,-12.79422 z m 65.54105,0 H 400.5343 c 2.19462,0 3.98115,1.783645 3.98115,3.979237 V 75.05971 c 0,2.195593 -1.78653,3.981145 -3.98115,3.981145 H 288.55865 c -2.19462,0 -3.98114,-1.785552 -3.98114,-3.981145 V 57.431652 c 0,-2.195592 1.78652,-3.979236 3.98114,-3.979237 z M 71.350683,108.12209 H 430.78871 v 341.88246 h 0.002 c 0,14.31238 -11.64335,25.9547 -25.95279,25.9547 -7.6162,-9.8e-4 -300.33231,-9.8e-4 -307.53245,0 -14.312373,0 -25.954697,-11.64232 -25.954697,-25.9547 z m 41.329887,23.85062 c -9.7864,0 -17.746326,7.95994 -17.746326,17.74634 v 284.64134 c 0,9.7864 7.959926,17.74633 17.746326,17.74633 h 276.78207 c 9.7864,0 17.75014,-7.95895 17.75014,-17.74633 V 149.71905 c 0,-9.7864 -7.96276,-17.74634 -17.75014,-17.74634 z m 0,6.36183 h 276.78207 c 6.2801,0 11.38833,5.10827 11.38833,11.38642 v 139.13785 h -46.90198 c 18.49553,-9.54126 31.1796,-28.82972 31.1796,-51.03763 0,-31.64954 -25.7499,-57.39753 -57.39944,-57.39753 -9.42113,0 -18.2968,2.31544 -26.14546,6.35991 -7.86331,-4.05521 -16.76873,-6.35991 -26.20841,-6.35991 -9.42699,0 -18.32146,2.30019 -26.17598,6.34465 -7.85647,-4.04544 -16.75086,-6.34465 -26.17979,-6.34465 -9.4221,0 -18.29866,2.31549 -26.14927,6.358 -7.86331,-4.05423 -16.76971,-6.358 -26.20841,-6.358 -31.6515,0 -57.39944,25.74896 -57.39944,57.39753 0,22.20791 12.68407,41.49539 31.17959,51.03763 H 101.29607 V 149.71905 c -9.8e-4,-6.27717 5.10734,-11.38451 11.3845,-11.38451 z m 215.04667,48.44902 c 28.14226,0 51.03762,22.89536 51.03762,51.03762 0,28.12664 -22.87018,51.00837 -50.98802,51.03572 h -0.12973 c -6.91006,-0.0107 -13.47844,-1.44319 -19.48605,-3.96207 8.39268,-5.865 15.14485,-13.91016 19.43837,-23.31077 0.043,0 0.0839,0.006 0.12781,0.006 13.10616,0 23.7705,-10.66146 23.7705,-23.7686 0,-13.10519 -10.66336,-23.76859 -23.7705,-23.76859 -0.043,0 -0.0839,0.005 -0.12781,0.006 -4.29352,-9.39964 -11.04672,-17.44294 -19.43646,-23.30697 6.03105,-2.52962 12.62393,-3.96779 19.56427,-3.96779 z m -157.06541,0.002 c 28.14226,0 51.03572,22.89536 51.03572,51.03763 0,28.12663 -22.87018,51.00836 -50.98803,51.03571 h -0.0992 c -28.11882,-0.0274 -50.98803,-22.90908 -50.98803,-51.03571 0,-28.14227 22.89727,-51.03763 51.03953,-51.03763 z m 104.71154,0 c 28.14324,0 51.03572,22.89536 51.03572,51.03763 0,28.12663 -22.86637,51.00836 -50.98422,51.03571 h -0.12589 c -6.9169,-0.0108 -13.49748,-1.42975 -19.50704,-3.95253 8.39951,-5.86501 15.15815,-13.91384 19.45362,-23.32031 0.042,9.7e-4 0.0839,0.006 0.12781,0.006 13.10617,0 23.7686,-10.66144 23.7686,-23.76858 0,-13.10519 -10.66048,-23.7686 -23.7686,-23.7686 -0.043,0 -0.0848,0.006 -0.12781,0.006 -4.29644,-9.4055 -11.05504,-17.4553 -19.45553,-23.32031 6.03593,-2.52669 12.64203,-3.95444 19.58334,-3.95444 z m -52.35577,0.002 c 28.14129,-9.7e-4 51.03763,22.89346 51.03763,51.03573 0,28.12663 -22.87019,51.00836 -50.98803,51.03571 h -0.13354 c -6.91494,-0.0108 -13.4937,-1.4298 -19.5013,-3.95062 8.40048,-5.86501 15.16001,-13.91477 19.45743,-23.32222 0.043,0 0.0839,0.008 0.12781,0.008 13.10617,0 23.7686,-10.66336 23.7686,-23.7705 0,-13.10519 -10.66048,-23.7686 -23.7686,-23.7686 -0.043,0 -0.0848,0.005 -0.12781,0.006 -4.30035,-9.41526 -11.06723,-17.46769 -19.47652,-23.33367 6.0418,-2.52474 12.65813,-3.93918 19.60433,-3.93918 z m -52.35577,27.26713 c -13.10812,0 -23.7686,10.66145 -23.7686,23.7686 0,13.10616 10.66048,23.76858 23.7686,23.76858 13.10616,0 23.7686,-10.66144 23.7686,-23.76858 0,-13.10519 -10.66048,-23.7686 -23.7686,-23.7686 z m 0,6.36181 c 9.59693,0 17.40487,7.8079 17.40487,17.40679 0,9.59888 -7.80794,17.40677 -17.40487,17.40677 -9.59693,0 -17.40487,-7.80789 -17.40487,-17.40677 0,-9.59791 7.80794,-17.40679 17.40487,-17.40679 z m 159.46706,0.18504 c 8.46495,1.17593 15.00894,8.43937 15.00894,17.22175 0,8.78237 -6.54203,16.0458 -15.00894,17.22173 1.71507,-5.43917 2.64202,-11.2239 2.64202,-17.22173 0,-5.99882 -0.92793,-11.78356 -2.64202,-17.22175 z m -52.35195,0.006 c 8.46202,1.17593 15.00321,8.43369 15.00321,17.21411 0,8.78237 -6.54021,16.04009 -15.00321,17.21603 1.71409,-5.43722 2.6401,-11.22112 2.6401,-17.21603 0,-5.99588 -0.92797,-11.77689 -2.6401,-17.21411 z m -52.35577,0.008 c 8.46006,1.17691 15.00321,8.42801 15.00321,17.20647 0,8.78237 -6.54306,16.04582 -15.00703,17.22175 1.71506,-5.43917 2.64202,-11.22391 2.64202,-17.22175 9.7e-4,-5.99197 -0.92704,-11.77218 -2.6382,-17.20647 z m -28.53377,68.24029 0.006,0.002 H 196.88 c 0.003,-9.7e-4 0.006,-9.3e-4 0.008,-0.002 z m -95.58943,6.36563 h 299.553 V 434.3623 c -0.002,6.27717 -5.10921,11.3826 -11.38833,11.3826 h -55.16757 l 7.32897,-7.32896 c 3.36469,-3.36469 5.21917,-7.83933 5.21917,-12.59774 v -1.5299 c 13.39039,-1.58223 23.81438,-12.98182 23.81438,-26.79022 v -16.29083 c 0,-6.4686 -5.25927,-11.72979 -11.72787,-11.72979 h -12.0846 v -4.5992 c 0,-4.82093 -3.92537,-8.74441 -8.7463,-8.74441 h -63.67924 c -4.82093,0 -8.74441,3.92251 -8.74441,8.74441 v 60.93994 c 0,4.75939 1.85449,9.23207 5.21917,12.59774 l 7.32898,7.32896 h -78.11399 l 7.32897,-7.32706 c 3.36469,-3.36469 5.21917,-7.83737 5.21917,-12.59774 v -1.52988 c 13.39038,-1.58224 23.81438,-12.98374 23.81438,-26.79214 v -16.28893 c 0,-6.46859 -5.25933,-11.72977 -11.72597,-11.72978 h -12.08841 v -4.60111 c 0,-4.82093 -3.92348,-8.74249 -8.74441,-8.74249 h -63.67732 c -4.82093,0 -8.74631,3.92059 -8.74631,8.74249 v 60.94184 c 0,4.7594 1.8516,9.23408 5.21727,12.59584 l 7.32896,7.32896 h -31.35318 c -6.27717,0 -11.38451,-5.10543 -11.38451,-11.3826 z m 283.30985,9.48646 c -1.75706,0 -3.18187,1.4248 -3.18187,3.18186 v 8.01188 c 0,1.75706 1.42481,3.18187 3.18187,3.18187 1.75706,0 3.17996,-1.42481 3.17996,-3.18187 v -8.01188 c 0,-1.75706 -1.4229,-3.18186 -3.17996,-3.18186 z m 0,23.33175 c -1.75706,0 -3.18187,1.4229 -3.18187,3.17996 v 30.34979 c 0,1.75706 1.42481,3.18186 3.18187,3.18186 1.75706,0 3.17996,-1.42382 3.17996,-3.18186 V 331.2188 c 0,-1.75706 -1.4229,-3.17996 -3.17996,-3.17996 z m 69.71676,4.13757 c -1.75706,0 -3.17995,1.4248 -3.17995,3.18186 v 8.90655 c 0,1.75706 1.42289,3.18186 3.17995,3.18186 1.75707,0 3.18187,-1.4248 3.18187,-3.18186 v -8.90655 c -9.8e-4,-1.75706 -1.42578,-3.18186 -3.18187,-3.18186 z m 0,25.804 c -1.75706,0 -3.17995,1.4229 -3.17995,3.17996 v 48.60353 c 0,1.75706 1.42289,3.18186 3.17995,3.18186 1.75707,0 3.18187,-1.4248 3.18187,-3.18186 V 361.1612 c -9.8e-4,-1.75706 -1.42578,-3.17996 -3.18187,-3.17996 z m -314.09075,4.51908 h 63.67733 c 1.31462,0 2.38258,1.06708 2.38258,2.37877 v 56.43611 4.50573 c 0,3.06191 -1.19111,5.93632 -3.35545,8.09773 l -8.47352,8.47352 c -2.16239,2.16239 -5.03684,3.35355 -8.09583,3.35355 h -28.5929 c -3.06191,0 -5.93822,-1.19116 -8.09963,-3.35355 l -8.47352,-8.47352 c -2.16239,-2.16238 -3.35355,-5.03679 -3.35355,-8.09773 v -60.94184 c 0,-1.31169 1.06987,-2.37877 2.38449,-2.37877 z m 134.18384,0 h 63.67923 c 1.31462,0 2.3845,1.06708 2.3845,2.37877 v 60.94184 c 0,3.05898 -1.19112,5.93339 -3.35546,8.09773 l -8.47352,8.47352 c -2.13016,2.13016 -5.08269,3.35355 -8.09773,3.35355 h -28.59481 c -3.01503,0 -5.96566,-1.22339 -8.09581,-3.35355 l -8.47353,-8.47352 c -2.16434,-2.16434 -3.35545,-5.03875 -3.35545,-8.09773 v -60.94184 c 0,-1.31169 1.06795,-2.37877 2.38258,-2.37877 z m -61.7621,13.3417 h 12.0865 c 2.95643,0 5.36606,2.40763 5.36606,5.36796 v 16.28893 c 0,10.29526 -7.57923,18.85495 -17.45256,20.38834 z m 134.18764,0 h 12.0846 c 2.96034,0 5.36796,2.40763 5.36796,5.36796 v 16.28893 c 0,10.29526 -7.57922,18.85495 -17.45256,20.38834 z M 129.70393,482.32297 h 31.21965 v 10.47459 c 0,2.70347 -2.19905,4.90443 -4.90251,4.90443 h -21.41463 c -2.70347,0 -4.90252,-2.20096 -4.90251,-4.90443 z m 211.51761,0 h 31.21965 v 10.47459 c 0,2.70347 -2.19904,4.90443 -4.90251,4.90443 h -21.41463 c -2.70347,0 -4.90251,-2.20096 -4.90251,-4.90443 z " />
</svg>