<svg viewBox="0 0 512 512" xmlns="http://www.w3.org/2000/svg">
  <path d="m405.5 463.95h-51.41c-2.76 0-5-2.24-5-5v-371.03l-98.35-50.02c-2.06-1.05-3.13-3.38-2.59-5.63s2.55-3.83 4.86-3.83h152.49c2.76 0 5 2.24 5 5v425.51c0 2.76-2.24 5-5 5zm-46.41-10h41.41v-415.51h-126.63l82.48 41.96c1.68.85 2.74 2.57 2.74 4.45zm-201.18 10h-51.41c-2.76 0-5-2.24-5-5v-425.51c0-2.76 2.24-5 5-5h90.64c2.77 0 5 2.24 5 5v51.41c0 2.76-2.23 5-5 5h-34.23v369.1c0 2.76-2.24 5-5 5zm-46.41-10h41.41v-369.1c0-2.76 2.24-5 5-5h34.23v-41.41h-80.64z m197.15 511.97c-1.06 0-2.11-.33-2.98-.98-1.27-.94-2.02-2.43-2.02-4.02v-501.94c0-1.74.9-3.36 2.38-4.27 1.49-.9 3.33-.98 4.88-.19l156.94 79.83c1.68.85 2.74 2.57 2.74 4.45v374.1c0 2.2-1.44 4.13-3.54 4.78l-156.94 48.03c-.48.14-.98.21-1.46.21zm4.99-498.79v487.03l146.95-44.96v-367.33l-146.95-74.74z m250.58 332.04h-29.76c-2.77 0-5-2.24-5-5v-100.12c0-2.76 2.23-5 5-5h2.7c17.68 0 32.06 14.38 32.06 32.06v73.06c0 2.76-2.24 5-5 5zm-24.76-10h19.77v-68.07c0-11.38-8.68-20.78-19.77-21.93z " />
</svg>