<svg viewBox="0 0 512 512" xmlns="http://www.w3.org/2000/svg">
  <path d="m 90.816406,1.0175781 c -19.578,0 -35.505859,15.9249059 -35.505859,35.5039059 v 79.658206 c 0,2.934 2.3765,5.31054 5.3125,5.31054 H 451.375 c 2.936,0 5.3125,-2.37754 5.3125,-5.31054 V 36.521484 c 0,-19.578 -15.92491,-35.5039059 -35.50391,-35.5039059 z m 0,10.6249999 H 421.18359 c 13.721,0 24.88086,11.159906 24.88086,24.878906 V 110.86719 H 65.935547 V 36.521484 c 0,-13.719 11.159859,-24.878906 24.880859,-24.878906 z M 301.20312,38.203125 c -12.70999,0 -23.05468,10.341781 -23.05468,23.050781 0,12.709 10.34468,23.050781 23.05468,23.050782 h 95.2461 c 12.71,0 23.04883,-10.341782 23.04883,-23.050782 0,-12.709 -10.33883,-23.050781 -23.04883,-23.050781 z m 0,10.623047 h 95.2461 c 6.853,0 12.42383,5.574734 12.42383,12.427734 0,6.853 -5.57083,12.427735 -12.42383,12.427735 h -95.2461 c -6.853,0 -12.42968,-5.574735 -12.42968,-12.427735 0,-6.853 5.57668,-12.427734 12.42968,-12.427734 z M 97.808594,55.941406 c -2.936,0 -5.3125,2.3795 -5.3125,5.3125 0,2.933 2.3765,5.3125 5.3125,5.3125 h 5.660156 c 2.936,0 5.3125,-2.3795 5.3125,-5.3125 0,-2.933 -2.3765,-5.3125 -5.3125,-5.3125 z m 27.039066,0 c -2.936,0 -5.3125,2.3795 -5.3125,5.3125 0,2.933 2.3765,5.3125 5.3125,5.3125 h 5.66015 c 2.936,0 5.31055,-2.3795 5.31055,-5.3125 0,-2.933 -2.37455,-5.3125 -5.31055,-5.3125 z m 27.03711,0 c -2.936,0 -5.3125,2.3795 -5.3125,5.3125 0,2.933 2.3765,5.3125 5.3125,5.3125 h 5.66015 c 2.936,0 5.3125,-2.3795 5.3125,-5.3125 0,-2.933 -2.3755,-5.3125 -5.3125,-5.3125 z M 60.644531,118.5685 c -2.936,0 -5.3125,-5.39433 -5.3125,-2.46133 v 359.39088 c 0,19.565 15.916375,35.48437 35.484375,35.48437 H 421.18555 c 19.567,0 35.48242,-15.91937 35.48242,-35.48437 v -25.86914 c 0,-2.934 -2.3765,-5.3125 -5.3125,-5.3125 -2.936,0 -5.31055,2.3795 -5.31055,5.3125 v 25.86914 c 0,13.708 -11.15437,24.85937 -24.85937,24.85937 H 90.816406 c -13.706,0 -24.859375,-11.15137 -24.859375,-24.85937 V 121.32674 c 0,-2.934 -2.3765,-2.75824 -5.3125,-2.75824 z m 390.710939,-1.05502 c -2.936,0 -5.31055,0.43604 -5.31055,3.36904 v 264.37862 c 0,2.934 2.37455,-5.23771 5.31055,-5.23771 2.936,0 5.3125,8.22623 5.3125,5.29323 V 116.21822 c 0,-2.934 -2.3765,1.29526 -5.3125,1.29526 z m -195.37891,34.27949 c -87.75,0 -159.136716,71.38776 -159.136716,159.13476 0,87.75 71.386716,159.13672 159.136716,159.13672 87.77,0 159.17969,-71.38672 159.17969,-159.13672 0,-87.747 -71.40969,-159.13476 -159.17969,-159.13476 z m 0,10.62305 c 81.914,0 148.55469,66.62071 148.55469,148.51171 0,81.891 -66.64169,148.51172 -148.55469,148.51172 -81.893,0 -148.51367,-66.62072 -148.51367,-148.51172 0,-81.89 66.62067,-148.51171 148.51367,-148.51171 z m 0,29.74023 c -65.489,0 -118.76758,53.28148 -118.76758,118.77148 0,65.49 53.27858,118.76954 118.76758,118.76954 65.516,0 118.8125,-53.27954 118.8125,-118.76954 0,-65.489 -53.2965,-118.77148 -118.8125,-118.77148 z m 0,10.625 c 59.653,0 108.18946,48.51448 108.18946,108.14648 0,59.632 -48.53646,108.14454 -108.18946,108.14454 -59.633,0 -108.14258,-48.51154 -108.14258,-108.14454 0,-59.632 48.50958,-108.14648 108.14258,-108.14648 z m -40.26953,36.27539 c -1.35337,0.12963 -2.65639,0.77775 -3.58789,1.90625 -9.602,11.602 -9.602,28.45055 0,40.06055 6.355,7.683 6.355,18.83458 0,26.51758 -9.597,11.6 -9.60241,28.44667 -0.31641,39.63867 7.214,11.011 6.14613,19.90831 0.32813,26.94531 -1.873,2.262 -1.55106,5.61152 0.71094,7.47852 2.242,1.864 5.60461,1.55901 7.47461,-0.70899 9.724,-11.762 9.56937,-28.81831 -0.0156,-40.07031 -6.35,-7.683 -6.34914,-18.83367 0.006,-26.51367 9.597,-11.602 9.602,-28.4486 0,-40.0586 -6.355,-7.686 -6.355,-18.83753 0,-26.51953 1.868,-2.259 1.54997,-5.60851 -0.70703,-7.47851 -1.136,-0.939 -2.5392,-1.32689 -3.89258,-1.19727 z m 39.7832,0 c -1.35462,0.12963 -2.65889,0.77775 -3.58789,1.90625 -9.602,11.602 -9.602,28.45055 0,40.06055 6.35,7.68 6.35,18.83458 0,26.51758 -9.597,11.602 -9.60223,28.44617 0.01,40.07617 6.35,7.68 6.35,18.82681 0,26.50781 -1.873,2.262 -1.55106,5.61152 0.71094,7.47852 2.243,1.863 5.60851,1.55901 7.47851,-0.70899 9.592,-11.602 9.59152,-28.44431 -0.0215,-40.07031 -6.35,-7.68 -6.34524,-18.83067 0.01,-26.51367 9.597,-11.607 9.597,-28.4536 0,-40.0586 -6.355,-7.686 -6.355,-18.83753 0,-26.51953 1.868,-2.259 1.55193,-5.60851 -0.70507,-7.47851 -1.1335,-0.939 -2.53991,-1.32689 -3.89454,-1.19727 z m 39.78711,0.002 c -1.354,0.12963 -2.65834,0.7758 -3.58984,1.9043 -9.602,11.602 -9.602,28.4525 0,40.0625 6.35,7.681 6.35009,18.83267 -0.004,26.51367 -9.597,11.605 -9.59737,28.45017 0.0156,40.07617 6.345,7.68 6.345,18.83072 0,26.51172 -1.873,2.262 -1.55106,5.60852 0.71094,7.47852 2.277,1.877 5.62556,1.53711 7.47656,-0.71289 9.587,-11.6 9.58651,-28.44336 -0.0215,-40.06836 -6.35,-7.68 -6.34609,-18.83067 0.004,-26.51367 9.597,-11.602 9.602,-28.4486 0,-40.0586 -6.35,-7.686 -6.34914,-18.83753 0.006,-26.51953 1.868,-2.259 1.55192,-5.60656 -0.70508,-7.47656 -1.1335,-0.939 -2.53858,-1.32689 -3.89258,-1.19727 z m 156.07813,140.97852 c -2.936,0 -5.31055,2.3795 -5.31055,5.3125 v 72.88005 c 0,2.934 2.37455,-11.12556 5.31055,-11.12556 2.936,0 5.3125,11.61536 5.3125,8.68236 v -70.43685 c 0,-2.934 -2.3765,-5.3125 -5.3125,-5.3125 z " />
</svg>