<svg viewBox="0 0 512 512" xmlns="http://www.w3.org/2000/svg">
  <path d="M 54.238281,0 C 36.035281,0 21.226563,14.810672 21.226562,33.013672 V 384.39062 c 0,4.142 3.358001,7.5 7.5,7.5 4.142001,0 7.5,-3.358 7.5,-7.5 V 121.64648 H 475.77344 v 322.13086 c 0,9.933 -8.07972,18.01368 -18.01172,18.01368 H 54.240234 c -9.933,0 -18.013671,-8.08168 -18.013672,-18.01368 v -24.38672 c 0,-4.14199 -3.357999,-7.5 -7.5,-7.5 -4.141999,0 -7.5,3.358 -7.5,7.5 v 24.38672 c 0,16.82 12.647688,30.73296 28.929688,32.75196 v 21.84765 c 0,7.512 6.111047,13.6211 13.623047,13.6211 h 44.597653 c 7.512,0 13.625,-6.1091 13.625,-13.6211 V 476.79102 H 390 v 21.58593 c 0,7.512 6.11005,13.6211 13.62305,13.6211 h 44.59961 c 7.512,0 13.62304,-6.1091 13.62304,-13.6211 V 476.5293 c 16.282,-2.019 28.92774,-15.931 28.92774,-32.75 V 86.695312 c 0,-4.141999 -3.358,-7.5 -7.5,-7.5 -4.142,0 -7.5,3.358001 -7.5,7.5 V 106.64648 H 36.226562 V 33.013672 C 36.226562,23.081672 44.306281,15 54.238281,15 H 457.75977 c 9.933,0 18.01367,8.081672 18.01367,18.013672 v 18.679687 c 0.001,4.142 3.358,7.5 7.5,7.5 4.142,0 7.5,-3.358 7.5,-7.5 V 33.013672 C 490.77344,14.810672 475.96472,0 457.76172,0 Z m 39.34961,27.044922 c -18.626,0 -33.779297,15.151344 -33.779297,33.777344 0,18.625 15.153297,33.779296 33.779297,33.779296 18.625999,0 33.779299,-15.153296 33.779299,-33.779296 0,-18.626 -15.1533,-33.777344 -33.779299,-33.777344 z m 86.785159,0 c -18.625,0 -33.77735,15.151344 -33.77735,33.777344 0,18.625 15.15135,33.779296 33.77735,33.779296 18.626,0 33.77929,-15.153296 33.77929,-33.779296 0,-18.626 -15.15429,-33.777344 -33.77929,-33.777344 z m 86.78515,0 c -18.626,0 -33.77734,15.151344 -33.77734,33.777344 0,18.625 15.15234,33.779296 33.77734,33.779296 18.625,0 33.7793,-15.153296 33.7793,-33.779296 0,-18.626 -15.1533,-33.777344 -33.7793,-33.777344 z m 144.64258,0 c -18.625,0 -33.77734,15.151344 -33.77734,33.777344 0,18.626 15.15234,33.779296 33.77734,33.779296 18.054,0 32.84433,-14.237218 33.73633,-32.074218 0.031,-0.137 0.0469,-0.921078 0.0469,-1.705078 0,-0.784 -0.0159,-1.568079 -0.0469,-1.705078 -0.891,-17.837001 -15.68233,-32.072266 -33.73633,-32.072266 z m 0,15 c 7.627,0 14.19386,4.578 17.13086,11.125 h -17.13086 c -4.227,0 -7.6543,3.424344 -7.6543,7.652344 0,4.228 3.4273,7.654296 7.6543,7.654296 h 17.13086 c -2.937,6.546001 -9.50386,11.125 -17.13086,11.125 -10.354,0 -18.77734,-8.424296 -18.77734,-18.779296 0,-10.355 8.42334,-18.777344 18.77734,-18.777344 z M 86.087891,43.617188 v 17.205078 c 0,4.142 3.358,7.5 7.5,7.5 4.142,0 7.499999,-3.358 7.499999,-7.5 V 43.617188 c 6.63,2.902 11.2793,9.517078 11.2793,17.205078 0,10.354 -8.4243,18.779296 -18.779299,18.779296 -10.355,0 -18.779297,-8.424296 -18.779297,-18.779296 0,-7.688 4.649297,-14.304079 11.279297,-17.205078 z m 86.785159,0 v 17.205078 c 0,4.142 3.358,7.5 7.5,7.5 4.142,0 7.5,-3.358 7.5,-7.5 V 43.617188 c 6.629,2.902 11.27929,9.517078 11.27929,17.205078 0,10.354 -8.42529,18.779296 -18.77929,18.779296 -10.354,0 -18.77735,-8.424296 -18.77735,-18.779296 0,-7.688 4.64735,-14.304079 11.27735,-17.205078 z m 86.78515,0 v 17.205078 c 0,4.142 3.358,7.5 7.5,7.5 4.142,0 7.5,-3.358 7.5,-7.5 V 43.617188 c 6.63,2.902 11.2793,9.517078 11.2793,17.205078 0,10.354 -8.4243,18.779296 -18.7793,18.779296 -10.355,0 -18.77734,-8.424296 -18.77734,-18.779296 0,-7.688 4.64734,-14.304079 11.27734,-17.205078 z M 65.160156,147.4668 c -8.637,0 -15.664062,7.02706 -15.664062,15.66406 v 20.41211 c 0,7.572 5.399781,13.90356 12.550781,15.35156 v 219.37109 c 0,9.76201 7.943078,17.70508 17.705078,17.70508 H 432.24609 c 9.763,0 17.70508,-7.94403 17.70508,-17.70703 V 198.89453 c 7.151,-1.448 12.55274,-7.77956 12.55274,-15.35156 v -20.41211 c 0,-8.637 -7.02707,-15.66406 -15.66407,-15.66406 z m 0,15 H 446.83984 c 0.366,0 0.66407,0.29806 0.66407,0.66406 0,21.19 0.33593,21.07422 -0.66407,21.07422 H 65.160156 c -0.366,0 -0.664062,-0.29706 -0.664062,-0.66406 v -20.41016 c 0,-0.366 0.298062,-0.66406 0.664062,-0.66406 z m 11.886719,36.74023 H 434.95117 v 219.05859 h 0.002 c 0,1.49201 -1.21307,2.70508 -2.70507,2.70508 H 79.751953 c -1.492,0 -2.705078,-1.21307 -2.705078,-2.70508 z M 65.154297,476.79297 H 107 V 497 H 65.154297 Z m 339.845703,0 h 41.8457 V 497 H 405 Z " />
</svg>