<svg viewBox="0 0 512 512" xmlns="http://www.w3.org/2000/svg">
  <path d="m282.877 233.177c-1.459-3.878-5.787-5.838-9.66-4.38-12.087 4.546-23.283 4.572-34.228.081-3.831-1.572-8.213.26-9.786 4.092-1.572 3.832.26 8.213 4.092 9.786 7.24 2.97 14.68 4.456 22.268 4.456 7.518 0 15.18-1.458 22.934-4.374 3.878-1.459 5.838-5.784 4.38-9.661z m263.5 433.002c0-4.142-3.358-7.5-7.5-7.5s-7.5 3.358-7.5 7.5c0 4.142 3.358 7.5 7.5 7.5s7.5-3.357 7.5-7.5z m256 461.617c-4.142 0-7.5 3.358-7.5 7.5 0 4.142 3.358 7.5 7.5 7.5s7.5-3.358 7.5-7.5c0-4.142-3.358-7.5-7.5-7.5z m214.168 158.899c-4.142 0-7.5 3.358-7.5 7.5v11.537c0 4.142 3.358 7.5 7.5 7.5s7.5-3.358 7.5-7.5v-11.537c0-4.142-3.358-7.5-7.5-7.5z m297.832 185.436c4.142 0 7.5-3.358 7.5-7.5v-11.537c0-4.142-3.358-7.5-7.5-7.5s-7.5 3.358-7.5 7.5v11.537c0 4.142 3.358 7.5 7.5 7.5z m313.279 297.874v-13.503c21.964-16.603 36.686-42.494 38.445-71.869 19.963-.535 36.041-16.929 36.041-37.019 0-13.332-7.081-25.038-17.678-31.564v-74.215c0-18.176-14.133-33.113-31.987-34.397v-.82c0-19.016-15.471-34.487-34.487-34.487h-119.2c-23.435 0-42.5 19.065-42.5 42.5v32.685c0 4.142 3.358 7.5 7.5 7.5s7.5-3.358 7.5-7.5v-32.685c0-15.164 12.336-27.5 27.5-27.5h119.2c10.745 0 19.486 8.742 19.486 19.487v3.23c0 6.893 5.607 12.5 12.5 12.5 10.745 0 19.487 8.742 19.487 19.487v69.001c-1.111-.131-2.237-.211-3.375-.241-2.021-32.115-19.862-61.55-47.586-77.856-4.414-2.595-9.886-2.263-13.941.848-18.901 14.505-58.895 39.521-114.373 44.089-5.055.416-9.332 3.781-10.897 8.574-2.572 7.878-4.106 16.044-4.617 24.344-1.142.03-2.27.11-3.384.241v-30.833c0-4.142-3.358-7.5-7.5-7.5s-7.5 3.358-7.5 7.5v36.048c-10.597 6.526-17.678 18.232-17.678 31.564 0 20.09 16.078 36.484 36.041 37.019 1.771 29.572 16.682 55.61 38.892 72.199v13.073l-13.923 12.099-84.085 18.977c-20.324 4.586-35.511 22.307-36.932 43.094l-2.372 34.676c-.283 4.132 2.838 7.711 6.971 7.994.174.012.347.018.52.018 3.909 0 7.204-3.031 7.475-6.989l2.372-34.676c.973-14.222 11.364-26.347 25.27-29.485l78.144-17.636 11.454 65.684c1.563 8.96 12.389 13.353 19.754 7.897l41.979-31.094 42.43 31.163c7.357 5.402 18.149 1.021 19.712-7.924l11.494-65.799 6.705 1.518c.558.126 1.114.187 1.663.187 3.426 0 6.52-2.363 7.308-5.845.914-4.04-1.619-8.056-5.659-8.971l-12.893-2.919zm1.98 21.852-11.406 65.294-37.102-27.249 39.691-46.023zm36.649-122.232v-44.023c11.605.619 20.856 10.255 20.856 22.012.001 11.757-9.251 21.392-20.856 22.011zm-212.673-22.011c0-11.757 9.251-21.392 20.856-22.011v44.023c-11.604-.62-20.856-10.255-20.856-22.012zm35.857 31.088v-62.001c0-8.261 1.205-16.398 3.584-24.216 57.157-5.118 98.735-30.469 119.272-45.958 24.074 14.84 38.96 41.571 38.96 70.174v62.001c0 45.246-36.295 82.057-80.908 82.057s-80.908-36.811-80.908-82.057zm80.908 97.057c15.166 0 29.517-3.586 42.279-9.956v4.865c-.541.448-1.056.933-1.524 1.476l-40.93 47.458-40.152-47.408c-.462-.545-.971-1.035-1.506-1.486v-4.679c12.65 6.23 26.845 9.73 41.833 9.73zm-50.131 8.067 39.008 46.058-36.736 27.211-11.387-65.299z m455.707 487.965-7.936-116.043c-1.443-21.1-16.271-38.415-36.898-43.086l-38.275-8.667c-4.04-.913-8.057 1.619-8.971 5.659-.915 4.04 1.619 8.056 5.659 8.971l38.275 8.667c14.113 3.196 24.258 15.043 25.246 29.48l7.935 116.043c.143 2.096-.567 4.096-2.001 5.631s-3.38 2.381-5.481 2.381h-58.81v-59.477c0-4.142-3.358-7.5-7.5-7.5s-7.5 3.358-7.5 7.5v59.476h-206.9v-59.477c0-4.142-3.358-7.5-7.5-7.5s-7.5 3.358-7.5 7.5v59.477h-58.81c-2.101 0-4.047-.846-5.481-2.381s-2.145-3.535-2.002-5.631l3.267-47.776c.283-4.132-2.838-7.711-6.971-7.994-4.133-.29-7.712 2.838-7.994 6.971l-3.267 47.776c-.424 6.196 1.765 12.354 6.004 16.893 4.241 4.539 10.234 7.142 16.445 7.142h354.519c6.211 0 12.204-2.603 16.443-7.143 4.239-4.539 6.427-10.696 6.004-16.892z " />
</svg>