<svg viewBox="0 0 128 128" xmlns="http://www.w3.org/2000/svg">
  <path d="m 34.333008,0.11523438 a 6.758,6.758 0 0 0 -6.75,6.75000002 V 43 a 6.726,6.726 0 0 0 2.231933,5 6.726,6.726 0 0 0 -2.231933,5 v 61.12988 a 6.758,6.758 0 0 0 6.75,6.75 H 35.25 V 126.25 A 1.75,1.75 0 0 0 37,128 h 12.5 a 1.75,1.75 0 0 0 1.75,-1.75 v -5.37012 h 25.5 V 126.25 A 1.75,1.75 0 0 0 78.5,128 H 91 a 1.75,1.75 0 0 0 1.75,-1.75 v -5.37012 h 0.916992 a 6.758,6.758 0 0 0 6.749998,-6.75 V 53 a 6.726,6.726 0 0 0 -2.231931,-5 6.726,6.726 0 0 0 2.231931,-5 V 6.8652344 A 6.758,6.758 0 0 0 93.666992,0.11523438 Z m 0,3.50000002 h 59.333984 a 3.254,3.254 0 0 1 3.25,3.25 V 43 a 3.254,3.254 0 0 1 -3.25,3.25 H 34.333008 a 3.254,3.254 0 0 1 -3.25,-3.25 V 6.8652344 a 3.254,3.254 0 0 1 3.25,-3.25 z m 47.825195,9.0668946 a 1.75,1.75 0 0 0 -1.75,1.75 v 21 a 1.75,1.75 0 0 0 1.75,1.75 h 6.5 a 1.75,1.75 0 0 0 1.75,-1.75 v -21 a 1.75,1.75 0 0 0 -1.75,-1.75 z m 1.75,3.5 h 3 v 17.5 h -3 z M 34.333008,49.75 h 59.333984 a 3.254,3.254 0 0 1 3.25,3.25 v 61.12988 a 3.254,3.254 0 0 1 -3.25,3.25 H 34.333008 a 3.254,3.254 0 0 1 -3.25,-3.25 V 53 a 3.254,3.254 0 0 1 3.25,-3.25 z m 47.825195,6.507812 a 1.75,1.75 0 0 0 -1.75,1.75 v 21 a 1.75,1.75 0 0 0 1.75,1.75 h 6.5 a 1.75,1.75 0 0 0 1.75,-1.75 v -21 a 1.75,1.75 0 0 0 -1.75,-1.75 z m 1.75,3.5 h 3 v 17.5 h -3 z M 38.75,120.87988 h 9 V 124.5 h -9 z m 41.5,0 h 9 V 124.5 h -9 z " />
</svg>