<svg viewBox="0 0 88 88" xmlns="http://www.w3.org/2000/svg">
  <path d="M66,64a1,1,0,0,0-1,1V78a3.0033,3.0033,0,0,1-3,3H26a3.0033,3.0033,0,0,1-3-3V46a1,1,0,0,0-2,0V78a5.0083,5.0083,0,0,0,4,4.8989V86a1,1,0,0,0,1,1h8a1,1,0,0,0,1-1V83H53v3a1,1,0,0,0,1,1h8a1,1,0,0,0,1-1V82.8989A5.0083,5.0083,0,0,0,67,78V65A1,1,0,0,0,66,64ZM33,85H27V83h6Zm28,0H55V83h6Z M62,1H26a5.0059,5.0059,0,0,0-5,5V41a1,1,0,0,0,2,0V33H65V60a1,1,0,0,0,2,0V6A5.0059,5.0059,0,0,0,62,1ZM55,31H33V29H55Zm10,0H57V28a1,1,0,0,0-1-1H32a1,1,0,0,0-1,1v3H23V6a3.0033,3.0033,0,0,1,3-3H62a3.0033,3.0033,0,0,1,3,3Z M26,9V25a1,1,0,0,0,2,0V9a1,1,0,0,0-2,0Z M28,59V38a1,1,0,0,0-2,0V59a1,1,0,0,0,2,0Z " />
</svg>