<svg viewBox="0 0 512 512" xmlns="http://www.w3.org/2000/svg">
  <path d="m 324.77148,0 c -15.98574,0.04068909 -31.00976,9.93125 -36.7871,25.804688 l -0.0313,0.08594 c -0.9727,-0.558136 -1.96011,-1.096694 -2.98828,-1.576172 -9.493,-4.427 -20.14237,-4.891594 -29.98437,-1.308594 -9.843,3.582 -17.69995,10.782391 -22.12695,20.275391 -4.427,9.493 -4.8906,20.141375 -1.3086,29.984375 l 19.58203,53.802732 -19.52343,53.64062 c -4.89344,-16.08174 -19.85744,-27.82031 -37.51758,-27.82031 -21.622,0 -39.21485,17.59089 -39.21485,39.21289 v 1.08008 c -6.41222,-4.57072 -14.2443,-7.27148 -22.70117,-7.27148 -21.622,0 -39.214842,17.59089 -39.214842,39.21289 v 45.40625 78.42578 c 0,22.007 4.312406,43.36275 12.816402,63.46875 8.212,19.416 19.96846,36.85126 34.93946,51.82226 14.971,14.971 32.40626,26.7245 51.82226,34.9375 C 212.6392,507.68759 233.993,512 256,512 c 22.008,0 43.36175,-4.31236 63.46875,-12.81836 19.416,-8.212 36.85127,-19.9665 51.82227,-34.9375 14.971,-14.971 26.7245,-32.40627 34.9375,-51.82226 8.504,-20.106 12.8164,-41.4598 12.8164,-63.4668 v -84.61719 c 0,-15.436 -6.01078,-29.94828 -16.92578,-40.86328 -10.36793,-10.36888 -23.99497,-16.24568 -38.56445,-16.81445 l -28.96875,-79.58985 27.0957,-74.441404 c 3.583,-9.843 3.11645,-20.491375 -1.31055,-29.984375 -4.427,-9.493 -12.28495,-16.6953435 -22.12695,-20.2773435 C 333.79936,0.7493125 329.24749,-0.01139294 324.77148,0 Z m 1.13868,16.537109 c 2.22994,0.104667 4.47998,0.543016 6.68554,1.345703 5.699,2.074001 10.24755,6.242282 12.81055,11.738282 2.563,5.496 2.83181,11.661375 0.75781,17.359375 L 325.80078,102.93164 305.24023,46.443359 c -1.07356,-2.950043 -2.50731,-5.695494 -4.19531,-8.25 l 2.45313,-6.742187 c 3.47912,-9.55825 12.74901,-15.367619 22.41211,-14.914063 z m -56.52735,20.623047 c 2.9405,0.128375 5.85552,0.835688 8.60352,2.117188 5.496,2.563 9.66428,7.1145 11.73828,12.8125 L 345.94336,206.54883 H 297.625 L 267.69336,124.31445 247.05859,67.617188 c -2.074,-5.698001 -1.80518,-11.861422 0.75782,-17.357422 2.563,-5.496 7.11254,-9.666235 12.81054,-11.740235 2.849,-1.037 5.81536,-1.48775 8.75586,-1.359375 z m -9.4707,114.044924 20.14258,55.34375 h -1.35157 c -11.37999,0 -20.63867,9.25867 -20.63867,20.63867 0,15.436 6.01078,29.94828 16.92578,40.86328 10.914,10.915 25.42533,16.92578 40.86133,16.92578 h 24.76758 v 20.94922 c -11.572,0.876 -22.81448,3.59795 -33.52148,8.12695 -12.781,5.405 -24.25833,13.1431 -34.11133,22.9961 -9.853,9.854 -17.5901,21.32837 -22.9961,34.10937 -5.598,13.237 -8.43554,27.29235 -8.43554,41.77735 0,4.559 3.6949,8.25586 8.2539,8.25586 4.559,0 8.25586,-3.69686 8.25586,-8.25586 0,-50.073 40.7356,-90.8086 90.8086,-90.8086 4.559,0 8.25586,-3.69686 8.25586,-8.25586 v -37.14843 c 0,-4.559 -3.69686,-8.25586 -8.25586,-8.25586 h -33.02149 c -22.76,0 -41.27734,-18.51735 -41.27734,-41.27735 0,-2.276 1.8529,-4.12695 4.1289,-4.12695 h 13.14258 69.41211 c 22.76,0 41.27539,18.51734 41.27539,41.27734 v 84.61719 c 0,80.798 -65.7342,146.5332 -146.5332,146.5332 -80.799,0 -146.5332,-65.73615 -146.5332,-146.53515 V 302.4707 c 6.41222,4.57072 14.24625,7.27149 22.70312,7.27149 12.57426,0 23.77632,-5.95594 30.95703,-15.1875 7.18072,9.23156 18.38473,15.1875 30.95899,15.1875 21.622,0 39.21289,-17.59089 39.21289,-39.21289 v -46.20508 z m -65.82617,18.19531 c 12.518,0 22.70117,10.18413 22.70117,22.70313 v 78.42578 c 0,12.519 -10.18317,22.70312 -22.70117,22.70312 -12.518,0 -22.70313,-10.18512 -22.70313,-22.70312 v -45.40625 -33.01953 c 0,-12.519 10.18513,-22.70313 22.70313,-22.70313 z m -61.91602,33.02149 c 12.518,-10e-6 22.70117,10.18317 22.70117,22.70117 v 45.40625 c 0,12.518 -10.18317,22.70312 -22.70117,22.70312 -12.519,0 -22.70312,-10.18512 -22.70312,-22.70312 v -45.40625 c 0,-12.517 10.18512,-22.70117 22.70312,-22.70117 z " />
</svg>