<svg viewBox="0 0 512 512" xmlns="http://www.w3.org/2000/svg">
  <path d="m291.845 223.063c-3.372 0-6.538-2.082-7.758-5.434l-52.543-144.363c-3.582-9.843-3.118-20.491 1.309-29.984s12.285-16.694 22.128-20.276c9.842-3.583 20.491-3.118 29.984 1.309s16.694 12.285 20.276 22.128l60.251 165.539c1.559 4.284-.649 9.022-4.934 10.581-4.284 1.559-9.022-.649-10.581-4.934l-60.252-165.54c-2.074-5.698-6.243-10.248-11.739-12.811s-11.661-2.832-17.359-.758-10.248 6.243-12.811 11.739-2.832 11.661-.758 17.359l52.544 144.363c1.559 4.284-.649 9.022-4.934 10.581-.932.34-1.885.501-2.823.501z m325.8 135.327c-.938 0-1.891-.161-2.823-.5-4.284-1.559-6.493-6.297-4.934-10.581l28.122-77.265c2.074-5.698 1.805-11.863-.758-17.359s-7.112-9.665-12.811-11.739c-11.763-4.281-24.816 1.805-29.098 13.569l-3.974 10.92c-1.559 4.284-6.297 6.493-10.581 4.934s-6.493-6.297-4.934-10.581l3.975-10.92c7.395-20.318 29.941-30.833 50.26-23.437 9.842 3.582 17.701 10.783 22.128 20.276s4.892 20.141 1.309 29.984l-28.122 77.265c-1.221 3.351-4.387 5.433-7.759 5.434z m225.042 231.128c-.938 0-1.891-.161-2.823-.5-4.284-1.559-6.493-6.297-4.934-10.581l34.869-95.801c1.559-4.284 6.297-6.494 10.581-4.934 4.284 1.559 6.493 6.297 4.934 10.581l-34.869 95.801c-1.22 3.352-4.386 5.434-7.758 5.434z m132.169 309.742c-21.622 0-39.213-17.591-39.213-39.213v-45.405c0-21.622 17.591-39.213 39.213-39.213s39.213 17.591 39.213 39.213v45.405c0 21.622-17.591 39.213-39.213 39.213zm0-107.32c-12.518 0-22.703 10.185-22.703 22.702v45.405c0 12.518 10.184 22.703 22.703 22.703 12.518 0 22.702-10.185 22.702-22.703v-45.405c0-12.518-10.184-22.702-22.702-22.702z m194.085 309.742c-21.622 0-39.213-17.591-39.213-39.213v-78.427c0-21.622 17.591-39.213 39.213-39.213s39.213 17.591 39.213 39.213v78.427c0 21.622-17.591 39.213-39.213 39.213zm0-140.342c-12.518 0-22.703 10.184-22.703 22.703v78.427c0 12.518 10.185 22.703 22.703 22.703s22.702-10.184 22.702-22.703v-78.427c0-12.519-10.184-22.703-22.702-22.703z m256 512c-22.007 0-43.361-4.312-63.467-12.816-19.416-8.213-36.852-19.967-51.823-34.938s-26.726-32.407-34.938-51.823c-8.504-20.106-12.816-41.46-12.816-63.467v-78.427c0-4.559 3.696-8.255 8.255-8.255s8.255 3.696 8.255 8.255v78.427c0 80.799 65.735 146.534 146.534 146.534s146.534-65.735 146.534-146.533v-84.618c0-22.76-18.517-41.277-41.277-41.277h-82.554c-2.276 0-4.128 1.852-4.128 4.128 0 22.76 18.517 41.277 41.277 41.277h33.022c4.559 0 8.255 3.696 8.255 8.255v37.149c0 4.559-3.696 8.255-8.255 8.255-50.073 0-90.81 40.737-90.81 90.81 0 4.559-3.696 8.255-8.255 8.255s-8.255-3.696-8.255-8.255c0-14.485 2.839-28.54 8.437-41.777 5.406-12.781 13.143-24.257 22.996-34.111 9.853-9.853 21.33-17.591 34.111-22.996 10.707-4.529 21.949-7.251 33.521-8.127v-20.949h-24.767c-15.436 0-29.948-6.011-40.862-16.926-10.915-10.915-16.926-25.426-16.926-40.862 0-11.38 9.259-20.639 20.639-20.639h82.554c15.436 0 29.948 6.011 40.862 16.926 10.915 10.915 16.926 25.426 16.926 40.862v84.618c0 22.007-4.312 43.36-12.816 63.466-8.213 19.416-19.967 36.852-34.938 51.823s-32.407 26.726-51.823 34.938c-20.107 8.506-41.46 12.818-63.468 12.818z " />
</svg>