<svg viewBox="0 0 512 512" xmlns="http://www.w3.org/2000/svg">
  <path d="m 230.69531,0 c -21.629,0 -39.22656,17.597562 -39.22656,39.226562 v 5.236329 c -6.41696,-4.578353 -14.24319,-7.302735 -22.70898,-7.302735 -21.629,0 -39.22657,17.597563 -39.22657,39.226563 v 46.527341 c -6.41661,-4.57753 -14.24402,-7.30078 -22.70898,-7.30078 -21.629001,0 -39.224611,17.59756 -39.224611,39.22656 v 190.03125 c 0,22.558 4.419719,44.44664 13.136719,65.05664 8.417,19.903 20.466502,37.7751 35.812502,53.1211 15.346,15.346 33.21909,27.39645 53.12109,35.81445 20.609,8.717 42.49764,13.13672 65.05664,13.13672 18.584,0 36.88077,-3.05503 54.38477,-9.08203 17.071,-5.877 33.00442,-14.44208 47.35742,-25.45508 14.353,-11.013 26.74875,-24.1863 36.84375,-39.1543 10.351,-15.346 18.03766,-32.22868 22.84766,-50.17968 l 47.53125,-177.38672 c 1.427,-5.327 0.6945,-10.89002 -2.0625,-15.66602 -2.757,-4.776 -7.21011,-8.19214 -12.53711,-9.61914 -14.915,-3.996 -30.49324,-1.94461 -43.86524,5.77539 -13.371,7.72 -22.93464,20.18461 -26.93164,35.09961 l -15.04297,56.13672 c -3.78284,-0.71293 -7.58626,-1.14228 -11.39648,-1.44336 V 76.386719 c 0,-21.629 -17.59561,-39.226563 -39.22461,-39.226563 -8.46536,0 -16.29241,2.723249 -22.70898,7.300782 V 39.226562 C 269.92188,17.597562 252.32431,0 230.69531,0 Z m 0,16.515625 c 12.523,0 22.70899,10.188938 22.70899,22.710937 V 227.09766 c 0,4.561 3.69681,8.25781 8.25781,8.25781 4.561,0 8.25977,-3.69681 8.25977,-8.25781 V 76.347656 c 0.0214,-12.504889 10.20017,-22.669922 22.70898,-22.669922 12.522,0 22.70898,10.186985 22.70898,22.708985 V 280.99609 c -2.19393,0.16882 -4.38825,0.34144 -6.58007,0.64649 -13.748,1.914 -26.84011,6.41867 -38.91211,13.38867 -12.072,6.97 -22.51878,16.05391 -31.05078,27.00391 -8.837,11.34 -15.22071,24.18664 -18.97071,38.18164 -1.181,4.405 1.43485,8.93328 5.83985,10.11328 4.405,1.181 8.93228,-1.43189 10.11328,-5.83789 10.69322,-39.90657 46.53146,-66.42907 85.90625,-67.2461 0.61629,0.14678 1.25086,0.24414 1.91211,0.24414 0.61893,0 1.2168,-0.0799 1.79687,-0.20898 7.16592,0.14634 14.41267,1.0423 21.63867,2.97852 2.115,0.566 4.37058,0.27078 6.26758,-0.82422 1.897,-1.095 3.28066,-2.89768 3.84766,-5.01367 l 17.09765,-63.81446 c 5.892,-21.992 28.57832,-35.09026 50.57032,-29.19726 1.437,0.385 2.18881,1.37278 2.50781,1.92578 0.319,0.553 0.79711,1.69581 0.41211,3.13281 l -47.53125,177.38477 c -17.611,65.726 -77.43352,111.63086 -145.47852,111.63086 -83.047,-10e-6 -150.611326,-67.56433 -150.611326,-150.61133 V 154.83984 c 0,-12.523 10.185985,-22.71093 22.708986,-22.71093 12.51631,0 22.69811,10.17858 22.70898,22.6914 v 92.92188 c 0,4.561 3.69877,8.25781 8.25977,8.25781 4.561,0 8.25781,-3.69681 8.25781,-8.25781 V 154.83984 76.386719 c 0,-12.522 10.18699,-22.708985 22.70899,-22.708985 12.50947,0 22.68862,10.167077 22.70898,22.671875 V 227.09766 c 0,4.561 3.69681,8.25781 8.25781,8.25781 4.561,0 8.25782,-3.69681 8.25782,-8.25781 V 76.40625 c 1e-5,-0.0067 0.002,-0.01284 0.002,-0.01953 0,-0.01319 -0.002,-0.02588 -0.002,-0.03906 V 39.226562 c 0,-12.521999 10.18893,-22.710937 22.71093,-22.710937 z " />
</svg>