<svg viewBox="0 0 512 512" xmlns="http://www.w3.org/2000/svg">
  <path d="m137.792 256c-4.561 0-8.258-3.697-8.258-8.258v-171.355c0-21.629 17.597-39.226 39.226-39.226s39.226 17.597 39.226 39.226c0 4.561-3.697 8.258-8.258 8.258s-8.258-3.697-8.258-8.258c0-12.522-10.188-22.71-22.71-22.71s-22.71 10.188-22.71 22.71v171.355c0 4.561-3.697 8.258-8.258 8.258z m261.663 235.355c-4.561 0-8.258-3.697-8.258-8.258v-187.871c0-12.522-10.187-22.71-22.71-22.71-12.522 0-22.71 10.188-22.71 22.71v187.871c0 4.561-3.697 8.258-8.258 8.258s-8.258-3.697-8.258-8.258v-187.871c0-21.629 17.597-39.226 39.226-39.226s39.226 17.597 39.226 39.226v187.871c0 4.561-3.697 8.258-8.258 8.258z m323.598 297.49c-4.561 0-8.258-3.697-8.258-8.258v-212.845c0-12.522-10.188-22.71-22.71-22.71s-22.71 10.187-22.71 22.71c0 4.561-3.697 8.258-8.258 8.258s-8.258-3.697-8.258-8.258c0-21.629 17.596-39.226 39.226-39.226 21.629 0 39.226 17.597 39.226 39.226v212.844c.001 4.561-3.697 8.259-8.258 8.259z m234.726 512c-22.559 0-44.447-4.42-65.056-13.137-19.902-8.418-37.775-20.468-53.121-35.814s-27.396-33.218-35.813-53.121c-8.717-20.61-13.137-42.498-13.137-65.056v-190.033c0-21.629 17.597-39.226 39.226-39.226s39.226 17.597 39.226 39.226c0 4.561-3.697 8.258-8.258 8.258s-8.258-3.697-8.258-8.258c0-12.522-10.187-22.71-22.71-22.71s-22.71 10.187-22.71 22.71v190.034c0 83.047 67.564 150.611 150.611 150.611 68.045 0 127.868-45.904 145.479-111.63l47.531-177.386c.385-1.437-.093-2.58-.412-3.133s-1.07-1.539-2.507-1.924c-21.992-5.893-44.678 7.205-50.57 29.197l-17.099 63.813c-.567 2.116-1.951 3.919-3.848 5.014s-4.151 1.391-6.266.825c-48.382-12.964-98.29 15.851-111.254 64.232-1.181 4.406-5.709 7.02-10.114 5.839-4.405-1.18-7.02-5.709-5.839-10.114 3.75-13.995 10.132-26.841 18.969-38.181 8.532-10.95 18.979-20.035 31.051-27.005s25.164-11.474 38.912-13.388c11.518-1.603 23.085-1.324 34.493.826l15.042-56.137c3.997-14.915 13.562-27.38 26.933-35.1 13.372-7.72 28.95-9.771 43.865-5.775 5.327 1.427 9.779 4.843 12.536 9.619s3.49 10.339 2.063 15.666l-47.531 177.386c-4.81 17.951-12.497 34.834-22.848 50.18-10.095 14.968-22.491 28.142-36.844 39.155s-30.286 19.578-47.357 25.455c-17.504 6.027-35.801 9.082-54.385 9.082z " />
</svg>