<svg viewBox="0 0 96 96" xmlns="http://www.w3.org/2000/svg">
  <path d="m34 28c-11.03 0-20 8.97-20 20 1.1 26.53 38.91 26.53 40 0 0-11.03-8.97-20-20-20zm0 38c-9.92 0-18-8.08-18-18 .99-23.88 35.01-23.87 36 0 0 9.92-8.08 18-18 18z m48.99 48.13c.09-8.31-6.69-15.13-14.99-15.13-8.31 0-15.09 6.81-14.99 15.13-.01.03 0 .06 0 .09 1.05 19.62 28.94 19.6 29.98 0 0-.03.02-.06 0-.09zm-14.99-13.13c6.92 0 12.58 5.44 12.96 12.27-1.68.31-1.97 1.56-3.63 1.57-.84 0-1.21-.26-1.75-.65-.64-.46-1.43-1.03-2.92-1.03s-2.28.57-2.92 1.03c-.54.39-.91.65-1.75.65s-1.2-.26-1.75-.65c-.64-.46-1.43-1.03-2.92-1.03s-2.28.57-2.92 1.03c-.54.39-.9.65-1.75.65-1.66-.02-1.95-1.26-3.63-1.57.38-6.83 6.04-12.27 12.96-12.27zm0 26c-6.7 0-12.23-5.09-12.92-11.61 1.15.63 1.65 1.43 3.59 1.45 1.49 0 2.28-.57 2.92-1.03.54-.39.9-.65 1.75-.65s1.2.26 1.75.65c.64.46 1.43 1.03 2.92 1.03s2.28-.57 2.92-1.03c.54-.39.91-.65 1.75-.65s1.21.26 1.75.65c.64.46 1.43 1.03 2.92 1.03 1.94-.02 2.44-.82 3.59-1.45-.69 6.52-6.22 11.61-12.92 11.61z m46 18h10c.55 0 1-.45 1-1v-5c0-.55-.45-1-1-1h-10c-.55 0-1 .45-1 1v5c0 .55.45 1 1 1zm1-5h8v3h-8z m11.5 16c1.97-.03 1.97-2.97 0-3-1.97.03-1.97 2.97 0 3z m17.5 16c1.97-.03 1.97-2.97 0-3-1.97.03-1.97 2.97 0 3z m23.5 16c1.97-.03 1.97-2.97 0-3-1.97.03-1.97 2.97 0 3z m83.62 53.77c-1.37-.17-2.59 0-3.68.35-.62-6.12-8.23-5.14-9.22-.38-.7-1.41-4.05-4.62-6.72-4.18v-38.56c0-2.21-1.79-4-4-4h-52c-2.21 0-4 1.79-4 4v66c0 2.21 1.79 4 4 4h47.94l1.03 5.55c.26 1.42 1.5 2.45 2.95 2.45h15.67c1.45 0 2.69-1.03 2.95-2.45l4.63-25.01c.48.72.99 1.93 1.08 3.52.57 2.97 4.62 3.67 6.58.49.47-.53-.12-10.87-7.21-11.78zm-10.24-.96c2.37-2.01 4.75-.71 4.63 2.24-.98.62-1.79 1.38-2.46 2.14-.6-1.1-1.67-1.95-2.85-2.28-.2-.96.24-1.66.68-2.09zm-7.58-.91c1.87.93 2.56 1.95 3.17 2.84.63.92 1.27 1.86 2.84 2.02 1.12.11 2.32 1.27 2.24 2.47-.18.3-.32.56-.44.77h-16.2c-1.3-2.1-.16-6.56 2.27-5.17.04.01.07.03.11.06 1.35.67 1.71 1.17 1.76 1.25.48 1.16 2.25.52 1.88-.67-.09-.3-.46-1.01-1.86-1.87.73-1.38 2.48-2.75 4.22-1.71zm-57.8-42.9h52c1.1 0 2 .9 2 2v9h-56v-9c0-1.1.9-2 2-2zm0 70c-1.1 0-2-.9-2-2v-55h56v28.27c-1.04.68-1.77 1.68-2.2 2.41-3.78-.91-5.83 3.74-4.54 7.31h-2.01c-.61-.01-1.11.59-.98 1.18 0 0 3.3 17.82 3.3 17.82h-47.57zm68.57 7.18c-.09.47-.5.82-.98.82h-15.67c-.48 0-.9-.34-.98-.82l-4.48-24.18h26.6l-4.48 24.18zm10.64-20.57c-.56-.11-.93-.53-.96-.67-.1-3.77-3.28-8.47-5.7-4.94h-4.6s.02-.05.02-.07c1.17-1.82 3.62-4.63 7.4-4.17 4.72.58 5.49 7.38 5.6 8.95-.42.54-1.03 1.05-1.77.91z " />
</svg>