<svg viewBox="0 0 512 512" xmlns="http://www.w3.org/2000/svg">
  <path d="M 27.157961,21 C 14.363187,21 4,31.363187 4,44.157961 V 426.26431 c 0,12.79478 10.363187,23.15796 23.157961,23.15796 H 304.70296 l 5.97041,32.13619 c 1.50526,8.22108 8.67971,14.17973 17.07447,14.17973 h 90.72086 c 8.39477,0 15.56921,-5.95865 17.07446,-14.17973 l 26.81032,-144.80509 c 2.77897,4.16843 5.73205,11.18231 6.25311,20.3876 3.30001,17.19478 26.74789,21.24878 38.0953,2.8382 2.72105,-3.06843 -0.70017,-62.93899 -41.74765,-68.20742 -7.9316,-0.98423 -14.99298,-0.002 -21.30353,2.02405 -3.58948,-35.43168 -47.64026,-29.75165 -53.37185,-2.19367 -4.05265,-8.16319 -23.45151,-26.74563 -38.90945,-24.19827 V 44.157961 C 351.36941,31.363187 341.00622,21 328.21145,21 Z m 0,11.57898 H 328.21145 c 6.36845,0 11.57898,5.210541 11.57898,11.578981 V 96.263372 H 15.57898 V 44.157961 c 0,-6.36844 5.210541,-11.578981 11.578981,-11.578981 z M 247.15858,44.157961 c -3.18421,0 -5.78948,2.605271 -5.78948,5.78949 v 28.947451 c 0,3.18422 2.60527,5.78949 5.78948,5.78949 h 57.89491 c 3.18422,0 5.78949,-2.60527 5.78949,-5.78949 V 49.947451 c 0,-3.184219 -2.60527,-5.78949 -5.78949,-5.78949 z M 47.421177,55.736941 c -11.405296,0.173685 -11.405296,17.194786 0,17.36847 11.405296,-0.173684 11.405296,-17.194785 0,-17.36847 z m 34.736941,0 c -11.405296,0.173685 -11.405296,17.194786 0,17.36847 11.405296,-0.173684 11.405296,-17.194785 0,-17.36847 z m 34.736942,0 c -11.4053,0.173685 -11.4053,17.194786 0,17.36847 11.40529,-0.173684 11.40529,-17.194785 0,-17.36847 z m 136.05302,0 H 299.264 v 17.36847 H 252.94808 Z M 15.57898,107.84235 h 324.21145 v 163.66617 c -6.02106,3.93686 -10.24288,9.72726 -12.73235,13.95359 -21.88427,-5.26844 -33.75861,21.65585 -26.29017,42.32433 H 289.1324 c -3.5316,-0.0579 -6.42905,3.41399 -5.67643,6.82979 l 19.10985,103.17053 H 27.157961 v 0.0566 c -6.36844,0 -11.578981,-5.21054 -11.578981,-11.57898 z m 162.10572,34.73694 c -63.85807,0 -115.789798,51.93173 -115.789798,115.78981 6.36844,153.59518 225.269068,153.59518 231.579608,0 0,-63.85808 -51.93172,-115.78981 -115.78981,-115.78981 z m 0,12.12175 c 50.67252,0.007 101.34503,34.5705 104.21083,103.66806 0,57.43174 -46.77908,104.21082 -104.21083,104.21082 -57.43174,0 -104.210817,-46.77908 -104.210817,-104.21082 C 76.33968,189.24259 127.0122,154.69381 177.6847,154.70104 Z m 0,16.8257 c -48.11066,0 -87.364756,39.43141 -86.785807,87.59997 -0.05789,0.17368 0,0.34644 0,0.52013 6.078964,113.58979 167.550557,113.474 173.571627,0 0,-0.17369 0.11579,-0.34645 0,-0.52013 0.52105,-48.11067 -38.73305,-87.59997 -86.78582,-87.59997 z m -0.11306,11.57899 h 0.11306 c 40.06328,0 72.83722,31.49211 75.03723,71.03432 -9.72634,1.79475 -11.41027,9.03342 -21.02083,9.09131 -4.86317,0 -7.00528,-1.50753 -10.13161,-3.76543 -3.70527,-2.66316 -8.27852,-5.9591 -16.90486,-5.9591 -8.62633,0 -13.19958,3.29594 -16.90486,5.9591 -3.12632,2.2579 -5.26843,3.76543 -10.1316,3.76543 -4.86318,0 -6.94739,-1.50753 -10.13161,-3.76543 -3.70528,-2.66316 -8.27852,-5.9591 -16.90486,-5.9591 -8.62634,0 -13.19958,3.29594 -16.90486,5.9591 -3.12632,2.2579 -5.21054,3.76543 -10.1316,3.76543 -9.61056,-0.11578 -11.29449,-7.29656 -21.02084,-9.09131 2.20001,-39.54221 34.97396,-71.03432 75.03724,-71.03432 z m -26.86686,81.98008 c 4.92107,0 6.94739,1.50753 10.13161,3.76543 3.70528,2.66317 8.27852,5.95911 16.90486,5.95911 8.62634,0 13.19959,-3.29594 16.90487,-5.95911 3.12631,-2.2579 5.26842,-3.76543 10.1316,-3.76543 4.86317,0 7.00528,1.50753 10.13161,3.76543 3.70527,2.66317 8.27851,5.95911 16.90485,5.95911 11.23161,-0.1158 14.12546,-4.74286 20.78337,-8.39024 -3.99476,37.74747 -36.01019,67.21236 -74.79977,67.21236 h -0.11308 c -38.78958,0 -70.80501,-29.46489 -74.79975,-67.21236 6.65791,3.64738 9.55175,8.27444 20.78336,8.39024 8.62634,0 13.19959,-3.29594 16.90486,-5.95911 3.12633,-2.2579 5.21054,-3.76543 10.13161,-3.76543 z m 203.55938,13.6822 c 2.43248,-0.022 4.94458,0.62055 7.46301,2.12582 l 0.0679,0.0568 c 10.82634,5.38423 14.82064,11.28859 18.35223,16.44124 3.64738,5.32633 7.35176,10.76574 16.44126,11.69206 6.48422,0.63685 13.43296,7.35673 12.96981,14.30412 -1.04211,1.73684 -1.86078,3.23939 -2.55552,4.45519 H 313.2176 c -7.52634,-12.15793 -0.92904,-37.9786 13.13942,-29.93122 0.23159,0.0579 0.40168,0.17687 0.63323,0.35055 7.81582,3.87896 9.90998,6.77371 10.19945,7.23687 2.77896,6.71581 13.02003,3.01098 10.87792,-3.8785 -0.52106,-1.73685 -2.65955,-5.85372 -10.76484,-10.83268 3.16975,-5.99213 9.66393,-11.95485 16.9614,-12.01998 z m 63.8427,1.85444 c 8.4825,-0.4114 14.84959,6.82527 14.37196,18.56708 -5.6737,3.58948 -10.35732,7.9818 -14.23628,12.38181 -3.47369,-6.36843 -9.67749,-11.28543 -16.50908,-13.19596 -1.1579,-5.55791 1.39896,-9.60965 3.94634,-12.09914 v -0.0568 c 4.28784,-3.63653 8.57137,-5.41026 12.42706,-5.59726 z m 41.39711,22.38904 c 1.30768,0.0243 2.63513,0.11626 4.0029,0.2827 27.32639,3.35791 31.79334,42.73322 32.43019,51.82273 -2.43159,3.12633 -5.97177,6.06856 -10.256,5.25803 l 0.0679,-0.0568 c -3.24212,-0.63666 -5.38966,-3.06779 -5.56334,-3.87832 -0.57895,-21.82638 -18.985,-49.03382 -32.99557,-28.59692 h -26.6407 c 0,0 0.12436,-0.29127 0.12436,-0.40706 6.35035,-9.87831 19.21507,-24.7929 38.83029,-24.42441 z m -163.36086,36.41047 h 153.99818 l -25.93964,139.98807 h -0.0568 c -0.52085,2.72105 -2.89725,4.74919 -5.67621,4.74919 H 327.7478 c -2.77895,0 -5.21326,-1.97024 -5.67642,-4.74919 z " />
</svg>