<svg viewBox="0 0 512 512" xmlns="http://www.w3.org/2000/svg">
  <path d="m 112.19922,22.699219 c -44.700001,0 -81.099611,36.401562 -81.099611,81.101561 V 478.19922 H 6.4003906 c -7.29999997,0 -7.29999997,11.10156 0,11.10156 H 66.900391 c 7.2,0 7.2,-11.00156 0,-11.10156 H 42.199219 V 103.80078 c 0,-38.599999 31.4,-69.999999 70.000001,-69.999999 40.5,-0.1 72.4,34.499219 70,74.699219 -22.4,1.1 -40.19922,19.49922 -40.19922,42.19922 0,3.1 2.5,5.5 5.5,5.5 h 16.59961 v 9.20117 c 0,13 10.59961,23.59961 23.59961,23.59961 13,0 23.60156,-10.59961 23.60156,-23.59961 v -9.20117 H 228 c 3.1,0 5.5,-2.5 5.5,-5.5 0,-22.6 -17.89922,-41.09922 -40.19922,-42.19922 2.4,-46.3 -34.60156,-85.900781 -81.10156,-85.800781 z M 286.5,58.800781 c -3.1,0 -5.5,2.5 -5.5,5.5 V 178.80078 c 0,3.1 2.5,5.5 5.5,5.5 h 188.69922 c 1.4,0 2.80078,-0.60156 3.80078,-1.60156 1.1,-1 1.59922,-2.5 1.69922,-4 V 64.300781 c 0,-3.1 -2.5,-5.5 -5.5,-5.5 z m 5.5,11 h 0.0996 177.59961 v 89.298829 l -36.5,-59.500001 c -2,-3.3 -7.4,-3.3 -9.5,0 L 394.59961,147 375,114.90039 c -2,-3.3 -7.4,-3.3 -9.5,0 l -35.80078,58.29883 H 292 Z m 25.90039,12.298828 c -9.1,0 -18.2,6.100782 -18.5,18.300781 0.6,24.4 36.4,24.4 37,0 -0.3,-12.199999 -9.4,-18.300781 -18.5,-18.300781 z M 317.9375,93.125 c 3.6625,0 7.31328,2.425391 7.36328,7.27539 -0.2,9.8 -14.70078,9.8 -14.80078,0 0.1,-4.849999 3.775,-7.27539 7.4375,-7.27539 z m 110.5625,20.07422 36.90039,60.10156 h -73.80078 c 5.2,-8.5 31.10039,-50.80156 36.90039,-60.10156 z m -243.87695,6.13672 c 2.18183,-0.11485 4.41523,-0.0609 6.67773,0.16406 15.3,0 28.09922,11.09961 30.69922,25.59961 h -68.40039 c 2.975,-15.925 15.75059,-24.95977 31.02344,-25.76367 z m 185.57617,9.06445 17.90039,29.19922 -8.59961,14.09961 -0.90039,1.5 h -35.90039 z m -194.89844,27.79883 h 25 v 9.20117 c -0.4,16.5 -24.6,16.5 -25,0 z M 184.40039,240.5 c -24,0 -43.5,19.5 -43.5,43.5 v 32.80078 c -16,-1.3 -30.40078,11.09844 -30.30078,27.39844 v 139.60156 c 0,3.1 2.5,5.5 5.5,5.5 h 60.5 c 3.1,0 5.5,-2.5 5.5,-5.5 v -7.90039 h 257.20117 v 7.90039 c 0,3.1 2.5,5.5 5.5,5.5 h 60.5 c 3.1,0 5.5,-2.5 5.5,-5.5 V 344.19922 c 0.3,-16.3 -14,-28.79844 -30,-27.39844 V 284 c 0,-24 -19.5,-43.5 -43.5,-43.5 z m 0,11 h 252.90039 c 17.9,0 32.39844,14.50039 32.39844,32.40039 v 32.79883 c -16.1,-1.3 -30.39883,11.1 -30.29883,27.5 V 385 H 338.09961 c -10.8,-0.1 -21.29883,5.59961 -27.29883,14.59961 C 304.80078,390.59961 294.4,385 283.5,385 H 182.19922 V 344.09961 C 182.29922,327.79961 168,315.39922 152,316.69922 v -32.79883 c 0,-17.8 14.50039,-32.40039 32.40039,-32.40039 z m -46.5,76.40039 h 16.90039 c 9,0 16.19922,7.29883 16.19922,16.29883 v 134 h -49.30078 v -134 c 0,-9 7.30117,-16.29883 16.20117,-16.29883 z m 328.90039,0 h 16.89844 c 9,0 16.30078,7.29883 16.30078,16.29883 v 134 h -49.40039 v -134 c 0,-9 7.30117,-16.29883 16.20117,-16.29883 z M 182.19922,396.09961 H 283.5 c 11.7,-0.2 21.89922,10.10078 21.69922,21.80078 v 13.69922 h -123 z m 155.90039,0 h 101.30078 v 35.5 h -123 v -13.69922 c -0.2,-11.7 9.99922,-22.00078 21.69922,-21.80078 z m -155.79883,46.59961 h 257.09961 v 22.10156 H 182.30078 Z " />
</svg>