<svg viewBox="0 0 24 24" xmlns="http://www.w3.org/2000/svg">
  <path d="m9 5.5v-1h1v1 m9.3550644 4.5000496c.8387012-2.3322601 3.0702553-4.0000496 5.6913414-4.0000496h.0000124c3.494174 0 6.2609854 2.9531343 6.0335875 6.4399009l-.8522282 13.067522c-.1233254 1.8909917 1.3772106 3.4925771 3.2722187 3.4925771h.0000038 M 0.5, 14.5 a 9.0,9.0 0 1,0 18.0,0 a 9.0,9.0 0 1,0 -18.0,0 M 6.0, 14.5 a 0.5,0.5 0 1,0 1.0,0 a 0.5,0.5 0 1,0 -1.0,0 M 8.0, 14.5 a 0.5,0.5 0 1,0 1.0,0 a 0.5,0.5 0 1,0 -1.0,0 M 10.0, 14.5 a 0.5,0.5 0 1,0 1.0,0 a 0.5,0.5 0 1,0 -1.0,0 M 12.0, 14.5 a 0.5,0.5 0 1,0 1.0,0 a 0.5,0.5 0 1,0 -1.0,0 " />
</svg>