<svg viewBox="0 0 512 512" xmlns="http://www.w3.org/2000/svg">
  <path d="M 319.9082,0 C 262.3487,0 212.88372,35.064568 191.73828,85.046875 h -0.38476 A 10.631813,10.631813 0 0 0 180.72266,95.675781 V 107.43164 C 79.265069,118.08166 0,204.04584 0,308.29102 c 0,111.42684 90.557535,201.98437 201.98438,201.98437 111.42685,0 201.98437,-90.55753 201.98437,-201.98437 0,-104.24518 -79.26506,-190.20936 -180.72266,-200.85938 V 95.675781 A 10.631813,10.631813 0 0 0 215.03516,85.357422 C 234.58172,47.33951 274.10205,21.261719 319.9082,21.261719 h 0.002 c 68.30155,0 122.11882,57.442838 117.67382,125.599611 l -18.11914,277.83398 c -3.01189,46.1824 33.89922,85.58008 80.17969,85.58008 a 10.63075,10.63075 0 0 0 10.63086,-10.63086 10.63075,10.63075 0 0 0 -10.63086,-10.63086 c -34.30089,0 -61.19516,-28.70537 -58.96289,-62.93359 l 18.1191,-277.83594 C 464.0254,68.133199 400.19128,0 319.91016,0 Z M 201.98438,127.56836 c 99.93628,0 180.72265,80.78638 180.72265,180.72266 0,99.93627 -80.78638,180.72265 -180.72265,180.72265 -99.93627,0 -180.722661,-80.78638 -180.722661,-180.72265 0,-99.93628 80.786391,-180.72266 180.722661,-180.72266 z m -63.78516,170.0918 a 10.630744,10.630744 0 0 0 -10.63086,10.63086 10.630744,10.630744 0 0 0 10.63086,10.63086 10.630744,10.630744 0 0 0 10.63086,-10.63086 10.630744,10.630744 0 0 0 -10.63086,-10.63086 z m 42.52344,0 a 10.630744,10.630744 0 0 0 -10.63086,10.63086 10.630744,10.630744 0 0 0 10.63086,10.63086 10.630744,10.630744 0 0 0 10.63086,-10.63086 10.630744,10.630744 0 0 0 -10.63086,-10.63086 z m 42.52343,0 a 10.630744,10.630744 0 0 0 -10.63086,10.63086 10.630744,10.630744 0 0 0 10.63086,10.63086 10.630744,10.630744 0 0 0 10.63086,-10.63086 10.630744,10.630744 0 0 0 -10.63086,-10.63086 z m 42.52344,0 a 10.630744,10.630744 0 0 0 -10.63086,10.63086 10.630744,10.630744 0 0 0 10.63086,10.63086 10.630744,10.630744 0 0 0 10.62891,-10.63086 10.630744,10.630744 0 0 0 -10.62891,-10.63086 z " />
</svg>