<svg viewBox="0 0 512 512" xmlns="http://www.w3.org/2000/svg">
  <path d="M 255.21003,109 C 186.15313,109 123.72112,123.67376 77.800843,144.97199 54.840705,155.6211 35.986938,167.91081 22.389031,181.35935 8.791121,194.80789 0,209.85307 0,225.97126 c 0,57.14331 11.442822,104.09609 50.551856,135.24803 39.109035,31.15193 102.610244,45.52574 204.658174,45.52574 102.04792,0 165.54913,-14.37381 204.65817,-45.52574 39.10902,-31.15194 50.55186,-78.10472 50.55186,-135.24803 0,-16.11819 -8.79112,-31.16337 -22.38903,-44.61191 C 474.43312,167.91081 455.57935,155.6211 432.61921,144.97199 386.69893,123.67376 324.26693,109 255.21003,109 Z m 0,21.2675 c 66.01883,0 125.87956,14.26194 168.47849,34.0197 21.29947,9.87888 38.23423,21.15999 49.3888,32.19202 11.15455,11.03203 16.07523,21.3847 16.07523,29.49204 0,8.10734 -4.48689,16.5364 -15.36909,25.54593 -10.88221,9.00953 -27.77153,17.75954 -49.09802,25.089 -42.65298,14.65896 -102.89847,23.80133 -169.47541,23.80133 -66.57694,0 -126.82243,-9.14237 -169.475411,-23.80133 -21.326488,-7.32946 -38.215811,-16.07947 -49.098024,-25.089 -10.882205,-9.00953 -15.369093,-17.43859 -15.369093,-25.54593 0,-8.10734 4.920684,-18.46001 16.075242,-29.49204 C 48.497302,185.44719 65.432072,174.16608 86.731533,164.2872 129.33046,144.52944 189.19118,130.2675 255.21003,130.2675 Z m -63.80251,21.26751 a 10.633751,10.633751 0 0 0 -10.63375,10.63375 10.633751,10.633751 0 0 0 10.63375,10.63375 10.633751,10.633751 0 0 0 10.63375,-10.63375 10.633751,10.633751 0 0 0 -10.63375,-10.63375 z m 42.53501,0 a 10.633751,10.633751 0 0 0 -10.63376,10.63375 10.633751,10.633751 0 0 0 10.63376,10.63375 10.633751,10.633751 0 0 0 10.63375,-10.63375 10.633751,10.633751 0 0 0 -10.63375,-10.63375 z m 42.535,0 a 10.633751,10.633751 0 0 0 -10.63375,10.63375 10.633751,10.633751 0 0 0 10.63375,10.63375 10.633751,10.633751 0 0 0 10.63375,-10.63375 10.633751,10.633751 0 0 0 -10.63375,-10.63375 z m 42.535,0 a 10.633751,10.633751 0 0 0 -10.63375,10.63375 10.633751,10.633751 0 0 0 10.63375,10.63375 10.633751,10.633751 0 0 0 10.63376,-10.63375 10.633751,10.633751 0 0 0 -10.63376,-10.63375 z M 24.009015,268.63087 c 13.782505,11.14469 32.361761,20.41359 54.788742,28.1213 45.866223,15.76328 107.913463,24.92285 176.412273,24.92285 68.49879,0 130.54605,-9.15957 176.41227,-24.92285 22.42699,-7.70771 41.00623,-16.97661 54.78874,-28.1213 -4.76268,32.50802 -16.40026,57.33109 -39.75196,75.93164 -32.66877,26.022 -91.4557,40.91502 -191.44905,40.91502 -99.99335,0 -158.780276,-14.89302 -191.449061,-40.91502 C 40.409282,325.96196 28.771702,301.13889 24.009015,268.63087 Z m 220.567265,74.31166 a 10.633751,10.633751 0 0 0 -10.63375,10.63375 10.633751,10.633751 0 0 0 10.63375,10.63375 h 21.2675 a 10.633751,10.633751 0 0 0 10.63375,-10.63375 10.633751,10.633751 0 0 0 -10.63375,-10.63375 z " />
</svg>