<svg viewBox="0 0 500 500" xmlns="http://www.w3.org/2000/svg">
  <path d="m 74.37706,90.766907 c -14.799,0 -26.838303,12.035583 -26.838303,26.832583 v 2.01988 H 29.857635 c -2.682,0 -4.858016,2.1732 -4.858016,4.8542 v 24.52088 c 0,2.682 2.177016,4.85611 4.858016,4.85611 H 47.538757 V 346.14944 H 29.857635 c -2.682,0 -4.858016,2.17411 -4.858016,4.85611 v 24.52088 c 0,2.682 2.177016,4.85611 4.858016,4.85611 h 17.681122 v 2.01797 c 0,14.797 12.039303,26.83258 26.838303,26.83258 14.794,0 26.83158,-12.03558 26.83258,-26.83258 v -2.01797 h 9.58252 v 2.01797 c 0,14.797 12.03858,26.83258 26.83258,26.83258 14.799,0 26.8383,-12.03558 26.8383,-26.83258 v -2.01797 h 9.58252 v 2.01797 c 0,14.797 12.03858,26.83258 26.83258,26.83258 14.799,0 26.83831,-12.03558 26.83831,-26.83258 v -2.01797 h 9.5787 v 2.01797 c 0,14.797 12.0393,26.83258 26.8383,26.83258 14.794,0 26.83068,-12.03558 26.83068,-26.83258 v -2.01797 h 9.58442 v 2.01797 c 0,14.797 12.03931,26.83258 26.83831,26.83258 14.793,0 26.83258,-12.03558 26.83258,-26.83258 v -2.01797 h 9.58252 v 2.01797 c 0,14.797 12.03858,26.83258 26.83258,26.83258 14.799,0 26.8383,-12.03558 26.8383,-26.83258 v -2.01797 h 17.37022 v 5.61714 c 0,2.681 2.17511,4.8542 4.85611,4.8542 h 21.98601 c 2.682,0 4.85802,-2.1732 4.85802,-4.8542 V 340.5323 c 0,-2.682 -2.17602,-4.85611 -4.85802,-4.85611 h -21.98601 c -2.681,0 -4.85611,2.17411 -4.85611,4.85611 v 5.61714 H 417.47284 V 153.85056 h 11.4975 c 4.80954,5.56086 11.90934,9.08851 19.81926,9.08851 14.451,0 26.21078,-11.75506 26.21078,-26.20506 0,-14.451 -11.75978,-26.20888 -26.21078,-26.20888 -7.91113,0 -15.01159,3.53146 -19.82117,9.09424 h -11.49559 v -2.01988 c 0,-14.798 -12.0393,-26.832583 -26.8383,-26.832583 -14.794,0 -26.83258,12.035583 -26.83258,26.832583 v 2.01988 h -9.58252 v -2.01988 c 0,-14.798 -12.03931,-26.832583 -26.83831,-26.832583 -14.793,0 -26.83258,12.035583 -26.83258,26.832583 v 2.01988 h -9.58442 v -2.01988 c 0,-14.798 -12.03668,-26.832583 -26.83068,-26.832583 -14.799,0 -26.8383,12.035583 -26.8383,26.832583 v 2.01988 h -9.5787 v -2.01988 c 0,-14.798 -12.03931,-26.832583 -26.83831,-26.832583 -14.794,0 -26.83258,12.035583 -26.83258,26.832583 v 2.01988 h -9.58252 v -2.01988 c 0,-14.798 -12.0393,-26.832583 -26.8383,-26.832583 -14.794,0 -26.83258,12.035583 -26.83258,26.832583 v 2.01988 h -9.58252 v -2.01988 c 0,-14.798 -12.03858,-26.832583 -26.83258,-26.832583 z m 0,9.710313 c 9.441,0 17.116547,7.68127 17.116547,17.12227 v 264.80102 c 0,9.441 -7.675547,17.12227 -17.116547,17.12227 -9.441,0 -17.122269,-7.68127 -17.122269,-17.12227 v -6.87408 -24.52088 -202.0111 -24.52088 -6.87408 c 0,-9.441 7.681269,-17.12227 17.122269,-17.12227 z m 63.24768,0 c 9.441,0 17.12327,7.68127 17.12227,17.12227 v 6.87408 24.52088 202.0111 24.52088 6.87408 c 0,9.441 -7.68027,17.12227 -17.12227,17.12227 -9.442,0 -17.11845,-7.68127 -17.11845,-17.12227 v -6.83593 c 10e-5,-0.0128 0.002,-0.0253 0.002,-0.0381 V 351.0056 c 0,-0.0128 -0.002,-0.0253 -0.002,-0.0381 V 149.03259 c 10e-5,-0.0128 0.002,-0.0253 0.002,-0.0381 v -24.52088 c 0,-0.0128 -0.002,-0.0253 -0.002,-0.0382 v -6.83593 c 0,-9.441 7.67745,-17.12227 17.11845,-17.12227 z m 63.2534,0 c 9.441,0 17.12327,7.68127 17.12227,17.12227 v 264.80102 c 0,9.441 -7.68127,17.12227 -17.12227,17.12227 -9.442,0 -17.11654,-7.68127 -17.11654,-17.12227 v -6.87408 -24.52088 -202.0111 -24.52088 -6.87408 c 0,-9.441 7.67554,-17.12227 17.11654,-17.12227 z m 63.25531,0 c 9.441,0 17.11846,7.68127 17.11846,17.12227 v 6.87408 24.52088 202.0111 24.52088 6.87408 c 0,9.441 -7.67746,17.12227 -17.11846,17.12227 -9.441,0 -17.12417,-7.68127 -17.12417,-17.12227 v -6.87408 -24.52088 -202.0111 -24.52088 -6.87408 c 0,-9.441 7.68317,-17.12227 17.12417,-17.12227 z m 63.25341,0 c 9.441,0 17.11745,7.68127 17.11845,17.12227 v 6.83593 c -1e-4,0.0128 -0.002,0.0253 -0.002,0.0382 v 24.52088 c 0,0.0128 0.002,0.0253 0.002,0.0381 v 201.93482 c -1e-4,0.0128 -0.002,0.0253 -0.002,0.0381 v 24.52088 c 0,0.0128 0.002,0.0253 0.002,0.0381 v 6.83593 c 0,9.441 -7.68318,17.12227 -17.12418,17.12227 -9.442,0 -17.11654,-7.68127 -17.11654,-17.12227 v -6.87408 -24.52088 -202.0111 -24.52088 -6.87408 c 0,-9.441 7.68127,-17.12227 17.12227,-17.12227 z m 63.24768,0 c 9.441,0 17.12327,7.68127 17.12227,17.12227 v 264.80102 c 0,9.441 -7.68027,17.12227 -17.12227,17.12227 -9.442,0 -17.11846,-7.68127 -17.11846,-17.12227 v -6.87408 -24.52088 -202.0111 -24.52088 -6.87408 c 0,-9.441 7.67746,-17.12227 17.11846,-17.12227 z m 58.15506,19.76013 c 9.099,0 16.49475,7.40257 16.49475,16.49857 0,9.096 -7.39575,16.49475 -16.49475,16.49475 -5.41188,0 -10.22269,-2.62121 -13.23128,-6.66046 -0.0726,-0.12616 -0.14984,-0.2495 -0.2346,-0.37003 -1.69536,-2.40446 -2.70211,-5.1485 -2.9583,-8.00705 -0.013,-0.1482 -0.0253,-0.29703 -0.0343,-0.44632 -0.005,-0.0839 -0.009,-0.16774 -0.0134,-0.25177 -0.0115,-0.25201 -0.0191,-0.50432 -0.0191,-0.75912 0,-0.25487 0.008,-0.50895 0.0191,-0.76104 0.004,-0.0841 0.008,-0.16786 0.0134,-0.25177 0.009,-0.15056 0.0211,-0.30067 0.0343,-0.45013 0.0116,-0.12895 0.0235,-0.25873 0.0381,-0.38719 0.007,-0.0652 0.0167,-0.12958 0.0248,-0.19455 0.33412,-2.64896 1.31576,-5.18392 2.89536,-7.4234 0.0804,-0.11439 0.15364,-0.23148 0.22316,-0.35095 3.00791,-4.04969 7.82368,-6.67954 13.24272,-6.67954 z m -31.31485,9.08852 h 6.18171 c -0.26184,0.88662 -0.47705,1.79143 -0.64468,2.71415 -0.002,0.0114 -0.004,0.0229 -0.006,0.0343 -0.0541,0.29995 -0.10503,0.6007 -0.14878,0.90408 -0.0453,0.30928 -0.0861,0.61945 -0.12016,0.93079 -0.0204,0.18977 -0.0351,0.38125 -0.0515,0.5722 -0.0172,0.1981 -0.0331,0.3963 -0.0458,0.59509 -0.0112,0.17893 -0.021,0.358 -0.0286,0.53788 -0.0123,0.28619 -0.02,0.57284 -0.0229,0.86021 -8.5e-4,0.0868 -0.006,0.17241 -0.006,0.2594 0,0.087 0.005,0.17262 0.006,0.2594 0.003,0.28735 0.0106,0.57408 0.0229,0.86021 0.008,0.17986 0.0174,0.35896 0.0286,0.53787 0.0127,0.19874 0.0286,0.39707 0.0458,0.5951 0.0168,0.19608 0.0323,0.39262 0.0534,0.58746 0.0345,0.31441 0.0743,0.62804 0.12016,0.94032 0.0366,0.25232 0.0802,0.50155 0.12398,0.7515 0.0141,0.0796 0.0291,0.15898 0.0439,0.23842 0.16531,0.89447 0.37354,1.77364 0.62752,2.63405 h -6.17981 z m -382.759098,0.002 h 12.823105 v 14.81057 H 34.715652 Z m 66.493988,0 h 9.58252 v 14.81057 h -9.58252 z m 63.2534,0 h 9.58252 v 14.81057 h -9.58252 z m 63.25341,0 h 9.5787 v 14.81057 h -9.5787 z m 63.24768,0 h 9.58442 v 14.81057 h -9.58442 z m 63.25531,0 h 9.58252 v 14.81057 h -9.58252 z m -253.0098,24.52279 h 9.58252 v 192.29888 h -9.58252 z m 63.2534,0 h 9.58252 v 192.29888 h -9.58252 z m 63.25341,0 h 9.5787 v 192.29888 h -9.5787 z m 63.24768,0 h 9.58442 v 192.29888 h -9.58442 z m 63.25531,0 h 9.58252 v 192.29888 h -9.58252 z m 90.33775,191.53595 h 12.26997 v 35.75706 h -12.26997 v -5.57899 c 1e-4,-0.0128 0.002,-0.0253 0.002,-0.0381 V 351.0057 c 0,-0.0128 -0.002,-0.0253 -0.002,-0.0381 z M 34.715652,355.85976 h 12.823105 v 14.81247 H 34.715652 Z m 66.493988,0 h 9.58252 v 14.81247 h -9.58252 z m 63.2534,0 h 9.58252 v 14.81247 h -9.58252 z m 63.25341,0 h 9.5787 v 14.81247 h -9.5787 z m 63.24768,0 h 9.58442 v 14.81247 h -9.58442 z m 63.25531,0 h 9.58252 v 14.81247 h -9.58252 z m 63.2534,0 h 17.37022 v 14.81247 h -17.37022 z " />
</svg>