<svg viewBox="0 0 500 500" xmlns="http://www.w3.org/2000/svg">
  <path d="m461.686 390.853h-21.986c-2.681 0-4.857-2.173-4.857-4.854v-45.467c0-2.682 2.176-4.855 4.857-4.855h21.986c2.682 0 4.858 2.173 4.858 4.855v45.467c0 2.681-2.176 4.854-4.858 4.854zm-17.128-9.709h12.27v-35.758h-12.27z m448.789 162.94c-14.447 0-26.206-11.756-26.206-26.206 0-14.451 11.759-26.208 26.206-26.208 14.451 0 26.211 11.757 26.211 26.208 0 14.45-11.76 26.206-26.211 26.206zm0-42.703c-9.093 0-16.491 7.402-16.491 16.498s7.397 16.496 16.491 16.496c9.099 0 16.496-7.4 16.496-16.496s-7.397-16.498-16.496-16.498z m242.153 153.85h-19.293c-2.682 0-4.858-2.173-4.858-4.855v-24.522c0-2.681 2.176-4.854 4.858-4.854h19.293c2.681 0 4.857 2.173 4.857 4.854v24.522c0 2.682-2.176 4.855-4.857 4.855zm-14.436-9.711h9.578v-14.812h-9.578z m115.65 153.85h-19.298c-2.681 0-4.858-2.173-4.858-4.855v-24.522c0-2.681 2.176-4.854 4.858-4.854h19.299c2.681 0 4.857 2.173 4.857 4.854v24.522c0 2.682-2.176 4.855-4.858 4.855zm-14.441-9.711h9.583v-14.812h-9.583z m178.904 153.85h-19.299c-2.681 0-4.858-2.173-4.858-4.855v-24.522c0-2.681 2.176-4.854 4.858-4.854h19.299c2.681 0 4.857 2.173 4.857 4.854v24.522c0 2.682-2.175 4.855-4.857 4.855zm-14.441-9.711h9.583v-14.812h-9.583z m431.35 153.85h-18.735c-2.681 0-4.858-2.173-4.858-4.855v-24.522c0-2.681 2.176-4.854 4.858-4.854h18.735c1.812 0 3.472 1.009 4.31 2.618.832 1.607.706 3.548-.337 5.031-1.982 2.81-3.025 6.085-3.025 9.467 0 3.38 1.043 6.654 3.025 9.465 1.043 1.483 1.169 3.424.337 5.031-.838 1.61-2.498 2.619-4.31 2.619zm-13.877-9.711h6.185c-.706-2.389-1.074-4.876-1.074-7.405s.368-5.018 1.08-7.408h-6.19v14.813z m52.397 153.85h-22.539c-2.681 0-4.858-2.173-4.858-4.855v-24.522c0-2.681 2.176-4.854 4.858-4.854h22.539c2.681 0 4.857 2.173 4.857 4.854v24.522c0 2.682-2.176 4.855-4.857 4.855zm-17.681-9.711h12.823v-14.812h-12.823z m305.407 153.85h-19.299c-2.681 0-4.857-2.173-4.857-4.855v-24.522c0-2.681 2.176-4.854 4.857-4.854h19.299c2.681 0 4.857 2.173 4.857 4.854v24.522c0 2.682-2.176 4.855-4.857 4.855zm-14.442-9.711h9.583v-14.812h-9.583z m368.66 153.85h-19.299c-2.681 0-4.858-2.173-4.858-4.855v-24.522c0-2.681 2.176-4.854 4.858-4.854h19.299c2.681 0 4.857 2.173 4.857 4.854v24.522c.001 2.682-2.175 4.855-4.857 4.855zm-14.441-9.711h9.583v-14.812h-9.583z m242.153 380.382h-19.293c-2.682 0-4.858-2.173-4.858-4.855v-24.522c0-2.682 2.176-4.855 4.858-4.855h19.293c2.681 0 4.857 2.173 4.857 4.855v24.522c0 2.682-2.176 4.855-4.857 4.855zm-14.436-9.709h9.578v-14.813h-9.578z m115.65 380.382h-19.298c-2.681 0-4.858-2.173-4.858-4.855v-24.522c0-2.682 2.176-4.855 4.858-4.855h19.299c2.681 0 4.857 2.173 4.857 4.855v24.522c0 2.682-2.176 4.855-4.858 4.855zm-14.441-9.709h9.583v-14.813h-9.583z m178.904 380.382h-19.299c-2.681 0-4.858-2.173-4.858-4.855v-24.522c0-2.682 2.176-4.855 4.858-4.855h19.299c2.681 0 4.857 2.173 4.857 4.855v24.522c0 2.682-2.175 4.855-4.857 4.855zm-14.441-9.709h9.583v-14.813h-9.583z m52.397 380.382h-22.539c-2.681 0-4.858-2.173-4.858-4.855v-24.522c0-2.682 2.176-4.855 4.858-4.855h22.539c2.681 0 4.857 2.173 4.857 4.855v24.522c0 2.682-2.176 4.855-4.857 4.855zm-17.681-9.709h12.823v-14.813h-12.823z m305.407 380.382h-19.299c-2.681 0-4.857-2.173-4.857-4.855v-24.522c0-2.682 2.176-4.855 4.857-4.855h19.299c2.681 0 4.857 2.173 4.857 4.855v24.522c0 2.682-2.176 4.855-4.857 4.855zm-14.442-9.709h9.583v-14.813h-9.583z m439.701 380.382h-27.085c-2.681 0-4.858-2.173-4.858-4.855v-24.522c0-2.682 2.176-4.855 4.858-4.855h27.085c2.682 0 4.858 2.173 4.858 4.855v24.522c-.001 2.682-2.176 4.855-4.858 4.855zm-22.228-9.709h17.37v-14.813h-17.37z m368.66 380.382h-19.299c-2.681 0-4.858-2.173-4.858-4.855v-24.522c0-2.682 2.176-4.855 4.858-4.855h19.299c2.681 0 4.857 2.173 4.857 4.855v24.522c.001 2.682-2.175 4.855-4.857 4.855zm-14.441-9.709h9.583v-14.813h-9.583z m74.377 409.233c-14.799 0-26.838-12.036-26.838-26.833v-264.8c0-14.797 12.039-26.833 26.838-26.833 14.794 0 26.833 12.035 26.833 26.833v264.8c-.001 14.797-12.039 26.833-26.833 26.833zm0-308.756c-9.441 0-17.123 7.682-17.123 17.123v264.8c0 9.441 7.682 17.123 17.123 17.123s17.117-7.682 17.117-17.123v-264.8c0-9.441-7.676-17.123-17.117-17.123z m137.625 409.233c-14.794 0-26.833-12.036-26.833-26.833v-264.8c0-14.797 12.039-26.833 26.833-26.833 14.799 0 26.838 12.035 26.838 26.833v264.8c0 14.797-12.039 26.833-26.838 26.833zm0-308.756c-9.441 0-17.118 7.682-17.118 17.123v264.8c0 9.441 7.676 17.123 17.118 17.123s17.122-7.682 17.122-17.123v-264.8c.001-9.441-7.681-17.123-17.122-17.123z m200.879 409.233c-14.794 0-26.833-12.036-26.833-26.833v-264.8c0-14.797 12.039-26.833 26.833-26.833 14.799 0 26.838 12.035 26.838 26.833v264.8c0 14.797-12.039 26.833-26.838 26.833zm0-308.756c-9.441 0-17.118 7.682-17.118 17.123v264.8c0 9.441 7.676 17.123 17.118 17.123 9.441 0 17.122-7.682 17.122-17.123v-264.8c.001-9.441-7.681-17.123-17.122-17.123z m264.133 409.233c-14.799 0-26.838-12.036-26.838-26.833v-264.8c0-14.797 12.039-26.833 26.838-26.833 14.794 0 26.832 12.035 26.832 26.833v264.8c0 14.797-12.038 26.833-26.832 26.833zm0-308.756c-9.441 0-17.123 7.682-17.123 17.123v264.8c0 9.441 7.682 17.123 17.123 17.123s17.118-7.682 17.118-17.123v-264.8c0-9.441-7.677-17.123-17.118-17.123z m327.387 409.233c-14.799 0-26.838-12.036-26.838-26.833v-264.8c0-14.797 12.039-26.833 26.832-26.833 14.799 0 26.838 12.035 26.838 26.833v264.8c0 14.797-12.039 26.833-26.832 26.833zm0-308.756c-9.441 0-17.123 7.682-17.123 17.123v264.8c0 9.441 7.676 17.123 17.118 17.123 9.441 0 17.123-7.682 17.123-17.123v-264.8c-.001-9.441-7.677-17.123-17.118-17.123z m390.635 409.233c-14.794 0-26.833-12.036-26.833-26.833v-264.8c0-14.797 12.039-26.833 26.833-26.833 14.799 0 26.838 12.035 26.838 26.833v264.8c0 14.797-12.039 26.833-26.838 26.833zm0-308.756c-9.441 0-17.118 7.682-17.118 17.123v264.8c0 9.441 7.676 17.123 17.118 17.123s17.122-7.682 17.122-17.123v-264.8c.001-9.441-7.681-17.123-17.122-17.123z " />
</svg>