<svg viewBox="0 0 512 512" xmlns="http://www.w3.org/2000/svg">
  <path d="m 75.222656,54.847656 c -10.763,0 -19.519531,8.753578 -19.519531,19.517578 V 290.12305 H 39.904297 C 17.900297,290.12305 0,308.02434 0,330.02734 v 59.21485 c 0,22.003 17.900297,39.90625 39.904297,39.90625 h 15.798828 v 7.70508 c 0,11.193 9.106828,20.29882 20.298828,20.29882 h 35.730467 c 11.193,0 20.29883,-9.10582 20.29883,-20.29882 v -7.70508 h 226.19922 v 7.70508 c 0,11.193 9.10583,20.29882 20.29883,20.29882 h 35.72851 c 11.193,0 20.29883,-9.10582 20.29883,-20.29882 v -7.70508 h 15.79883 c 22.003,0 39.90625,-17.90225 39.90625,-39.90625 v -59.21485 c -0.002,-22.004 -17.9042,-39.90429 -39.9082,-39.90429 H 434.55469 V 74.365234 c 0,-10.763 -8.75653,-19.517578 -19.51953,-19.517578 -10.763,0 -19.51758,8.754578 -19.51758,19.517578 V 290.12305 H 94.742188 V 74.365234 c 0,-10.763 -8.756532,-19.517578 -19.519532,-19.517578 z m 0,6.513672 c 7.17,0 13.003906,5.833906 13.003906,13.003906 V 290.12305 H 62.216797 V 74.365234 c 0,-7.17 5.835859,-13.003906 13.005859,-13.003906 z m 339.812504,0 c 7.17,0 13.00586,5.833906 13.00586,13.003906 V 290.12305 H 402.03125 V 74.365234 c 0,-7.17 5.83391,-13.003906 13.00391,-13.003906 z M 245.125,114.02344 c -27.33337,0 -54.66516,10.40344 -75.47266,31.21094 -1.272,1.27199 -1.272,3.33346 0,4.60546 1.273,1.272 3.33543,1.272 4.60743,0 39.076,-39.076 102.65928,-39.07404 141.73828,0.002 1.272,1.272 3.33347,1.272 4.60547,0 1.272,-1.272 1.272,-3.33347 0,-4.60547 -20.81,-20.8085 -48.14515,-31.21289 -75.47852,-31.21289 z M 37.228516,119.5918 c -1.799,0 -3.25586,1.45686 -3.25586,3.25586 v 9.48437 c -10e-4,1.799 1.45686,3.25781 3.25586,3.25781 1.799,0 3.257812,-1.45881 3.257812,-3.25781 v -9.48437 c 0,-1.799 -1.458812,-3.25586 -3.257812,-3.25586 z m 207.902344,16.91601 c -21.5725,-3.7e-4 -43.14486,8.21127 -59.56836,24.63477 -1.272,1.272 -1.272,3.33151 0,4.60351 1.272,1.272 3.33347,1.272 4.60547,0 30.305,-30.305 79.61583,-30.30304 109.92383,0.002 1.272,1.272 3.33247,1.272 4.60547,0 1.272,-1.272 1.272,-3.33347 0,-4.60547 -16.4225,-16.423 -37.99391,-24.63439 -59.56641,-24.63477 z M 37.228516,147.14844 c -1.799,0 -3.25586,1.45881 -3.25586,3.25781 v 51.90625 c -10e-4,1.799 1.45686,3.25781 3.25586,3.25781 1.799,0 3.257812,-1.45881 3.257812,-3.25781 v -51.90625 c 0,-1.799 -1.458812,-3.25781 -3.257812,-3.25781 z m 207.912104,11.83789 c -15.80937,-0.004 -31.62287,6.0135 -43.67187,18.0625 -1.272,1.272 -1.272,3.33347 0,4.60547 1.272,1.272 3.33347,1.272 4.60547,0 21.534,-21.534 56.57433,-21.534 78.11133,0 1.271,1.272 3.33247,1.273 4.60547,0 1.272,-1.272 1.272,-3.33152 0,-4.60352 -12.0355,-12.0355 -27.84102,-18.06083 -43.6504,-18.06445 z m -0.0117,22.49219 c -10.05125,-3.8e-4 -20.10291,3.82406 -27.75391,11.47656 -1.272,1.272 -1.272,3.33347 0,4.60547 1.272,1.272 3.33347,1.272 4.60547,0 12.763,-12.763 33.53087,-12.76105 46.29687,0.002 1.272,1.273 3.33247,1.273 4.60547,0 1.272,-1.272 1.272,-3.33347 0,-4.60547 -7.652,-7.652 -17.70265,-11.47814 -27.7539,-11.47851 z m 0,22.47656 c -9.238,0 -16.75586,7.51786 -16.75586,16.75586 0,9.238 7.51686,16.7539 16.75586,16.7539 9.238,0 16.75586,-7.5149 16.75586,-16.7539 0,-9.238 -7.51686,-16.75586 -16.75586,-16.75586 z m 0,6.51562 c 5.646,0 10.24023,4.59424 10.24023,10.24024 0,5.646 -4.59423,10.23828 -10.24023,10.23828 -5.646,0 -10.24024,-4.59228 -10.24024,-10.23828 0,-5.646 4.59424,-10.24024 10.24024,-10.24024 z M 39.904297,296.63867 H 450.35352 c 18.412,0 33.39062,14.97763 33.39062,33.39063 v 59.21484 c 0,18.412 -14.97762,33.39063 -33.39062,33.39063 H 39.904297 c -18.412,0 -33.3906251,-14.97763 -33.3906251,-33.39063 V 330.0293 c 0,-18.412 14.9776251,-33.39063 33.3906251,-33.39063 z m 52.984375,25.28125 c -1.799,0 -3.257813,1.45881 -3.257813,3.25781 v 37.86524 c 0,1.799 1.458813,3.25781 3.257813,3.25781 1.799,0 3.255859,-1.45881 3.255859,-3.25781 v -37.86524 c 0,-1.799 -1.456859,-3.25781 -3.255859,-3.25781 z m 22.146488,21.76563 c -0.62477,0.0556 -1.24138,0.29162 -1.76563,0.71875 -1.396,1.135 -1.60475,3.18803 -0.46875,4.58203 3.761,4.621 5.74805,10.21378 5.74805,16.17578 0,14.157 -11.50739,25.67578 -25.650392,25.67578 -14.157,0 -25.675782,-11.51878 -25.675782,-25.67578 0,-5.96 1.991766,-11.55178 5.759766,-16.17578 1.137,-1.395 0.927203,-3.44408 -0.466797,-4.58008 -1.396,-1.137 -3.446031,-0.9262 -4.582031,0.4668 -4.66,5.715 -7.222657,12.92006 -7.222656,20.28906 0,17.748 14.4395,32.18945 32.1875,32.18945 17.737002,0 32.164062,-14.44145 32.164062,-32.18945 0,-7.37 -2.55994,-14.57506 -7.21094,-20.28906 -0.70875,-0.87063 -1.77513,-1.28016 -2.8164,-1.1875 z m 80.02734,12.69336 c -1.799,0 -3.25586,1.45686 -3.25586,3.25586 0,1.799 1.45686,3.25781 3.25586,3.25781 h 25.7832 c 1.799,0 3.25586,-1.45881 3.25586,-3.25781 0.001,-1.799 -1.45586,-3.25586 -3.25586,-3.25586 z m 68.48438,0 c -1.799,0 -3.25782,1.45686 -3.25782,3.25586 0,1.799 1.45882,3.25781 3.25782,3.25781 h 25.78124 c 1.799,0 3.25782,-1.45881 3.25782,-3.25781 0,-1.799 -1.45982,-3.25586 -3.25782,-3.25586 z m 68.48046,0 c -1.799,0 -3.25586,1.45686 -3.25586,3.25586 0,1.799 1.45686,3.25781 3.25586,3.25781 h 25.78125 c 1.799,0 3.25782,-1.45881 3.25782,-3.25781 -0.001,-1.799 -1.45982,-3.25586 -3.25782,-3.25586 z m 68.48243,0 c -1.799,0 -3.25782,1.45686 -3.25782,3.25586 0,1.799 1.45882,3.25781 3.25782,3.25781 h 25.78125 c 1.799,0 3.25781,-1.45881 3.25781,-3.25781 -0.001,-1.799 -1.45981,-3.25586 -3.25781,-3.25586 z m 108.23242,9.5957 c -1.799,0 -3.25586,1.45881 -3.25586,3.25781 v 20.00196 c 0,12.973 -4.61042,25.57537 -12.98242,35.48437 -1.161,1.375 -0.98824,3.42789 0.38476,4.58789 1.37,1.158 3.42685,0.99224 4.58985,-0.38476 C 506.84452,417.83887 512,403.74437 512,389.23438 v -20.00196 c 10e-4,-1.799 -1.45781,-3.25781 -3.25781,-3.25781 z m -353.51367,34.92187 c -1.799,0 -3.25782,1.45882 -3.25782,3.25782 0,1.799 1.45882,3.25586 3.25782,3.25586 h 45.57617 c 1.799,0 3.25586,-1.45686 3.25586,-3.25586 0,-1.799 -1.45686,-3.25782 -3.25586,-3.25782 z m 62.69726,0 c -1.799,0 -3.25586,1.45882 -3.25586,3.25782 0,1.799 1.45686,3.25586 3.25586,3.25586 h 8.9961 c 1.799,0 3.25585,-1.45686 3.25585,-3.25586 0,-1.799 -1.45685,-3.25782 -3.25585,-3.25782 z M 62.21875,429.14844 h 63.29883 v 7.70508 h -0.002 c 0,7.601 -6.18515,13.78515 -13.78515,13.78515 H 76.001953 c -7.601,0 -13.783203,-6.18515 -13.783203,-13.78515 z m 302.52344,0 h 63.29883 v 7.70508 c 0,7.601 -6.18516,13.78515 -13.78516,13.78515 h -35.72852 c -7.601,0 -13.78515,-6.18515 -13.78515,-13.78515 z m 116.63476,6.31836 c -0.62711,-0.0162 -1.26586,0.14909 -1.83398,0.51172 -2.67,1.702 -5.53367,3.17314 -8.51367,4.36914 -1.669,0.671 -2.4786,2.56537 -1.8086,4.23437 0.667,1.656 2.54933,2.48455 4.23633,1.81055 3.353,-1.347 6.57985,-3.00283 9.58985,-4.92383 1.516,-0.967 1.96118,-2.98105 0.99218,-4.49805 -0.60437,-0.9475 -1.61691,-1.47696 -2.66211,-1.5039 z " />
</svg>