<svg viewBox="0 0 512 512" xmlns="http://www.w3.org/2000/svg">
  <path d="m 47.595703,80.320312 c -0.110337,0.0035 -0.222172,0.01259 -0.333984,0.02734 -18.803,2.6 -35.184047,15.084172 -42.7480471,32.576178 -0.714,1.651 0.046266,3.56725 1.6972656,4.28125 1.659,0.717 3.57125,-0.0523 4.2812505,-1.69727 6.666999,-15.417 21.098109,-26.415033 37.662109,-28.707033 1.781,-0.246 3.02825,-1.890828 2.78125,-3.673828 -0.229688,-1.66875 -1.68479,-2.858789 -3.339844,-2.806641 z m 7.302735,20.322268 c -18.778,0 -34.054688,15.27573 -34.054688,34.05273 v 229.0293 c 0,18.778 15.277687,34.05273 34.054688,34.05273 h 78.128902 l 15.03907,20.19141 c 6.396,8.585 16.60554,13.71094 27.31054,13.71094 H 336.625 c 10.705,0 20.91455,-5.12594 27.31055,-13.71094 l 15.03906,-20.19141 h 78.12695 c 18.778,0 34.05274,-15.27573 34.05274,-34.05273 v -229.0293 c 0,-18.777 -15.27574,-34.05273 -34.05274,-34.05273 z m -0.002,6.51367 H 457.09961 c 15.186,0 27.54102,12.35306 27.54101,27.53906 v 229.03125 c 0,15.186 -12.35501,27.53906 -27.54101,27.53906 H 54.896484 c -15.186,0 -27.541015,-12.35306 -27.541015,-27.53906 V 134.69531 c 0,-15.186 12.355015,-27.53906 27.541015,-27.53906 z M 3.2128906,130.50781 c -1.6496997,0.0551 -3.03898435,1.30539 -3.17773435,2.98633 C 0.00315625,133.89314 0,134.29427 0,134.69727 v 11.35937 c 0,1.799 1.4588125,3.25781 3.2578125,3.25781 1.799,0 3.2558594,-1.45881 3.2558594,-3.25781 v -11.36133 c 0,-0.224 -0.00338,-0.44787 0.015625,-0.67187 0.146,-1.793 -1.1894219,-3.36372 -2.9824219,-3.51172 -0.112,-0.007 -0.2240044,-0.008 -0.3339844,-0.004 z M 44.945312,245.46094 c -1.798999,0 -3.255859,1.45686 -3.255859,3.25586 v 8.59961 c 0,1.799 1.45686,3.25586 3.255859,3.25586 1.799,0 3.257813,-1.45686 3.257813,-3.25586 v -8.59961 c 0,-1.799 -1.458813,-3.25586 -3.257813,-3.25586 z M 508.74219,262.9707 c -1.799,0 -3.25586,1.45686 -3.25586,3.25586 v 9.09375 c 0,1.799 1.45686,3.25586 3.25586,3.25586 1.799,0 3.25781,-1.45686 3.25781,-3.25586 v -9.09375 c 10e-4,-1.799 -1.45781,-3.25586 -3.25781,-3.25586 z M 44.945312,270.5 c -1.798999,0 -3.255859,1.45881 -3.255859,3.25781 v 32.62305 c 0,1.799 1.45686,3.25586 3.255859,3.25586 1.799,0 3.257813,-1.45686 3.257813,-3.25586 v -32.62305 c 0,-1.799 -1.458813,-3.25781 -3.257813,-3.25781 z m 463.796878,18.86523 c -1.799,0 -3.25586,1.45686 -3.25586,3.25586 v 49.79297 c 0,1.799 1.45686,3.25782 3.25586,3.25782 1.799,0 3.25781,-1.45882 3.25781,-3.25782 v -49.79297 c 10e-4,-1.799 -1.45781,-3.25586 -3.25781,-3.25586 z M 141.14648,397.7793 h 229.70508 l -12.14062,16.30078 c -5.171,6.943 -13.42989,11.08789 -22.08789,11.08789 H 175.375 c -8.657,0 -16.91589,-4.14489 -22.08789,-11.08789 z m 55.13282,10.43554 c -1.799,0 -3.25782,1.45882 -3.25782,3.25782 0,1.799 1.45782,3.25586 3.25782,3.25586 h 9.69336 c 1.799,0 3.25586,-1.45686 3.25586,-3.25586 0,-1.799 -1.45686,-3.25782 -3.25586,-3.25782 z m 36.58203,0 c -1.799,0 -3.25781,1.45882 -3.25781,3.25782 0,1.799 1.45881,3.25586 3.25781,3.25586 h 9.69336 c 1.799,0 3.25586,-1.45686 3.25586,-3.25586 0,-1.799 -1.45686,-3.25782 -3.25586,-3.25782 z m 36.58203,0 c -1.799,0 -3.25586,1.45882 -3.25586,3.25782 0,1.799 1.45686,3.25586 3.25586,3.25586 h 9.69336 c 1.799,0 3.25781,-1.45686 3.25781,-3.25586 0,-1.799 -1.45881,-3.25782 -3.25781,-3.25782 z m 36.58398,0 c -1.799,0 -3.25781,1.45882 -3.25781,3.25782 0,1.799 1.45881,3.25586 3.25781,3.25586 h 9.69336 c 1.799,0 3.25586,-1.45686 3.25586,-3.25586 0,-1.799 -1.45686,-3.25782 -3.25586,-3.25782 z " />
</svg>