<svg viewBox="0 0 512 512" xmlns="http://www.w3.org/2000/svg">
  <path d="m44.946 260.573c-1.799 0-3.257-1.458-3.257-3.257v-8.599c0-1.799 1.458-3.257 3.257-3.257s3.257 1.458 3.257 3.257v8.599c0 1.799-1.458 3.257-3.257 3.257z m44.946 309.637c-1.799 0-3.257-1.458-3.257-3.257v-32.623c0-1.799 1.458-3.257 3.257-3.257s3.257 1.458 3.257 3.257v32.623c0 1.799-1.458 3.257-3.257 3.257z m508.743 262.97c-1.799 0-3.257 1.458-3.257 3.257v9.093c0 1.799 1.458 3.257 3.257 3.257s3.257-1.458 3.257-3.257v-9.093c.001-1.799-1.457-3.257-3.257-3.257z m508.743 289.365c-1.799 0-3.257 1.458-3.257 3.257v49.793c0 1.799 1.458 3.257 3.257 3.257s3.257-1.458 3.257-3.257v-49.793c.001-1.799-1.457-3.257-3.257-3.257z m3.546 130.512c-1.792-.115-3.363 1.189-3.511 2.982-.032.399-.035.8-.035 1.203v11.36c0 1.799 1.458 3.257 3.257 3.257s3.257-1.458 3.257-3.257v-11.361c0-.224-.004-.449.015-.673.146-1.793-1.19-3.363-2.983-3.511z m48.155 86.8c1.781-.246 3.027-1.89 2.78-3.673-.245-1.78-1.884-3.016-3.673-2.78-18.803 2.6-35.184 15.084-42.748 32.576-.714 1.651.046 3.568 1.697 4.282 1.659.717 3.572-.052 4.282-1.697 6.667-15.417 21.098-26.416 37.662-28.708z m457.101 100.642h-402.202c-18.778 0-34.055 15.276-34.055 34.053v229.029c0 18.778 15.278 34.053 34.055 34.053h78.128l15.039 20.191c6.396 8.585 16.606 13.711 27.311 13.711h161.248c10.705 0 20.915-5.126 27.311-13.711l15.039-20.191h78.127c18.778 0 34.053-15.276 34.053-34.053v-229.028c0-18.777-15.277-34.054-34.054-34.054zm-98.39 313.438c-5.171 6.943-13.429 11.088-22.087 11.088h-161.249c-8.657 0-16.915-4.145-22.087-11.088l-12.141-16.3h229.704zm125.929-50.354c0 15.186-12.354 27.54-27.54 27.54-141.942 0-259.652 0-402.203 0-15.186 0-27.541-12.354-27.541-27.54v-229.03c0-15.186 12.355-27.54 27.541-27.54h402.203c15.186 0 27.54 12.354 27.54 27.54z m196.279 414.729h9.693c1.799 0 3.257-1.458 3.257-3.257s-1.458-3.257-3.257-3.257h-9.693c-1.799 0-3.257 1.458-3.257 3.257s1.457 3.257 3.257 3.257z m232.861 414.729h9.693c1.799 0 3.257-1.458 3.257-3.257s-1.458-3.257-3.257-3.257h-9.693c-1.799 0-3.257 1.458-3.257 3.257s1.458 3.257 3.257 3.257z m269.444 414.729h9.693c1.799 0 3.257-1.458 3.257-3.257s-1.458-3.257-3.257-3.257h-9.693c-1.799 0-3.257 1.458-3.257 3.257s1.458 3.257 3.257 3.257z m306.027 414.729h9.693c1.799 0 3.257-1.458 3.257-3.257s-1.458-3.257-3.257-3.257h-9.693c-1.799 0-3.257 1.458-3.257 3.257s1.458 3.257 3.257 3.257z " />
</svg>