<svg viewBox="0 0 512 512" xmlns="http://www.w3.org/2000/svg">
  <path d="M 17.077301,0 C 7.6591693,0 0,7.6591693 0,17.077301 v 17.0773 c 0,9.418131 7.6591693,17.077301 17.077301,17.077301 V 294.58344 c 0,7.06146 5.746511,12.80797 12.807975,12.80797 h 4.269325 v 170.77301 c 0,9.41813 7.659169,17.0773 17.077301,17.0773 H 346.29897 c 5.92583,10.16099 16.81567,17.0773 29.40164,17.0773 h 102.46381 c 18.83626,0 34.1546,-15.31834 34.1546,-34.1546 V 256.15951 c 0,-18.83626 -15.31834,-34.1546 -34.1546,-34.1546 h -34.1546 V 51.231902 c 9.41813,0 17.0773,-7.65917 17.0773,-17.077301 v -17.0773 C 461.08712,7.6591693 453.42795,0 444.00982,0 Z m 0,17.077301 H 444.00982 l 0.0171,17.0773 H 17.077301 Z m 17.0773,34.154601 H 426.93251 V 85.386503 H 34.154601 Z m 0,51.231898 H 426.93251 v 34.1546 H 34.154601 Z m 0,51.23191 H 426.93251 v 34.1546 H 34.154601 Z m 0,51.2319 H 426.93251 v 17.0773 h -51.2319 c -12.58597,0 -23.47581,6.9163 -29.40164,17.0773 H 34.154601 Z m 341.546009,34.1546 h 102.46381 c 9.41813,0 17.0773,7.65917 17.0773,17.0773 v 222.00491 c 0,9.41813 -7.65917,17.0773 -17.0773,17.0773 H 375.70061 c -9.41813,0 -17.0773,-7.65917 -17.0773,-17.0773 V 256.15951 c 0,-9.41813 7.65917,-17.0773 17.0773,-17.0773 z M 34.154601,256.15951 H 341.54601 v 34.1546 H 34.154601 Z m 392.777909,17.0773 c -2.18376,0 -4.36778,0.83226 -6.03709,2.50156 l -34.1546,34.1546 c -3.33861,3.33861 -3.33861,8.73557 0,12.07418 3.33862,3.33861 8.73557,3.33861 12.07418,0 l 28.11751,-28.11751 28.11752,28.11751 c 1.66503,1.66504 3.85119,2.50156 6.03709,2.50156 2.18589,0 4.37205,-0.83653 6.03709,-2.50156 3.33861,-3.33861 3.33861,-8.73557 0,-12.07418 l -34.15461,-34.1546 c -1.6693,-1.66931 -3.85333,-2.50156 -6.03709,-2.50156 z m -375.700608,34.1546 h 17.0773 v 145.15706 c 0,4.72187 3.816777,8.53865 8.538651,8.53865 H 341.54601 v 17.0773 H 51.231902 Z m 34.154601,0 H 341.54601 V 444.00982 H 85.386503 Z m 59.770547,34.1546 c -2.18375,0 -4.36778,0.83226 -6.03709,2.50156 l -34.1546,34.1546 c -3.33861,3.33861 -3.33861,8.73557 0,12.07418 1.66504,1.66504 3.8512,2.50156 6.03709,2.50156 2.1859,0 4.37206,-0.83653 6.03709,-2.50156 l 34.15461,-34.1546 c 3.33861,-3.33861 3.33861,-8.73557 0,-12.07418 -1.66931,-1.6693 -3.85334,-2.50156 -6.0371,-2.50156 z m 51.23191,8.53865 c -2.18376,0 -4.36779,0.83226 -6.03709,2.50156 l -59.77056,59.77055 c -3.33861,3.33862 -3.33861,8.73557 0,12.07418 1.66504,1.66504 3.8512,2.50156 6.03709,2.50156 2.1859,0 4.37206,-0.83653 6.0371,-2.50156 l 59.77055,-59.77055 c 3.33861,-3.33861 3.33861,-8.73557 0,-12.07418 -1.66931,-1.6693 -3.85333,-2.50156 -6.03709,-2.50156 z m 196.38895,59.77055 c -2.18376,0 -4.36778,0.83227 -6.03709,2.50156 -3.33861,3.33862 -3.33861,8.73557 0,12.07418 l 34.1546,34.15461 c 1.66504,1.66503 3.8512,2.50156 6.03709,2.50156 2.1859,0 4.37206,-0.83654 6.03709,-2.50156 l 34.15461,-34.15461 c 3.33861,-3.33861 3.33861,-8.73556 0,-12.07418 -3.33862,-3.33861 -8.73557,-3.33861 -12.07418,0 L 426.93251,440.47428 398.815,412.35677 c -1.6693,-1.6693 -3.85333,-2.50156 -6.03709,-2.50156 z " />
</svg>