<svg viewBox="0 0 60 60" xmlns="http://www.w3.org/2000/svg">
  <path d="m56 26h-4v-20c1.103 0 2-.897 2-2v-2c0-1.103-.897-2-2-2h-50c-1.103 0-2 .897-2 2v2c0 1.103.897 2 2 2v28.5c0 .827.673 1.5 1.5 1.5h.5v20c0 1.103.897 2 2 2h34.556c.694 1.19 1.97 2 3.444 2h12c2.206 0 4-1.794 4-4v-26c0-2.206-1.794-4-4-4zm-12 0c-1.474 0-2.75.81-3.444 2h-36.556v-4h46v2zm-34 10h30v16h-30zm30-2h-36v-4h36zm-36-22h46v4h-46zm0 6h46v4h-46zm-2-16h50l.002 2h-50.002zm48 4v4h-46v-4zm-44 50v-20h2v17c0 .553.447 1 1 1h31v2zm52 0c0 1.103-.897 2-2 2h-12c-1.103 0-2-.897-2-2v-26c0-1.103.897-2 2-2h12c1.103 0 2 .897 2 2z m17.707 40.293c-.391-.391-1.023-.391-1.414 0l-4 4c-.391.391-.391 1.023 0 1.414.195.195.451.293.707.293s.512-.098.707-.293l4-4c.391-.391.391-1.023 0-1.414z m23.707 41.293c-.391-.391-1.023-.391-1.414 0l-7 7c-.391.391-.391 1.023 0 1.414.195.195.451.293.707.293s.512-.098.707-.293l7-7c.391-.391.391-1.023 0-1.414z m50.707 32.293c-.391-.391-1.023-.391-1.414 0l-4 4c-.391.391-.391 1.023 0 1.414s1.023.391 1.414 0l3.293-3.293 3.293 3.293c.195.195.451.293.707.293s.512-.098.707-.293c.391-.391.391-1.023 0-1.414z m53.293 48.293-3.293 3.293-3.293-3.293c-.391-.391-1.023-.391-1.414 0s-.391 1.023 0 1.414l4 4c.195.195.451.293.707.293s.512-.098.707-.293l4-4c.391-.391.391-1.023 0-1.414s-1.023-.391-1.414 0z " />
</svg>