<svg viewBox="0 0 512 512" xmlns="http://www.w3.org/2000/svg">
  <path d="m 29.090798,38.552147 c -12.921495,0 -23.4368103,10.515315 -23.4368103,23.43681 V 468.22699 c 0,4.31237 3.4998969,7.81227 7.8122703,7.81227 H 115.02577 c 4.31237,0 7.81227,-3.4999 7.81227,-7.81227 V 351.04294 h 265.61718 v 117.18405 c 0,4.31237 3.49989,7.81227 7.81227,7.81227 h 101.5595 c 4.31238,0 7.81228,-3.4999 7.81228,-7.81227 V 61.988957 c 0,-12.921495 -10.51532,-23.43681 -23.43681,-23.43681 z m 0,15.62454 H 482.20246 c 4.30456,0 7.81227,3.507709 7.81227,7.81227 V 460.41471 H 404.07975 V 343.23067 186.98526 c 0,-4.31236 -3.49989,-7.81226 -7.81226,-7.81226 H 115.02577 c -4.31238,0 -7.81227,3.4999 -7.81227,7.81226 V 343.23067 460.41471 H 21.278528 V 61.988957 c 0,-4.304561 3.507709,-7.81227 7.81227,-7.81227 z m 226.555832,23.43681 c -18.7807,0 -36.43654,7.312177 -49.71739,20.593035 -3.05461,3.054598 -3.05461,8.000258 0,11.047038 3.05459,3.0546 7.99244,3.0546 11.04704,0 10.33562,-10.327818 24.0614,-16.015533 38.67035,-16.015533 14.60894,0 28.33472,5.687715 38.67035,16.015533 1.5234,1.52339 3.52358,2.28875 5.52352,2.28875 1.99993,0 4.00013,-0.76536 5.52352,-2.28875 3.05461,-3.0546 3.05461,-7.99244 0,-11.047038 C 292.08316,84.925674 274.42733,77.613497 255.64663,77.613497 Z m 0,31.249073 c -10.42157,0 -20.21766,4.07088 -27.60806,11.44567 -3.05461,3.05459 -3.05461,7.99816 0,11.05276 3.05459,3.05459 8.00007,3.04678 11.05467,0 8.87474,-8.87474 24.24921,-8.87474 33.12394,0 1.5234,1.52339 3.52168,2.28303 5.52161,2.28303 1.99994,0 3.99995,-0.76725 5.53116,-2.29066 3.04678,-3.0546 3.04678,-7.99817 0,-11.05277 -7.40603,-7.36697 -17.20956,-11.43803 -27.62332,-11.43803 z m 0.0289,31.34635 c -2.04095,0 -4.09068,0.72333 -5.57501,2.16859 -1.40651,1.48434 -2.26616,3.51522 -2.26616,5.54641 0,2.10931 0.85965,4.06208 2.26586,5.54641 1.48433,1.4062 3.51522,2.26586 5.54641,2.26586 2.03119,0 4.06207,-0.85966 5.54641,-2.26586 1.40621,-1.48433 2.26586,-3.51522 2.26586,-5.54641 0,-2.03119 -0.85965,-4.06207 -2.26586,-5.54641 -1.44528,-1.44527 -3.47685,-2.16859 -5.51781,-2.16859 z M 122.83802,194.79754 H 388.4552 v 15.62453 H 122.83804 Z m 0,31.24908 H 388.4552 v 15.62454 H 122.83804 Z m 0,31.24907 h 265.6172 v 15.62455 H 122.83804 Z m 0,31.24909 H 388.4552 v 15.62453 H 122.83804 Z m 0,31.24908 H 388.4552 V 335.4184 H 122.83804 Z m 132.80859,46.87171 c -1.99799,0 -3.99622,0.76333 -5.52352,2.29066 l -31.24908,31.24908 c -2.2343,2.23431 -2.90649,5.59427 -1.69558,8.51606 1.2109,2.91398 4.06294,4.81972 7.2191,4.81972 h 62.49816 c 3.15615,0 6.0082,-1.90574 7.21909,-4.81972 1.21091,-2.92179 0.53874,-6.28175 -1.69557,-8.51606 l -31.24909,-31.24908 c -1.52729,-1.5273 -3.52552,-2.29066 -5.52351,-2.29066 z m 0,18.86121 12.38978,12.38978 h -24.77956 z m -31.24908,43.63886 c -3.15616,0 -6.0082,1.90574 -7.2191,4.81972 -1.21091,2.92179 -0.53873,6.28175 1.69558,8.51607 l 31.24908,31.24907 c 1.5234,1.5234 3.52358,2.28876 5.52352,2.28876 1.99994,0 4.00012,-0.76537 5.52351,-2.28876 l 31.24909,-31.24907 c 2.2343,-2.23432 2.90648,-5.59428 1.69557,-8.51607 -1.21089,-2.91398 -4.06294,-4.81972 -7.21909,-4.81972 z m 18.8593,15.62454 h 24.77956 l -12.38978,12.38978 z " />
</svg>