<svg viewBox="0 0 74 74" xmlns="http://www.w3.org/2000/svg">
  <path d="m67 72h-60a5.006 5.006 0 0 1 -5-5v-60a5.006 5.006 0 0 1 5-5h60a5.006 5.006 0 0 1 5 5v60a5.006 5.006 0 0 1 -5 5zm-60-68a3 3 0 0 0 -3 3v60a3 3 0 0 0 3 3h60a3 3 0 0 0 3-3v-60a3 3 0 0 0 -3-3z m37 62a25 25 0 1 1 25-25 25.028 25.028 0 0 1 -25 25zm0-48a23 23 0 1 0 23 23 23.026 23.026 0 0 0 -23-23z m37 20a1 1 0 0 1 -1-1v-6a1 1 0 0 1 2 0v6a1 1 0 0 1 -1 1z m37 62a1 1 0 0 1 -1-1v-6a1 1 0 0 1 2 0v6a1 1 0 0 1 -1 1z m47.5 41.292a4.292 4.292 0 1 1 4.292-4.292 4.3 4.3 0 0 1 -4.292 4.292zm0-6.584a2.292 2.292 0 1 0 2.292 2.292 2.294 2.294 0 0 0 -2.292-2.292z m26.5 41.292a4.292 4.292 0 1 1 4.292-4.292 4.3 4.3 0 0 1 -4.292 4.292zm0-6.584a2.292 2.292 0 1 0 2.292 2.292 2.294 2.294 0 0 0 -2.292-2.292z " />
</svg>