<svg viewBox="0 0 512 512" xmlns="http://www.w3.org/2000/svg">
  <path d="M 38.365297,2.0000076 C 18.291474,2.0245184 2.0245417,18.291474 2.0000076,38.365297 V 474.76108 c 0.024511,20.07383 16.2914664,36.34076 36.3652894,36.36529 H 474.76108 c 20.07383,-0.0247 36.34076,-16.29146 36.36529,-36.36529 V 38.365297 C 511.10164,18.291474 494.83491,2.0245417 474.76108,2.0000076 Z m 0,14.5465264 H 474.76108 c 12.04996,5.18e-4 21.81825,9.768807 21.81877,21.818763 V 474.76108 c -5.2e-4,12.04996 -9.76881,21.81825 -21.81877,21.81877 H 38.365297 C 26.315341,496.57933 16.547052,486.81104 16.546534,474.76108 V 38.365297 C 16.547055,26.315343 26.315343,16.547055 38.365297,16.546534 Z M 71.817026,257.82596 c 0,98.09519 81.613364,182.90262 184.512684,182.90262 102.89932,0 184.0151,-84.88634 182.99797,-183.23145 C 438.31054,159.15201 363.11696,73.996306 256.1009,73.996306 149.08485,73.996306 71.817026,159.73078 71.817026,257.82596 Z M 263.83543,89.406226 c 89.63188,3.996999 160.7133,79.271754 160.7133,168.557874 0,89.28611 -74.89588,167.08177 -160.7133,167.08177 v -37.56394 c -0.1579,-9.53712 -14.3866,-9.53712 -14.54448,0 v 37.73258 c -60.25074,0 -162.412951,-53.4822 -162.412951,-167.28018 0,-84.17019 69.782341,-168.761211 162.412951,-168.761211 v 36.471331 c -5.8e-4,4.01692 3.25532,7.27374 7.27224,7.27429 4.01692,-5.5e-4 7.27282,-3.25737 7.27224,-7.27429 z M 175.75144,225.66337 c -38.35865,5.51416 -34.30994,62.1173 4.44301,62.11583 17.22668,-0.0327 31.18358,-13.98933 31.21599,-31.21601 4.8e-4,-19.00845 -16.844,-33.6048 -35.659,-30.89982 z m 152.7375,0 c -38.35864,5.51416 -34.30995,62.11729 4.443,62.11583 17.22668,-0.0327 31.18359,-13.98933 31.216,-31.21601 4.8e-4,-19.00845 -16.844,-33.6048 -35.659,-30.89982 z m -148.29449,14.23034 c 9.20279,0.009 16.66102,7.46669 16.66947,16.66948 6.9e-4,14.85302 -17.95591,22.28923 -28.4573,11.78783 -10.5014,-10.5014 -3.0652,-28.458 11.78783,-28.45731 z m 152.73749,0 c 9.20279,0.009 16.66102,7.46669 16.66948,16.66948 6.9e-4,14.85302 -17.95591,22.28923 -28.45731,11.78783 -10.5014,-10.5014 -3.0652,-28.458 11.78783,-28.45731 z " />
</svg>