<svg viewBox="0 0 64 64" xmlns="http://www.w3.org/2000/svg">
  <path d="m24 11.708c.552-.482 1.262-.75 2-.75h12c.738 0 1.448.268 2 .75.552-.482 1.262-.75 2-.75h10c2.784 0 5.042 2.258 5.042 5.042v6.958h.958c.807 0 1.58.321 2.151.891.57.571.891 1.344.891 2.151v20c0 .807-.321 1.58-.891 2.151-.571.57-1.344.891-2.151.891h-.958v2.958c0 .575-.467 1.042-1.042 1.042h-4c-.575 0-1.042-.467-1.042-1.042v-2.958h-37.916v2.958c0 .575-.467 1.042-1.042 1.042h-4c-.575 0-1.042-.467-1.042-1.042v-2.958h-.958c-.807 0-1.58-.321-2.151-.891-.57-.571-.891-1.344-.891-2.151v-20c0-.807.321-1.58.891-2.151.571-.57 1.344-.891 2.151-.891h.958v-6.958c0-2.784 2.258-5.042 5.042-5.042h10c.738 0 1.448.268 2 .75zm29.042 37.334v1.916h1.916v-1.916zm-44 0v1.916h1.916v-1.916zm48.958-24h-4c-.529 0-.958.429-.958.958v10c0 .575-.467 1.042-1.042 1.042h-40c-.575 0-1.042-.467-1.042-1.042 0 0 0-6.586 0-10 0-.529-.429-.958-.958-.958-1.222 0-2.778 0-4 0-.254 0-.498.101-.678.28-.179.18-.28.424-.28.678v20c0 .254.101.498.28.678.18.179.424.28.678.28h52c.254 0 .498-.101.678-.28.179-.18.28-.424.28-.678 0-4.52 0-15.48 0-20 0-.254-.101-.498-.28-.678-.18-.179-.424-.28-.678-.28zm-7.042 8h-37.916v1.916h37.916zm4-10.084v-6.958c0-1.634-1.324-2.958-2.958-2.958 0 0-6.586 0-10 0-.254 0-.498.101-.678.28-.179.18-.28.424-.28.678v16.958h9.916v-4.958c0-1.68 1.362-3.042 3.042-3.042zm-32 8v-16.958c0-.254-.101-.498-.28-.678-.18-.179-.424-.28-.678-.28-3.414 0-10 0-10 0-1.634 0-2.958 1.324-2.958 2.958v6.958h.958c1.68 0 3.042 1.362 3.042 3.042v4.958zm16 0v-16.958c0-.254-.101-.498-.28-.678-.18-.179-.424-.28-.678-.28-3.074 0-8.926 0-12 0-.254 0-.498.101-.678.28-.179.18-.28.424-.28.678v16.958z " />
</svg>