<svg viewBox="0 0 512 512" xmlns="http://www.w3.org/2000/svg">
  <path d="m 307.80993,3.9963501 c -1.77012,-0.018718 -3.52242,0.8088537 -4.63476,2.3062366 C 280.18678,36.70659 279.04324,116.67887 279.04324,132.36574 c 0,32.85686 9.41435,58.35559 26.5273,71.76074 8.95577,7.07335 14.3165,18.53412 14.3165,30.62727 v 153.10294 c -0.11409,20.30737 -10.26243,45.52089 -10.20538,66.05643 0,10.0396 1.42607,20.36797 4.27823,30.74983 6.78814,27.38071 45.85379,28.52425 53.61166,1.31466 3.08033,-10.8382 4.62362,-21.62559 4.62362,-32.06449 0.057,-20.53554 -10.0913,-45.74906 -10.20538,-66.05643 V 234.75375 c 0,-12.09315 5.36072,-23.55392 14.31649,-30.62727 17.11295,-13.46219 26.5273,-38.96093 26.5273,-71.76074 0,-15.68687 -1.14354,-95.65915 -24.13193,-126.0631533 -3.08033,-4.33528 -10.44336,-1.8846523 -10.27223,3.4203614 V 148.91048 c 0,2.5099 -2.0482,4.50106 -4.50106,4.50106 h -6.21681 V 9.7229481 c 0,-3.1373737 -2.56694,-5.7043158 -5.70432,-5.7043158 -3.13737,0 -5.70431,2.5669421 -5.70431,5.7043158 V 153.41154 H 335.5739 V 9.7229481 c 0,-3.1373737 -2.56694,-5.7043158 -5.70431,-5.7043158 -3.13738,0 -5.70432,2.5669421 -5.70432,5.7043158 V 153.41154 h -6.21681 c -2.5099,0 -4.50106,-2.0482 -4.50106,-4.50106 V 9.7229481 c 0,-2.4528558 -1.54953,-4.6160391 -3.8883,-5.4146438 -0.57043,-0.1996511 -1.15913,-0.3057154 -1.74917,-0.3119542 z M 182.52666,4.0186323 C 133.0132,5.4447112 109.9085,87.016427 110.36484,132.36574 c 0,27.8941 13.35344,55.62064 34.00307,70.68004 10.72411,7.81491 17.11295,20.08052 17.11295,32.7441 v 152.06681 c -0.11409,20.30737 -10.27356,45.52089 -10.21652,66.05643 0.17113,20.64962 4.33528,52.37052 31.37374,52.0853 27.32367,0 30.80865,-31.26455 31.15091,-52.0853 0.057,-20.53554 -10.10243,-45.74906 -10.21652,-66.05643 V 235.78988 c 0,-12.66358 6.38883,-24.92919 17.11295,-32.7441 20.64962,-15.0594 34.00307,-42.84298 34.00307,-70.68004 C 255.20187,87.016427 231.98308,5.4447112 182.52666,4.0186323 Z m 0.0557,11.4086317 c 43.52394,2.681028 61.03842,82.028061 60.7532,116.938476 0,24.35743 -11.52628,48.48267 -29.32375,61.48851 h -0.0557 c -13.63332,9.98256 -21.79227,25.677 -21.79227,41.99134 v 152.07795 c 0,10.89525 2.69038,22.92333 5.31437,34.56014 5.4191,21.56231 7.01007,39.48277 0.73532,60.47466 -2.45285,8.55647 -11.23483,13.45772 -20.07652,11.11895 -5.4191,-1.42607 -9.81008,-6.04434 -11.46433,-11.97683 -2.62399,-9.52621 -3.944,-18.99359 -3.94401,-28.1205 0.22817,-20.30736 10.33061,-45.40679 10.21652,-66.05642 V 235.84559 c 0,-16.31434 -8.15895,-32.00878 -21.79227,-41.99134 -17.79746,-13.00584 -29.32374,-37.13108 -29.32374,-61.48851 -0.22817,-35.309717 17.11517,-114.029275 60.75319,-116.938476 z m 197.14428,19.619727 c 8.38535,26.75324 11.57575,66.116139 11.57575,97.318749 0,28.86384 -8.09255,51.73681 -22.18221,62.80318 l 0.11141,0.0557 c -11.69385,9.24099 -18.70614,24.02319 -18.70614,39.59598 v 153.10294 c -0.11408,20.59258 9.9772,45.74906 10.20538,66.05642 0,9.41213 -1.42742,19.16695 -4.22253,28.97838 -2.39581,8.44239 -11.07038,13.3423 -19.79799,11.17466 -15.51574,-4.67754 -14.71713,-27.31832 -15.68687,-40.15304 0.22817,-20.30736 10.33061,-45.40679 10.21652,-66.05642 V 234.8206 c 0,-15.57278 -7.0123,-30.41203 -18.70615,-39.59598 -14.08966,-11.06637 -22.19335,-33.99638 -22.19335,-62.80317 0,-31.20261 3.19041,-70.56551 11.57575,-97.318753 V 148.91048 c 0,8.78465 7.13619,15.9097 15.92084,15.9097 h 45.96876 c 8.78465,0 15.92083,-7.12505 15.92083,-15.9097 z " />
</svg>