<svg viewBox="0 0 512 512" xmlns="http://www.w3.org/2000/svg">
  <path d="m100.973 208.364c-3.904-3.907-10.235-3.91-14.142-.006l-40.605 40.568c-1.878 1.875-2.933 4.42-2.933 7.074s1.055 5.199 2.933 7.074l40.605 40.568c1.952 1.951 4.51 2.926 7.067 2.926 2.561 0 5.122-.978 7.074-2.932 3.903-3.907 3.9-10.239-.007-14.142l-33.523-33.494 33.524-33.494c3.907-3.903 3.91-10.235.007-14.142z m118.349 166.456c5.522 0 10-4.477 10-10v-47.373h47.425c5.522 0 10-4.477 10-10s-4.478-10-10-10h-57.425c-5.522 0-10 4.477-10 10v57.373c0 5.523 4.477 10 10 10z m175.774 402.917h-47.425v-47.373c0-5.523-4.478-10-10-10s-10 4.477-10 10v57.373c0 5.523 4.478 10 10 10h57.425c5.522 0 10-4.477 10-10s-4.478-10-10-10z m461.526 317.128c5.324-7.464 7.231-17.104 4.674-26.446-4.56-16.655-21.834-26.501-38.508-21.953l-31.315 8.558-3.356-1.936c1.277-6.35 1.922-12.831 1.922-19.351s-.645-13.001-1.922-19.351l3.357-1.936 31.315 8.558c2.707.74 5.493 1.115 8.28 1.115 14.078 0 26.508-9.486 30.228-23.069 2.557-9.341.649-18.981-4.675-26.445 2.829-3.419 4.914-7.438 6.098-11.852 2.169-8.086 1.057-16.531-3.133-23.781-6.643-11.497-19.529-17.196-31.93-15.297-3.922-7.705-10.961-13.634-19.678-16.016-16.673-4.556-33.947 5.294-38.509 21.954l-8.184 29.894-4.57 2.636c-9.804-8.64-21.186-15.222-33.512-19.38v-4.533l22.446-22.425c5.923-5.918 9.185-13.787 9.185-22.158 0-8.37-3.262-16.239-9.186-22.159-6.56-6.552-15.601-9.695-24.484-9.059-4.497-11.805-15.94-20.213-29.312-20.213-4.001 0-7.829.754-11.351 2.126v-54.609c0-5.523-4.478-10-10-10s-10 4.477-10 10v19.943l-37.673 37.638c-3.907 3.903-3.91 10.235-.007 14.142 1.953 1.955 4.514 2.932 7.074 2.932 2.558 0 5.115-.975 7.067-2.926l23.538-23.517v62.83c-70.026 5.132-125.435 63.7-125.435 134.958s55.409 129.826 125.438 134.957v62.83l-23.538-23.517c-3.907-3.904-10.24-3.901-14.142.006-3.903 3.907-3.9 10.239.007 14.142l37.673 37.638v19.944c0 5.523 4.478 10 10 10s10-4.477 10-10v-54.609c3.521 1.372 7.349 2.126 11.351 2.126 13.36 0 24.797-8.397 29.302-20.187.774.058 1.551.087 2.329.087 8.371 0 16.242-3.258 22.165-9.173 5.923-5.918 9.186-13.787 9.186-22.157 0-8.371-3.262-16.24-9.185-22.158l-22.446-22.426v-4.533c12.326-4.158 23.708-10.739 33.512-19.38l4.569 2.636 8.186 29.896c3.719 13.583 16.149 23.069 30.229 23.067 2.788-.001 5.574-.376 8.28-1.115 8.715-2.382 15.753-8.31 19.675-16.014 1.572.243 3.164.367 4.762.367 11.173 0 21.584-6.002 27.169-15.666 4.189-7.25 5.302-15.695 3.133-23.78-1.184-4.415-3.269-8.433-6.099-11.853zm-301.556-61.128c0-60.225 46.449-109.816 105.438-114.896v229.791c-58.989-5.079-105.438-54.67-105.438-114.895zm287.205 86.753c-2.022 3.5-5.798 5.674-9.853 5.674-2.002 0-3.905-.513-5.656-1.523l-.74-.427c-3.003-1.731-6.685-1.786-9.736-.146-3.051 1.642-5.035 4.746-5.244 8.204-.293 4.847-3.642 8.965-8.331 10.247-.99.27-2.004.408-3.013.408-5.093 0-9.59-3.433-10.936-8.349l-9.271-33.862c-.696-2.541-2.366-4.705-4.649-6.021l-14.61-8.428c-3.976-2.293-8.996-1.587-12.184 1.708-10.223 10.566-23.108 18.017-37.263 21.547-4.454 1.111-7.58 5.112-7.58 9.703v16.161c0 2.654 1.055 5.199 2.932 7.074l25.379 25.356c2.142 2.139 3.32 4.983 3.32 8.008s-1.18 5.87-3.321 8.009c-2.145 2.143-4.996 3.322-8.029 3.322-1.908 0-3.798-.484-5.465-1.4-3.099-1.702-6.865-1.642-9.907.157-3.042 1.8-4.908 5.072-4.908 8.607v1.404c0 6.248-5.092 11.332-11.351 11.332s-11.351-5.083-11.351-11.332v-324.372c0-6.248 5.092-11.332 11.351-11.332s11.351 5.083 11.351 11.332v1.404c0 3.535 1.866 6.807 4.909 8.607 3.041 1.799 6.807 1.859 9.906.157 4.395-2.415 9.943-1.625 13.494 1.921 2.142 2.14 3.321 4.985 3.321 8.01s-1.18 5.87-3.321 8.009l-25.378 25.355c-1.877 1.875-2.932 4.42-2.932 7.074v16.161c0 4.591 3.126 8.592 7.58 9.703 14.154 3.53 27.04 10.981 37.263 21.547 3.187 3.295 8.209 4 12.183 1.708l14.612-8.428c2.283-1.316 3.953-3.48 4.649-6.021l9.269-33.86c1.651-6.03 7.908-9.591 13.947-7.943 4.691 1.282 8.04 5.4 8.333 10.247.209 3.458 2.193 6.562 5.244 8.203 3.052 1.642 6.735 1.587 9.736-.146l.738-.426c5.422-3.13 12.381-1.267 15.511 4.149 1.514 2.62 1.916 5.672 1.132 8.593-.784 2.923-2.661 5.367-5.285 6.88l-1.729.998c-3.127 1.803-5.038 5.151-5.004 8.759.035 3.609 2.013 6.919 5.173 8.661 4.595 2.532 6.836 7.837 5.45 12.899-1.347 4.917-5.844 8.35-10.938 8.35-1.007 0-2.02-.137-3.01-.408l-35.336-9.656c-2.572-.703-5.321-.349-7.632.984l-13.455 7.76c-3.98 2.296-5.884 7.008-4.615 11.424 2.002 6.968 3.017 14.205 3.017 21.51s-1.015 14.542-3.017 21.51c-1.269 4.416.635 9.128 4.615 11.424l13.455 7.76c2.311 1.333 5.059 1.688 7.632.984l35.333-9.656c6.04-1.648 12.299 1.913 13.949 7.94 1.387 5.063-.854 10.368-5.449 12.9-3.16 1.742-5.138 5.052-5.173 8.661-.034 3.608 1.877 6.957 5.004 8.759l1.729.998c2.625 1.514 4.502 3.958 5.286 6.881.785 2.923.383 5.975-1.131 8.593z " />
</svg>