<svg viewBox="0 0 512 512" xmlns="http://www.w3.org/2000/svg">
  <path d="m 275.40625,0 c -5.522,0 -10,4.477 -10,10 v 19.943359 l -37.67383,37.636719 c -3.907,3.903 -3.90886,10.235578 -0.006,14.142578 1.953,1.955 4.51422,2.931641 7.07422,2.931641 2.558,0 5.11441,-0.974781 7.06641,-2.925781 L 265.4043,58.212891 V 121.04297 C 195.3783,126.17497 139.9707,184.742 139.9707,256 c 0,71.258 55.4085,129.82603 125.4375,134.95703 v 62.83008 l -23.53906,-23.51758 c -3.907,-3.904 -10.23862,-3.90114 -14.14062,0.006 -3.903,3.907 -3.90115,10.23958 0.006,14.14258 l 37.67382,37.63867 V 502 c 0,5.523 4.478,10 10,10 5.522,0 10,-4.477 10,-10 v -54.60938 c 3.521,1.37201 7.34957,2.12696 11.35157,2.12696 13.36,0 24.79578,-8.3975 29.30078,-20.1875 0.774,0.058 1.55208,0.0879 2.33007,0.0879 8.371,0 16.24107,-3.25883 22.16407,-9.17383 5.923,-5.918 9.18554,-13.78625 9.18554,-22.15625 0,-8.371 -3.26059,-16.2402 -9.18359,-22.1582 l -22.44726,-22.42578 v -4.53321 c 12.326,-4.158 23.70771,-10.73986 33.51171,-19.38086 l 4.57032,2.63672 8.18554,29.89453 c 3.719,13.583 16.14852,23.07036 30.22852,23.06836 2.788,-10e-4 5.57525,-0.37623 8.28125,-1.11523 8.715,-2.382 15.75183,-8.30967 19.67383,-16.01367 1.572,0.243 3.16372,0.36718 4.76172,0.36718 11.173,0 21.58492,-6.00201 27.16992,-15.66601 4.189,-7.25 5.30181,-15.69625 3.13281,-23.78125 -1.184,-4.415 -3.26961,-8.43156 -6.09961,-11.85156 5.324,-7.464 7.23083,-17.10527 4.67383,-26.44727 -4.56,-16.655 -21.83381,-26.50112 -38.50781,-21.95312 l -31.31446,8.55859 -3.35547,-1.93555 c 1.277,-6.35 1.92188,-12.83156 1.92188,-19.35156 0,-6.52 -0.64488,-13.00156 -1.92188,-19.35156 l 3.35743,-1.93555 31.31445,8.55859 c 2.707,0.74 5.4923,1.11524 8.2793,1.11524 14.078,0 26.50851,-9.48731 30.22851,-23.07031 2.557,-9.341 0.64822,-18.98132 -4.67578,-26.44532 2.829,-3.419 4.91366,-7.43756 6.09766,-11.85156 2.169,-8.086 1.05718,-16.53125 -3.13282,-23.78125 -6.643,-11.497 -19.52868,-17.19587 -31.92968,-15.29687 -3.922,-7.705 -10.96074,-13.63363 -19.67774,-16.01563 -16.673,-4.556 -33.94776,5.29508 -38.50976,21.95508 l -8.1836,29.89258 -4.57031,2.63672 c -9.804,-8.64 -21.18572,-15.22286 -33.51172,-19.38086 v -4.53321 l 22.44727,-22.42382 c 5.923,-5.918 9.18359,-13.78721 9.18359,-22.15821 0,-8.37 -3.26155,-16.238201 -9.18555,-22.158201 -6.56,-6.552 -15.60137,-9.696546 -24.48437,-9.060547 -4.497,-11.805 -15.93855,-20.21289 -29.31055,-20.21289 -4.001,0 -7.82956,0.754953 -11.35156,2.126953 V 10 c 0,-5.523 -4.478,-10 -10,-10 z m 21.35352,82.482422 c 6.259,0 11.3496,5.083031 11.34961,11.332031 v 1.404297 c 0,3.535 1.86715,6.80547 4.91015,8.60547 3.041,1.799 6.80725,1.8602 9.90625,0.1582 4.395,-2.415 9.94314,-1.62608 13.49414,1.91992 2.142,2.14 3.32031,4.98477 3.32031,8.00977 0,3.025 -1.17931,5.87077 -3.32031,8.00977 l -25.3789,25.35546 c -1.877,1.875 -2.93164,4.42022 -2.93164,7.07422 v 16.16016 c 0,4.591 3.12607,8.59212 7.58007,9.70312 14.154,3.53 27.03872,10.98088 37.26172,21.54688 3.187,3.295 8.2096,4.00098 12.1836,1.70898 l 14.61132,-8.42773 c 2.283,-1.316 3.95439,-3.48049 4.65039,-6.02149 l 9.26758,-33.86132 c 1.651,-6.03 7.90827,-9.58941 13.94727,-7.94141 4.691,1.282 8.04098,5.39909 8.33398,10.24609 0.209,3.458 2.19314,6.56213 5.24414,8.20313 3.052,1.642 6.73533,1.58651 9.73633,-0.14649 l 0.73633,-0.42578 c 5.422,-3.13 12.38172,-1.26756 15.51172,4.14844 1.514,2.62 1.91681,5.67275 1.13281,8.59375 -0.784,2.923 -2.66116,5.36786 -5.28516,6.88086 l -1.72851,0.99805 c -3.127,1.803 -5.03986,5.14981 -5.00586,8.75781 0.035,3.609 2.01383,6.92011 5.17383,8.66211 4.595,2.532 6.83522,7.83644 5.44922,12.89844 -1.347,4.917 -5.8435,8.34961 -10.9375,8.34961 -1.007,0 -2.01977,-0.13721 -3.00977,-0.40821 l -35.33594,-9.65625 c -2.572,-0.703 -5.32181,-0.34862 -7.63281,0.98438 l -13.45508,7.75976 c -3.98,2.296 -5.88228,7.00783 -4.61328,11.42383 2.002,6.968 3.01563,14.20477 3.01563,21.50977 0,7.305 -1.01363,14.54372 -3.01563,21.51172 -1.269,4.416 0.63328,9.12782 4.61328,11.42382 l 13.45508,7.75977 c 2.311,1.333 5.05981,1.68837 7.63281,0.98437 l 35.33399,-9.65625 c 6.04,-1.648 12.29726,1.91246 13.94726,7.93946 1.387,5.063 -0.85226,10.36839 -5.44726,12.90039 -3.16,1.742 -5.13883,5.05115 -5.17383,8.66015 -0.034,3.608 1.87691,6.95777 5.00391,8.75977 l 1.72851,0.99805 c 2.625,1.514 4.50311,3.95786 5.28711,6.88086 0.785,2.923 0.38314,5.97575 -1.13086,8.59375 -2.022,3.5 -5.79851,5.67382 -9.85351,5.67382 -2.002,0 -3.90525,-0.51343 -5.65625,-1.52343 l -0.74024,-0.42774 c -3.003,-1.731 -6.68533,-1.78648 -9.73633,-0.14648 -3.051,1.642 -5.03514,4.74708 -5.24414,8.20508 -0.293,4.847 -3.64108,8.96409 -8.33008,10.24609 -0.99,0.27 -2.00467,0.4082 -3.01367,0.4082 -5.093,0 -9.58954,-3.43165 -10.93554,-8.34765 l -9.27149,-33.86328 c -0.696,-2.541 -2.36544,-4.70549 -4.64844,-6.02149 l -14.60937,-8.42773 c -3.976,-2.293 -8.99755,-1.58602 -12.18555,1.70898 -10.223,10.566 -23.10672,18.01688 -37.26172,21.54688 -4.454,1.111 -7.58007,5.11212 -7.58007,9.70312 v 16.16016 c 0,2.654 1.05464,5.19922 2.93164,7.07422 l 25.3789,25.35546 c 2.142,2.13901 3.32031,4.98477 3.32031,8.00977 0,3.025 -1.17931,5.86881 -3.32031,8.00781 -2.145,2.143 -4.99629,3.32227 -8.0293,3.32227 -1.908,0 -3.79784,-0.48439 -5.46484,-1.40039 -3.099,-1.702 -6.8662,-1.6408 -9.9082,0.1582 -3.042,1.8 -4.90821,5.07047 -4.9082,8.60547 v 1.4043 c 0,6.248 -5.09061,11.33203 -11.34961,11.33203 -6.259,0 -11.35157,-5.08303 -11.35157,-11.33203 V 93.814453 c 0,-6.248 5.09257,-11.332031 11.35157,-11.332031 z m -178.41016,6.599609 c -5.522,0 -10,4.477 -10,10 v 57.373049 c 0,5.523 4.477,10 10,10 5.522,0 10,-4.477 10,-10 v -47.37305 h 47.42383 c 5.522,0 10,-4.477 10,-9.999999 0,-5.523 -4.478,-10 -10,-10 z M 265.4082,141.10352 V 370.89453 C 206.4192,365.81553 159.9707,316.225 159.9707,256 c 0,-60.225 46.4485,-109.81648 105.4375,-114.89648 z M 93.902344,205.43164 c -2.559125,-10e-4 -5.118766,0.97378 -7.072266,2.92578 l -40.603516,40.56836 c -1.878,1.875 -2.933593,4.42022 -2.933593,7.07422 0,2.654 1.055593,5.19922 2.933593,7.07422 l 40.603516,40.56836 c 1.952,1.951 4.511359,2.92578 7.06836,2.92578 2.561,0 5.122218,-0.97764 7.074222,-2.93164 3.903,-3.907 3.89918,-10.23958 -0.008,-14.14258 L 67.441406,256 100.9668,222.50586 c 3.907,-3.903 3.90886,-10.23558 0.006,-14.14258 -1.952004,-1.9535 -4.511191,-2.93051 -7.070316,-2.93164 z m 24.447266,140.11328 c -5.522,0 -10,4.477 -10,10 v 57.37305 c 0,5.523 4.478,10 10,10 h 57.42383 c 5.522,0 10,-4.477 10,-10 0,-5.523 -4.478,-10 -10,-10 h -47.42383 v -47.37305 c 0,-5.523 -4.478,-10 -10,-10 z " />
</svg>