<svg viewBox="0 0 64 64" xmlns="http://www.w3.org/2000/svg">
  <path d="m53.93262 10.6167h-2.37989v-3.10889a3.508 3.508 0 0 0 -7.01562.00011v3.10878h-8.94727v-3.10889a3.50781 3.50781 0 1 0 -7.01562 0v3.10889h-8.94722v-3.10889a3.50781 3.50781 0 1 0 -7.01562 0v3.10889h-2.544a5.34535 5.34535 0 0 0 -5.31933 5.3584v38.6665a5.34535 5.34535 0 0 0 5.31933 5.3584h43.86524a5.34535 5.34535 0 0 0 5.31938-5.3584v-38.6665a5.34535 5.34535 0 0 0 -5.31938-5.3584zm-7.39551-3.10889a1.508 1.508 0 0 1 3.01562.00007v3.10882h-3.01562zm-15.96289 0a1.508 1.508 0 0 1 3.01562.00007v3.10882h-3.01562zm-15.96289 0a1.508 1.508 0 0 1 3.01562.00007v3.10882h-3.01562zm-4.544 5.10889h2.544v1.93457a3.52591 3.52591 0 0 0 4.65726 3.3149 1 1 0 0 0 -.65438-1.88959 1.51686 1.51686 0 0 1 -2.00286-1.42533v-1.93455h13.96287v1.93457a3.51164 3.51164 0 0 0 3.50778 3.50781c.86116.04285 2.1224-.38208 1.76755-1.4654a.99972.99972 0 0 0 -1.27243-.61712 1.51662 1.51662 0 0 1 -2.00291-1.42531v-1.93455h13.9629v1.93457a3.52575 3.52575 0 0 0 4.65726 3.3149 1 1 0 0 0 -.6544-1.88958 1.51639 1.51639 0 0 1 -2.00285-1.42534v-1.93455h7.39551a3.34281 3.34281 0 0 1 3.31937 3.3584v5.03473a.9718.9718 0 0 0 -.49023-.14606l-50.01372.05223v-4.9409a3.34281 3.34281 0 0 1 3.31933-3.3584zm43.86529 45.3833h-43.86524a3.34281 3.34281 0 0 1 -3.31933-3.3584v-31.7256l50.01562-.05218a.97267.97267 0 0 0 .48833-.14582v31.9236a3.34281 3.34281 0 0 1 -3.31938 3.3584z m20.06348 27.50488h-6.45215a.99974.99974 0 0 0 -1 1v5.82812a.99974.99974 0 0 0 1 1h6.45215a.99974.99974 0 0 0 1-1v-5.82812a.99974.99974 0 0 0 -1-1zm-1 5.82813h-4.45215v-3.82813h4.45215z m34.25293 27.50488h-6.45215a.99974.99974 0 0 0 -1 1v5.82812a.99974.99974 0 0 0 1 1h6.45215a.99974.99974 0 0 0 1-1v-5.82812a.99974.99974 0 0 0 -1-1zm-1 5.82813h-4.45215v-3.82813h4.45215z m48.44238 27.50488h-6.45312a.99974.99974 0 0 0 -1 1v5.82812a.99974.99974 0 0 0 1 1h6.45312a.99974.99974 0 0 0 1-1v-5.82812a.99974.99974 0 0 0 -1-1zm-1 5.82813h-4.45312v-3.82813h4.45312z m20.06348 41.69434h-6.45215a.99973.99973 0 0 0 -1 1v5.82812a.99973.99973 0 0 0 1 1h6.45215a.99974.99974 0 0 0 1-1v-5.82812a.99974.99974 0 0 0 -1-1zm-1 5.82812h-4.45215v-3.82812h4.45215z m34.25293 41.69434h-6.45215a.99974.99974 0 0 0 -1 1v5.82812a.99974.99974 0 0 0 1 1h6.45215a.99974.99974 0 0 0 1-1v-5.82812a.99974.99974 0 0 0 -1-1zm-1 5.82812h-4.45215v-3.82812h4.45215z m48.44238 41.69434h-6.45312a.99973.99973 0 0 0 -1 1v5.82812a.99973.99973 0 0 0 1 1h6.45312a.99973.99973 0 0 0 1-1v-5.82812a.99973.99973 0 0 0 -1-1zm-1 5.82812h-4.45312v-3.82812h4.45312z " />
</svg>