<svg viewBox="0 0 512 512" xmlns="http://www.w3.org/2000/svg">
  <path d="m 255.81344,1.2243065 c -42.33148,0 -83.08088,10.2658705 -119.41594,29.6099035 l -9.10505,-9.105055 c -16.22497,-16.2136616 -42.604303,-16.2139968 -58.829613,0 L 30.81361,59.378383 c -7.827756,7.827427 -12.132048,18.271212 -12.132048,29.413946 0,11.142734 4.303295,21.588241 12.132048,29.415661 l 6.595448,6.59717 C 13.825036,163.96513 1.2245658,208.9187 1.2243366,255.81341 c 0,67.99399 26.4840364,131.9305 74.5662054,180.02462 48.082178,48.08218 112.017248,74.56617 180.022898,74.56617 68.00596,0 131.93146,-26.48399 180.02462,-74.56617 48.08218,-48.09412 74.5648,-112.03063 74.56446,-180.02462 0,-46.89709 -12.60152,-91.85355 -36.18812,-131.01513 l 6.58856,-6.59029 c 7.82776,-7.82742 12.14304,-18.273259 12.1424,-29.415661 0,-11.142406 -4.31502,-21.586855 -12.1424,-29.413946 L 443.15368,21.729155 C 435.32561,13.901398 424.88151,9.5988238 413.75009,9.5988238 c -11.14275,0 -21.58522,4.3025742 -29.41397,12.1303312 l -9.10848,9.108488 C 338.89228,11.492437 298.14623,1.2243065 255.81344,1.2243065 Z m 0,8.9314435 c 89.8497,2.21e-4 168.54788,48.512208 211.38264,120.69652 C 423.0529,205.23341 342.32135,251.34735 255.81344,251.34768 169.298,251.34768 88.581019,205.23663 44.425638,130.86087 87.25934,58.671722 165.95995,10.15575 255.81344,10.15575 Z M 97.876783,18.492454 c 8.365657,-8.6e-5 16.732547,3.183951 23.100397,9.551964 l 7.34146,7.343174 C 109.36798,46.389953 91.698045,59.879378 75.790542,75.790512 63.076135,88.504835 51.91834,102.35318 42.314822,117.06664 l -5.173913,-5.17391 c -6.141327,-6.141 -9.525851,-14.342281 -9.526186,-23.100401 0,-8.75812 3.385525,-16.958352 9.526186,-23.098679 L 74.778104,28.044418 c 6.368014,-6.368013 14.733021,-9.551883 23.098679,-9.551964 z m 315.873307,0.03803 c 8.74612,0 16.94639,3.373156 23.08837,9.51415 l 37.64925,37.649234 c 6.1413,6.140656 9.5265,14.340224 9.5262,23.098676 0,8.758452 -3.38521,16.959066 -9.5262,23.100386 l -5.17567,5.17392 C 459.70849,102.35337 448.55255,88.50495 435.83806,75.790718 419.92758,59.880267 402.2547,46.393389 383.30479,35.391239 l 7.34662,-7.346613 c 6.14099,-6.141326 14.34122,-9.514482 23.09868,-9.514147 z m -157.93665,36.17267 c -58.07301,0 -108.00276,50.514146 -118.73869,120.101786 -1.26765,8.25817 0.93084,15.95703 6.36168,22.29594 5.43149,6.33925 12.7252,9.68776 21.07552,9.68776 h 47.95408 c 1.97748,0 3.72259,-1.30251 4.28008,-3.18685 l 3.86067,-12.96744 h 70.41504 l 3.84863,12.96744 c 0.57013,1.88468 2.31491,3.18685 4.28008,3.18685 h 47.9661 c 8.35065,0 15.63299,-3.34851 21.06349,-9.68776 5.44348,-6.33891 7.64272,-14.04941 6.37373,-22.29594 C 363.81859,105.21711 313.88677,54.70262 255.81344,54.702956 Z m 0,8.933159 c 53.63007,0 99.85311,47.325367 109.91381,112.528277 0.87182,5.67598 -0.58181,10.75913 -4.3282,15.12123 -3.73343,4.36143 -8.53659,6.57138 -14.28242,6.57138 h -44.62799 l -3.86065,-12.95732 c -0.55816,-1.89632 -2.30294,-3.19889 -4.28009,-3.19889 h -77.06721 c -1.97715,0 -3.72093,1.30257 -4.28008,3.19889 l -3.86067,12.95712 h -44.62799 c -5.7455,0 -10.54903,-2.20995 -14.29443,-6.57138 -3.73343,-4.35012 -5.18833,-9.44558 -4.31618,-15.12122 10.04938,-65.20292 56.28201,-112.528614 109.9121,-112.528282 z m -35.98533,44.976937 c -2.46578,0 -4.46611,1.99961 -4.46744,4.46572 0,2.47742 2.00233,4.46572 4.46744,4.46572 h 71.97066 c 2.46577,0 4.46843,-1.98863 4.46744,-4.46572 0,-2.46611 -2.001,-4.46572 -4.46744,-4.46572 z M 39.361736,139.76157 c 21.737827,35.02161 51.797978,64.44732 87.348004,85.40391 38.97545,22.97102 83.6157,35.11384 129.1037,35.11384 45.48832,0 90.12818,-12.14282 129.09169,-35.11384 35.56155,-20.95659 65.62325,-50.3823 87.35999,-85.40391 18.61596,34.58253 29.20607,74.09905 29.20599,116.05203 0,135.45347 -110.20321,245.65767 -245.65767,245.65767 -135.45381,0 -245.655272,-110.2042 -245.655939,-245.65767 0,-41.95298 10.588265,-81.46947 29.204235,-116.05203 z m 180.466374,4.18554 c -2.46578,0 -4.46611,1.99994 -4.46744,4.46572 0,2.46611 2.00233,4.46744 4.46744,4.46744 h 71.97066 c 2.46577,0 4.46843,-2.00166 4.46744,-4.46744 0,-2.46545 -2.001,-4.46572 -4.46744,-4.46572 z m 144.65637,118.23332 c -1.42731,0.12834 -2.76611,0.94129 -3.51516,2.28616 -1.18615,2.16374 -0.40536,4.88468 1.75672,6.07117 18.16755,10.03775 32.39218,23.82059 42.27827,40.95298 9.88638,17.12074 14.71228,36.33552 14.31677,57.08494 -0.0465,2.46574 1.92011,4.51328 4.38492,4.54823 0.0229,0.0122 0.0591,0.0122 0.0824,0.0122 v -0.002 c 2.4295,0 4.41947,-1.95378 4.4657,-4.38498 0.41877,-22.41252 -4.80328,-43.17319 -15.51657,-61.72423 -10.712,-18.56302 -26.08738,-33.46307 -45.69716,-44.30311 -0.81142,-0.44918 -1.69964,-0.61846 -2.55603,-0.54146 z m -217.34725,0.002 c -0.85619,-0.077 -1.74369,0.0922 -2.55086,0.54145 -19.60947,10.84038 -34.98489,25.7401 -45.709182,44.30312 -10.712316,18.55138 -15.922991,39.32336 -15.504545,61.72426 0.04657,2.43116 2.035864,4.38493 4.455406,4.38493 v 0.002 c 0.03394,0 0.05793,10e-4 0.09283,-0.0122 2.465779,-0.0366 4.420856,-2.08245 4.384932,-4.54823 -0.395513,-20.74938 4.421126,-39.96419 14.318499,-57.08494 9.8864,-17.13236 24.11139,-30.91521 42.27825,-40.95295 2.16342,-1.18615 2.94282,-3.90743 1.74469,-6.07119 -0.74135,-1.34485 -2.08302,-2.1578 -3.51001,-2.28614 z m 16.88311,23.76046 c -0.8575,-0.0605 -1.7429,0.12548 -2.5457,0.58786 -15.41103,8.92111 -27.56435,20.95801 -36.11425,35.77563 -8.56053,14.81795 -12.90805,31.35862 -12.92102,49.16593 0,2.46541 1.98857,4.46534 4.45368,4.4657 h 0.0118 c 2.46544,3.3e-4 4.46572,-1.98995 4.46572,-4.4554 0.0114,-16.22498 3.96776,-31.2636 11.72467,-44.70879 7.75757,-13.44519 18.81931,-24.39088 32.85691,-32.5097 2.1285,-1.23273 2.86087,-3.9651 1.62781,-6.10556 -0.77773,-1.3301 -2.1307,-2.11489 -3.55986,-2.21567 z m 183.58276,0 c -1.4316,0.1008 -2.7875,0.88557 -3.55813,2.21567 -1.23272,2.14046 -0.51202,4.87283 1.62778,6.10556 14.0386,8.11882 25.08804,19.06451 32.8569,32.5097 7.75823,13.44519 11.70139,28.48381 11.72469,44.70879 0,2.46545 2.00062,4.4554 4.46574,4.4554 2.46543,3.3e-4 4.46742,-2.00029 4.46742,-4.4657 -0.0229,-17.80731 -4.37352,-34.34798 -12.92273,-49.16593 -8.56022,-14.81762 -20.70224,-26.85452 -36.11427,-35.77563 -0.80253,-0.46239 -1.68845,-0.64834 -2.5474,-0.58786 z m -91.78966,20.67675 c -40.94096,0 -74.25165,33.31068 -74.25165,74.25166 0,40.95257 33.31035,74.26365 74.25165,74.26365 40.94029,0 74.25197,-33.31108 74.25163,-74.26365 0,-40.94098 -33.31034,-74.252 -74.25163,-74.25166 z m -74.92718,3.13698 c -0.85989,-0.0336 -1.73814,0.1793 -2.52335,0.6635 -11.22424,6.97855 -20.14381,16.10815 -26.52962,27.16906 -6.38515,11.06091 -9.83966,23.35464 -10.25844,36.55603 -0.0815,2.46541 1.86204,4.53683 4.32649,4.60663 0.0469,0.0114 0.0923,0.0114 0.13921,0.0114 v -0.002 c 2.39526,0 4.38522,-1.90902 4.46572,-4.3282 0.37221,-11.71221 3.4207,-22.6105 9.06208,-32.3808 5.64106,-9.76965 13.54876,-17.85273 23.50434,-24.04062 2.10554,-1.30258 2.74712,-4.05841 1.44388,-6.15198 -0.81411,-1.30849 -2.19717,-2.04943 -3.63033,-2.10567 z m 149.84577,0.002 c -1.42951,0.0562 -2.80682,0.79717 -3.62176,2.10567 -1.30291,2.09356 -0.66171,4.84903 1.43186,6.15194 9.95592,6.18789 17.87664,14.27101 23.51637,24.04065 5.62974,9.77031 8.69086,20.66826 9.06207,32.38081 0.0812,2.41918 2.0595,4.32822 4.46574,4.32822 v 0.002 c 0.0466,0 0.0938,-4.6e-4 0.1394,-0.0114 2.46545,-0.0698 4.39666,-2.14123 4.32648,-4.60665 -0.4301,-13.20139 -3.88394,-25.49509 -10.25844,-36.55599 -6.38548,-11.06058 -15.31743,-20.19051 -26.54166,-27.16907 -0.78507,-0.48424 -1.66221,-0.69725 -2.5199,-0.66349 z m -74.91859,5.79442 c 36.02038,0 65.32055,29.29779 65.32022,65.31852 0,36.02137 -29.29884,65.33049 -65.32022,65.33049 -36.02105,0 -65.31954,-29.30943 -65.32021,-65.33049 0,-36.02073 29.29916,-65.31852 65.32021,-65.31852 z m 0,24.56318 c -22.47108,0 -40.7553,18.28252 -40.7553,40.75359 0,22.47078 18.28455,40.7553 40.7553,40.7553 22.47041,0 40.75596,-18.28452 40.75529,-40.7553 0,-22.47107 -18.28322,-40.75359 -40.75529,-40.75359 z m 0,8.93146 c 17.55083,0 31.8228,14.2713 31.82213,31.82213 0,17.55117 -14.27097,31.82214 -31.82213,31.82214 -17.55116,0 -31.8218,-14.27097 -31.82214,-31.82214 0,-17.55083 14.27164,-31.82213 31.82214,-31.82213 z " />
</svg>