<svg viewBox="0 0 512 512" xmlns="http://www.w3.org/2000/svg">
  <path d="M 330.38217,2 C 258.88133,2 200.68822,60.193111 200.68822,131.69395 v 67.66641 h -12.63238 c -15.95799,0 -31.18514,6.76267 -41.72982,18.49152 -26.72823,29.54766 -70.707436,89.99764 -74.880198,167.70123 -0.563887,5.30054 -0.452869,88.02669 -0.39648,95.69555 0,15.56327 12.631063,28.19433 28.194337,28.19433 H 245.85423 c 2.4811,0 4.79436,-0.45507 6.99352,-1.24451 64.50864,-12.63106 74.99561,-100.31369 15.56195,-127.88775 v -66.70824 c 0,-45.95677 -3.66086,-75.11368 -6.76224,-91.4664 -2.4811,-13.08217 -13.81963,-22.54886 -27.07096,-22.8308 v -67.72147 c 0,-52.83619 43.02455,-95.86075 95.86074,-95.86075 21.76603,0 39.47207,17.706045 39.47207,39.472073 V 447.36039 c -6.20275,0 -11.27773,5.07498 -11.27773,11.27773 v 11.27774 h -22.55547 c -15.56328,0 -28.19434,12.63106 -28.19434,28.19434 0,3.10137 2.53749,5.63886 5.63887,5.63886 h 146.61055 c 3.10138,0 5.63887,-2.53749 5.63887,-5.63886 0,-15.56328 -12.63106,-28.19434 -28.19434,-28.19434 l -0.0551,0.11013 h -22.55547 v -11.27773 c 0,-6.20276 -5.07498,-11.27774 -11.27773,-11.27774 V 75.305276 C 403.68745,34.874597 370.81285,2 330.38217,2 Z m 0,11.277735 c 34.22793,0 62.02754,27.799616 62.02754,62.027541 V 447.30532 H 381.13198 V 75.305276 c 0,-27.968782 -22.78103,-50.749807 -50.74981,-50.749807 -59.09533,0 -107.13848,48.04315 -107.13848,107.138481 v 67.66641 h -11.27773 v -67.66641 c 0,-65.298085 53.11813,-118.416215 118.41621,-118.416215 z M 195.04936,210.69316 h 33.8332 5.02212 c 8.11996,0 15.10776,5.74856 16.63025,13.75575 v -0.0551 c 2.9886,15.84522 6.54197,44.26423 6.54197,89.31878 V 376.423 c -74.37666,-17.98799 -116.7761,79.27895 -54.24106,121.8524 h -81.09176 v -33.83321 c 0,-21.76602 -17.70604,-39.47207 -39.472072,-39.47207 0,-5.13137 -0.17445,-29.15294 0.220265,-33.8332 h 67.446147 c 24.8674,0 45.11094,-20.24354 45.11094,-45.11094 z m -11.27774,0.1652 v 135.11255 c 0,18.66465 -15.16855,33.8332 -33.8332,33.8332 H 83.120043 C 89.153631,308.35966 129.694,253.09392 154.67418,225.40708 c 7.4997,-8.34552 17.93248,-13.47734 29.09744,-14.54872 z m 56.38867,174.58462 c 31.07016,0 56.38868,25.31852 56.38868,56.38867 0,31.07016 -25.31852,56.38868 -56.38868,56.38868 -74.82777,-3.10138 -74.77138,-109.67597 0,-112.77735 z m 0,16.9166 c -21.76602,0 -39.47207,17.70605 -39.47207,39.47207 0,21.76603 17.70605,39.47208 39.47207,39.47208 52.2723,-1.97361 52.2723,-76.97054 0,-78.94415 z m 0,11.27774 c 15.56328,0 28.19434,12.63106 28.19434,28.19433 0,15.56328 -12.63106,28.19434 -28.19434,28.19434 -37.3293,-1.29694 -37.3293,-55.09173 0,-56.38867 z M 82.272008,436.19279 c 15.563274,0 28.194332,12.63106 28.194332,28.19433 v 33.83321 H 99.18861 c -9.304131,0 -16.916602,-7.61247 -16.916602,-16.9166 z m 287.582232,22.55547 h 33.83321 v 11.27773 h -33.83321 z m -33.8332,22.55547 h 101.49961 c 7.33053,0 13.6465,4.73664 15.95844,11.27773 H 320.0626 c 2.31194,-6.54109 8.62791,-11.27773 15.95844,-11.27773 z " />
</svg>