<svg viewBox="0 0 512 512" xmlns="http://www.w3.org/2000/svg">
  <path d="m 289.3144,5.0253906 c -24.48425,0 -48.97155,4.1072326 -73.65167,12.3339394 -10.96895,3.917479 -18.80084,14.109046 -20.36783,25.861484 L 178.04881,228.12278 c -0.7835,6.26796 1.57617,12.52981 5.49365,17.23079 3.91748,4.70097 10.18238,7.05452 16.45035,7.05452 h 7.83496 c -0.7835,3.13398 -1.56088,5.48141 -1.56088,8.61539 0,11.75244 8.61846,21.95013 19.5874,24.30061 v 28.2028 h -75.22784 c -2.35049,-11.75244 -12.52981,-19.5874 -25.06575,-19.5874 -14.10292,0 -25.861481,11.74326 -25.861481,25.84618 v 112.82646 c 0,14.10293 11.758561,25.86149 25.861481,25.86149 12.53594,0 21.93177,-8.61845 25.06575,-19.58739 h 75.22784 v 17.23078 c -11.75244,2.35049 -19.5874,12.54512 -19.5874,25.08105 0,14.10293 11.74326,25.84618 25.84619,25.84618 h 112.82646 c 14.10293,0 25.86149,-11.74325 25.86149,-25.84618 0,-12.53593 -8.61846,-21.94707 -19.5874,-25.08105 V 285.32409 c 10.96894,-2.35048 19.5874,-11.76467 19.5874,-24.30061 0,-3.13398 -0.79268,-6.26491 -1.57618,-8.61539 h 7.83496 c 6.26797,0 12.53288,-2.35355 16.45036,-7.05452 3.91748,-4.70098 6.27715,-10.96283 5.49365,-17.23079 L 383.3339,43.220814 C 382.55041,31.468376 373.93501,21.276809 362.96607,17.35933 338.28595,9.1326232 313.79865,5.0253906 289.3144,5.0253906 Z m -0.39787,15.4709834 c 22.72138,0 45.44276,3.917479 68.55588,11.752438 5.48447,1.566991 9.41114,6.267966 9.41114,11.752437 l 17.23079,184.901961 c 0.78349,2.35049 0.78656,3.92666 -0.78044,5.49365 -1.567,1.56699 -3.14317,2.34131 -5.49366,2.34131 H 200.77323 c -2.35048,0 -3.91135,-0.77433 -5.47834,-2.34131 -1.56699,-1.56699 -2.35967,-3.14316 -1.57618,-5.49365 l 17.2461,-184.901961 c 0.7835,-5.484471 4.69485,-10.185446 9.39583,-11.752437 23.11313,-7.834959 45.83451,-11.752438 68.55589,-11.752438 z m -51.3098,45.44888 c -4.70098,0 -7.8472,3.121742 -8.63069,7.039222 l -3.91748,68.953754 c 0,4.70098 3.13704,7.8319 7.05452,8.61539 4.70097,0 7.8319,-3.13704 8.61539,-7.05452 l 3.91748,-68.938452 c 0.7835,-4.700975 -2.33825,-7.831897 -7.03922,-8.615394 z m 34.46158,0 c -4.70098,0 -7.83496,3.133985 -7.83496,7.834959 l -1.56087,68.938447 c 0,4.70098 3.13398,7.83496 7.83496,7.83496 3.91748,0 7.83495,-3.13398 7.83495,-7.83496 l 1.56088,-68.938447 c 0,-3.917479 -3.13399,-7.834959 -7.83496,-7.834959 z m 34.47687,0 c -4.70097,0 -7.83496,3.91748 -7.83496,7.834959 l 1.57618,68.938447 c 0,10.96895 15.66992,10.96895 15.66992,0 l -1.57618,-68.938447 c 0,-4.700974 -3.91748,-7.834959 -7.83496,-7.834959 z m 35.41035,0.658011 c -0.55699,-0.0199 -1.12628,0.02452 -1.7139,0.122422 -4.70097,3e-6 -7.83802,3.914422 -7.05452,8.615397 l 3.91747,68.953756 c 0.7835,3.91748 4.69792,7.03922 8.6154,7.03922 4.70097,0 7.83802,-3.91442 7.05452,-8.6154 l -3.91748,-68.938447 c 0,-4.113353 -3.00238,-7.03769 -6.90149,-7.176948 z m -6.41182,109.031405 c -12.53593,0 -23.50487,10.18545 -23.50487,23.50488 0,12.53593 10.18544,23.50488 23.50487,23.50488 12.53594,0 23.50488,-10.18545 23.50488,-23.50488 0,-13.31943 -10.18545,-23.50488 -23.50488,-23.50488 z m 0,14.87419 c 3.91748,0 7.83496,3.13398 7.83496,7.83496 0,4.70097 -3.13398,7.83495 -7.83496,7.83495 -3.91748,0 -7.83496,-3.13398 -7.83496,-7.83495 0,-3.91748 3.13399,-7.83496 7.83496,-7.83496 z m -107.34811,6.27408 c -4.70098,0 -7.83496,3.13399 -7.83496,7.83496 0,4.70098 3.13398,7.83496 7.83496,7.83496 h 3.91748 c 4.70097,0 7.83495,-3.13398 7.83495,-7.83496 0,-4.70097 -3.91748,-7.83496 -7.83495,-7.83496 z m 36.83348,0 c -4.70097,0 -7.83495,3.13399 -7.83495,7.83496 0,4.70098 3.13398,7.83496 7.83495,7.83496 h 3.91748 c 4.70098,0 7.83496,-3.13398 7.83496,-7.83496 0,-4.70097 -3.13398,-7.83496 -7.83496,-7.83496 z m -33.69644,55.62515 h 115.96351 c 4.70098,0 8.6154,3.91442 8.6154,8.61539 0,4.70098 -3.91442,8.6307 -8.6154,8.6307 H 231.33264 c -4.70097,0 -8.61539,-3.92972 -8.61539,-8.6307 0,-4.70097 3.91442,-8.61539 8.61539,-8.61539 z m 11.75244,33.69644 h 93.23907 v 169.23205 h -93.23907 z m -115.96351,22.72444 c 5.48447,0 10.19157,4.69179 10.19157,10.17626 V 431.8317 c -0.7835,6.26797 -4.7071,10.97201 -10.19157,10.97201 -5.48447,0 -10.17626,-4.7071 -10.17626,-10.19158 v -113.6069 c 0,-5.48447 4.69179,-10.17626 10.17626,-10.17626 z m 25.08105,20.36784 h 74.43211 v 93.23906 h -74.43211 z m 80.6909,141.02925 h 112.82646 c 6.26796,0 10.19157,4.69179 10.19157,10.17627 0,5.48447 -4.7071,10.19156 -10.19157,10.19156 H 232.89352 c -5.48448,0 -10.17627,-4.70709 -10.17627,-10.19156 0,-5.48448 4.69179,-10.17627 10.17627,-10.17627 z " />
</svg>