<svg viewBox="0 0 450 450" xmlns="http://www.w3.org/2000/svg">
  <path d="m194.39 62.45c-2.21 0-4.23-1.47-4.83-3.71l-4.64-17.32c-.71-2.67.87-5.41 3.54-6.12 2.67-.72 5.41.87 6.12 3.54l4.64 17.32c.71 2.67-.87 5.41-3.54 6.12-.43.11-.86.17-1.29.17z m170.6 72.3c-1.73 0-3.41-.9-4.33-2.5l-8.97-15.53c-1.38-2.39-.56-5.45 1.83-6.83s5.45-.56 6.83 1.83l8.97 15.53c1.38 2.39.56 5.45-1.83 6.83-.79.46-1.65.67-2.5.67z m150.17 87.98c-1.28 0-2.56-.49-3.54-1.46l-12.68-12.68c-1.95-1.95-1.95-5.12 0-7.07s5.12-1.95 7.07 0l12.68 12.68c1.95 1.95 1.95 5.12 0 7.07-.97.97-2.25 1.46-3.53 1.46z m134.49 108.41c-.85 0-1.71-.22-2.5-.67l-15.53-8.97c-2.39-1.38-3.21-4.44-1.83-6.83s4.44-3.21 6.83-1.83l15.53 8.97c2.39 1.38 3.21 4.44 1.83 6.83-.92 1.6-2.6 2.5-4.33 2.5z m124.64 132.2c-.43 0-.86-.06-1.3-.17l-17.32-4.64c-2.67-.71-4.25-3.46-3.54-6.12s3.46-4.25 6.12-3.54l17.32 4.64c2.67.71 4.25 3.46 3.54 6.12-.59 2.24-2.61 3.71-4.82 3.71z m121.28 157.73h-17.94c-2.76 0-5-2.24-5-5s2.24-5 5-5h17.94c2.76 0 5 2.24 5 5s-2.24 5-5 5z m107.31 187.91c-2.21 0-4.23-1.47-4.83-3.71-.71-2.67.87-5.41 3.54-6.12l17.32-4.64c2.67-.72 5.41.87 6.12 3.54s-.87 5.41-3.54 6.12l-17.32 4.64c-.42.11-.86.17-1.29.17z m118.97 216.02c-1.73 0-3.41-.9-4.33-2.5-1.38-2.39-.56-5.45 1.83-6.83l15.53-8.97c2.39-1.38 5.45-.56 6.83 1.83s.56 5.45-1.83 6.83l-15.53 8.97c-.8.46-1.66.67-2.5.67z m137.49 240.17c-1.28 0-2.56-.49-3.54-1.46-1.95-1.95-1.95-5.12 0-7.07l12.68-12.68c1.95-1.95 5.12-1.95 7.07 0s1.95 5.12 0 7.07l-12.68 12.68c-.97.97-2.25 1.46-3.53 1.46z m161.63 258.69c-.85 0-1.71-.22-2.5-.67-2.39-1.38-3.21-4.44-1.83-6.83l8.97-15.53c1.38-2.39 4.44-3.21 6.83-1.83s3.21 4.44 1.83 6.83l-8.97 15.53c-.92 1.61-2.6 2.5-4.33 2.5z m189.75 270.34c-.43 0-.86-.06-1.3-.17-2.67-.71-4.25-3.46-3.54-6.12l4.64-17.32c.72-2.67 3.45-4.24 6.12-3.54 2.67.71 4.25 3.46 3.54 6.12l-4.64 17.32c-.59 2.24-2.61 3.71-4.82 3.71z m219.92 256.38c-57.15 0-103.64-46.5-103.64-103.65s46.49-103.64 103.64-103.64c2.76 0 5 2.24 5 5s-2.24 5-5 5c-51.64 0-93.64 42.01-93.64 93.64 0 51.64 42.01 93.65 93.64 93.65 2.76 0 5 2.24 5 5s-2.24 5-5 5z m264.02 446.74c-48.61 0-88.16-39.55-88.16-88.16 0-29.63 14.55-56.8 39.07-73.23v-231.52c0-27.07 22.02-49.09 49.09-49.09s49.09 22.02 49.09 49.09v231.51c24.52 16.44 39.07 43.61 39.07 73.23 0 48.62-39.55 88.17-88.16 88.17zm0-432c-21.56 0-39.09 17.54-39.09 39.09v234.23c0 1.72-.89 3.32-2.35 4.24-23 14.41-36.72 39.19-36.72 66.28 0 43.1 35.06 78.16 78.16 78.16s78.16-35.06 78.16-78.16c0-27.09-13.73-51.87-36.72-66.28-1.46-.92-2.34-2.52-2.34-4.24v-234.23c-.01-21.55-17.55-39.09-39.1-39.09z m264.02 409.3c-27.97 0-50.73-22.76-50.73-50.73s22.76-50.73 50.73-50.73 50.73 22.76 50.73 50.73-22.76 50.73-50.73 50.73zm0-91.45c-22.46 0-40.73 18.27-40.73 40.73s18.27 40.73 40.73 40.73 40.73-18.27 40.73-40.73-18.28-40.73-40.73-40.73z m264.02 317.85c-2.76 0-5-2.24-5-5v-232.78c0-2.76 2.24-5 5-5s5 2.24 5 5v232.78c0 2.76-2.24 5-5 5z m341.6 69.9h-33.49c-2.76 0-5-2.24-5-5s2.24-5 5-5h33.49c2.76 0 5 2.24 5 5s-2.24 5-5 5z m331.55 112.32h-23.44c-2.76 0-5-2.24-5-5s2.24-5 5-5h23.44c2.76 0 5 2.24 5 5s-2.24 5-5 5z m341.6 154.74h-33.49c-2.76 0-5-2.24-5-5s2.24-5 5-5h33.49c2.76 0 5 2.24 5 5s-2.24 5-5 5z m331.55 197.16h-23.44c-2.76 0-5-2.24-5-5s2.24-5 5-5h23.44c2.76 0 5 2.24 5 5s-2.24 5-5 5z m341.6 239.57h-33.49c-2.76 0-5-2.24-5-5s2.24-5 5-5h33.49c2.76 0 5 2.24 5 5s-2.24 5-5 5z m331.55 281.99h-23.44c-2.76 0-5-2.24-5-5s2.24-5 5-5h23.44c2.76 0 5 2.24 5 5s-2.24 5-5 5z " />
</svg>