<svg viewBox="0 0 512 512" xmlns="http://www.w3.org/2000/svg">
  <path d="m 287.82078,4.7402344 c -29.17547,0 -53.20043,22.3715726 -55.87396,50.8592856 -6.72045,0.305141 -13.29052,1.180756 -19.67673,2.564296 l -3.86431,-14.425283 c -0.812,-3.053567 -3.94464,-4.870912 -6.9982,-4.047478 -3.05357,0.811997 -4.86172,3.944638 -4.04972,6.998206 l 3.86655,14.431983 c -6.26448,2.011589 -12.29262,4.541985 -18.05729,7.520893 L 175.67527,55.66653 c -1.57825,-2.733343 -5.07794,-3.671232 -7.81128,-2.092983 -2.73334,1.578248 -3.67124,5.077931 -2.09299,7.811275 l 7.50303,12.991242 c -5.49748,3.550425 -10.70434,7.51475 -15.52874,11.89896 L 147.15082,75.680549 c -2.23014,-2.230133 -5.85589,-2.230133 -8.08602,0 -2.23013,2.230134 -2.23013,5.855888 0,8.086022 l 10.5967,10.594475 c -4.38024,4.821188 -8.3423,10.022124 -11.89002,15.515334 l -12.989,-7.50303 c -2.73335,-1.57824 -6.23303,-0.64036 -7.81128,2.09299 -1.57825,2.73334 -0.64036,6.23302 2.09298,7.81127 l 12.97338,7.4941 c -2.97897,5.76493 -5.50934,11.79474 -7.52089,18.05951 l -14.44316,-3.86877 c -3.04213,-0.812 -6.18621,1.00534 -6.99821,4.04747 -0.81199,3.04213 0.99391,6.18845 4.04748,7.00044 l 14.43645,3.86654 c -1.36413,6.29736 -2.2392,12.77232 -2.55536,19.39529 h -14.94574 c -3.1565,0 -5.718286,2.5618 -5.718286,5.71829 0,3.1565 2.561786,5.71829 5.718286,5.71829 h 14.94574 c 0.3164,6.62564 1.19241,13.10428 2.5576,19.40423 l -14.43869,3.86877 c -3.05357,0.812 -4.85947,3.94464 -4.04748,6.99821 0.6862,2.56179 2.99648,4.24405 5.52397,4.24405 0.49177,0 0.9939,-0.0685 1.47424,-0.19435 l 14.44539,-3.87101 c 2.0115,6.26328 4.54254,12.29127 7.52089,18.05506 l -12.96444,7.48738 c -2.73335,1.57825 -3.67123,5.07794 -2.09299,7.81128 1.05217,1.82986 2.9736,2.85915 4.95213,2.85915 0.96067,0 1.94422,-0.24008 2.85915,-0.76616 l 12.98007,-7.49633 c 3.54933,5.49596 7.512,10.70089 11.89449,15.52427 l -10.6034,10.60341 c -2.23013,2.23013 -2.23013,5.85589 0,8.08603 1.12078,1.10934 2.58582,1.66857 4.0497,1.66857 1.46389,0 2.92697,-0.55923 4.03632,-1.66857 l 10.60341,-10.60565 c 4.82067,4.38062 10.02274,8.34405 15.51533,11.89226 l -7.49856,12.98454 c -1.57825,2.73334 -0.64035,6.23302 2.09299,7.81127 0.90349,0.51465 1.88704,0.76616 2.85914,0.76616 1.97853,0 3.89997,-1.01785 4.95214,-2.85914 l 7.48962,-12.96667 c 5.76248,2.97845 11.78861,5.50916 18.05059,7.52089 l -3.86878,14.43645 c -0.812,3.04213 0.99391,6.18621 4.04747,6.99821 0.50321,0.1258 0.99588,0.19433 1.48765,0.19433 2.52748,0 4.83803,-1.68001 5.51279,-4.24181 l 3.86655,-14.42975 c 6.30455,1.36664 12.78668,2.24383 19.41762,2.55983 v 33.27777 c -28.0425,18.79031 -44.68308,49.86404 -44.68308,83.75063 0,55.59323 45.23185,100.82508 100.82508,100.82508 55.59322,0 100.82509,-45.23159 100.82509,-100.83625 0,-33.87516 -16.64059,-64.94889 -44.68308,-83.75063 v -3.83081 h 21.09066 c 3.15649,0 5.71829,-2.56179 5.71829,-5.71829 0,-3.1565 -2.5618,-5.71829 -5.71829,-5.71829 h -21.09066 v -37.07731 h 32.58308 c 3.1565,0 5.7183,-2.56179 5.7183,-5.71829 0,-3.1565 -2.5618,-5.71829 -5.7183,-5.71829 h -32.58308 v -37.06614 h 21.09066 c 3.15649,0 5.71829,-2.56179 5.71829,-5.71829 0,-3.15649 -2.5618,-5.71829 -5.71829,-5.71829 h -21.09066 v -37.07732 h 32.58308 c 3.1565,0 5.7183,-2.56179 5.7183,-5.71829 0,-3.1565 -2.5618,-5.71829 -5.7183,-5.71829 h -32.58308 v -37.07731 h 21.09066 c 3.15649,0 5.71829,-2.56179 5.71829,-5.71829 0,-3.1565 -2.5618,-5.71829 -5.71829,-5.71829 H 343.96279 V 79.261183 h 32.58308 c 3.1565,0 5.7183,-2.561794 5.7183,-5.718291 0,-3.156497 -2.5618,-5.718291 -5.7183,-5.718291 h -32.58308 v -6.942363 c 0,-30.958828 -25.18318,-56.1420036 -56.14201,-56.1420036 z m 0,11.4365816 c 24.64583,0 44.70515,20.059587 44.71659,44.705422 v 12.450685 c -0.002,0.07016 -0.0114,0.139189 -0.0114,0.209969 0,0.0703 0.009,0.13805 0.0114,0.207734 v 48.096194 c -0.002,0.0701 -0.0114,0.13918 -0.0114,0.20996 0,0.0703 0.009,0.13805 0.0114,0.20774 v 48.09619 c -0.002,0.0702 -0.0114,0.13919 -0.0114,0.20996 0,0.0708 0.009,0.13981 0.0114,0.20998 v 48.09395 c -0.002,0.0702 -0.0114,0.13919 -0.0114,0.20997 0,0.0708 0.009,0.1398 0.0114,0.20997 v 48.08279 c -0.002,0.0701 -0.0114,0.13918 -0.0114,0.20996 0,0.0703 0.009,0.13805 0.0114,0.20773 v 48.0962 c -0.002,0.0702 -0.0114,0.13919 -0.0114,0.20996 0,0.0708 0.009,0.13981 0.0114,0.20998 v 12.45068 c 0,1.96709 1.00848,3.79721 2.67822,4.84938 26.2927,16.48011 41.9937,44.81916 41.9937,75.80086 0,49.29167 -40.09684,89.3885 -89.38851,89.3885 -49.29167,0 -89.3885,-40.09683 -89.3885,-89.3885 0,-30.9817 15.69179,-59.32075 41.99593,-75.80086 1.66974,-1.05217 2.68715,-2.88229 2.68715,-4.84938 V 60.882238 c 0,-24.645835 20.04815,-44.705422 44.70542,-44.705422 z m -56.142,50.877155 V 280.93816 C 175.27492,277.96051 130.29303,231.1336 130.29303,173.99048 c 0,-57.1328 44.97117,-103.959988 101.38575,-106.936509 z m 56.142,18.119835 c -3.1565,0 -5.71829,2.561794 -5.71829,5.718291 V 351.66627 c -29.31359,2.88308 -52.30003,27.6767 -52.30003,57.73464 0,31.98812 26.0302,58.01832 58.01832,58.01832 31.98812,0 58.01832,-26.0302 58.01832,-58.01832 0,-30.05869 -22.98539,-54.85259 -52.30003,-57.73464 V 90.892097 c 0,-3.156497 -2.56179,-5.718291 -5.71829,-5.718291 z m 0,277.656544 c 25.67513,0 46.58174,20.89517 46.58174,46.58173 0,25.68657 -20.89518,46.58174 -46.58174,46.58174 -25.68656,0 -46.58174,-20.89517 -46.58174,-46.58174 0,-25.68656 20.89518,-46.58173 46.58174,-46.58173 z " />
</svg>