<svg viewBox="0 0 512 512" xmlns="http://www.w3.org/2000/svg">
  <path d="m493.8 466.07h-475.61c-10 0-18.14-8.14-18.14-18.15v-110.09c0-10 8.14-18.14 18.15-18.14h475.6c10.01 0 18.15 8.14 18.15 18.14v110.09c0 10.01-8.14 18.15-18.15 18.15zm-475.61-136.39c-4.49 0-8.14 3.66-8.14 8.15v110.09c0 4.5 3.65 8.15 8.14 8.15h475.61c4.49 0 8.15-3.65 8.15-8.15v-110.09c0-4.49-3.66-8.15-8.15-8.15z m97.11 329.68h-42.28c-2.76 0-5-2.23-5-5v-108.28c0-3.96 3.22-7.18 7.18-7.18h37.92c3.96 0 7.18 3.22 7.18 7.18v108.28c0 2.77-2.24 5-5 5zm-37.28-9.99h32.28v-100.47h-32.28z m90.29 219.22h-28.64c-2.76 0-4.99-2.24-4.99-5v-156.85c0-10.66 8.66-19.32 19.31-19.32s19.32 8.66 19.32 19.32v156.85c0 2.76-2.24 5-5 5zm-23.64-10h18.64v-151.85c0-5.14-4.18-9.32-9.32-9.32s-9.32 4.18-9.32 9.32z m457.17 329.68h-42.28c-2.76 0-5-2.23-5-5v-108.28c0-3.96 3.22-7.18 7.18-7.18h37.92c3.96 0 7.18 3.22 7.18 7.18v108.28c0 2.77-2.24 5-5 5zm-37.28-9.99h32.28v-100.47h-32.28z m450.35 219.22h-28.64c-2.76 0-5-2.24-5-5v-156.85c0-10.66 8.67-19.32 19.32-19.32s19.32 8.66 19.32 19.32v156.85c0 2.76-2.24 5-5 5zm-23.64-10h18.64v-151.85c0-5.14-4.18-9.32-9.32-9.32s-9.32 4.18-9.32 9.32z m437.1 418.24c-13.99 0-25.37-11.37-25.37-25.36s11.38-25.37 25.37-25.37 25.37 11.38 25.37 25.37-11.38 25.36-25.37 25.36zm0-40.73c-8.47 0-15.37 6.89-15.37 15.37 0 8.47 6.9 15.37 15.37 15.37 8.48 0 15.37-6.9 15.37-15.37 0-8.48-6.89-15.37-15.37-15.37z m378.71 418.24c-13.99 0-25.37-11.37-25.37-25.36s11.38-25.37 25.37-25.37 25.37 11.38 25.37 25.37-11.38 25.36-25.37 25.36zm0-40.73c-8.48 0-15.37 6.89-15.37 15.37 0 8.47 6.89 15.37 15.37 15.37 8.47 0 15.37-6.9 15.37-15.37 0-8.48-6.9-15.37-15.37-15.37z m320.31 418.24c-13.98 0-25.36-11.37-25.36-25.36s11.38-25.37 25.36-25.37c13.99 0 25.37 11.38 25.37 25.37s-11.38 25.36-25.37 25.36zm0-40.73c-8.47 0-15.36 6.89-15.36 15.37 0 8.47 6.89 15.37 15.36 15.37 8.48 0 15.38-6.9 15.38-15.37 0-8.48-6.9-15.37-15.38-15.37z m67.96 397.88h-33.26c-2.77 0-5-2.24-5-5s2.23-5 5-5h33.26c2.76 0 5 2.24 5 5s-2.24 5-5 5z m132.57 397.88h-33.27c-2.76 0-4.99-2.24-4.99-5s2.23-5 4.99-5h33.27c2.76 0 5 2.24 5 5s-2.24 5-5 5z m197.18 397.88h-33.27c-2.76 0-5-2.24-5-5s2.24-5 5-5h33.27c2.76 0 4.99 2.24 4.99 5s-2.23 5-4.99 5z m261.78 397.88h-33.26c-2.76 0-5-2.24-5-5s2.24-5 5-5h33.26c2.76 0 5 2.24 5 5s-2.24 5-5 5z m469.79 497.15h-67.53c-4.25 0-7.72-3.47-7.72-7.73v-28.35c0-2.76 2.24-5 5-5h72.97c2.77 0 5 2.24 5 5v28.35c0 4.26-3.46 7.73-7.72 7.73zm-65.25-10h62.98v-21.08h-62.98z m109.74 497.15h-67.53c-4.26 0-7.72-3.47-7.72-7.73v-28.35c0-2.76 2.23-5 5-5h72.97c2.76 0 5 2.24 5 5v28.35c0 4.26-3.46 7.73-7.72 7.73zm-65.26-10h62.98v-21.08h-62.98z m377.14 74.95c-1.28 0-2.56-.49-3.54-1.47-64.84-64.84-170.36-64.84-235.21 0-1.95 1.96-5.11 1.96-7.07 0-1.95-1.95-1.95-5.11 0-7.07 68.75-68.74 180.61-68.74 249.35 0 1.96 1.96 1.96 5.12.01 7.07-.98.98-2.26 1.47-3.54 1.47z m346.08 113.82c-1.28 0-2.56-.49-3.53-1.46-47.72-47.72-125.38-47.73-173.1 0-1.95 1.95-5.12 1.95-7.07 0s-1.95-5.12 0-7.07c51.62-51.62 135.62-51.62 187.24 0 1.95 1.95 1.95 5.12 0 7.07-.98.97-2.26 1.46-3.54 1.46z m200.02 151.44c-1.28 0-2.56-.49-3.54-1.46-1.95-1.96-1.95-5.12 0-7.07 32.82-32.82 86.22-32.82 119.04 0 1.95 1.95 1.95 5.12 0 7.07s-5.12 1.95-7.07 0c-28.92-28.92-75.98-28.92-104.9 0-.98.97-2.26 1.46-3.53 1.46z " />
</svg>