<svg viewBox="0 0 512 512" xmlns="http://www.w3.org/2000/svg">
  <path d="m 255.99805,14.855469 c -45.15125,0 -90.30274,17.184687 -124.67774,51.554687 -1.95,1.96 -1.95,5.120313 0,7.070313 1.96,1.96 5.12032,1.96 7.07031,0 64.85001,-64.8400003 170.36899,-64.8400003 235.20899,0 0.98,0.98 2.26102,1.46875 3.54101,1.46875 1.28,0 2.55907,-0.48875 3.53907,-1.46875 1.95,-1.95 1.95023,-5.110313 -0.01,-7.070313 -34.37,-34.37 -79.52062,-51.554687 -124.67187,-51.554687 z M 75.970703,38.050781 c -10.65,0 -19.310547,8.65836 -19.310547,19.31836 V 209.23828 c -3.796885,0.18425 -6.830078,3.32025 -6.830078,7.16211 V 319.68945 H 18.199219 c -10.0100002,0 -18.14843775,8.14063 -18.14843775,18.14063 v 110.08984 c 0,10.01 8.13867185,18.15039 18.13867175,18.15039 h 16.300781 v 23.34961 c 0,4.26 3.460704,7.73047 7.720704,7.73047 h 67.529292 c 4.26,0 7.72071,-3.47047 7.72071,-7.73047 v -23.34961 h 277.07812 v 23.34961 c 0,4.26 3.47071,7.73047 7.72071,7.73047 h 67.52929 c 4.26,0 7.72071,-3.47047 7.72071,-7.73047 v -23.34961 h 16.29101 c 10.01,0 18.14844,-8.14039 18.14844,-18.15039 V 337.83008 c 0,-10 -8.13844,-18.14063 -18.14844,-18.14063 H 462.16992 V 216.40039 c 0,-3.83857 -3.02799,-6.97295 -6.82031,-7.16211 V 57.369141 c 0,-10.66 -8.67031,-19.31836 -19.32031,-19.31836 -10.65,0 -19.31836,8.65836 -19.31836,19.31836 V 209.23828 c -3.79277,0.18868 -6.82032,3.32322 -6.82032,7.16211 V 319.68945 H 102.10938 V 216.40039 c 0,-3.83889 -3.027551,-6.97343 -6.820318,-7.16211 V 57.369141 c 0,-10.66 -8.668359,-19.31836 -19.318359,-19.31836 z m 0,10 c 5.14,0 9.318359,4.17836 9.318359,9.31836 V 209.2207 H 66.650391 V 57.369141 c 0,-5.14 4.180312,-9.31836 9.320312,-9.31836 z m 360.058597,0 c 5.14,0 9.32031,4.17836 9.32031,9.31836 V 209.2207 H 426.71094 V 57.369141 c 0,-5.14 4.17836,-9.31836 9.31836,-9.31836 z M 256,66.574219 c -33.905,0 -67.80914,12.904843 -93.61914,38.714841 -1.95,1.95 -1.95,5.12031 0,7.07032 1.95,1.94999 5.11836,1.95 7.06836,0 47.72,-47.730005 125.38156,-47.720005 173.10156,0 0.97,0.96999 2.2493,1.46093 3.5293,1.46093 1.28,0 2.55906,-0.49094 3.53906,-1.46093 1.95,-1.95 1.95,-5.12032 0,-7.07032 C 323.80914,79.479062 289.905,66.574219 256,66.574219 Z m 0,51.720701 c -21.555,0 -43.10953,8.20524 -59.51953,24.61524 -1.95,1.95 -1.95,5.11031 0,7.07031 0.98,0.97 2.25906,1.45898 3.53906,1.45898 1.27,0 2.55125,-0.48898 3.53125,-1.45898 28.92,-28.92 75.97844,-28.92 104.89844,0 1.95,1.95 5.12031,1.95 7.07031,0 1.95,-1.95 1.95,-5.12031 0,-7.07031 C 299.10953,126.50016 277.555,118.29492 256,118.29492 Z M 59.830078,219.2207 H 92.109375 V 319.68945 H 59.830078 Z m 360.060542,0 h 32.2793 v 100.46875 h -32.2793 z M 18.189453,329.67969 H 493.80078 c 4.49,0 8.14844,3.66039 8.14844,8.15039 v 110.08984 c 0,4.5 -3.65844,8.15039 -8.14844,8.15039 H 18.189453 c -4.49,0 -8.138672,-3.65039 -8.138672,-8.15039 V 337.83008 c 0,-4.49 3.648672,-8.15039 8.138672,-8.15039 z m 302.121097,37.83008 c -13.98,0 -25.36133,11.38109 -25.36133,25.37109 0,13.99 11.38133,25.35937 25.36133,25.35937 13.99,0 25.36914,-11.36937 25.36914,-25.35937 0,-13.99 -11.37914,-25.37109 -25.36914,-25.37109 z m 58.40039,0 c -13.99,0 -25.3711,11.38109 -25.3711,25.37109 0,13.99 11.3811,25.35937 25.3711,25.35937 13.99,0 25.36914,-11.36937 25.36914,-25.35937 0,-13.99 -11.37914,-25.37109 -25.36914,-25.37109 z m 58.38867,0 c -13.99,0 -25.36914,11.38109 -25.36914,25.37109 0,13.99 11.37914,25.35937 25.36914,25.35937 13.99,0 25.37109,-11.36937 25.37109,-25.35937 0,-13.99 -11.38109,-25.37109 -25.37109,-25.37109 z m -116.78906,10 c 8.48,0 15.3789,6.89109 15.3789,15.37109 0,8.47 -6.8989,15.36914 -15.3789,15.36914 -8.47,0 -15.36133,-6.89914 -15.36133,-15.36914 0,-8.48 6.89133,-15.37109 15.36133,-15.37109 z m 58.40039,0 c 8.47,0 15.36914,6.89109 15.36914,15.37109 0,8.47 -6.89914,15.36914 -15.36914,15.36914 -8.48,0 -15.3711,-6.89914 -15.3711,-15.36914 0,-8.48 6.8911,-15.37109 15.3711,-15.37109 z m 58.38867,0 c 8.48,0 15.37109,6.89109 15.37109,15.37109 0,8.47 -6.89109,15.36914 -15.37109,15.36914 -8.47,0 -15.36914,-6.89914 -15.36914,-15.36914 0,-8.48 6.89914,-15.37109 15.36914,-15.37109 z M 34.699219,387.88086 c -2.77,0 -5,2.24 -5,5 0,2.76 2.23,5 5,5 h 33.261719 c 2.76,0 5,-2.24 5,-5 0,-2.76 -2.24,-5 -5,-5 z m 64.601562,0 c -2.76,0 -4.990234,2.24 -4.990234,5 0,2.76 2.230234,5 4.990234,5 h 33.269529 c 2.76,0 5,-2.24 5,-5 0,-2.76 -2.24,-5 -5,-5 z m 64.609379,0 c -2.76,0 -5,2.24 -5,5 0,2.76 2.24,5 5,5 h 33.26953 c 2.76,0 4.99023,-2.24 4.99023,-5 0,-2.76 -2.23023,-5 -4.99023,-5 z m 64.60937,0 c -2.76,0 -5,2.24 -5,5 0,2.76 2.24,5 5,5 h 33.25977 c 2.76,0 5,-2.24 5,-5 0,-2.76 -2.24,-5 -5,-5 z M 44.480469,466.07031 h 62.980471 v 21.08008 H 44.480469 Z m 360.058591,0 h 62.98047 v 21.08008 h -62.98047 z " />
</svg>