<svg viewBox="0 0 512 512" xmlns="http://www.w3.org/2000/svg">
  <path d="m 30.408203,25 c -2.363,0 -4.273437,1.914344 -4.273437,4.277344 v 39.414062 c 0,2.358 1.910437,4.273438 4.273437,4.273438 H 57.080078 V 93.388672 H 30.408203 c -2.363,0 -4.273437,1.908484 -4.273437,4.271484 v 39.414064 c 0,2.363 1.910437,4.27344 4.273437,4.27344 h 26.671875 v 20.42382 H 30.408203 c -2.363,0 -4.273437,1.91435 -4.273437,4.27735 v 39.4082 c 0,2.368 1.910437,4.2793 4.273437,4.2793 H 57.080078 V 230.1582 H 30.408203 c -2.363,0 -4.273437,1.91044 -4.273437,4.27344 v 39.41992 c 0,2.358 1.910437,4.27149 4.273437,4.27149 h 26.671875 v 20.41992 H 30.408203 c -2.363,0 -4.273437,1.91434 -4.273437,4.27734 v 39.41407 c 0,2.36299 1.910437,4.27343 4.273437,4.27343 H 469.5918 c 2.358,0 4.27343,-1.91044 4.27343,-4.27343 v -39.41407 c 0,-2.363 -1.91543,-4.27734 -4.27343,-4.27734 h -26.67188 v -20.41992 h 26.67188 c 2.358,0 4.27343,-1.91349 4.27343,-4.27149 v -39.41992 c 0,-2.363 -1.91543,-4.27344 -4.27343,-4.27344 h -26.67188 v -20.42187 h 26.67188 c 2.358,0 4.27343,-1.9113 4.27343,-4.2793 v -39.4082 c 0,-2.363 -1.91543,-4.27735 -4.27343,-4.27735 h -26.67188 v -20.42382 h 26.67188 c 2.358,0 4.27343,-1.91044 4.27343,-4.27344 V 97.660156 c 0,-2.363 -1.91543,-4.271484 -4.27343,-4.271484 H 442.91992 V 72.964844 h 26.67188 c 2.358,0 4.27343,-1.915438 4.27343,-4.273438 V 29.277344 C 473.86523,26.914344 471.9498,25 469.5918,25 Z m 4.267578,8.550781 H 465.31836 V 64.414062 H 34.675781 Z M 65.621094,72.964844 H 434.37305 V 93.388672 H 65.621094 Z M 34.675781,101.93359 H 465.31836 v 30.86914 H 34.675781 Z m 30.945313,39.41407 H 434.37305 v 20.42382 H 65.621094 Z M 34.675781,170.32227 H 465.31836 v 30.86328 H 34.675781 Z m 30.945313,39.41406 H 434.37305 V 230.1582 H 65.621094 Z M 34.675781,238.70508 H 465.31836 v 30.86719 H 34.675781 Z M 65.621094,278.125 H 434.37305 v 20.41797 H 65.621094 Z M 34.675781,307.09375 H 465.31836 v 30.86133 H 34.675781 Z m 26.677735,62.4668 c -2.363,0 -4.273438,1.91629 -4.273438,4.27929 v 42.29102 H 30.408203 c -2.363,0 -4.273437,1.91044 -4.273437,4.27344 v 50.32226 c 0,2.363 1.910437,4.27344 4.273437,4.27344 H 469.5918 c 2.358,0 4.27343,-1.91044 4.27343,-4.27344 V 420.4043 c 0,-2.363 -1.91543,-4.27344 -4.27343,-4.27344 h -26.67188 v -42.29102 c 0,-2.363 -1.91544,-4.27929 -4.27344,-4.27929 -2.358,0 -4.27343,1.91629 -4.27343,4.27929 v 42.29102 H 65.621094 v -42.29102 c 0,-2.363 -1.909578,-4.27929 -4.267578,-4.27929 z m -26.677735,55.11718 h 26.677735 377.292964 26.67188 v 41.77149 H 34.675781 Z " />
</svg>