<svg id="Icons" height="512" viewBox="0 0 60 60" width="512" xmlns="http://www.w3.org/2000/svg"><path d="m55 0h-50c-2.757 0-5 2.243-5 5v46c0 2.414 1.721 4.434 4 4.899v1.101c0 1.654 1.346 3 3 3h6c1.654 0 3-1.346 3-3v-1h28v1c0 1.654 1.346 3 3 3h6c1.654 0 3-1.346 3-3v-1.101c2.279-.465 4-2.484 4-4.899v-46c0-2.757-2.243-5-5-5zm-41 57c0 .552-.448 1-1 1h-6c-.552 0-1-.448-1-1v-1h8zm39 1h-6c-.552 0-1-.448-1-1v-1h8v1c0 .552-.448 1-1 1zm5-7c0 1.654-1.346 3-3 3h-50c-1.654 0-3-1.346-3-3v-46c0-1.654 1.346-3 3-3h50c1.654 0 3 1.346 3 3z"/><path d="m50 7h-40c-1.654 0-3 1.346-3 3v37c0 1.103.897 2 2 2h42c1.103 0 2-.897 2-2v-37c0-1.654-1.346-3-3-3zm-40 2h40c.552 0 1 .448 1 1v3s-14.278 0-14.278 0c-.347-.595-.985-1-1.722-1h-10c-.737 0-1.375.405-1.722 1h-14.278v-3c0-.552.448-1 1-1zm27 6h14v2s-14 0-14 0zm-11 7c-.552 0-1-.448-1-1v-7h10v7c0 .552-.448 1-1 1zm5.392 2-1.392 2.819-1.392-2.819h2.783zm-8.392-7h-14v-2h14zm11 25h-8v-5.497c0-.09.048-.175.125-.221l3.743-2.246c.08-.047.184-.047.264 0l3.743 2.246c.077.046.125.131.125.221zm6 2c.552 0 1 .448 1 1v2h-22v-2c0-.552.448-1 1-1zm3 3v-2c0-1.654-1.346-3-3-3h-4v-5.497c0-.788-.42-1.529-1.096-1.936l-3.743-2.246c-.717-.43-1.605-.43-2.322 0l-3.743 2.246c-.676.406-1.096 1.147-1.096 1.936v5.497h-4c-1.654 0-3 1.346-3 3v2h-8v-28h14v2c0 1.654 1.346 3 3 3h.379l1.954 3.96c.316.642.955 1.04 1.667 1.04s1.351-.398 1.667-1.04l1.954-3.96h.379c1.654 0 3-1.346 3-3v-2h14v28s-8 0-8 0z"/></svg>