<?xml version="1.0" encoding="utf-8"?>
<!-- Generator: Adobe Illustrator 27.0.0, SVG Export Plug-In . SVG Version: 6.00 Build 0)  -->
<svg version="1.1" id="Layer_1" xmlns="http://www.w3.org/2000/svg" xmlns:xlink="http://www.w3.org/1999/xlink" x="0px" y="0px"
	 viewBox="0 0 64 64" style="enable-background:new 0 0 64 64;" xml:space="preserve">
<path d="M8.0366211,29.4633789h1.7436523v28.269043C9.7802734,60.0854492,11.6948242,62,14.0483398,62h35.9033203
	c2.3535156,0,4.2680664-1.9145508,4.2680664-4.2675781v-28.269043h1.7436523c1.378418,0,2.5-1.121582,2.5-2.5v-1.2436523
	c0-1.378418-1.121582-2.5-2.5-2.5h-1.7436523V6.2675781C54.2197266,3.9145508,52.3051758,2,49.9516602,2H14.0483398
	c-2.3535156,0-4.2680664,1.9145508-4.2680664,4.2675781v16.9521484H8.0366211c-1.378418,0-2.5,1.121582-2.5,2.5v1.2436523
	C5.5366211,28.3417969,6.6582031,29.4633789,8.0366211,29.4633789z M52.2197266,57.7324219
	C52.2197266,58.9829102,51.2021484,60,49.9516602,60H14.0483398c-1.2504883,0-2.2680664-1.0170898-2.2680664-2.2675781v-28.269043
	H31v6.637085c-1.6247559,0.4430542-2.8291016,1.916626-2.8291016,3.6798096c0,2.1118164,1.7177734,3.8295898,3.8291016,3.8295898
	s3.8291016-1.7177734,3.8291016-3.8295898c0-1.7631836-1.2043457-3.2367554-2.8291016-3.6798096v-6.637085h19.2197266V57.7324219z
	 M32,37.9511719c1.0087891,0,1.8291016,0.8203125,1.8291016,1.8291016S33.0087891,41.6098633,32,41.6098633
	s-1.8291016-0.8208008-1.8291016-1.8295898S30.9912109,37.9511719,32,37.9511719z M11.7802734,6.2675781
	C11.7802734,5.0170898,12.7978516,4,14.0483398,4h35.9033203c1.2504883,0,2.2680664,1.0170898,2.2680664,2.2675781v16.9521484
	H11.7802734V6.2675781z M7.5366211,25.7197266c0-0.2758789,0.2241211-0.5,0.5-0.5h47.9267578c0.2758789,0,0.5,0.2241211,0.5,0.5
	v1.2436523c0,0.2758789-0.2241211,0.5-0.5,0.5H8.0366211c-0.2758789,0-0.5-0.2241211-0.5-0.5V25.7197266z"/>
</svg>
