<?xml version="1.0" standalone="no"?>
<!DOCTYPE svg PUBLIC "-//W3C//DTD SVG 20010904//EN"
 "http://www.w3.org/TR/2001/REC-SVG-20010904/DTD/svg10.dtd">
<svg version="1.0" xmlns="http://www.w3.org/2000/svg"
 width="512.000000pt" height="512.000000pt" viewBox="0 0 512.000000 512.000000"
 preserveAspectRatio="xMidYMid meet">

<g transform="translate(0.000000,512.000000) scale(0.100000,-0.100000)"
fill="#000000" stroke="none">
<path d="M78 5099 c-43 -22 -78 -81 -78 -129 0 -50 35 -107 80 -130 31 -16 59
-20 135 -20 l95 0 0 -1960 0 -1960 -95 0 c-76 0 -104 -4 -135 -20 -45 -23 -80
-80 -80 -130 0 -50 35 -107 80 -130 39 -20 56 -20 1490 -20 l1450 0 0 -95 c0
-172 37 -272 135 -370 65 -65 137 -105 223 -124 73 -15 1310 -15 1384 0 170
36 311 178 347 347 16 76 16 2530 0 2604 -19 86 -59 158 -124 224 -96 97 -197
134 -365 134 l-90 0 0 750 0 750 95 0 c76 0 104 4 135 20 45 23 80 80 80 130
0 50 -35 107 -80 130 -39 20 -53 20 -2342 20 -2273 -1 -2303 -1 -2340 -21z
m4152 -429 l0 -150 -1810 0 -1810 0 0 150 0 150 1810 0 1810 0 0 -150z m0
-600 l0 -150 -1810 0 -1810 0 0 150 0 150 1810 0 1810 0 0 -150z m0 -600 l0
-150 -1810 0 -1810 0 0 150 0 150 1810 0 1810 0 0 -150z m-1194 -477 c-4 -16
-10 -83 -13 -150 l-5 -123 -1204 0 -1204 0 0 150 0 150 1216 0 1216 0 -6 -27z
m1704 7 c26 -13 47 -34 60 -60 20 -39 20 -57 20 -1040 l0 -1000 -750 0 -750 0
0 1000 c0 983 0 1002 20 1040 12 24 35 47 58 59 36 19 60 20 670 21 615 0 634
-1 672 -20z m-1720 -1340 l0 -760 -1205 0 -1205 0 0 760 0 760 1205 0 1205 0
0 -760z m1800 -1150 c0 -112 -20 -159 -80 -190 -38 -19 -58 -20 -671 -20
l-631 0 -40 22 c-60 34 -78 78 -78 188 l0 90 750 0 750 0 0 -90z"/>
<path d="M4000 2700 c-19 -10 -110 -97 -202 -193 -132 -139 -168 -183 -173
-210 -13 -68 17 -132 75 -162 34 -18 102 -20 133 -4 12 6 70 59 130 117 l107
107 108 -107 c59 -58 117 -111 129 -117 31 -16 99 -14 133 4 59 30 90 98 75
166 -9 41 -320 371 -376 400 -48 24 -94 24 -139 -1z"/>
<path d="M3693 1780 c-55 -33 -81 -91 -68 -156 5 -29 40 -71 173 -211 92 -96
184 -183 204 -194 47 -24 89 -24 137 0 56 29 367 359 376 400 15 68 -16 136
-75 166 -34 18 -102 20 -133 4 -12 -6 -70 -59 -129 -117 l-108 -107 -107 107
c-60 58 -118 111 -130 117 -34 17 -104 13 -140 -9z"/>
</g>
</svg>
