<svg enable-background="new 0 0 512 512" viewBox="0 0 512 512" xmlns="http://www.w3.org/2000/svg"><g id="_x30_9_Horizontal_Blinds"><g><path d="m503.868 43.709c0-6.887-5.601-12.49-12.487-12.49h-470.757c-6.887 0-12.492 5.603-12.492 12.49v25.271c0 6.889 5.605 12.492 12.492 12.492h27.571l-16.678 32.277c-.778 1.507-.712 3.311.166 4.758.883 1.448 2.459 2.333 4.153 2.333h12.359l-16.678 32.277c-.778 1.507-.712 3.311.166 4.758.883 1.448 2.459 2.333 4.153 2.333h12.359l-16.678 32.274c-.778 1.507-.712 3.311.166 4.758.883 1.448 2.459 2.333 4.153 2.333h12.359l-16.678 32.277c-.778 1.507-.712 3.311.166 4.758.883 1.448 2.459 2.333 4.153 2.333h12.359l-16.678 32.277c-.778 1.507-.712 3.31.166 4.758.883 1.448 2.459 2.333 4.153 2.333h12.359l-16.678 32.277c-.778 1.507-.712 3.31.166 4.758.883 1.448 2.459 2.333 4.153 2.333h15.482v143.068c0 11.047 8.989 20.036 20.039 20.036h369.291c11.049 0 20.039-8.989 20.039-20.036v-143.069h15.482c1.694 0 3.27-.885 4.153-2.333.878-1.448.944-3.251.166-4.758l-16.678-32.277h12.359c1.694 0 3.27-.885 4.153-2.333.878-1.448.944-3.251.166-4.758l-16.678-32.277h12.359c1.694 0 3.27-.885 4.153-2.333.878-1.448.944-3.251.166-4.758l-16.678-32.277h12.359c1.694 0 3.27-.885 4.153-2.333.878-1.448.944-3.251.166-4.758l-16.678-32.274h12.359c1.694 0 3.27-.885 4.153-2.333.878-1.448.944-3.251.166-4.758l-16.678-32.277h12.359c1.694 0 3.27-.885 4.153-2.333.878-1.448.944-3.251.166-4.758l-16.678-32.277h22.711v64.25c0 2.684 2.174 4.86 4.86 4.86s4.86-2.176 4.86-4.86v-65.234c4.479-1.9 7.627-6.342 7.627-11.507zm-486.015 25.271v-25.271c0-1.526 1.244-2.769 2.772-2.769h470.755c1.524 0 2.767 1.244 2.767 2.769v25.271c0 1.528-1.244 2.772-2.767 2.772-19.535 0-406.878 0-470.756 0-1.528 0-2.771-1.243-2.771-2.772zm433.113 391.765c0 5.688-4.628 10.316-10.318 10.316h-369.291c-5.691 0-10.318-4.628-10.318-10.316v-143.069h21.629v126.898c0 2.684 2.174 4.86 4.86 4.86h148.757c2.686 0 4.86-2.176 4.86-4.86v-126.898h18.914v126.898c0 2.684 2.174 4.86 4.86 4.86h159.559c2.686 0 4.86-2.176 4.86-4.86v-126.898h21.629v143.069zm-358.578-143.069h139.036v122.038h-139.036zm177.39 0h149.839v122.038h-149.839zm198.408-9.72c-62.429 0-324.603 0-424.366 0l15.321-29.647h393.725zm0-39.368c-148.695 0-277.911 0-424.366 0l15.316-29.647h393.734zm0-39.367c-148.695 0-277.911 0-424.366 0l15.321-29.647h393.725zm0-39.368c-148.695 0-277.911 0-424.366 0l15.316-29.645h393.734zm0-39.366c-148.695 0-277.911 0-424.366 0l15.316-29.647h393.734zm0-39.367c-148.695 0-277.911 0-424.366 0l15.32-29.648h393.725z"/></g></g><g id="Layer_1"/></svg>