<?xml version="1.0" encoding="UTF-8" standalone="no"?>
<svg
   viewBox="0 0 512 512"
   xmlns="http://www.w3.org/2000/svg"
   xmlns:svg="http://www.w3.org/2000/svg">
  <path
     id="path1"
     style="fill:#000000;stroke:none;stroke-width:0.1"
     d="M 241.80029,0 C 14.500293,0.1 11.500293,0.10058594 7.800293,2.1005859 3.500293,4.3005859 0,10.2 0,15 0,20 3.4995117,25.700488 7.9995117,28.000488 11.099512,29.600488 13.899512,30 21.499512,30 h 9.500976 v 196.00049 195.99902 h -9.500976 c -7.6,0 -10.4,0.40098 -13.5000003,2.00098 -4.5,2.3 -7.9995117,7.99902 -7.9995117,12.99902 0,5 3.4995117,10.70049 7.9995117,13.00049 3.9000003,2 5.6009763,1.99951 149.0009783,1.99951 h 144.99902 v 9.50098 c 0,17.2 3.7,27.19902 13.5,36.99902 6.5,6.5 13.70078,10.4999 22.30078,12.3999 7.3,1.5 130.99991,1.5 138.39991,0 17,-3.6 31.09921,-17.79921 34.69921,-34.69921 1.6,-7.6 1.6,-253.00088 0,-260.40088 -1.9,-8.6 -5.8999,-15.79893 -12.3999,-22.39893 C 488.89951,183.70039 478.8,180 462,180 h -9 V 105 30 h 9.49951 c 7.6,0 10.4,-0.399512 13.5,-1.999512 4.5,-2.3 8.00098,-8.000488 8.00098,-13.000488 0,-5 -3.50098,-10.7004883 -8.00098,-13.0004883 C 472.09951,-4.8828125e-4 470.70029,0 241.80029,0 Z M 61.000488,30 H 241.99951 423 V 45 60 H 241.99951 61.000488 V 45 Z m 0,60 H 241.99951 423 v 15 15 H 241.99951 61.000488 v -15 z m 0,60 H 241.99951 423 v 15 15 H 241.99951 61.000488 v -15 z m 0,60 H 182.6001 304.19971 l -0.59912,2.69971 c -0.4,1.6 -1.00079,8.3 -1.30079,15 L 301.80029,240 H 181.40039 61.000488 v -15 z m 345.799802,0 c 61.5,0 63.39971,0.0995 67.19971,1.99951 2.6,1.3 4.7,3.4 6,6 2,3.9 1.99951,5.70098 1.99951,104.00098 v 99.99902 h -75 -75 v -99.99902 c 0,-98.3 9.8e-4,-100.20098 2.00098,-104.00098 1.2,-2.4 3.49931,-4.69892 5.79931,-5.89892 3.6,-1.9 6.00049,-2.00059 67.00049,-2.10059 z m 0.0366,30.11279 c -2.3125,0.0125 -4.58642,0.63672 -6.83642,1.88672 -1.9,1 -11.0002,9.70078 -20.2002,19.30078 -13.2,13.9 -16.7998,18.3 -17.2998,21 -1.3,6.8 1.7,13.19971 7.5,16.19971 3.4,1.8 10.19931,1.9999 13.29931,0.3999 1.2,-0.6 7.00049,-5.8997 13.00049,-11.6997 l 10.69922,-10.70069 10.80029,10.70069 c 5.9,5.8 11.70088,11.0997 12.90088,11.6997 3.1,1.6 9.89932,1.4001 13.29932,-0.3999 5.9,-3 9,-9.79961 7.5,-16.59961 -0.9,-4.1 -31.99961,-37.10049 -37.59961,-40.00049 -2.4,-1.2 -4.75098,-1.79961 -7.06348,-1.78711 z M 61.000488,270 H 181.5 301.99951 v 76.00049 75.99902 H 181.5 61.000488 v -75.99902 z m 376.236332,62.02441 c -2.5125,-0.075 -4.98614,0.2752 -6.53614,1.0752 -1.2,0.6 -7.00088,5.89971 -12.90088,11.69971 L 406.99951,355.5 396.30029,344.79932 c -6,-5.8 -11.80049,-11.09971 -13.00049,-11.69971 -3.4,-1.7 -10.39951,-1.29912 -13.99951,0.90088 -5.5,3.3 -8.0998,9.09912 -6.7998,15.59912 0.5,2.9 3.9998,7.10107 17.2998,21.10107 9.2,9.6 18.39942,18.29893 20.39942,19.39893 4.7,2.4 8.90068,2.4 13.70068,0 5.6,-2.9 36.69961,-35.89902 37.59961,-39.99902 1.5,-6.8 -1.6,-13.60108 -7.5,-16.60108 -1.7,-0.9 -4.25068,-1.4001 -6.76318,-1.4751 z m -105.23731,119.9751 h 75 75 v 9 C 481.99951,472.19951 480,476.9 474,480 c -3.8,1.9 -5.8001,1.99951 -67.1001,1.99951 h -63.09961 l -4.00049,-2.20019 c -6,-3.4 -7.80029,-7.79981 -7.80029,-18.79981 z" />
</svg>
