<svg id="Layer_1" enable-background="new 0 0 512 512" height="512" viewBox="0 0 512 512" width="512" xmlns="http://www.w3.org/2000/svg"><path d="m256 120.795c-67.809 0-122.975 55.166-122.975 122.975 0 30.095 10.988 59.058 30.94 81.555 9.379 10.575 13.938 22.587 13.938 36.721 0 12.785 9.423 23.409 21.688 25.295-1.619 2.553-2.571 5.569-2.571 8.81 0 5.001 2.244 9.481 5.767 12.511-3.523 3.03-5.767 7.51-5.767 12.511 0 6.568 3.864 12.235 9.429 14.893-2.185 2.8-3.5 6.311-3.5 10.13 0 9.104 7.406 16.511 16.511 16.511h3.421c5.427 13.449 18.384 22.293 33.119 22.293 14.734 0 27.691-8.844 33.116-22.294h3.422c9.104 0 16.512-7.406 16.512-16.511 0-3.819-1.316-7.33-3.501-10.13 5.565-2.658 9.429-8.325 9.429-14.893 0-5.001-2.243-9.481-5.767-12.511 3.524-3.031 5.767-7.51 5.767-12.511 0-3.24-.952-6.256-2.571-8.809 12.266-1.886 21.689-12.51 21.689-25.295 0-14.134 4.56-26.146 13.938-36.721 19.953-22.496 30.941-51.46 30.941-81.555 0-67.809-55.166-122.975-122.975-122.975zm0 356.205c-10.294 0-19.453-5.572-24.254-14.294h48.507c-4.801 8.722-13.96 14.294-24.253 14.294zm36.538-22.294h-73.077c-4.692 0-8.511-3.818-8.511-8.511s3.818-8.512 8.511-8.512h73.077c4.693 0 8.512 3.818 8.512 8.512 0 4.693-3.819 8.511-8.512 8.511zm14.44-33.534c0 4.693-3.818 8.512-8.511 8.512h-84.934c-4.693 0-8.512-3.818-8.512-8.512 0-4.692 3.818-8.511 8.512-8.511h84.934c4.692 0 8.511 3.818 8.511 8.511zm-93.445-16.511c-4.693 0-8.512-3.818-8.512-8.512s3.818-8.512 8.512-8.512h84.934c4.692 0 8.511 3.818 8.511 8.512s-3.818 8.512-8.511 8.512zm128.516-84.645c-10.735 12.104-15.953 25.853-15.953 42.029 0 9.701-7.893 17.593-17.594 17.593h-105.004c-9.701 0-17.594-7.892-17.594-17.593 0-16.177-5.219-29.925-15.954-42.029-18.652-21.031-28.925-48.109-28.925-76.246 0-63.397 51.577-114.975 114.975-114.975s114.975 51.577 114.975 114.975c0 28.136-10.273 55.214-28.926 76.246zm-103.204-148.792c.623 2.119-.591 4.343-2.71 4.966-26.954 7.923-46.597 31.058-50.043 58.939-.25 2.026-1.975 3.51-3.965 3.51-.163 0-.329-.01-.495-.03-2.192-.271-3.751-2.268-3.479-4.46 3.838-31.049 25.712-56.812 55.727-65.635 2.111-.623 4.341.59 4.965 2.71zm13.155-87.374v-52.85c0-2.209 1.791-4 4-4s4 1.791 4 4v52.85c0 2.209-1.791 4-4 4s-4-1.791-4-4zm-105.849-22.344c-1.104-1.913-.449-4.359 1.464-5.464 1.913-1.106 4.358-.449 5.464 1.464l26.425 45.769c1.104 1.913.449 4.359-1.464 5.464-.63.364-1.317.537-1.996.537-1.383 0-2.727-.718-3.468-2.001zm-25.181 104.304c-.74 1.283-2.085 2.001-3.468 2.001-.679 0-1.366-.173-1.996-.537l-45.77-26.425c-1.913-1.104-2.568-3.551-1.464-5.464s3.55-2.57 5.464-1.464l45.77 26.425c1.913 1.104 2.568 3.55 1.464 5.464zm-24.89 81.96h-52.85c-2.209 0-4-1.791-4-4s1.791-4 4-4h52.85c2.209 0 4 1.791 4 4s-1.791 4-4 4zm24.89 73.959c1.104 1.913.449 4.359-1.464 5.464l-45.77 26.425c-.63.364-1.317.537-1.996.537-1.383 0-2.728-.718-3.468-2.001-1.104-1.913-.449-4.359 1.464-5.464l45.77-26.425c1.913-1.106 4.36-.449 5.464 1.464zm322.758 30.425c-.74 1.283-2.085 2.001-3.468 2.001-.679 0-1.366-.173-1.996-.537l-45.77-26.425c-1.913-1.104-2.568-3.551-1.464-5.464s3.551-2.57 5.464-1.464l45.77 26.425c1.913 1.105 2.568 3.551 1.464 5.464zm29.042-108.384c0 2.209-1.791 4-4 4h-52.85c-2.209 0-4-1.791-4-4s1.791-4 4-4h52.85c2.209 0 4 1.791 4 4zm-81.74-77.96c-1.104-1.913-.449-4.359 1.464-5.464l45.77-26.425c1.913-1.106 4.36-.449 5.464 1.464s.449 4.359-1.464 5.464l-45.77 26.425c-.63.364-1.317.537-1.996.537-1.383 0-2.727-.718-3.468-2.001zm-58.534-62.536 26.425-45.769c1.104-1.913 3.551-2.57 5.464-1.464 1.913 1.104 2.568 3.551 1.464 5.464l-26.425 45.769c-.74 1.283-2.085 2.001-3.468 2.001-.679 0-1.366-.173-1.996-.537-1.913-1.104-2.568-3.55-1.464-5.464z"/></svg>