<?xml version="1.0" encoding="UTF-8" standalone="no"?>
<svg
   viewBox="0 0 512 512"
   xmlns="http://www.w3.org/2000/svg"
   xmlns:svg="http://www.w3.org/2000/svg">
  <path
     id="path1"
     d="M 68.37217,4 C 55.720191,4 45.472661,14.24753 45.472661,26.899509 V 232.99509 H 35.454126 c -10.018536,-0.229 -18.436788,9.27206 -17.062818,19.1761 l 25.873759,217.54534 c 1.030478,8.64456 8.361005,15.17316 17.062819,15.17316 h 18.438129 v 5.72488 c 0,9.44604 7.728584,17.17463 17.174632,17.17463 h 22.899513 c 9.44604,0 17.17463,-7.72859 17.17463,-17.17463 v -5.72488 h 240.44484 v 5.72488 c 0,9.44604 7.72859,17.17463 17.17463,17.17463 h 22.89951 c 9.44605,0 17.17463,-7.72859 17.17463,-17.17463 v -5.72488 h 18.43814 c 8.70181,0 16.02115,-6.5286 17.05163,-15.17316 l 25.88495,-217.54534 c 0.57248,-4.86615 -0.97458,-9.7873 -4.23776,-13.45122 l 0.11181,0.0561 c -5.38138,-6.8128 -15.17226,-5.83823 -22.84359,-5.78098 V 26.899509 C 469.11358,14.24753 458.86605,4 446.21407,4 Z m 0,11.449755 h 377.8419 c 6.29736,0 11.44975,5.152389 11.44975,11.449754 v 62.97365 H 56.922415 v -62.97365 c 0,-6.297365 5.15239,-11.449754 11.449755,-11.449754 z M 332.77876,30.65646 c -4.48672,0.22564 -7.94998,6.395761 -3.52215,10.152715 5.78213,4.808891 13.04736,-3.946143 7.37973,-8.75504 -1.26484,-1.051947 -2.6013,-1.460854 -3.85758,-1.397675 z m -36.63027,0.06709 c -4.17121,0.131718 -7.92583,5.213215 -4.39429,9.45946 4.80889,5.724878 13.57511,-1.608776 8.76621,-7.390901 -1.29257,-1.520672 -2.86319,-2.116204 -4.37192,-2.068559 z m 92.81681,1.900836 c -3.14869,0 -5.72488,2.576195 -5.72488,5.724878 V 66.97365 c 0,3.148682 2.57619,5.724877 5.72488,5.724877 h 45.79901 c 3.14869,0 5.72488,-2.576195 5.72488,-5.724877 V 38.349264 c 0,-3.148683 -2.57619,-5.724878 -5.72488,-5.724878 z m -74.42341,8.587316 c -22.67051,0.572488 -22.67051,33.776776 0,34.349264 22.67052,-0.572488 22.61327,-33.776776 0,-34.349264 z M 91.271679,44.074141 c -11.278008,0.171746 -11.278008,17.002885 0,17.174632 11.278011,-0.171747 11.278011,-17.002886 0,-17.174632 z m 303.418491,0 h 34.34927 v 17.174632 h -34.34927 z m -240.44484,2.862438 c -3.14868,0 -5.72488,2.576195 -5.72488,5.724878 0,3.148682 2.5762,5.724877 5.72488,5.724877 h 74.4234 c 7.49959,-0.114498 7.55684,-11.335257 0,-11.449755 z m 131.88462,2.15801 c -4.71883,0.126405 -5.70922,7.57652 -0.50316,8.542593 5.55313,0.973229 7.05144,-7.433845 1.49831,-8.464322 -0.3471,-0.0608 -0.68056,-0.08667 -0.99515,-0.07826 z m 56.34308,0.01145 c -0.16551,0.01088 -0.3408,0.03836 -0.51432,0.06709 -5.55313,0.973229 -4.05483,9.380303 1.49831,8.464323 5.37959,-0.942819 4.14671,-8.869638 -0.98397,-8.531412 z m -27.93114,3.555418 c 7.49959,0.114497 7.49959,11.335257 0,11.449754 -7.49959,-0.114497 -7.49959,-11.335257 0,-11.449754 z M 56.922415,101.32291 H 457.66382 v 131.67218 h -36.1271 c 14.94193,-70.12975 -61.19581,-127.14952 -124.16946,-93.02926 -24.55972,-12.99547 -55.58856,-12.93822 -80.14828,0 -63.0309,-34.12026 -139.168636,22.89951 -124.169458,93.02926 H 56.922415 Z m 117.919055,39.92878 c 10.1766,-0.37486 20.67888,1.45001 30.98366,5.92615 -5.15239,3.89292 -9.84231,8.35877 -14.02148,13.33941 -42.47858,-12.13674 -83.4119,30.62899 -69.15696,72.47784 h -17.86788 -0.0561 c -11.861034,-47.21235 26.02017,-90.11901 70.11876,-91.7434 z m 162.65584,0.14536 c 47.28749,-0.62973 83.87168,45.79902 72.42193,91.59804 h -17.86788 -0.11181 c 3.49218,-7.21335 5.4449,-43.62043 -7.89406,-39.72752 -2.97694,1.08773 -4.53161,4.34689 -3.44388,7.32382 3.77842,10.30478 3.44254,22.27067 -0.79387,32.4037 h -84.73267 c -17.06013,-41.27636 30.79761,-80.15052 67.83756,-55.2473 6.29737,4.12191 12.60234,-5.21054 6.36222,-9.50419 -44.59679,-29.82661 -102.6475,13.62834 -86.3316,64.75149 h -17.86788 c -11.85049,-45.28378 25.59244,-92.57127 72.42194,-91.59804 z m -77.61011,0.0338 c 8.58322,0.28607 17.36248,2.11553 26.03031,5.74725 -5.15239,3.89291 -9.84232,8.35876 -14.02148,13.33941 -42.47859,-12.13698 -83.41191,30.62875 -69.15697,72.4776 h -17.86788 c -12.07591,-49.51125 28.66664,-93.10931 75.01602,-91.56449 z m -81.97084,28.50116 c 2.09921,0.062 4.23417,0.27685 6.38457,0.6597 -11.507,18.20511 -15.62444,41.10686 -11.15904,62.4034 H 134.7226 c -12.98831,-30.10928 11.7056,-63.9927 43.19376,-63.0631 z m 80.14828,0 c 2.09921,0.062 4.23417,0.27685 6.38458,0.6597 -11.50701,18.20511 -15.62445,41.10686 -11.15904,62.4034 h -38.41929 c -12.98832,-30.10928 11.70559,-63.9927 43.19375,-63.0631 z M 35.454126,244.44484 H 100.31743 479.0762 c 3.32043,-0.0572 6.18422,3.08652 5.66898,6.40695 l -4.69619,39.39207 H 297.31135 v -5.72487 c 0,-9.44605 -7.72858,-17.17464 -17.17463,-17.17464 H 234.3377 c -9.44605,0 -17.17463,7.72859 -17.17463,17.17464 v 5.72487 H 34.481344 l -4.696189,-39.39207 c -0.171746,-1.66021 0.286244,-3.25916 1.431219,-4.46138 h -0.05591 c 1.087726,-1.25947 2.633443,-1.94557 4.293658,-1.94557 z m 198.939484,34.34927 h 45.79902 c 3.14868,0 5.72488,2.57619 5.72488,5.72488 v 5.72487 h -57.24878 v -5.72487 c 0,-3.14869 2.5762,-5.72488 5.72488,-5.72488 z M 35.912563,301.69362 H 478.8414 l -19.85817,166.70351 h -0.0561 c -0.3433,2.86243 -2.80634,5.0428 -5.66878,5.0428 h -24.163 -297.69362 -69.962032 c -2.919681,0 -5.314294,-2.18037 -5.657787,-5.0428 z m 55.359116,183.19607 h 34.349261 v 5.72488 c 0,3.14868 -2.57619,5.72487 -5.72487,5.72487 H 96.996556 c -3.148682,0 -5.724877,-2.57619 -5.724877,-5.72487 z m 297.693621,0 h 34.34926 v 5.72488 c 0,3.14868 -2.5762,5.72487 -5.72488,5.72487 h -22.89951 c -3.14868,0 -5.72487,-2.57619 -5.72487,-5.72487 z"
     style="stroke-width:5.72488" />
</svg>
