<?xml version="1.0" encoding="UTF-8" standalone="no"?>
<svg
   viewBox="0 0 512 512"
   xmlns="http://www.w3.org/2000/svg"
   xmlns:svg="http://www.w3.org/2000/svg">
  <path
     id="path1"
     d="m 196.94727,0.03125 c -0.84,0.03375 -1.67297,0.27851563 -2.41797,0.72851562 -1.48,0.90999998 -2.37891,2.52953128 -2.37891,4.26953128 V 28.439453 H 106.5 c -2.76,0 -5,2.24 -5,5 V 458.94922 c 0,2.76 2.24,5 5,5 h 51.41016 c 2.76,0 5,-2.24 5,-5 V 89.849609 h 29.24023 V 506.9707 c 0,1.59 0.74953,3.07953 2.01953,4.01953 0.87,0.65 1.92047,0.98047 2.98047,0.98047 0.48,0 0.97899,-0.0709 1.45899,-0.21093 L 354.83594,463.94922 H 405.5 c 2.76,0 5,-2.24 5,-5 V 33.439453 c 0,-2.76 -2.24,-5 -5,-5 H 254.19922 L 199.41016,0.5703125 c -0.775,-0.395 -1.62289,-0.5728125 -2.46289,-0.5390625 z m 5.19335,13.148438 48.58985,24.71289 c 0.004,0.002 0.006,0.0059 0.01,0.0078 l 98.34961,50.019531 V 455.25 L 202.14062,500.21094 V 84.849609 33.439453 Z M 111.5,38.439453 h 80.64062 v 41.410156 h -34.23046 c -2.76,0 -5,2.24 -5,5 V 453.94922 H 111.5 Z m 162.36914,0 H 400.5 V 453.94922 H 359.08984 V 84.849609 c 0,-1.88 -1.06023,-3.599218 -2.74023,-4.449218 z M 220.82031,221.91992 c -2.77,0 -5,2.24 -5,5 v 100.11914 c 0,2.76 2.23,5 5,5 h 29.75977 c 2.76,0 5,-2.24 5,-5 v -73.05859 c 0,-17.68 -14.38055,-32.06055 -32.06055,-32.06055 z m 5,10.11914 c 11.09,1.15 19.76953,10.55164 19.76953,21.93164 v 68.06836 h -19.76953 z" />
</svg>
