<svg id="Capa_1" enable-background="new 0 0 512 512" height="512" viewBox="0 0 512 512" width="512" xmlns="http://www.w3.org/2000/svg"><g><path d="m483.274 59.194c4.142 0 7.5-3.358 7.5-7.5v-18.681c0-18.203-14.81-33.013-33.013-33.013h-403.522c-18.203 0-33.013 14.81-33.013 33.013v351.378c0 4.142 3.358 7.5 7.5 7.5s7.5-3.358 7.5-7.5v-262.745h439.548v322.132c0 9.933-8.081 18.013-18.013 18.013-18.933 0-384.29 0-403.521 0-9.933 0-18.013-8.081-18.013-18.013v-24.387c0-4.142-3.358-7.5-7.5-7.5s-7.5 3.358-7.5 7.5v24.387c0 16.82 12.647 30.732 28.929 32.751v21.847c0 7.512 6.111 13.623 13.623 13.623h44.598c7.512 0 13.624-6.111 13.624-13.623v-21.585h267.999v21.585c0 7.512 6.111 13.623 13.624 13.623h44.598c7.512 0 13.623-6.111 13.623-13.623v-21.846c16.282-2.019 28.929-15.932 28.929-32.751 0-3.424 0-354.061 0-357.084 0-4.142-3.358-7.5-7.5-7.5s-7.5 3.358-7.5 7.5v19.952h-439.548v-73.634c0-9.932 8.081-18.013 18.013-18.013h403.521c9.933 0 18.013 8.081 18.013 18.013v18.681c.001 4.142 3.359 7.5 7.501 7.5zm-376.274 437.806h-41.845v-20.208h41.845zm339.845 0h-41.845v-20.208h41.845z"/><path d="m411.801 27.044c-18.625 0-33.778 15.153-33.778 33.779s15.153 33.779 33.778 33.779c18.054 0 32.844-14.237 33.736-32.074.031-.137.047-.921.047-1.705s-.016-1.568-.047-1.705c-.891-17.837-15.682-32.074-33.736-32.074zm0 52.558c-10.354 0-18.778-8.424-18.778-18.779s8.424-18.779 18.778-18.779c7.627 0 14.194 4.578 17.131 11.125h-17.131c-4.227 0-7.654 3.426-7.654 7.654s3.427 7.654 7.654 7.654h17.131c-2.937 6.546-9.504 11.125-17.131 11.125z"/><path d="m233.38 60.823c0 18.625 15.153 33.779 33.778 33.779s33.779-15.153 33.779-33.779-15.153-33.779-33.779-33.779-33.778 15.153-33.778 33.779zm52.558 0c0 10.354-8.424 18.779-18.779 18.779s-18.778-8.424-18.778-18.779c0-7.688 4.648-14.304 11.278-17.205v17.205c0 4.142 3.358 7.5 7.5 7.5s7.5-3.358 7.5-7.5v-17.206c6.63 2.902 11.279 9.518 11.279 17.206z"/><path d="m146.595 60.823c0 18.625 15.153 33.779 33.779 33.779s33.778-15.153 33.778-33.779-15.153-33.779-33.778-33.779-33.779 15.153-33.779 33.779zm52.557 0c0 10.354-8.424 18.779-18.778 18.779s-18.779-8.424-18.779-18.779c0-7.688 4.649-14.304 11.279-17.205v17.205c0 4.142 3.358 7.5 7.5 7.5s7.5-3.358 7.5-7.5v-17.206c6.629 2.902 11.278 9.518 11.278 17.206z"/><path d="m59.809 60.823c0 18.625 15.153 33.779 33.779 33.779s33.779-15.153 33.779-33.779-15.153-33.779-33.779-33.779-33.779 15.153-33.779 33.779zm52.558 0c0 10.354-8.424 18.779-18.779 18.779s-18.779-8.424-18.779-18.779c0-7.688 4.649-14.304 11.279-17.205v17.205c0 4.142 3.358 7.5 7.5 7.5s7.5-3.358 7.5-7.5v-17.206c6.63 2.902 11.279 9.518 11.279 17.206z"/><path d="m79.752 435.97h352.495c9.763 0 17.705-7.943 17.705-17.706v-219.37c7.151-1.448 12.551-7.78 12.551-15.352v-20.411c0-8.637-7.027-15.664-15.664-15.664h-381.679c-8.637 0-15.664 7.027-15.664 15.664v20.411c0 7.572 5.4 13.904 12.551 15.352v219.371c0 9.762 7.943 17.705 17.705 17.705zm355.201-17.705c0 1.492-1.213 2.706-2.705 2.706h-352.496c-1.492 0-2.705-1.214-2.705-2.706v-219.058h357.905v219.058zm-370.457-255.134c0-.366.298-.664.664-.664h381.68c.366 0 .664.298.664.664 0 21.19.336 21.075-.664 21.075-17.987 0-363.483 0-381.68 0-.366 0-.664-.298-.664-.665z"/></g></svg>