<?xml version="1.0" encoding="UTF-8"?>
<svg xmlns="http://www.w3.org/2000/svg" width="512" height="512" viewBox="0 0 48 48"><path d="M28,22a1,1,0,1,1,1,1A1,1,0,0,1,28,22Zm-9,1a1,1,0,1,0-1-1A1,1,0,0,0,19,23Zm5,6a5.332,5.332,0,0,0,2.968-.895.5.5,0,0,0-.556-.832,4.431,4.431,0,0,1-4.824,0,.5.5,0,0,0-.556.832A5.332,5.332,0,0,0,24,29ZM6.5,36.5a.446.446,0,0,1,.021-.1.413.413,0,0,1,.011-.069l0-.007a.5.5,0,0,1,.084-.134c.007-.009.011-.02.019-.029a.5.5,0,0,1,.152-.108h0a.487.487,0,0,1,.134-.033c.02,0,.038-.011.058-.012L7,36a.44.44,0,0,1,.1.02.387.387,0,0,1,.076.011,2.608,2.608,0,0,0,3.479-1.7c.449-1.2.1-2.4-.489-4.376a41.849,41.849,0,0,1-1.6-7.39c-.772-6.43.415-11.469,3.527-14.978A14.24,14.24,0,0,1,22.508,3C28.272,3,30.8,4.9,32.615,7.005A6.956,6.956,0,0,1,37.5,9.643c2.179,2.583,3.033,6.388,2.342,10.44-.034.205-.109.683-.2,1.278a.432.432,0,0,1-.043.117A1.493,1.493,0,0,1,40,22.5a5.416,5.416,0,0,1-1.1,3.255.453.453,0,0,1,0,.1c-.345,1.664-.743,3.01-1.062,4.091-.585,1.977-.938,3.171-.489,4.376a2.608,2.608,0,0,0,3.479,1.7.494.494,0,0,1,.077-.012A.51.51,0,0,1,41,36l.015,0a.47.47,0,0,1,.063.013.5.5,0,0,1,.129.031l.01.007a.512.512,0,0,1,.144.1.328.328,0,0,1,.02.031.5.5,0,0,1,.083.132l0,.007a.413.413,0,0,1,.011.069.446.446,0,0,1,.021.1A5.506,5.506,0,0,1,36,42H33v.5A2.5,2.5,0,0,1,30.5,45h-13A2.5,2.5,0,0,1,15,42.5V42H12A5.506,5.506,0,0,1,6.5,36.5ZM32,42a8.007,8.007,0,0,0-5.057-7.432,3,3,0,0,1-5.886,0A8.007,8.007,0,0,0,16,42v.5A1.5,1.5,0,0,0,17.5,44H18V40.5a.5.5,0,0,1,1,0V44H29V40.5a.5.5,0,0,1,1,0V44h.5A1.5,1.5,0,0,0,32,42.5ZM13.045,26.493A12.082,12.082,0,0,0,24,33a12.165,12.165,0,0,0,10.676-6c.164-.294.317-.594.451-.9.054-.123.1-.249.15-.374.108-.276.206-.555.29-.838.037-.126.073-.251.106-.378.077-.3.137-.607.186-.913.018-.112.042-.221.056-.334A10.044,10.044,0,0,0,36,22c0-.093-.007-.185-.014-.276l-.013-.2c0-.011.005-.022.005-.033a21.36,21.36,0,0,0-.345-3.644c-.926-.455-4.208-2.26-5.4-5.5-4.532,3.406-10.383,3.78-13.246,3.733a1.079,1.079,0,0,1-.1.357.876.876,0,0,1-.493.474,1.111,1.111,0,0,1-.149.045,1.251,1.251,0,0,1-.211.036c-.031,0-.059.015-.091.015a1.555,1.555,0,0,1-.221-.021c-.288,1.444-.832,3.9-1.614,6.43v.011A12.07,12.07,0,0,1,13.045,26.493Zm1.844-12.382A3.368,3.368,0,0,0,13.057,13a.191.191,0,0,0-.075.011,3.2,3.2,0,0,0,1.129,1.881,4.5,4.5,0,0,0,1.406,1l.014,0a.971.971,0,0,0,.467.1.344.344,0,0,0,0-.058,1.274,1.274,0,0,0-.047-.234c0-.005,0-.01,0-.015A4.131,4.131,0,0,0,14.889,14.111Zm7.137,20.146a1.989,1.989,0,0,0,3.948,0,7.71,7.71,0,0,0-3.948,0Zm14.852-4.59c.233-.79.489-1.662.737-2.674a5.48,5.48,0,0,1-2.306.9,12.952,12.952,0,0,1-8.078,5.713A9.013,9.013,0,0,1,32.941,41H36a4.492,4.492,0,0,0,4.435-3.859,4.231,4.231,0,0,1-.632.05,3.573,3.573,0,0,1-1.493-.31,3.705,3.705,0,0,1-1.9-2.207C35.846,33.157,36.256,31.769,36.878,29.667ZM39,22.5a.5.5,0,0,0-.5-.5H37a11.128,11.128,0,0,1-.6,3.592c-.025.073-.059.142-.086.215-.109.3-.222.6-.356.888-.007.014-.011.029-.018.044A4.465,4.465,0,0,0,39,22.5ZM7.565,37.141A4.492,4.492,0,0,0,12,41h3.059a9.013,9.013,0,0,1,5.7-7.385,12.829,12.829,0,0,1-8.351-6.192,1.815,1.815,0,0,1-.763.556A.47.47,0,0,1,11.5,28a.5.5,0,0,1-.166-.972,2.257,2.257,0,0,0,.792-.942,57.473,57.473,0,0,0,2.653-9.442A6.177,6.177,0,0,1,13.4,15.6c-1.065-1.064-1.867-2.553-1.114-3.306s2.242.05,3.306,1.114a5.718,5.718,0,0,1,1.189,1.668c2.766.076,8.923-.229,13.4-3.956a.5.5,0,0,1,.475-.091.5.5,0,0,1,.33.354c.927,3.708,5.245,5.644,5.288,5.663a.5.5,0,0,1,.289.354,21.324,21.324,0,0,1,.416,3.6H38.5a1.5,1.5,0,0,1,.177.018c.08-.51.144-.918.176-1.1.641-3.761-.132-7.27-2.122-9.627A5.876,5.876,0,0,0,32.38,8,.5.5,0,0,1,32,7.822C30.327,5.837,28.021,4,22.508,4a13.216,13.216,0,0,0-9.669,4.246C9.924,11.532,8.82,16.308,9.557,22.44a40.406,40.406,0,0,0,1.565,7.227c.622,2.1,1.032,3.49.468,5.007a3.705,3.705,0,0,1-1.9,2.207,3.573,3.573,0,0,1-1.493.31A4.231,4.231,0,0,1,7.565,37.141Z"/></svg>
