<?xml version="1.0" encoding="UTF-8" standalone="no"?>
<svg
   viewBox="0 0 512 512"
   xmlns="http://www.w3.org/2000/svg"
   xmlns:svg="http://www.w3.org/2000/svg">
  <path
     id="path1"
     d="M 135.82617,5.621866e-7 C 124.66017,5.621866e-7 115.57422,9.0829535 115.57422,20.251953 V 166.73632 c 0,11.16801 9.08595,20.25196 20.25195,20.25196 h 88.69336 v 19.17578 H 98.304683 c 0.586,-1.596 0.95704,-3.2987 0.95704,-5.0957 V 93.296873 c 0,-8.207 -6.679723,-14.88476 -14.886723,-14.88476 H 41.390625 c -8.207,0 -14.884766,6.67776 -14.884766,14.88476 V 201.06836 c 0,1.807 0.371844,3.51904 0.964844,5.12304 C 12.277703,206.4884 1.3157387e-8,218.91954 1.3157387e-8,234.18554 V 344.95117 C 1.3157387e-8,360.40217 12.570531,372.97265 28.019531,372.97265 h 25.841797 l -9.503906,36.07617 c -0.387,1.467 -0.07253,3.03433 0.855469,4.23633 0.926999,1.202 2.356953,1.90625 3.876953,1.90625 h 27.886718 c 1.706,0 3.288735,-0.88679 4.177735,-2.34179 l 24.374993,-39.87696 h 288.19532 l 24.375,39.87696 c 0.889,1.455 2.47073,2.34179 4.17773,2.34179 h 27.88672 c 1.52,0 2.94895,-0.70425 3.87695,-1.90625 0.928,-1.202 1.24247,-2.76932 0.85547,-4.23633 l -9.50391,-36.07617 h 25.8379 0.004 c 15.501,0 28.02149,-12.61948 28.02149,-28.02148 V 234.18554 c -0.001,-15.19 -12.18066,-27.69514 -27.47266,-27.99414 0.593,-1.604 0.96484,-3.31604 0.96484,-5.12304 V 93.296873 c 0,-8.207 -6.67676,-14.88476 -14.88476,-14.88476 H 414.879 c -8.207,0 -14.88672,6.67776 -14.88672,14.88476 V 201.06836 c 0,1.797 0.37104,3.49775 0.95704,5.09375 H 274.73437 v -19.17383 h 88.69336 c 11.166,0 20.25195,-9.08491 20.25195,-20.25391 V 20.251953 C 383.67968,9.0839535 374.59373,5.621866e-7 363.42773,5.621866e-7 Z m 0,9.7890619378134 h 227.60156 c 5.769,0 10.46289,4.6938905 10.46289,10.4628905 V 166.73632 c 0,5.76901 -4.69389,10.4629 -10.46289,10.4629 H 135.82617 c -5.769,0 -10.46289,-4.6939 -10.46289,-10.4629 V 20.251953 c 0,-5.769 4.69389,-10.4628905 10.46289,-10.4628905 z M 142.34179,21.875 c -2.705,0 -4.89453,2.191531 -4.89453,4.894531 V 160.21484 c 0,2.703 2.18853,4.89649 4.89453,4.89648 h 214.57032 c 2.705,0 4.89453,-2.19348 4.89453,-4.89648 V 26.769531 c 0,-2.703 -2.18853,-4.894531 -4.89453,-4.894531 z m 4.89454,9.789062 H 352.01757 V 155.32226 H 147.23633 Z M 41.388672,88.201173 H 84.375 c 2.811,0 5.095703,2.2857 5.095703,5.0957 V 201.06836 c 0,2.811 -2.285703,5.09375 -5.095703,5.09375 H 41.390625 c -2.811,0 -5.095703,-2.28375 -5.095703,-5.09375 V 93.296873 c 0,-2.811 2.28375,-5.0957 5.09375,-5.0957 z m 373.490228,0 h 42.98438 c 2.811,0 5.0957,2.2857 5.0957,5.0957 V 201.06836 c 0,2.811 -2.2857,5.09375 -5.0957,5.09375 H 414.8789 c -2.811,0 -5.0957,-2.28375 -5.0957,-5.09375 V 93.296873 c 0,-2.811 2.2857,-5.0957 5.0957,-5.0957 z M 62.884765,102.7832 c -9.960999,0 -18.062499,8.10545 -18.0625,18.06445 -9.99e-4,9.958 8.100501,18.0625 18.0625,18.0625 9.961,0 18.062501,-8.1035 18.0625,-18.0625 0,-9.959 -8.1015,-18.06445 -18.0625,-18.06445 z m 373.484375,0 c -9.961,0 -18.0625,8.10545 -18.0625,18.06445 0,9.958 8.1015,18.0625 18.0625,18.0625 9.961,0 18.0625,-8.1035 18.0625,-18.0625 0,-9.959 -8.1015,-18.06445 -18.0625,-18.06445 z m -373.484375,9.78906 c 4.560001,0 8.273438,3.71144 8.273438,8.27344 0,4.562 -3.713437,8.27344 -8.273438,8.27344 -4.56,0 -8.273437,-3.71144 -8.273437,-8.27344 0,-4.562 3.713437,-8.27344 8.273437,-8.27344 z m 373.484375,0 c 4.56,0 8.27343,3.71144 8.27343,8.27344 0,4.562 -3.71343,8.27344 -8.27343,8.27344 -4.56,0 -8.27344,-3.71144 -8.27344,-8.27344 0,-4.562 3.71344,-8.27344 8.27344,-8.27344 z M 62.884765,155.45703 c -9.960999,0 -18.062499,8.10545 -18.0625,18.06445 -9.99e-4,9.959 8.100501,18.06055 18.0625,18.06055 9.961,0 18.062501,-8.10155 18.0625,-18.06055 0,-9.959 -8.1015,-18.06445 -18.0625,-18.06445 z m 373.484375,0 c -9.961,0 -18.0625,8.10545 -18.0625,18.06445 0,9.959 8.1015,18.06055 18.0625,18.06055 9.961,0 18.0625,-8.10155 18.0625,-18.06055 0,-9.959 -8.1015,-18.06445 -18.0625,-18.06445 z m -373.484375,9.78906 c 4.560001,0 8.273438,3.71339 8.273438,8.27539 0,4.56 -3.713437,8.27149 -8.273438,8.27149 -4.56,0 -8.273437,-3.71149 -8.273437,-8.27149 0,-4.562 3.713437,-8.27539 8.273437,-8.27539 z m 373.484375,0 c 4.56,0 8.27343,3.71339 8.27343,8.27539 0,4.56 -3.71343,8.27149 -8.27343,8.27149 -4.56,0 -8.27344,-3.71149 -8.27344,-8.27149 0,-4.562 3.71344,-8.27539 8.27344,-8.27539 z m -202.0625,21.74219 h 30.64062 v 19.17578 H 234.30664 Z M 28.019531,215.95312 H 149.77343 V 363.18359 H 28.019531 c -10.052,0 -18.2304689,-8.17742 -18.2304689,-18.23242 V 234.18554 c 0,-10.055 8.1774689,-18.23242 18.2304689,-18.23242 z m 131.542969,0 H 339.68945 V 363.18359 H 322.55468 V 315.9082 c 0,-2.703 -2.19048,-4.89453 -4.89648,-4.89453 h -63.48047 c -2.705,0 -4.89648,2.19153 -4.89648,4.89453 v 47.27539 H 159.5625 Z m 189.91797,0 h 121.75 c 10.055,0 18.23437,8.17542 18.23437,18.23242 v 110.76563 c 0,10.055 -8.17737,18.23242 -18.23437,18.23242 h -121.75 z m -90.35938,8.0586 c -0.63461,-0.0512 -1.29175,0.0195 -1.9375,0.23046 l -20.92773,6.94727 c -0.859,-0.744 -1.94488,-1.23828 -3.17188,-1.23828 h -55.50586 c -2.705,0 -4.89453,2.19153 -4.89453,4.89453 v 54.72266 c 0,2.703 2.18853,4.89453 4.89453,4.89453 h 55.50586 c 2.705,0 4.89453,-2.19153 4.89453,-4.89453 v -19.55274 l 7.00391,21.09375 c 0.848,2.549 3.60445,3.96247 6.18945,3.10547 l 26.33789,-8.74219 c 2.562,-0.853 3.95256,-3.6225 3.10157,-6.1875 L 263.375,227.34961 c -0.642,-1.92375 -2.35008,-3.18419 -4.25391,-3.33789 z m -3.49609,11.0664 14.15429,42.64453 -17.05078,5.65821 -14.1582,-42.64454 z m -73.15039,4.66211 h 17.96289 v 44.93359 h -17.96289 z m 27.75195,0 h 17.70117 l 0.26172,0.78711 v 44.14648 H 210.22656 Z M 111.5,260.34375 c -2.706,0 -4.89453,2.19153 -4.89453,4.89453 0,2.703 2.18953,4.89453 4.89453,4.89453 h 10.3789 V 309 H 111.5 c -2.706,0 -4.89453,2.19153 -4.89453,4.89453 0,2.703 2.18953,4.89453 4.89453,4.89453 h 15.27343 c 2.706,0 4.89454,-2.18958 4.89454,-4.89258 v -48.6582 c 0,-2.703 -2.18954,-4.89453 -4.89454,-4.89453 z m 259.3164,0 c -2.706,0 -4.89453,2.19348 -4.89453,4.89648 v 48.6543 c 0,2.703 2.18953,4.89453 4.89453,4.89453 h 15.27344 c 2.706,0 4.89453,-2.18958 4.89453,-4.89258 0,-2.703 -2.18953,-4.89648 -4.89453,-4.89648 h -10.37695 v -38.86524 h 10.37695 c 2.706,0 4.89453,-2.19153 4.89453,-4.89453 0,-2.703 -2.18953,-4.89648 -4.89453,-4.89648 z m -111.74414,60.45898 h 53.69336 v 41.74414 H 259.07226 Z M 63.984375,372.97265 H 94.054683 L 74.232422,405.40234 H 55.441406 Z m 341.214845,0 h 30.07031 l 8.54297,32.42969 h -18.79102 z" />
</svg>
