<?xml version="1.0" encoding="UTF-8" standalone="no"?>
<svg
   viewBox="0 0 512 512"
   xmlns="http://www.w3.org/2000/svg"
   xmlns:svg="http://www.w3.org/2000/svg">
  <path
     id="_278938328"
     d="m 35.314453,4.0371099 c -3.092624,0 -5.498046,2.4054218 -5.498046,5.4980466 V 258.0918 c 0,3.09262 2.405422,5.49608 5.498046,5.49608 H 476.18554 c 3.09263,0 5.49806,-2.518 5.49806,-5.49608 V 9.5351565 c 0,-3.0926248 -2.51997,-5.4980466 -5.49806,-5.4980466 z M 40.8125,14.917969 h 429.875 V 252.59375 H 40.8125 Z m 25.199219,19.701172 c -3.092625,0 -5.498047,2.405422 -5.498047,5.498047 V 227.39453 c 0,3.09262 2.405422,5.49805 5.498047,5.49805 H 445.48829 c 3.09262,0 5.49873,-2.51997 5.61327,-5.49805 V 40.117188 c 0,-2.978084 -2.40542,-5.498047 -5.49805,-5.498047 z m 5.498047,10.996093 H 440.10547 V 221.89648 H 71.509766 Z M 208.95898,74.166016 c -0.94497,0 -1.88898,0.258 -2.74804,0.773438 -1.71812,1.030874 -2.75001,2.863338 -2.75001,4.810546 v 108.01172 c 0,2.06175 1.03189,3.77967 2.75001,4.81054 0.80179,0.45817 1.83171,0.6875 2.74804,0.6875 1.03087,0 1.94822,-0.22807 2.75001,-0.80078 l 93.46483,-53.94921 c 1.71813,-1.03088 2.75001,-2.86334 2.75001,-4.81055 0,-2.06175 -1.03188,-3.77968 -2.75001,-4.81055 L 211.70899,74.939454 c -0.85907,-0.515438 -1.80504,-0.773438 -2.75001,-0.773438 z m 5.49806,15.08984 76.97264,44.443364 -76.97264,44.4414 z M 65.783203,281.68555 c -3.092625,0 -5.498047,2.40542 -5.498047,5.49804 V 391.41797 H 45.394532 c -5.956167,0 -10.88086,4.81015 -10.88086,10.88086 v 72.61914 c 0,3.09262 2.405422,5.49804 5.498047,5.49804 h 18.554687 v 21.64845 c 0,3.09262 2.405423,5.49804 5.498048,5.49804 h 36.195316 c 2.97808,0 5.49804,-2.40542 5.49804,-5.49804 v -21.64845 h 299.98438 v 21.64845 c 0,3.09262 2.51996,5.49804 5.49805,5.49804 h 36.19531 c 3.09263,0 5.49805,-2.40542 5.49805,-5.49804 v -21.64845 h 18.55468 c 3.09263,0 5.49805,-2.40542 5.49805,-5.49804 v -72.61914 c 0,-5.95616 -4.81016,-10.88086 -10.88087,-10.88086 H 451.33008 V 287.18359 c 0,-2.97808 -2.51996,-5.49804 -5.49804,-5.49804 h -88.19728 c -3.09262,0 -5.49804,2.40542 -5.49804,5.49804 v 104.23438 h -17.86914 v -67.58008 c 0,-2.97809 -2.40542,-5.49805 -5.49805,-5.49805 H 182.84376 c -3.09263,0 -5.49806,2.40542 -5.49806,5.49805 v 67.58008 H 159.47852 V 287.18359 c 0,-2.97808 -2.40542,-5.49804 -5.49805,-5.49804 z m 5.498048,10.99609 h 77.201179 v 98.73633 H 71.281251 Z m 291.851559,0 h 77.20117 v 98.73633 h -77.20117 z m -282.574217,4.69727 c -2.978083,0 -5.498046,2.40542 -5.498046,5.49805 0,3.09262 2.405422,5.49804 5.498046,5.49804 h 5.154297 c 2.978083,0 5.49874,-2.40542 5.613282,-5.49804 0,-2.97809 -2.405421,-5.49805 -5.498047,-5.49805 z m 53.490227,0 c -3.09262,0 -5.49804,2.40542 -5.49804,5.49805 0,3.09262 2.51996,5.49804 5.49804,5.49804 h 5.26954 c 2.97808,0 5.49805,-2.51996 5.49805,-5.49804 0,-2.97809 -2.51997,-5.49805 -5.49805,-5.49805 z m 238.24806,0 c -2.97809,0 -5.49805,2.40542 -5.49805,5.49805 0,3.09262 2.40542,5.49804 5.49805,5.49804 h 5.15429 c 3.09262,0 5.49679,-2.40542 5.61133,-5.49804 0,-2.97809 -2.40542,-5.49805 -5.49805,-5.49805 z m 53.60547,0 c -2.97808,0 -5.49806,2.40542 -5.49806,5.49805 0,3.09262 2.40543,5.49804 5.49806,5.49804 h 5.15429 c 3.09263,0 5.49679,-2.40542 5.61133,-5.49804 0,-2.97809 -2.40542,-5.49805 -5.49804,-5.49805 z m -316.02149,13.17187 c -17.410337,0 -31.498047,14.08967 -31.498047,31.5 0,17.41033 14.08771,31.49805 31.498047,31.49805 17.41033,0 31.49999,-14.20226 31.49999,-31.49805 0,-17.41033 -14.08966,-31.5 -31.49999,-31.5 z m 291.73828,0 c -17.41033,0 -31.5,14.08967 -31.5,31.5 0,17.41033 14.08967,31.49805 31.5,31.49805 17.41033,0 31.61259,-14.20226 31.49805,-31.49805 0,-17.41033 -14.08772,-31.5 -31.49805,-31.5 z m -291.73828,10.99609 c 11.33962,0 20.5039,9.16428 20.5039,20.50391 0,11.33962 -9.16428,20.50196 -20.5039,20.50196 -11.339629,0 -20.501954,-9.16234 -20.501954,-20.50196 0,-11.33963 9.162325,-20.50391 20.501954,-20.50391 z m 291.73828,0 c 11.33962,0 20.61649,9.16428 20.50195,20.50391 0,11.33962 -9.16233,20.50196 -20.50195,20.50196 -11.33963,0 -20.50391,-9.16234 -20.50391,-20.50196 0,-11.33963 9.16428,-20.50391 20.50391,-20.50391 z m -291.73828,5.72657 c -8.13246,0 -14.775386,6.64488 -14.775386,14.77734 0,8.13246 6.642926,14.77539 14.775386,14.77539 8.13245,0 14.77539,-6.64293 14.77539,-14.77539 0,-8.13246 -6.64294,-14.77734 -14.77539,-14.77734 z m 291.73828,0 c -8.13246,0 -14.77539,6.64488 -14.77539,14.77734 0,8.13246 6.64293,14.77539 14.77539,14.77539 8.247,0 14.77539,-6.64293 14.77539,-14.77539 0,-8.13246 -6.64293,-14.77734 -14.77539,-14.77734 z m -213.27734,2.0625 h 134.92969 v 16.3789 H 188.3418 Z m -78.46094,8.93359 c 2.06175,0 3.7793,1.7195 3.7793,3.78125 0,2.06175 -1.71755,3.7793 -3.7793,3.7793 -2.06175,0 -3.7793,-1.71755 -3.7793,-3.7793 0,-2.06175 1.71755,-3.78125 3.7793,-3.78125 z m 291.73828,0 c 2.17629,0 3.7793,1.7195 3.7793,3.78125 0,2.06175 -1.71755,3.7793 -3.7793,3.7793 -2.06175,0 -3.77929,-1.71755 -3.77929,-3.7793 0,-2.06175 1.71754,-3.78125 3.77929,-3.78125 z M 188.3418,356.71094 h 134.92969 v 34.70703 H 188.3418 Z m 55.55273,11.79882 c -3.09263,0 -5.49805,2.40542 -5.49805,5.49805 0,3.09262 2.40542,5.49804 5.49805,5.49804 h 9.85157 c 2.97808,0 5.49804,-2.40542 5.49804,-5.49804 0,-2.97808 -2.51996,-5.49805 -5.49804,-5.49805 z m 28.63672,0 c -2.97808,0 -5.49805,2.40542 -5.49805,5.49805 0,3.09262 2.51997,5.49804 5.49805,5.49804 h 9.84961 c 3.09262,0 5.49804,-2.40542 5.49804,-5.49804 0,-2.97808 -2.40542,-5.49805 -5.49804,-5.49805 z m 28.75,0 c -2.97808,0 -5.49804,2.40542 -5.49804,5.49805 0,3.09262 2.40542,5.49804 5.49804,5.49804 h 9.84961 c 2.97808,0 5.49805,-2.40542 5.49805,-5.49804 0,-2.97808 -2.51997,-5.49805 -5.49805,-5.49805 z m -220.722657,7.21485 c -2.978083,0 -5.498046,2.40542 -5.498046,5.49804 0,3.09263 2.405422,5.49806 5.498046,5.49806 h 5.154297 c 2.978083,0 5.49874,-2.51998 5.613282,-5.49806 0,-2.97808 -2.405421,-5.49804 -5.498047,-5.49804 z m 53.490227,0 c -3.09262,0 -5.49804,2.40542 -5.49804,5.49804 0,3.09263 2.51996,5.49806 5.49804,5.49806 h 5.26954 c 2.97808,0 5.49805,-2.51998 5.49805,-5.49806 0,-2.97808 -2.51997,-5.49804 -5.49805,-5.49804 z m 238.24806,0 c -2.97809,0 -5.49805,2.40542 -5.49805,5.49804 0,3.09263 2.40542,5.49806 5.49805,5.49806 h 5.15429 c 3.09262,0 5.49679,-2.51998 5.61133,-5.49806 0,-2.97808 -2.40542,-5.49804 -5.49805,-5.49804 z m 53.60547,0 c -2.97808,0 -5.49806,2.40542 -5.49806,5.49804 0,3.09263 2.40543,5.49806 5.49806,5.49806 h 5.15429 c 3.09263,0 5.49679,-2.51998 5.61133,-5.49806 0,-2.97808 -2.40542,-5.49804 -5.49804,-5.49804 z m 40.20311,26.57422 v 67.12109 H 45.507812 v -67.00586 l 20.222657,-0.006 c 0.01796,1.9e-4 0.03474,0.006 0.05273,0.006 0.01869,0 0.03603,-0.006 0.05468,-0.006 l 87.849601,-0.0235 c 0.0987,0.006 0.19308,0.0293 0.29298,0.0293 0.0954,0 0.18491,-0.0242 0.27929,-0.0293 l 28.22852,-0.008 c 0.11973,0.008 0.23407,0.0371 0.35547,0.0371 0.1285,0 0.25032,-0.0283 0.37695,-0.0371 l 144.75391,-0.041 c 0.26169,0.0364 0.52127,0.0781 0.79492,0.0781 0.25107,0 0.493,-0.0435 0.73633,-0.0781 l 27.31836,-0.008 c 0.26683,0.0418 0.53416,0.0859 0.81054,0.0859 0.29301,0 0.5772,-0.041 0.85937,-0.0859 l 86.2129,-0.0235 c 0.36174,0.0718 0.73842,0.10939 1.125,0.10939 0.35549,0 0.70085,-0.0411 1.03711,-0.10939 z M 69.5625,480.41601 h 25.199223 v 16.1504 H 69.5625 Z m 347.17578,0 h 25.19923 v 16.1504 h -25.19923 z"
     style="stroke-width:1.14542" />
</svg>
