<svg id="Layer_1" enable-background="new 0 0 512 512" height="512" viewBox="0 0 512 512" width="512" xmlns="http://www.w3.org/2000/svg"><g id="_x31_1_Router"><g><g><path d="m226.921 407.411h-8.995c-1.799 0-3.257-1.458-3.257-3.257s1.458-3.257 3.257-3.257h8.995c1.799 0 3.257 1.458 3.257 3.257s-1.458 3.257-3.257 3.257z"/></g><g><path d="m200.804 407.411h-45.576c-1.799 0-3.257-1.458-3.257-3.257s1.458-3.257 3.257-3.257h45.576c1.799 0 3.257 1.458 3.257 3.257s-1.458 3.257-3.257 3.257z"/></g><g><path d="m508.743 365.975c-1.799 0-3.257 1.458-3.257 3.257v20.003c0 12.973-4.61 25.574-12.982 35.483-1.161 1.375-.988 3.429.385 4.589 1.37 1.158 3.426.992 4.589-.385 9.366-11.083 14.522-25.177 14.522-39.687v-20.003c.001-1.799-1.457-3.257-3.257-3.257z"/><path d="m479.543 435.978c-2.67 1.702-5.533 3.173-8.513 4.369-1.669.671-2.479 2.567-1.809 4.236.667 1.656 2.549 2.483 4.236 1.809 3.353-1.347 6.58-3.003 9.59-4.924 1.516-.967 1.962-2.981.993-4.498-.967-1.516-2.982-1.959-4.497-.992z"/><path d="m450.354 290.124h-15.799v-215.758c0-10.763-8.756-19.519-19.519-19.519s-19.519 8.756-19.519 19.519v215.758h-300.775v-215.758c0-10.763-8.756-19.519-19.519-19.519s-19.52 8.755-19.52 19.519v215.758h-15.798c-22.004 0-39.905 17.901-39.905 39.904v59.215c0 22.003 17.901 39.905 39.905 39.905h15.799v7.706c0 11.193 9.106 20.299 20.298 20.299h35.731c11.193 0 20.299-9.106 20.299-20.299v-7.706h226.198v7.706c0 11.193 9.106 20.299 20.299 20.299h35.729c11.193 0 20.299-9.106 20.299-20.299v-7.706h15.799c22.003 0 39.905-17.901 39.905-39.905v-59.215c-.002-22.004-17.903-39.904-39.907-39.904zm-48.323-215.758c0-7.17 5.835-13.005 13.005-13.005s13.005 5.835 13.005 13.005v215.758h-26.01zm-339.814 0c0-7.17 5.835-13.005 13.005-13.005s13.005 5.835 13.005 13.005v215.758h-26.01zm63.299 362.488c0 7.601-6.185 13.785-13.785 13.785h-35.73c-7.601 0-13.783-6.185-13.783-13.785v-7.706h63.299v7.706zm302.525 0c0 7.601-6.185 13.785-13.785 13.785h-35.729c-7.601 0-13.785-6.185-13.785-13.785v-7.706h63.299zm55.704-47.61c0 18.412-14.978 33.391-33.391 33.391-95.072 0-316.931 0-410.45 0-18.412 0-33.391-14.978-33.391-33.391v-59.215c0-18.412 14.978-33.391 33.391-33.391h410.45c18.412 0 33.391 14.978 33.391 33.391z"/><path d="m113.27 344.405c-1.396 1.135-1.606 3.187-.47 4.581 3.761 4.621 5.749 10.215 5.749 16.177 0 14.157-11.508 25.675-25.651 25.675-14.157 0-25.675-11.518-25.675-25.675 0-5.96 1.991-11.552 5.759-16.176 1.137-1.395.927-3.445-.467-4.581-1.396-1.137-3.445-.926-4.581.467-4.66 5.715-7.224 12.921-7.224 20.29 0 17.748 14.44 32.188 32.188 32.188 17.737 0 32.165-14.44 32.165-32.188 0-7.37-2.561-14.575-7.212-20.289-1.134-1.393-3.183-1.608-4.581-.469z"/><path d="m92.888 366.3c1.799 0 3.257-1.458 3.257-3.257v-37.866c0-1.799-1.458-3.257-3.257-3.257s-3.257 1.458-3.257 3.257v37.866c0 1.799 1.458 3.257 3.257 3.257z"/><path d="m220.845 356.378h-25.782c-1.799 0-3.257 1.458-3.257 3.257s1.458 3.257 3.257 3.257h25.782c1.799 0 3.257-1.458 3.257-3.257.001-1.799-1.457-3.257-3.257-3.257z"/><path d="m289.328 356.378h-25.782c-1.799 0-3.257 1.458-3.257 3.257s1.458 3.257 3.257 3.257h25.782c1.799 0 3.257-1.458 3.257-3.257s-1.459-3.257-3.257-3.257z"/><path d="m357.809 356.378h-25.781c-1.799 0-3.257 1.458-3.257 3.257s1.458 3.257 3.257 3.257h25.781c1.799 0 3.257-1.458 3.257-3.257-.001-1.799-1.459-3.257-3.257-3.257z"/><path d="m426.291 356.378h-25.782c-1.799 0-3.257 1.458-3.257 3.257s1.458 3.257 3.257 3.257h25.782c1.799 0 3.257-1.458 3.257-3.257-.001-1.799-1.459-3.257-3.257-3.257z"/><path d="m37.229 205.57c1.799 0 3.257-1.458 3.257-3.257v-51.907c0-1.799-1.458-3.257-3.257-3.257s-3.257 1.458-3.257 3.257v51.907c-.001 1.799 1.458 3.257 3.257 3.257z"/><path d="m37.229 135.59c1.799 0 3.257-1.458 3.257-3.257v-9.485c0-1.799-1.458-3.257-3.257-3.257s-3.257 1.458-3.257 3.257v9.485c-.001 1.799 1.458 3.257 3.257 3.257z"/><path d="m174.259 149.84c39.076-39.076 102.66-39.075 141.739.001 1.272 1.272 3.333 1.272 4.605 0s1.272-3.333 0-4.605c-41.62-41.617-109.336-41.616-150.951-.001-1.272 1.272-1.272 3.333 0 4.605 1.273 1.272 3.335 1.272 4.607 0z"/><path d="m304.698 165.748c1.272-1.272 1.272-3.333 0-4.605-32.845-32.846-86.289-32.848-119.136-.001-1.272 1.272-1.272 3.333 0 4.605s3.333 1.272 4.605 0c30.305-30.305 79.617-30.304 109.925.001 1.272 1.272 3.333 1.272 4.606 0z"/><path d="m288.791 181.655c1.272-1.272 1.272-3.333 0-4.605-24.071-24.071-63.224-24.099-87.322-.001-1.272 1.272-1.272 3.333 0 4.605s3.333 1.272 4.605 0c21.534-21.534 56.574-21.533 78.111.001 1.271 1.272 3.333 1.273 4.606 0z"/><path d="m272.883 197.562c1.272-1.272 1.272-3.333 0-4.605-15.304-15.304-40.206-15.306-55.508-.001-1.272 1.272-1.272 3.333 0 4.605s3.333 1.272 4.605 0c12.763-12.763 33.531-12.762 46.297.001 1.272 1.273 3.333 1.273 4.606 0z"/><path d="m228.374 220.71c0 9.238 7.516 16.755 16.755 16.755 9.238 0 16.755-7.516 16.755-16.755 0-9.238-7.516-16.755-16.755-16.755-9.238 0-16.755 7.517-16.755 16.755zm26.995 0c0 5.646-4.594 10.24-10.24 10.24s-10.24-4.594-10.24-10.24 4.594-10.24 10.24-10.24 10.24 4.594 10.24 10.24z"/></g></g></g></svg>