<svg id="Layer_1" enable-background="new 0 0 64 64" height="512" viewBox="0 0 64 64" width="512" xmlns="http://www.w3.org/2000/svg"><g><path d="m32 13c-1.334 0-2.588.521-3.534 1.465-.391.391-.391 1.024 0 1.415s1.024.39 1.415 0c1.136-1.136 3.104-1.136 4.24 0 .195.195.451.292.707.292s.512-.098.708-.293c.39-.391.39-1.024 0-1.415-.948-.943-2.203-1.464-3.536-1.464z"/><path d="m32 9c-2.404 0-4.664.936-6.364 2.636-.391.391-.391 1.024 0 1.414.391.391 1.023.391 1.414 0 1.323-1.322 3.08-2.05 4.95-2.05s3.627.728 4.95 2.05c.195.195.451.293.707.293s.512-.098.707-.293c.391-.391.391-1.023 0-1.414-1.7-1.7-3.96-2.636-6.364-2.636z"/><path d="m31.29 17.29c-.18.19-.29.45-.29.71 0 .27.11.52.29.71.19.18.45.29.71.29s.52-.11.71-.29c.18-.19.29-.45.29-.71s-.11-.52-.29-.71c-.37-.37-1.04-.37-1.42 0z"/><path d="m32.707 46.293c-.391-.391-1.023-.391-1.414 0l-4 4c-.286.286-.372.716-.217 1.09.155.373.52.617.924.617h8c.404 0 .769-.244.924-.617.155-.374.069-.804-.217-1.09zm-2.293 3.707 1.586-1.586 1.586 1.586z"/><path d="m36 54h-8c-.404 0-.769.244-.924.617-.155.374-.069.804.217 1.09l4 4c.195.195.451.293.707.293s.512-.098.707-.293l4-4c.286-.286.372-.716.217-1.09-.155-.373-.52-.617-.924-.617zm-4 3.586-1.586-1.586h3.172z"/><path d="m61 4h-58c-1.654 0-3 1.346-3 3v52c0 .552.448 1 1 1h13c.552 0 1-.448 1-1v-15h34v15c0 .552.448 1 1 1h13c.552 0 1-.448 1-1v-52c0-1.654-1.346-3-3-3zm-12 30h-34v-2h34zm0-4h-34v-2h34zm-34 6h34v2h-34zm34-10h-34v-2h34zm-34 16v-2h34v2zm47 16h-11v-15-20c0-.552-.448-1-1-1h-36c-.552 0-1 .448-1 1v20 15h-11v-51c0-.551.449-1 1-1h58c.551 0 1 .449 1 1z"/></g></svg>