<svg id="Fork_and_Spoon" viewBox="0 0 96 96" xmlns="http://www.w3.org/2000/svg" data-name="Fork and Spoon"><path d="m35.01 4c-8.68.25-12.73 14.55-12.65 22.5 0 4.89 2.34 9.75 5.96 12.39 1.88 1.37 3 3.52 3 5.74v26.66c-.02 3.56-1.8 7.98-1.79 11.58.03 3.62.76 9.18 5.5 9.13 4.79 0 5.4-5.48 5.46-9.13.01-3.6-1.77-8.02-1.79-11.58v-26.66c0-2.22 1.12-4.37 3-5.74 3.62-2.64 5.96-7.51 5.96-12.39.09-7.95-3.98-22.25-12.65-22.5zm5.51 33.28c-2.39 1.75-3.82 4.5-3.82 7.36v26.66c0 1.91.47 4.02.93 6.06.95 3.78 1.23 6.92.13 10.6-.43 1.5-1.97 2.36-3.52 1.95-.95-.25-1.72-1.06-2.01-2.1-.46-1.67-.69-3.33-.69-4.93.04-3.56 1.81-7.96 1.79-11.58v-26.66c0-2.86-1.43-5.61-3.82-7.36-3.12-2.28-5.14-6.51-5.14-10.78-.04-6.19 3-19.99 10.65-20.5 7.63.47 10.7 14.38 10.65 20.5 0 4.27-2.02 8.5-5.14 10.78z"/><path d="m69.4 4.4c-.54-.76-1.83-.33-1.8.6v24.4c0 .44-.36.79-.79.79h-1.09v-25.19c0-.55-.45-1-1-1s-1 .45-1 1v25.19h-1.88v-25.19c0-.55-.45-1-1-1s-1 .45-1 1v25.19h-1.09c-.44 0-.79-.36-.79-.79v-24.4c0-.43-.27-.81-.68-.95-.4-.14-.86 0-1.12.35-4.03 5.33-4.23 19.35-4.23 22.1 0 5.76 1.65 10.23 4.65 12.58 1.57 1.24 2.51 3.25 2.51 5.37v26.84c-.02 3.56-1.8 7.98-1.79 11.58 0 1.76.25 3.57.75 5.39 1.19 4.8 8.04 5 9.4.23.54-1.9.81-3.79.81-5.62.01-3.6-1.77-8.02-1.79-11.58v-26.84c0-2.12.94-4.13 2.51-5.37 3-2.36 4.65-6.83 4.65-12.58 0-2.75-.2-16.77-4.23-22.1zm-1.66 33.12c-2.05 1.62-3.28 4.21-3.28 6.94v26.84c-.02 3.61 1.75 8.02 1.79 11.58 0 1.65-.25 3.36-.74 5.08-.42 1.48-1.94 2.34-3.47 1.96-2.72-.82-2.58-4.79-2.75-7.04.04-3.56 1.81-7.96 1.79-11.58v-26.84c0-2.73-1.23-5.33-3.28-6.94-2.47-1.94-3.89-5.96-3.89-11.01 0-5.47.56-12.37 2.03-17.06v19.95c0 1.54 1.25 2.79 2.79 2.79h8.06c1.54 0 2.79-1.25 2.79-2.79v-19.96c1.47 4.69 2.03 11.59 2.03 17.06 0 5.06-1.42 9.07-3.89 11.01z"/></svg>