<?xml version="1.0" encoding="UTF-8" standalone="no"?>
<svg
   viewBox="0 0 512 512"
   xmlns="http://www.w3.org/2000/svg"
   xmlns:svg="http://www.w3.org/2000/svg">
  <path
     id="path1"
     d="M 109.22653,4 C 99.805474,4 92.097334,11.70814 92.097334,21.1292 v 5.709734 h -34.2584 C 45.220423,26.838934 35,37.059356 35,49.677867 V 460.77867 c 0,12.61851 10.220423,22.83894 22.838934,22.83894 h 22.838933 v 5.70973 c 0,9.42106 7.70814,17.1292 17.129201,17.1292 h 17.129202 c 9.42106,0 17.1292,-7.70814 17.1292,-17.1292 v -5.70973 h 251.22827 v 5.70973 c 0,9.42106 7.70814,17.1292 17.1292,17.1292 h 17.1292 c 9.42106,0 17.1292,-7.70814 17.1292,-17.1292 v -5.70973 h 22.83893 c 12.61851,0 22.83894,-10.22043 22.83894,-22.83894 V 49.677867 c 0,-12.618511 -10.22043,-22.838933 -22.83894,-22.838933 h -34.2584 V 21.1292 C 423.26187,11.70814 415.55373,4 406.13267,4 H 297.64774 c -9.42106,0 -17.1292,7.70814 -17.1292,17.1292 v 5.709734 H 234.84067 V 21.1292 C 234.84067,11.70814 227.13253,4 217.71147,4 Z m 0,11.419467 h 108.48494 c 3.14035,0 5.70973,2.56938 5.70973,5.709733 v 5.709734 H 103.5168 V 21.1292 c 0,-3.140353 2.56938,-5.709733 5.70973,-5.709733 z m 188.42121,0 h 108.48493 c 3.14036,0 5.70974,2.56938 5.70974,5.709733 v 5.709734 H 291.938 V 21.1292 c 0,-3.140353 2.56938,-5.709733 5.70974,-5.709733 z M 57.838934,38.2584 h 228.389336 171.292 c 6.28071,0 11.41947,5.138761 11.41947,11.419467 V 112.48493 H 46.419467 V 49.677867 c 0,-6.280706 5.13876,-11.419467 11.419467,-11.419467 z M 120.646,55.387601 c -22.610543,0.570973 -22.553446,33.687427 0,34.2584 22.61055,-0.570973 22.61055,-33.687427 0,-34.2584 z m 68.5168,0 c -22.61054,0.570973 -22.55344,33.687427 0,34.2584 22.61055,-0.570973 22.61055,-33.687427 0,-34.2584 z m 68.5168,0 c -22.61054,0.570973 -22.55344,33.687427 0,34.2584 22.61055,-0.570973 22.61055,-33.687427 0,-34.2584 z m 68.5168,0 c -22.61054,0.570973 -22.55344,33.687427 0,34.2584 22.61055,-0.570973 22.61055,-33.687427 0,-34.2584 z m 68.5168,0 c -22.61054,0.570973 -22.55344,33.687427 0,34.2584 22.61055,-0.570973 22.61055,-33.687427 0,-34.2584 z M 120.646,66.807068 c 7.47975,0.114194 7.47975,11.305272 0,11.419466 -7.47975,-0.114194 -7.47975,-11.305272 0,-11.419466 z m 68.5168,0 c 7.47975,0.114194 7.47975,11.305272 0,11.419466 -7.47975,-0.114194 -7.47975,-11.305272 0,-11.419466 z m 68.5168,0 c 7.47975,0.114194 7.47975,11.305272 0,11.419466 -7.47975,-0.114194 -7.47975,-11.305272 0,-11.419466 z m 68.5168,0 c 7.47975,0.114194 7.47975,11.305272 0,11.419466 -7.47975,-0.114194 -7.47975,-11.305272 0,-11.419466 z m 68.5168,0 c 7.47976,0.114194 7.47976,11.305272 0,11.419466 -7.47975,-0.114194 -7.47975,-11.305272 0,-11.419466 z M 46.419467,123.9044 H 468.93974 v 336.87427 c 0,6.28071 -5.13876,11.41947 -11.41947,11.41947 H 86.387601 57.838934 c -6.280707,0 -11.419467,-5.13876 -11.419467,-11.41947 z m 102.775203,22.83894 c -12.61851,0 -22.83894,10.22042 -22.83894,22.83893 v 5.70973 c 0,3.14036 2.56938,5.70974 5.70974,5.70974 h 251.22827 c 3.14035,0 5.70973,-2.56938 5.70973,-5.70974 v -5.70973 c 0,-12.61851 -10.22042,-22.83893 -22.83893,-22.83893 z m 0,11.41946 h 216.96987 c 6.2807,0 11.41946,5.13876 11.41946,11.41947 H 137.7752 c 0,-6.28071 5.13876,-11.41947 11.41947,-11.41947 z m -34.2584,45.67787 c -15.758866,0 -28.548669,12.7898 -28.548669,28.54867 v 177.00173 c 0,15.75887 12.789803,28.54867 28.548669,28.54867 h 285.48667 c 15.75886,0 28.54867,-12.7898 28.54867,-28.54867 V 232.38934 c 0,-15.75887 -12.78981,-28.54867 -28.54867,-28.54867 z m 0,11.41947 h 285.48667 c 9.42106,0 17.1292,7.70814 17.1292,17.1292 v 177.00173 c 0,9.42106 -7.70814,17.1292 -17.1292,17.1292 H 114.93627 c -9.42106,0 -17.129202,-7.70814 -17.129202,-17.1292 V 232.38934 c 0,-9.42106 7.708142,-17.1292 17.129202,-17.1292 z m 141.77312,54.34283 c -1.83001,0.13494 -3.57304,1.1531 -4.57224,2.86602 l -55.89294,96.84243 c -1.59873,2.74067 -0.63298,6.2187 2.10769,7.81743 2.68358,1.54162 6.22986,0.69007 7.82859,-2.1077 l 55.89293,-96.84243 c 1.59873,-2.74067 0.63298,-6.2187 -2.10769,-7.81742 -1.02775,-0.59953 -2.15833,-0.83929 -3.25634,-0.75833 z m 57.09734,0 c -1.83002,0.13494 -3.57304,1.1531 -4.57225,2.86602 l -55.89294,96.84243 c -1.59872,2.74067 -0.63297,6.2187 2.1077,7.81743 2.68357,1.54162 6.22985,0.69007 7.82858,-2.1077 l 55.89293,-96.84243 c 1.59873,-2.74067 0.63299,-6.2187 -2.10769,-7.81742 -1.02775,-0.59953 -2.15832,-0.83929 -3.25633,-0.75833 z M 92.097334,483.61761 H 120.646 v 5.70973 c 0,3.14035 -2.56938,5.70973 -5.70973,5.70973 H 97.807068 c -3.140354,0 -5.709734,-2.56938 -5.709734,-5.70973 z m 302.615866,0 h 28.54867 v 5.70973 c 0,3.14035 -2.56938,5.70973 -5.70973,5.70973 h -17.1292 c -3.14035,0 -5.70974,-2.56938 -5.70974,-5.70973 z"
     style="stroke-width:5.70973" />
</svg>
