<svg id="Stove" viewBox="0 0 96 96" xmlns="http://www.w3.org/2000/svg"><path d="m83 8h-6v-1c0-1.65-1.35-3-3-3h-19c-1.65 0-3 1.35-3 3v1h-8v-1c0-1.65-1.35-3-3-3h-19c-1.65 0-3 1.35-3 3v1h-6c-2.21 0-4 1.79-4 4v72c0 2.21 1.79 4 4 4h4v1c0 1.65 1.35 3 3 3h3c1.65 0 3-1.35 3-3v-1h44v1c0 1.65 1.35 3 3 3h3c1.65 0 3-1.35 3-3v-1h4c2.21 0 4-1.79 4-4v-72c0-2.21-1.79-4-4-4zm-29-1c0-.55.45-1 1-1h19c.55 0 1 .45 1 1v1h-21zm-33 0c0-.55.45-1 1-1h19c.55 0 1 .45 1 1v1h-21zm-8 3h40 30c1.1 0 2 .9 2 2v11h-74v-11c0-1.1.9-2 2-2zm11 79c0 .55-.45 1-1 1h-3c-.55 0-1-.45-1-1v-1h5zm53 0c0 .55-.45 1-1 1h-3c-.55 0-1-.45-1-1v-1h5zm6-3c-13.12 0-51.68 0-65 0h-5c-1.1 0-2-.9-2-2v-59h74v59c0 1.1-.9 2-2 2z"/><path d="m73 39h-50c-2.76 0-5 2.24-5 5v31c0 2.76 2.24 5 5 5h50c2.76 0 5-2.24 5-5v-31c0-2.76-2.24-5-5-5zm3 36c0 1.65-1.35 3-3 3h-50c-1.65 0-3-1.35-3-3v-31c0-1.65 1.35-3 3-3h50c1.65 0 3 1.35 3 3z"/><path d="m48 19c3.96-.1 3.96-5.9 0-6-3.96.1-3.95 5.9 0 6zm0-4c1.31.02 1.31 1.98 0 2-1.31-.02-1.31-1.98 0-2z"/><path d="m60 19c3.96-.1 3.96-5.9 0-6-3.96.1-3.95 5.9 0 6zm0-4c1.31.02 1.31 1.98 0 2-1.31-.02-1.31-1.98 0-2z"/><path d="m72 19c3.96-.1 3.96-5.9 0-6-3.96.1-3.95 5.9 0 6zm0-4c1.31.02 1.31 1.98 0 2-1.31-.02-1.31-1.98 0-2z"/><path d="m36 19c3.96-.1 3.96-5.9 0-6-3.96.1-3.95 5.9 0 6zm0-4c1.31.02 1.31 1.98 0 2-1.31-.02-1.31-1.98 0-2z"/><path d="m24 19c3.96-.1 3.96-5.9 0-6-3.96.1-3.95 5.9 0 6zm0-4c1.31.02 1.31 1.98 0 2-1.31-.02-1.31-1.98 0-2z"/><path d="m26 35h44c.55 0 1-.45 1-1v-1c0-2.21-1.79-4-4-4h-38c-2.21 0-4 1.79-4 4v1c0 .55.45 1 1 1zm3-4h38c1.1 0 2 .9 2 2h-42c0-1.1.9-2 2-2z"/><path d="m48.4 50.65c-.48-.28-1.09-.11-1.37.37l-9.79 16.96c-.28.48-.11 1.09.37 1.37.47.27 1.09.12 1.37-.37l9.79-16.96c.28-.48.11-1.09-.37-1.37z"/><path d="m58.4 50.65c-.48-.28-1.09-.11-1.37.37l-9.79 16.96c-.28.48-.11 1.09.37 1.37.47.27 1.09.12 1.37-.37l9.79-16.96c.28-.48.11-1.09-.37-1.37z"/></svg>