<?xml version="1.0" encoding="UTF-8" standalone="no"?>
<svg
   viewBox="0 0 512 512"
   xmlns="http://www.w3.org/2000/svg"
   xmlns:svg="http://www.w3.org/2000/svg">
  <path
     id="path1"
     d="m 254.9227,2 c -5.81722,0 -10.53779,4.7205805 -10.53779,10.537803 v 42.155069 c 0,5.817222 4.72057,10.537803 10.53779,10.537803 5.81722,0 10.53779,-4.720581 10.53779,-10.537803 V 12.537803 C 265.46049,6.7205805 260.73992,2 254.9227,2 Z M 83.535306,73.003293 c -2.697842,0 -5.39537,1.026655 -7.450367,3.081646 -4.109994,4.109994 -4.109994,10.79074 0,14.900734 l 29.782171,29.803397 c 2.06554,2.04446 4.76411,3.07779 7.46195,3.07779 2.69784,0 5.39448,-1.03334 7.46001,-3.07779 4.11,-4.10999 4.11,-10.79074 0,-14.90073 L 90.985673,76.084939 c -2.054997,-2.054997 -4.752525,-3.081646 -7.450367,-3.081646 z m 342.774794,0 c -2.69785,0 -5.39537,1.026655 -7.45037,3.081646 l -29.8034,29.803401 c -4.10999,4.10999 -4.10999,10.79074 0,14.90073 2.06554,2.04446 4.76218,3.07779 7.46002,3.07779 2.69784,0 5.39625,-1.03334 7.44071,-3.07779 l 29.8034,-29.803397 c 4.11,-4.109994 4.11,-10.79074 0,-14.900734 -2.05499,-2.054997 -4.75252,-3.081646 -7.45036,-3.081646 z M 287.25973,86.308209 c -3.47769,-0.243037 -6.95506,1.274119 -9.15232,4.21435 L 151.64606,259.13898 c -2.40277,3.20369 -2.78144,7.48137 -0.9899,11.04337 1.79154,3.56199 5.43701,5.81789 9.42054,5.81789 h 72.29421 l -17.97853,135.62911 c -0.65338,4.84768 2.14951,9.52732 6.76535,11.25563 1.22246,0.44261 2.44403,0.65211 3.68757,0.65211 3.45661,0 6.80845,-1.70596 8.81075,-4.71991 L 358.57948,229.12515 c 2.10771,-3.26692 2.29682,-7.39927 0.46306,-10.81373 -1.83369,-3.41437 -5.39568,-5.54185 -9.27383,-5.54185 H 277.89708 L 296.95042,98.574975 c 0.80092,-4.805529 -1.79153,-9.505512 -6.25979,-11.423509 -1.11181,-0.484768 -2.27167,-0.762246 -3.4309,-0.843257 z m -18.21587,51.427021 -13.97451,83.84317 c -0.52692,3.03508 0.33829,6.17614 2.34065,8.53676 2.02339,2.38168 4.95219,3.72999 8.05049,3.72999 h 64.74931 l -88.88146,134.9769 13.50946,-101.97027 c 0.40046,-3.014 -0.52545,-6.06926 -2.52783,-8.32449 -2.00231,-2.2763 -4.86891,-3.60459 -7.92506,-3.60459 H 181.15422 Z M 12.537803,244.38491 C 6.7205805,244.38491 2,249.10548 2,254.9227 c 0,5.81722 4.7205805,10.53779 10.537803,10.53779 h 42.155069 c 5.817222,0 10.537803,-4.72057 10.537803,-10.53779 0,-5.81722 -4.720581,-10.53779 -10.537803,-10.53779 z m 442.614717,0 c -5.81723,0 -10.5378,4.72057 -10.5378,10.53779 0,5.81722 4.72057,10.53779 10.5378,10.53779 h 42.15509 c 5.81722,0 10.53779,-4.72057 10.53779,-10.53779 0,-5.81722 -4.72057,-10.53779 -10.53779,-10.53779 z M 113.31748,385.99397 c -2.69784,0 -5.39537,1.02855 -7.45037,3.08359 l -29.803396,29.80146 c -4.109993,4.10999 -4.109993,10.79267 0,14.90267 2.065536,2.04445 4.764103,3.07585 7.461945,3.07585 2.697842,0 5.39626,-1.0315 7.440718,-3.07585 l 29.801473,-29.8034 c 4.10999,-4.11 4.10999,-10.79074 0,-14.90073 -2.055,-2.055 -4.75253,-3.08359 -7.45037,-3.08359 z m 283.18922,0 c -2.69784,0 -5.39537,1.02855 -7.45037,3.08359 -4.10999,4.10999 -4.10999,10.79073 0,14.90073 l 29.8034,29.8034 c 2.06554,2.04445 4.76218,3.07585 7.46002,3.07585 2.69784,0 5.39625,-1.0315 7.44071,-3.07585 4.11,-4.11 4.11,-10.79268 0,-14.90267 l -29.8034,-29.80146 c -2.05499,-2.055 -4.75252,-3.08359 -7.45036,-3.08359 z m -141.584,58.62075 c -5.81722,0 -10.53779,4.72057 -10.53779,10.5378 v 42.15509 c 0,5.81722 4.72057,10.53779 10.53779,10.53779 5.81722,0 10.53779,-4.72057 10.53779,-10.53779 v -42.15509 c 0,-5.81723 -4.72057,-10.5378 -10.53779,-10.5378 z"
     style="stroke-width:21.0769" />
</svg>
