<?xml version="1.0" encoding="UTF-8" standalone="no"?>
<svg
   viewBox="0 0 512 512"
   xmlns="http://www.w3.org/2000/svg"
   xmlns:svg="http://www.w3.org/2000/svg">
  <path
     id="path1"
     d="M 113.22235,4 A 31.611721,31.611721 0 0 0 81.6106,35.611744 V 63.632848 H 58.676243 A 48.171284,48.171284 0 0 0 10.748196,111.91291 v 348.45084 a 48.171284,48.171284 0 0 0 47.928047,48.29767 H 453.99905 A 48.171284,48.171284 0 0 0 501.9271,460.36375 V 111.91291 A 48.171284,48.171284 0 0 0 453.99905,63.632848 H 432.54319 V 35.611744 a 31.613433,31.613433 0 0 0 -63.22348,0 V 63.632848 H 288.68864 V 35.611744 a 31.611744,31.611744 0 1 0 -63.22348,0 V 63.632848 H 144.83409 V 35.611744 A 31.611721,31.611721 0 0 0 113.22235,4 Z m -4.15389,18.88608 a 13.589811,13.589811 0 0 1 17.742,12.725664 V 63.632848 H 99.634222 V 35.611744 A 13.589811,13.589811 0 0 1 109.06846,22.88608 Z m 143.85456,0 a 13.589811,13.589811 0 0 1 17.742,12.725664 V 63.632848 H 243.48878 V 35.611744 a 13.589811,13.589811 0 0 1 9.43424,-12.725664 z m 143.85455,0 a 13.589811,13.589811 0 0 1 17.742,12.725664 V 63.632848 H 387.34333 V 35.611744 A 13.589811,13.589811 0 0 1 396.77757,22.88608 Z M 58.676243,81.65647 H 81.6106 v 17.425175 a 31.774835,31.774835 0 0 0 41.97884,29.869225 9.0118111,9.0118111 0 0 0 -5.914,-17.02036 A 13.669656,13.669656 0 0 1 99.634222,99.081645 V 81.65647 H 225.46516 v 17.425175 a 31.646236,31.646236 0 0 0 31.61174,31.611745 c 7.76061,0.38616 19.12692,-3.43822 15.92908,-13.20089 A 9.0092878,9.0092878 0 0 0 261.53,111.93051 13.667493,13.667493 0 0 1 243.48878,99.081645 V 81.65647 h 125.83093 v 17.425175 a 31.773393,31.773393 0 0 0 41.97884,29.869225 9.0118111,9.0118111 0 0 0 -5.914,-17.02036 13.66542,13.66542 0 0 1 -18.04122,-12.848865 V 81.65647 h 66.65572 a 30.124772,30.124772 0 0 1 29.90443,30.25644 v 45.37589 a 8.757678,8.757678 0 0 0 -4.4179,-1.3201 L 28.771818,156.44394 V 111.91291 A 30.124772,30.124772 0 0 1 58.676243,81.65647 Z M 483.90348,172.68984 V 460.36375 A 30.124772,30.124772 0 0 1 453.99905,490.6378 H 58.676243 A 30.124772,30.124772 0 0 1 28.771818,460.36375 V 174.46756 l 450.731362,-0.47519 a 8.7655183,8.7655183 0 0 0 4.4003,-1.30249 z M 90.622411,215.81276 a 9.009468,9.009468 0 0 0 -9.011811,9.01181 v 52.52196 a 9.009468,9.009468 0 0 0 9.011811,9.01181 h 58.154339 a 9.009468,9.009468 0 0 0 9.01182,-9.01181 v -52.52196 a 9.009468,9.009468 0 0 0 -9.01182,-9.01181 z m 127.872669,0 a 9.009468,9.009468 0 0 0 -9.01181,9.01181 v 52.52196 a 9.009468,9.009468 0 0 0 9.01181,9.01181 h 58.15434 a 9.009468,9.009468 0 0 0 9.01182,-9.01181 v -52.52196 a 9.009468,9.009468 0 0 0 -9.01182,-9.01181 z m 127.87267,0 a 9.009468,9.009468 0 0 0 -9.01181,9.01181 v 52.52196 a 9.009468,9.009468 0 0 0 9.01181,9.01181 h 58.13674 a 9.009468,9.009468 0 0 0 9.01181,-9.01181 v -52.52196 a 9.009468,9.009468 0 0 0 -9.01181,-9.01181 z M 99.634222,233.83638 h 40.130718 v 34.51594 H 99.634222 Z m 127.872668,0 h 40.13072 v 34.51594 h -40.13072 z m 127.87267,0 h 40.11312 v 34.51594 H 355.37956 Z M 90.622411,343.70303 a 9.0093779,9.0093779 0 0 0 -9.011811,9.01181 v 52.50436 a 9.0093779,9.0093779 0 0 0 9.011811,9.01181 h 58.154339 a 9.009468,9.009468 0 0 0 9.01182,-9.01181 v -52.50436 a 9.009468,9.009468 0 0 0 -9.01182,-9.01181 z m 127.872669,0 a 9.009468,9.009468 0 0 0 -9.01181,9.01181 v 52.50436 a 9.009468,9.009468 0 0 0 9.01181,9.01181 h 58.15434 a 9.009468,9.009468 0 0 0 9.01182,-9.01181 v -52.50436 a 9.009468,9.009468 0 0 0 -9.01182,-9.01181 z m 127.87267,0 a 9.0093779,9.0093779 0 0 0 -9.01181,9.01181 v 52.50436 a 9.0093779,9.0093779 0 0 0 9.01181,9.01181 h 58.13674 a 9.0093779,9.0093779 0 0 0 9.01181,-9.01181 v -52.50436 a 9.0093779,9.0093779 0 0 0 -9.01181,-9.01181 z M 99.634222,361.72665 h 40.130718 v 34.48074 H 99.634222 Z m 127.872668,0 h 40.13072 v 34.48074 h -40.13072 z m 127.87267,0 h 40.11312 v 34.48074 h -40.11312 z"
     style="stroke-width:9.01181" />
</svg>
