<svg clip-rule="evenodd" fill-rule="evenodd" height="173.397mm" image-rendering="optimizeQuality" shape-rendering="geometricPrecision" text-rendering="geometricPrecision" viewBox="0 0 173.397 173.397" width="173.397mm" xmlns="http://www.w3.org/2000/svg"><g id="Layer_x0020_1"><g id="_330419368"><path id="_330420856" d="m86.6987 12.8454c-40.7222 0-73.8532 33.1275-73.8532 73.8533.0002 40.7221 33.1309 73.8531 73.8531 73.8531 40.7224 0 73.8531-33.131 73.8531-73.8531.0001-40.7258-33.1309-73.8532-73.853-73.8533zm0 150.392c-20.4449 0-39.6664-7.962-54.1216-22.4172-14.4552-14.4588-22.4171-33.68-22.4171-54.1214.0001-20.4451 7.9618-39.6663 22.4171-54.1215 14.4556-14.4589 33.6764-22.4172 54.1215-22.4172s39.6627 7.9584 54.1215 22.4172c14.4554 14.4551 22.4171 33.6765 22.4171 54.1215.0001 20.4414-7.9619 39.6626-22.4171 54.1214-14.4585 14.4552-33.6764 22.4172-54.1214 22.4172z"/><path id="_330420832" d="m86.6987 88.0413c-13.6753 0-27.0958-3.6505-38.8132-10.5564-11.3709-6.7031-20.8751-16.2875-27.4838-27.7146-.3738-.64-.1538-1.4616.4896-1.8323.6401-.3707 1.4616-.1538 1.8322.4896 13.179 22.7772 37.6907 36.9283 63.9751 36.9283 26.2811-.0001 50.7961-14.151 63.9716-36.9283.3741-.6434 1.1958-.8603 1.8357-.4896.6438.3706.8602 1.1923.4895 1.8323-6.6083 11.4271-16.1126 21.0115-27.4872 27.7146-11.7138 6.9059-25.1341 10.5564-38.8095 10.5564z"/><path id="_330420784" d="m100.731 69.2747h13.4168c1.7274 0 3.1713-.6643 4.2937-1.9755 1.1263-1.3114 1.563-2.8394 1.3009-4.5458-3.0246-19.6023-16.9205-33.8302-33.0436-33.8302-16.1231-.0001-30.0224 14.2279-33.0436 33.8302-.2622 1.7063.1749 3.238 1.2973 4.5458 1.126 1.3112 2.5701 1.9755 4.2974 1.9755h13.4169l1.1608-3.8952c.1681-.5701.6923-.9616 1.2867-.9616l23.1691-.0001c.5944 0 1.1188.3916 1.2866.9617zm13.4168 2.6854h-14.4203c-.5908 0-1.1155-.3915-1.2869-.9581l-1.1571-3.8988h-21.1691l-1.1609 3.8988c-.1676.5665-.6923.9581-1.2868.9581h-14.4168c-2.5104 0-4.703-1.0069-6.3359-2.9127-1.6327-1.9057-2.2938-4.2204-1.9127-6.7031 3.2276-20.9205 18.2387-36.1066 35.6975-36.1066 17.4589-.0001 32.4701 15.1861 35.6975 36.1066.3815 2.4792-.2797 4.7974-1.9162 6.7031-1.6326 1.9058-3.8218 2.9127-6.3323 2.9127z"/><path id="_330420592" d="m97.5173 45.1302h-21.6372c-.7411 0-1.343-.5979-1.343-1.3427.0004-.7414.6015-1.3427 1.3428-1.3427h21.6374c.7415 0 1.3427.6013 1.3427 1.3427.0003.7447-.6014 1.3427-1.3427 1.3427z"/><path id="_330420208" d="m97.5173 55.7531h-21.6372c-.7411 0-1.343-.6014-1.343-1.3428.0004-.7413.6015-1.3427 1.3428-1.3427h21.6374c.7415 0 1.3427.6015 1.3427 1.3427.0003.7413-.6014 1.3428-1.3427 1.3428z"/><path id="_330420112" d="m86.6987 104.658c-10.8292 0-19.6375 8.8082-19.6375 19.6373.0002 10.8292 8.8082 19.6408 19.6374 19.6408 10.8293 0 19.6373-8.8115 19.6373-19.6408.0001-10.8291-8.8082-19.6373-19.6372-19.6373zm0 41.9635c-12.3084 0-22.3229-10.0144-22.3229-22.3262 0-12.3083 10.0145-22.3227 22.3228-22.3227 12.3084-.0001 22.3228 10.0144 22.3228 22.3227.0001 12.3118-10.0146 22.3262-22.3227 22.3262z"/><path id="_330420016" d="m86.6987 114.728c-5.2763 0-9.567 4.2905-9.567 9.5669.0001 5.2765 4.2904 9.5669 9.5669 9.5669s9.5668-4.2904 9.5668-9.5669c.0002-5.2764-4.2903-9.5669-9.5667-9.5669zm0 21.8192c-6.7555 0-12.2525-5.4968-12.2525-12.2523 0-6.7556 5.4968-12.2523 12.2524-12.2523 6.7559 0 12.2523 5.4967 12.2523 12.2523.0002 6.7555-5.4968 12.2523-12.2522 12.2523z"/><path id="_330419728" d="m36.1964 121.97c-.7274 0-1.3255-.5874-1.3395-1.3183-.1258-6.7345 1.4407-12.9795 4.6612-18.5567 3.2241-5.5807 7.8465-10.0599 13.7418-13.3189.6471-.3602 1.4652-.1224 1.8218.5245.3602.6505.1259 1.4687-.5245 1.8253-5.4616 3.0177-9.7382 7.1612-12.7104 12.3118-2.9755 5.1471-4.4233 10.9236-4.3044 17.1616.0108.7413-.5769 1.3567-1.3182 1.3672-.0105.0035-.0176.0035-.0278.0035z"/><path id="_330419608" d="m44.938 122.812s-.0001.0001-.0036.0001c-.7411-.0001-1.3393-.6015-1.3393-1.3427.0039-5.3535 1.3112-10.3258 3.8848-14.7806 2.5704-4.4547 6.2241-8.0737 10.8572-10.7557.6436-.3707 1.4616-.1503 1.8357.4895.3707.6435.1504 1.4651-.4895 1.8357-4.2202 2.4408-7.5458 5.7312-9.878 9.7733-2.332 4.0421-3.5212 8.5634-3.5247 13.4412 0 .7412-.6014 1.3393-1.3426 1.3392z"/><path id="_330419632" d="m53.6972 123.662c-.0141 0-.0281 0-.0422-.0035-.7409-.021-1.3252-.6435-1.3007-1.3847.1259-3.9688 1.1644-7.6648 3.084-10.9901 1.9198-3.3253 4.6016-6.0702 7.976-8.1682.6295-.3882 1.4581-.1958 1.8497.4336.3918.6294.1994 1.4581-.4336 1.8497-2.993 1.8603-5.3708 4.2905-7.0667 7.2276-1.696 2.9373-2.6121 6.2137-2.724 9.7348-.0242.7273-.6224 1.3008-1.3425 1.3008z"/><path id="_330419896" d="m137.198 121.97c-.0071 0-.0179 0-.0249-.0035-.741-.0105-1.3322-.6259-1.3182-1.3672.1189-6.238-1.3322-12.0145-4.3044-17.1616-2.9721-5.1506-7.2486-9.2941-12.7104-12.3118-.65-.3567-.8846-1.1748-.528-1.8253.3603-.6469 1.1748-.8846 1.8253-.5245 5.8954 3.2589 10.5179 7.7382 13.7383 13.3189 3.2208 5.5771 4.7905 11.8187 4.6646 18.5567-.0139.7309-.6119 1.3183-1.3423 1.3183z"/><path id="_330419848" d="m128.459 122.812c-.7411 0-1.3428-.598-1.3428-1.3392-.0069-4.8778-1.1923-9.3991-3.5247-13.4412-2.3356-4.0421-5.6575-7.3325-9.878-9.7733-.6433-.3706-.8602-1.1922-.4896-1.8357.3707-.6398 1.1924-.8602 1.8358-.4895 4.6334 2.682 8.2836 6.301 10.8571 10.7557 2.5702 4.4548 3.8778 9.4271 3.8849 14.7806 0 .7412-.6015 1.3427-1.3427 1.3426z"/><path id="_330419968" d="m119.7 123.662c-.7234 0-1.3182-.5735-1.3426-1.3008-.1116-3.5212-1.0315-6.7975-2.724-9.7348-1.6955-2.9371-4.0771-5.3673-7.0702-7.2276-.6294-.3917-.8218-1.2203-.4301-1.8497.392-.6294 1.2168-.8218 1.8462-.4336 3.3744 2.098 6.0597 4.843 7.9794 8.1682 1.9164 3.3253 2.9548 7.0213 3.0841 10.9901.0211.7412-.5595 1.3637-1.3007 1.3847-.0137.0035-.0281.0035-.0421.0035z"/><path id="_330419800" d="m150.646 48.466c-.3462 0-.6889-.1293-.9512-.3916-.5243-.5245-.5245-1.3742 0-1.8987l2.745-2.7449c1.8462-1.8463 2.8637-4.3113 2.8637-6.9444.0001-2.6331-1.0175-5.0982-2.8638-6.9443l-11.3185-11.3188c-1.8465-1.8462-4.3117-2.8602-6.9411-2.8602-2.6328-.0001-5.0982 1.014-6.9444 2.8603l-3.4616 3.4616c-.5243.5244-1.3743.5245-1.8988 0-.5243-.5246-.5245-1.3742 0-1.8986l3.4617-3.4617c2.3536-2.3533 5.4932-3.6471 8.8431-3.6471 3.3465 0 6.4862 1.2938 8.8396 3.6471l11.3189 11.3187c2.3532 2.3531 3.6503 5.4932 3.6503 8.843.0002 3.3498-1.2972 6.4899-3.6505 8.8431l-2.7448 2.7449c-.2623.2623-.6051.3916-.9476.3916z"/><path id="_330419416" d="m22.7516 48.466c-.3426 0-.6889-.1293-.9512-.3916l-2.7446-2.7449c-2.3536-2.3532-3.6473-5.4932-3.6473-8.8431s1.2937-6.4898 3.647-8.843l11.3189-11.3187c4.8779-4.8745 12.8082-4.8744 17.686 0l3.4619 3.4616c.5243.5245.5243 1.3742-.0002 1.8987-.5242.5244-1.3742.5245-1.8987 0l-3.4616-3.4617c-3.8288-3.8289-10.06-3.8288-13.8889.0001l-11.3151 11.3187c-1.8461 1.846-2.8638 4.3113-2.8638 6.9443.0001 2.633 1.0174 5.0982 2.8637 6.9444l2.7451 2.7448c.5208.5245.5208 1.3744-.0002 1.8988-.2622.2623-.6085.3916-.951.3916z"/></g></g><path d="m0 0h173.397v173.397h-173.397z" fill="none"/></svg>