<svg id="Vacuum_Cleaner" viewBox="0 0 96 96" xmlns="http://www.w3.org/2000/svg" data-name="Vacuum Cleaner"><path d="m36 80c0 3.86 3.14 7 7 7 9.27-.35 9.27-13.65 0-14-3.86 0-7 3.14-7 7zm12 0c0 2.76-2.24 5-5 5-6.62-.23-6.62-9.77 0-10 2.76 0 5 2.24 5 5z"/><path d="m78 85h-4v-2c0-1.1-.9-2-2-2v-66c0-7.17-5.83-13-13-13-12.68 0-23 10.32-23 23v12h-2.24c-2.83 0-5.53 1.2-7.4 3.28-4.74 5.24-12.54 15.96-13.28 29.74-.1.94-.08 15.61-.07 16.97 0 2.76 2.24 5 5 5h26c.44 0 .85-.08 1.24-.22 11.44-2.24 13.3-17.79 2.76-22.68v-11.83c0-8.15-.65-13.32-1.2-16.22-.44-2.32-2.45-4-4.8-4.05v-12.01c0-9.37 7.63-17 17-17 3.86 0 7 3.14 7 7v66c-1.1 0-2 .9-2 2v2h-4c-2.76 0-5 2.24-5 5 0 .55.45 1 1 1h26c.55 0 1-.45 1-1 0-2.76-2.24-5-5-5zm-50.16-43.38c1.33-1.48 3.18-2.39 5.16-2.58v23.96c0 3.31-2.69 6-6 6h-11.85c1.07-12.67 8.26-22.47 12.69-27.38zm-12.84 45.38v-8c2.76 0 5 2.24 5 5v6h-2c-1.65 0-3-1.35-3-3zm38-7c0 5.51-4.49 10-10 10-13.27-.55-13.26-19.45 0-20 5.51 0 10 4.49 10 10zm-8.16-38.56c.53 2.81 1.16 7.85 1.16 15.84v11.12c-13.19-3.19-20.71 14.06-9.62 21.61h-14.38v-6c0-3.86-3.14-7-7-7 0-.91-.03-5.17.04-6h11.96c4.41 0 8-3.59 8-8v-24h6 .89c1.44 0 2.68 1.02 2.95 2.44zm14.16-35.44c-10.48 0-19 8.52-19 19v12h-2v-12c0-11.58 9.42-21 21-21 6.07 0 11 4.93 11 11v65.97h-2v-65.97c0-4.96-4.04-9-9-9zm7 77h6v2h-6zm-8.83 6c.41-1.16 1.53-2 2.83-2h18c1.3 0 2.42.84 2.83 2z"/></svg>