<?xml version="1.0" encoding="UTF-8" standalone="no"?>
<svg
   viewBox="0 0 512 512"
   xmlns="http://www.w3.org/2000/svg"
   xmlns:svg="http://www.w3.org/2000/svg">
  <path
     id="path1"
     d="m 255.33961,55.667969 c -114.94959,0 -205.016905,41.522296 -205.016906,94.534381 v 97.79987 c 0,0 -0.01647,0.049 -0.01647,0.0828 0,20.63739 13.399475,40.03798 38.757119,56.10711 16.668667,10.49602 38.618977,19.4977 63.512197,26.025 31.08275,8.10634 66.60723,12.38578 102.73111,12.38578 36.12387,0 71.69743,-4.2875 102.79707,-12.40227 25.28164,-6.63708 46.64971,-15.40113 63.4957,-26.07448 25.35764,-15.99313 38.75712,-35.38647 38.75712,-56.05763 0,-0.0253 -0.0169,-0.049 -0.0169,-0.0828 v -97.78338 c 0,-53.012085 -90.05083,-94.534382 -205.00042,-94.534381 z m -0.0165,16.88821 c 101.96256,0 188.11221,35.552311 188.11221,77.646171 0,42.09386 -86.14965,77.66267 -188.11221,77.66267 -101.96255,0 -188.112207,-35.56881 -188.112207,-77.66267 0,-42.09386 86.149657,-77.646171 188.112207,-77.646171 z m 0,28.383401 c -49.46556,0 -86.76647,18.39509 -86.76647,42.76477 0,24.36968 37.30091,42.74828 86.76647,42.74828 49.46556,0 86.76647,-18.3786 86.76647,-42.74828 0,-24.36968 -37.30091,-42.76477 -86.76647,-42.76477 z m 0,16.88821 c 42.65962,0 69.87826,15.32987 69.87826,25.87656 0,10.54669 -27.22709,25.86007 -69.87826,25.86007 -42.65117,0 -69.87826,-15.31338 -69.87826,-25.86007 0,-10.54669 27.22709,-25.87656 69.87826,-25.87656 z M 67.210913,188.39873 c 31.251627,33.46399 102.809867,56.33801 188.112207,56.33801 v 0.0169 c 85.31078,0 156.86058,-22.89052 188.11221,-56.3545 v 59.68596 0.0498 c -0.0338,18.3828 -16.78899,32.82605 -30.87375,41.70925 -15.16561,9.60939 -35.49084,17.91628 -58.74591,24.01292 -59.41271,15.49493 -137.53901,15.50338 -196.96861,0 C 133.61733,307.76044 113.2925,299.47769 98.084666,289.89364 84.008345,280.97666 67.244689,266.50083 67.210913,248.13491 v -0.0659 z m 93.957147,80.36742 c -3.92149,-0.13038 -7.53306,2.49734 -8.49358,6.46502 -1.08929,4.53448 1.69964,9.08651 6.23412,10.1758 29.39393,7.07616 62.7149,10.81901 96.38154,10.81901 33.66664,0 67.04513,-3.74285 96.4475,-10.81901 4.53448,-1.08929 7.32341,-5.64132 6.23412,-10.1758 -1.08929,-4.54293 -5.65781,-7.31497 -10.19229,-6.23412 -56.18707,13.53589 -128.65807,13.55278 -184.91269,0 -0.56576,-0.13511 -1.1385,-0.21229 -1.69872,-0.23087 z M 10.444104,309.50236 C 5.7745145,309.50236 2,313.28532 2,317.94646 c 0,50.39441 40.989924,91.38433 91.38434,91.38433 4.66959,0 8.4441,-3.78296 8.4441,-8.4441 0,-4.66115 -3.77451,-8.44411 -8.4441,-8.44411 -41.080569,0 -74.496132,-33.41555 -74.496132,-74.49612 0,-4.66114 -3.774514,-8.4441 -8.444104,-8.4441 z m 35.804981,0 c -4.66959,0 -8.444105,3.78296 -8.444105,8.4441 0,30.64365 24.935703,55.57936 55.57936,55.57936 4.66959,0 8.4441,-3.78296 8.4441,-8.44411 0,-4.66114 -3.77451,-8.4441 -8.4441,-8.4441 -21.329807,0 -38.691151,-17.3529 -38.691151,-38.69115 0,-4.66114 -3.774515,-8.4441 -8.444104,-8.4441 z m 418.148075,0 c -4.66959,0 -8.4441,3.78296 -8.4441,8.4441 0,21.32981 -17.36135,38.69115 -38.69116,38.69115 -4.66959,0 -8.4441,3.78296 -8.4441,8.4441 0,4.66115 3.77451,8.44411 8.4441,8.44411 30.64366,0 55.57937,-24.93571 55.57937,-55.57936 0,-4.66114 -3.77452,-8.4441 -8.44411,-8.4441 z m 35.80498,0 c -4.66959,0 -8.4441,3.78296 -8.4441,8.4441 0,41.08057 -33.41557,74.49612 -74.49614,74.49612 -4.66959,0 -8.4441,3.78296 -8.4441,8.44411 0,4.66114 3.77451,8.4441 8.4441,8.4441 50.39442,0 91.38434,-40.98992 91.38434,-91.38433 0,-4.66114 -3.77451,-8.4441 -8.4441,-8.4441 z M 221.992,366.30215 c -2.15958,0 -4.31942,0.82304 -5.97025,2.47386 -3.30164,3.30164 -3.30164,8.63884 0,11.94048 10.83379,10.83379 25.07306,16.26151 39.30137,16.26151 14.22832,0 28.46758,-5.42772 39.30137,-16.26151 3.30164,-3.30164 3.30164,-8.63884 0,-11.94048 -3.30164,-3.30165 -8.63885,-3.30165 -11.9405,0 -15.08961,15.08117 -39.63213,15.08117 -54.72174,0 -1.65082,-1.65082 -3.81067,-2.47386 -5.97025,-2.47386 z m -25.31582,25.33231 c -2.15958,0 -4.31943,0.82305 -5.97025,2.47386 -3.30164,3.2932 -3.30164,8.63884 0,11.94049 17.25975,17.25974 40.20529,26.76715 64.61719,26.76715 24.41191,0 47.35744,-9.50741 64.61719,-26.76715 3.30165,-3.30165 3.30165,-8.64729 0,-11.94049 -3.30164,-3.30165 -8.63885,-3.30165 -11.94049,0 -14.06788,14.07632 -32.77395,21.81943 -52.6767,21.81943 -19.90275,0 -38.60881,-7.75155 -52.67669,-21.81943 -1.65082,-1.65082 -3.81067,-2.47386 -5.97025,-2.47386 z"
     style="stroke-width:8.4441" />
</svg>
