<svg id="Layer_1" viewBox="0 0 64 64" xmlns="http://www.w3.org/2000/svg"><path d="m32 25.156c5.858 0 10.275-2.177 10.275-5.063s-4.417-5.063-10.275-5.063-10.276 2.177-10.276 5.063 4.418 5.063 10.276 5.063zm0-8.126c5.052 0 8.275 1.814 8.275 3.063s-3.224 3.063-8.275 3.063-8.276-1.814-8.276-3.063 3.225-3.063 8.276-3.063z"/><path d="m12.311 39.099c1.974 1.243 4.573 2.309 7.521 3.082 3.681.96 7.888 1.467 12.166 1.467s8.491-.507 12.174-1.468c2.994-.786 5.524-1.825 7.519-3.089 3.003-1.894 4.59-4.189 4.59-6.637 0-.003-.002-.006-.002-.01v-11.581c0-6.278-10.664-11.196-24.277-11.196s-24.279 4.919-24.279 11.197v11.581s-.002.006-.002.01c0 2.444 1.587 4.741 4.59 6.644zm19.689-27.431c12.075 0 22.277 4.211 22.277 9.196s-10.202 9.196-22.277 9.196-22.277-4.211-22.277-9.196 10.202-9.196 22.277-9.196zm0 20.392c10.103 0 18.576-2.71 22.277-6.673v7.068s.001.004.001.006c-.004 2.177-1.989 3.888-3.657 4.94-1.796 1.138-4.202 2.122-6.956 2.844-7.036 1.835-16.29 1.836-23.328 0-2.751-.722-5.157-1.703-6.958-2.838-1.667-1.056-3.653-2.772-3.657-4.947 0-.002.001-.004.001-.006v-7.068c3.701 3.963 12.175 6.673 22.277 6.673z"/><path d="m20.582 36.875c3.481.838 7.428 1.281 11.415 1.281s7.939-.443 11.421-1.281c.537-.129.867-.669.738-1.206-.129-.538-.67-.866-1.207-.738-6.654 1.603-15.236 1.605-21.898 0-.536-.128-1.077.201-1.207.738-.129.537.201 1.077.738 1.206z"/><path d="m55.759 40.728c0 2.526-2.056 4.582-4.582 4.582-.553 0-1 .448-1 1s.447 1 1 1c3.629 0 6.582-2.953 6.582-6.582 0-.552-.447-1-1-1s-1 .448-1 1z"/><path d="m61 39.728c-.553 0-1 .448-1 1 0 4.865-3.958 8.823-8.823 8.823-.553 0-1 .448-1 1s.447 1 1 1c5.968 0 10.823-4.855 10.823-10.823 0-.552-.447-1-1-1z"/><path d="m36.654 48.163c.391-.391.391-1.023 0-1.414s-1.023-.391-1.414 0c-1.787 1.786-4.693 1.786-6.48 0-.391-.391-1.023-.391-1.414 0s-.391 1.023 0 1.414c1.283 1.283 2.969 1.925 4.654 1.925s3.371-.642 4.654-1.925z"/><path d="m24.347 49.748c-.391.39-.391 1.023 0 1.414 2.044 2.044 4.762 3.17 7.653 3.17s5.609-1.126 7.653-3.17c.391-.391.391-1.024 0-1.414-.391-.391-1.023-.391-1.414 0-1.666 1.667-3.882 2.584-6.239 2.584s-4.573-.918-6.239-2.584c-.391-.391-1.023-.391-1.414 0z"/><path d="m12.823 47.31c.553 0 1-.448 1-1s-.447-1-1-1c-2.526 0-4.582-2.055-4.582-4.582 0-.552-.447-1-1-1s-1 .448-1 1c0 3.629 2.953 6.582 6.582 6.582z"/><path d="m12.823 51.551c.553 0 1-.448 1-1s-.447-1-1-1c-4.865 0-8.823-3.958-8.823-8.823 0-.552-.447-1-1-1s-1 .448-1 1c0 5.968 4.855 10.823 10.823 10.823z"/></svg>