<svg id="Layer_1" enable-background="new 0 0 66 66" viewBox="0 0 66 66" xmlns="http://www.w3.org/2000/svg"><g><g><path d="m49.9 5.9c-.1-1.5-1.2-2.8-2.6-3.3-6.3-2.1-12.5-2.1-18.8 0-1.4.5-2.4 1.8-2.6 3.3l-2.2 23.6c-.1.8.2 1.6.7 2.2s1.3.9 2.1.9h1c-.1.4-.2.7-.2 1.1 0 1.5 1.1 2.8 2.5 3.1v3.6h-9.6c-.3-1.5-1.6-2.5-3.2-2.5-1.8 0-3.3 1.5-3.3 3.3v14.4c0 1.8 1.5 3.3 3.3 3.3 1.6 0 2.8-1.1 3.2-2.5h9.6v2.2c-1.5.3-2.5 1.6-2.5 3.2 0 1.8 1.5 3.3 3.3 3.3h14.4c1.8 0 3.3-1.5 3.3-3.3 0-1.6-1.1-2.8-2.5-3.2v-21.8c1.4-.3 2.5-1.5 2.5-3.1 0-.4-.1-.8-.2-1.1h1c.8 0 1.6-.3 2.1-.9s.8-1.4.7-2.2zm-6 31v21.6h-11.9c0-11.8 0-9.6 0-21.6zm-26.7 20c-.7 0-1.3-.6-1.3-1.3v-14.5c0-.7.6-1.3 1.3-1.3s1.3.6 1.3 1.3v14.4c-.1.8-.6 1.4-1.3 1.4zm3.2-2.6v-11.9h9.5v11.9zm26 7.4c0 .7-.6 1.3-1.3 1.3h-14.4c-.7 0-1.3-.6-1.3-1.3s.6-1.3 1.3-1.3h14.4c.8 0 1.3.6 1.3 1.3zm0-28c0 .6-.5 1.1-1.1 1.1h-14.8c-.6 0-1.1-.5-1.1-1.1s.5-1.1 1.1-1.1h14.8c.6 0 1.1.5 1.1 1.1zm3.5-3.4c-.2.2-.4.3-.7.3-6.7 0-15.9 0-22.6 0-.3 0-.5-.1-.7-.3s-.3-.4-.2-.7l2.2-23.6c.1-.7.6-1.3 1.2-1.5 5.9-2 11.6-2 17.5 0 .7.2 1.2.8 1.2 1.5l2.2 23.6c.1.3.1.5-.1.7z"/></g><g><path d="m31.3 8.8c-.6 0-1 .4-1.1.9l-.5 8.8c0 .6.4 1 .9 1.1.6 0 1-.4 1.1-.9l.5-8.8c.1-.6-.3-1-.9-1.1z"/></g><g><path d="m35.7 8.8c-.6 0-1 .4-1 1l-.2 8.8c0 .6.4 1 1 1 .5 0 1-.4 1-1l.2-8.8c0-.5-.4-1-1-1z"/></g><g><path d="m41.3 18.6-.2-8.8c0-.6-.5-1-1-1-.6 0-1 .5-1 1l.2 8.8c0 1.4 2 1.4 2 0z"/></g><g><path d="m45.1 19.7c.6 0 1-.5.9-1.1l-.5-8.8c0-.6-.5-1-1.1-.9-.6 0-1 .5-.9 1.1l.5 8.8c.1.5.6.9 1.1.9z"/></g><g><path d="m43.8 22.8c-1.6 0-3 1.3-3 3 0 1.6 1.3 3 3 3 1.6 0 3-1.3 3-3s-1.3-3-3-3zm0 3.9c-.5 0-1-.4-1-1 0-.5.4-1 1-1 .5 0 1 .4 1 1s-.4 1-1 1z"/></g><g><path d="m30.6 25.5h-.5c-.6 0-1 .4-1 1s.4 1 1 1h.5c.6 0 1-.4 1-1s-.5-1-1-1z"/></g><g><path d="m35.3 25.5h-.5c-.6 0-1 .4-1 1s.4 1 1 1h.5c.6 0 1-.4 1-1s-.4-1-1-1z"/></g></g></svg>